<svg width="218" height="291" viewBox="0 0 218 291" fill="none" xmlns="http://www.w3.org/2000/svg">
<path opacity="0.5" d="M-128.853 133.858C-118.591 116.28 -104.967 100.895 -88.7587 88.5813C-72.5505 76.268 -54.0758 67.2678 -34.3893 62.0944C-14.7028 56.9211 5.80992 55.6759 25.9776 58.4301C46.1453 61.1842 65.5731 67.8837 83.1516 78.1461C100.73 88.4084 116.115 102.033 128.429 118.241C140.742 134.449 149.742 152.924 154.915 172.61C160.089 192.297 161.334 212.809 158.58 232.977C155.826 253.145 149.126 272.573 138.864 290.151L90.6031 261.977C97.1655 250.736 101.45 238.312 103.211 225.416C104.972 212.519 104.176 199.402 100.868 186.813C97.5594 174.224 91.804 162.411 83.9302 152.046C76.0563 141.681 66.218 132.969 54.9771 126.407C43.7362 119.844 31.3129 115.56 18.4163 113.799C5.51976 112.038 -7.59739 112.834 -20.1862 116.142C-32.775 119.45 -44.589 125.206 -54.9536 133.08C-65.3182 140.954 -74.0304 150.792 -80.5928 162.033L-128.853 133.858Z" fill="#DDE9FF"/>
</svg>
