<svg width="147" height="318" viewBox="0 0 147 318" fill="none" xmlns="http://www.w3.org/2000/svg">
<path opacity="0.5" d="M169.522 310.478C149.187 311.383 128.873 308.274 109.74 301.328C90.607 294.383 73.0293 283.736 58.0106 269.997C42.9919 256.258 30.8264 239.696 22.2086 221.255C13.5909 202.814 8.68963 182.857 7.78477 162.522C6.87991 142.187 9.98913 121.873 16.9349 102.74C23.8807 83.6072 34.5271 66.0294 48.2661 51.0108C62.0051 35.9921 78.5677 23.8266 97.0083 15.2088C115.449 6.59103 135.406 1.6898 155.741 0.784943L158.225 56.6126C145.222 57.1912 132.46 60.3254 120.668 65.8361C108.876 71.3469 98.2844 79.1263 89.4988 88.7302C80.7132 98.3342 73.9052 109.575 69.4636 121.809C65.022 134.044 63.0338 147.035 63.6124 160.038C64.191 173.041 67.3252 185.803 72.8359 197.595C78.3467 209.388 86.1261 219.979 95.7301 228.764C105.334 237.55 116.574 244.358 128.809 248.8C141.044 253.241 154.034 255.229 167.038 254.651L169.522 310.478Z" fill="#DDE9FF"/>
</svg>
