<svg width="752" height="820" viewBox="0 0 752 820" fill="none" xmlns="http://www.w3.org/2000/svg">
<circle cx="376" cy="419.003" r="376" fill="#F1F7FF" fill-opacity="0.5"/>
<g filter="url(#filter0_d)">
<rect x="121" y="242.003" width="540" height="443" rx="24" fill="white"/>
</g>
<rect opacity="0.5" x="495.5" y="293.503" width="138" height="131" rx="7.5" fill="#F8FBFC" stroke="#C4C4C4" stroke-dasharray="5 5"/>
<path opacity="0.8" d="M161.024 320.003H159.404V307.403H161.024V320.003ZM164.9 320.003H163.334V307.403H164.756L172.55 317.195V307.403H174.116V320.003H172.694L164.9 310.211V320.003ZM182.074 320.003H180.76L175.324 307.403H177.034L181.426 317.663L181.84 316.655L185.8 307.403H187.51L182.074 320.003ZM188.521 316.025V314.621H193.309V316.025H188.521ZM198.144 309.401L195.606 310.733L194.922 309.347L198.63 307.403H199.71V320.003H198.144V309.401ZM209.101 311.021C209.101 310.385 208.843 309.845 208.327 309.401C207.799 308.945 207.175 308.717 206.455 308.717C205.807 308.717 205.231 308.909 204.727 309.293C204.223 309.665 203.845 310.175 203.593 310.823L202.135 310.121C202.507 309.221 203.077 308.513 203.845 307.997C204.613 307.469 205.483 307.205 206.455 307.205C207.655 307.205 208.663 307.571 209.479 308.303C210.307 309.035 210.721 309.923 210.721 310.967C210.721 311.639 210.511 312.305 210.091 312.965C209.683 313.613 209.017 314.381 208.093 315.269L204.727 318.491H210.901V320.003H202.279V318.833L207.049 314.225C207.793 313.493 208.321 312.899 208.633 312.443C208.945 311.975 209.101 311.501 209.101 311.021ZM219.132 310.751C219.132 310.163 218.874 309.683 218.358 309.311C217.83 308.915 217.182 308.717 216.414 308.717C215.778 308.717 215.22 308.849 214.74 309.113C214.272 309.365 213.93 309.713 213.714 310.157L212.292 309.473C212.64 308.777 213.18 308.225 213.912 307.817C214.656 307.409 215.49 307.205 216.414 307.205C217.638 307.205 218.67 307.541 219.51 308.213C220.338 308.873 220.752 309.701 220.752 310.697C220.752 311.285 220.59 311.825 220.266 312.317C219.942 312.809 219.498 313.199 218.934 313.487C219.594 313.787 220.11 314.207 220.482 314.747C220.866 315.287 221.058 315.887 221.058 316.547C221.058 317.591 220.62 318.461 219.744 319.157C218.868 319.853 217.782 320.201 216.486 320.201C215.454 320.201 214.548 319.979 213.768 319.535C212.988 319.079 212.436 318.467 212.112 317.699L213.642 317.141C213.834 317.609 214.182 317.987 214.686 318.275C215.202 318.551 215.802 318.689 216.486 318.689C217.326 318.689 218.028 318.479 218.592 318.059C219.156 317.639 219.438 317.111 219.438 316.475C219.438 315.851 219.162 315.335 218.61 314.927C218.046 314.507 217.362 314.297 216.558 314.297H215.604V312.839H216.288C217.092 312.839 217.764 312.641 218.304 312.245C218.856 311.849 219.132 311.351 219.132 310.751Z" fill="#23242A"/>
<path d="M167.352 379.644H170.674V375.478C173.083 375.214 174.999 374.37 176.44 372.964C177.864 371.558 178.584 369.747 178.584 367.55C178.584 366.636 178.409 365.757 178.092 364.948C177.758 364.14 177.354 363.472 176.897 362.98C176.44 362.487 175.842 362.048 175.104 361.644C174.928 361.556 174.752 361.468 174.612 361.398C174.471 361.327 174.313 361.257 174.172 361.187C174.032 361.116 173.909 361.064 173.803 361.011C173.698 360.976 173.557 360.923 173.399 360.87C173.241 360.817 173.118 360.782 173.047 360.747C172.977 360.712 172.836 360.677 172.661 360.624C172.485 360.571 172.344 360.536 172.274 360.501C172.204 360.483 172.045 360.448 171.834 360.378C171.606 360.308 171.448 360.273 171.36 360.237C169.145 359.605 167.774 359.165 167.211 358.919C165.665 358.286 164.909 357.478 164.909 356.528C164.909 355.79 165.278 355.175 166.016 354.648C166.754 354.138 167.651 353.874 168.723 353.874C169.708 353.874 170.569 354.12 171.342 354.595C172.098 355.069 172.59 355.649 172.801 356.317L177.618 354.911C177.178 353.54 176.317 352.345 175.051 351.343C173.786 350.341 172.256 349.69 170.499 349.409V345.155H167.176V349.374C165.049 349.62 163.327 350.446 162.026 351.817C160.725 353.189 160.092 354.876 160.092 356.898C160.092 359.464 161.305 361.398 163.731 362.698C164.715 363.226 166.754 363.946 169.813 364.843C170.727 365.159 171.395 365.405 171.817 365.599C172.274 365.81 172.625 366.003 172.872 366.214C173.469 366.776 173.768 367.357 173.768 367.989C173.768 368.851 173.329 369.554 172.467 370.099C171.588 370.644 170.516 370.907 169.233 370.907C167.932 370.907 166.825 370.626 165.893 370.064C164.961 369.501 164.399 368.815 164.188 367.989L159.372 369.431C159.829 370.978 160.76 372.296 162.202 373.386C163.625 374.476 165.348 375.161 167.352 375.442V379.644ZM186.401 355.526V375.003H191.077V349.796H187.719L180.09 353.575L182.042 357.689L186.401 355.526ZM200.563 373.702C200.563 372.612 200.264 371.698 199.684 370.995C199.104 370.292 198.366 369.923 197.452 369.923C196.643 369.923 195.975 370.187 195.448 370.714C194.92 371.241 194.657 371.892 194.657 372.665C194.657 373.368 194.868 374.001 195.307 374.528C195.747 375.056 196.292 375.39 196.959 375.513C196.959 376.181 196.274 377.2 194.903 378.607L196.344 380.083C199.157 378.22 200.563 376.093 200.563 373.702ZM204.477 375.003H209.54L218.575 354.296V349.796H201.014V354.085H213.618L204.477 375.003ZM228.87 375.548C231.559 375.548 233.809 374.827 235.602 373.386C237.413 371.927 238.327 370.134 238.327 367.989C238.327 365.423 237.096 363.384 234.653 361.907C236.727 360.501 237.782 358.673 237.782 356.423C237.782 354.419 236.92 352.732 235.233 351.343C233.563 349.972 231.436 349.269 228.87 349.269C226.268 349.269 224.124 349.954 222.454 351.308C220.749 352.696 219.905 354.384 219.905 356.388C219.905 358.673 220.942 360.501 223.034 361.907C221.874 362.575 220.977 363.454 220.327 364.509C219.676 365.581 219.36 366.724 219.36 367.954C219.36 370.099 220.256 371.909 222.049 373.386C223.877 374.827 226.145 375.548 228.87 375.548ZM224.176 367.55C224.176 366.565 224.616 365.739 225.512 365.071C226.391 364.421 227.516 364.087 228.87 364.087C230.17 364.087 231.278 364.421 232.157 365.089C233.036 365.757 233.475 366.601 233.475 367.585C233.475 368.587 233.036 369.413 232.157 370.081C231.278 370.749 230.17 371.083 228.87 371.083C227.516 371.083 226.391 370.749 225.512 370.081C224.616 369.413 224.176 368.569 224.176 367.55ZM224.721 356.757C224.721 355.913 225.108 355.21 225.917 354.612C226.708 354.032 227.692 353.733 228.87 353.733C230.012 353.733 230.979 354.032 231.752 354.612C232.526 355.21 232.93 355.913 232.93 356.757C232.93 357.636 232.543 358.357 231.77 358.937C230.997 359.534 230.03 359.815 228.87 359.815C227.692 359.815 226.708 359.534 225.917 358.937C225.108 358.357 224.721 357.636 224.721 356.757ZM252.471 375.003H257.112V370.187H260.329V365.722H257.112V349.796H252.682L239.411 365.722V370.187H252.471V375.003ZM252.471 356.757V365.722H244.983L252.471 356.757ZM261.079 372.7C261.079 373.509 261.342 374.194 261.87 374.739C262.397 375.284 263.065 375.548 263.874 375.548C264.682 375.548 265.35 375.284 265.877 374.739C266.405 374.194 266.686 373.509 266.686 372.7C266.686 371.909 266.405 371.241 265.877 370.696C265.35 370.169 264.682 369.888 263.874 369.888C263.065 369.888 262.397 370.169 261.87 370.696C261.342 371.241 261.079 371.909 261.079 372.7ZM267.946 366.478C267.946 369.044 268.86 371.206 270.723 372.946C272.586 374.687 274.924 375.548 277.702 375.548C280.479 375.548 282.799 374.687 284.645 372.946C286.508 371.224 287.458 369.062 287.458 366.478V358.339C287.458 355.755 286.508 353.593 284.645 351.853C282.817 350.13 280.497 349.269 277.702 349.269C274.907 349.269 272.586 350.13 270.723 351.853C268.86 353.61 267.946 355.773 267.946 358.339V366.478ZM272.622 358.269C272.622 356.985 273.096 355.913 274.063 355.052C275.012 354.173 276.225 353.733 277.702 353.733C279.178 353.733 280.391 354.173 281.34 355.052C282.325 355.931 282.817 357.003 282.817 358.269V366.548C282.817 367.796 282.325 368.868 281.34 369.782C280.356 370.661 279.143 371.083 277.702 371.083C276.243 371.083 275.03 370.661 274.063 369.782C273.096 368.903 272.622 367.814 272.622 366.548V358.269ZM289.051 366.478C289.051 369.044 289.965 371.206 291.829 372.946C293.692 374.687 296.03 375.548 298.807 375.548C301.584 375.548 303.905 374.687 305.75 372.946C307.614 371.224 308.563 369.062 308.563 366.478V358.339C308.563 355.755 307.614 353.593 305.75 351.853C303.922 350.13 301.602 349.269 298.807 349.269C296.012 349.269 293.692 350.13 291.829 351.853C289.965 353.61 289.051 355.773 289.051 358.339V366.478ZM293.727 358.269C293.727 356.985 294.202 355.913 295.168 355.052C296.118 354.173 297.331 353.733 298.807 353.733C300.284 353.733 301.497 354.173 302.446 355.052C303.43 355.931 303.922 357.003 303.922 358.269V366.548C303.922 367.796 303.43 368.868 302.446 369.782C301.461 370.661 300.249 371.083 298.807 371.083C297.348 371.083 296.135 370.661 295.168 369.782C294.202 368.903 293.727 367.814 293.727 366.548V358.269Z" fill="#23242A"/>
<rect x="577" y="443.003" width="57" height="8" rx="4" fill="#E1E7EF"/>
<rect opacity="0.6" x="158" y="484.003" width="57" height="8" rx="4" fill="#E1E7EF"/>
<rect opacity="0.6" x="158" y="509.003" width="435" height="8" rx="4" fill="#E1E7EF"/>
<rect opacity="0.6" x="158" y="528.003" width="435" height="8" rx="4" fill="#E1E7EF"/>
<rect opacity="0.6" x="158" y="547.003" width="254" height="8" rx="4" fill="#E1E7EF"/>
<rect x="523" y="459.003" width="111" height="8" rx="4" fill="#E1E7EF"/>
<path d="M390.372 9.26359L390.394 6.35547L392.82 4.72245C393.09 4.54349 393.045 4.11846 392.73 4.00661L389.967 3.08944L389.159 0.29317C389.069 -0.020012 388.642 -0.109493 388.44 0.158949L386.71 2.50781L383.79 2.41833C383.454 2.41833 383.251 2.77625 383.454 3.04469L385.138 5.41593L384.15 8.14508C384.038 8.45826 384.33 8.77145 384.644 8.6596L387.429 7.78716L389.743 9.57677C389.99 9.7781 390.372 9.59914 390.372 9.26359Z" fill="#F47458"/>
<path d="M324.469 224.241C324.469 224.241 323.773 231.713 324.244 234.151C324.312 234.486 324.446 234.889 324.604 235.337C325.075 236.701 323.795 240.884 323.795 240.884L306.679 240.951C305.736 240.951 306.365 240.37 307.128 239.833C308.364 238.938 309.375 238.356 313.328 236.522C313.575 236.41 314.518 235.829 314.855 235.627C315.709 235.113 316.585 234.308 317.326 233.502C318.561 232.16 318.764 225.561 318.764 225.561L324.469 224.241Z" fill="#F7A491"/>
<path d="M314.855 235.627C319.37 236.835 322.717 236.097 324.604 235.358C325.075 236.723 325.951 241.331 325.412 241.331C321.122 241.331 317.483 242.137 305.197 241.958C304.747 241.958 304.815 240.436 305.107 240.101C305.871 239.206 314.496 235.828 314.855 235.627Z" fill="#355389"/>
<path d="M345.942 135.454C345.942 135.454 345.695 146.124 342.618 152.97C339.631 159.636 325.3 176.056 321.504 185.652C322.672 191.066 325.906 198.649 325.682 204.645C325.412 211.445 325.817 229.408 325.817 229.408L318.135 229.654L308.049 183.281L323.233 133.239L330.129 121.092L345.942 135.454Z" fill="#3C8F7C"/>
<path d="M378.781 213.615C378.781 213.615 383.498 220.08 385.587 221.691C386.71 222.563 389.72 223.749 390.057 225.181C390.372 226.635 376.356 239.408 376.356 239.408C375.614 240.057 375.704 239.162 375.929 238.2C376.288 236.634 376.693 235.471 378.534 231.22C378.647 230.952 379.006 229.834 379.118 229.431C379.455 228.424 379.568 227.171 379.59 226.008C379.635 224.062 375.143 218.671 375.143 218.671L378.781 213.615Z" fill="#F7A491"/>
<path d="M379.118 229.43C383.566 227.238 385.722 224.308 386.71 222.406C388.036 223.167 391.63 224.8 391.315 225.247C388.844 228.826 386.261 233.278 376.311 241.734C375.951 242.047 374.491 240.302 374.491 239.833C374.469 238.557 378.984 229.833 379.118 229.43Z" fill="#355389"/>
<path d="M322.245 59.082C323.57 50.4695 331.387 44.273 339.563 48.4562C341.405 49.3958 343.898 51.2972 345.156 52.9303C348.66 57.4043 349.491 62.9297 353.197 67.2248C356.387 70.9382 364.922 70.2224 368.898 73.0857C372.874 75.9267 375.659 81.0495 375.659 87.1565C375.659 93.9794 374.109 101.25 368.786 105.567C363.462 109.885 355.915 110.958 349.311 109.124C342.708 107.29 337.025 102.816 332.959 97.3126C328.871 91.8319 325.996 85.792 323.952 79.2823C321.706 71.9896 321.369 64.6522 322.245 59.082Z" fill="#184655"/>
<path d="M352.164 70.7591C352.164 70.7591 362.204 52.9077 364.653 49.1048C367.101 45.3019 373.458 30.2244 373.682 29.6428C373.907 29.0388 369.302 21.9027 370.336 21.679C371.369 21.433 372.514 25.4372 373.593 24.9674C374.693 24.4977 377.905 14.8338 378.534 15.3259C379.702 16.2207 376.805 21.2987 377.434 21.6343C378.063 21.9475 379.949 16.0418 381.185 16.2207C382.42 16.3997 378.849 21.6343 379.186 22.1041C379.523 22.5738 383.229 17.63 383.88 18.6814C384.24 19.2631 380.488 22.9989 381.207 23.3568C381.926 23.7147 385.273 21.2987 385.632 21.9922C385.992 22.6857 382.532 23.6476 381.522 25.5267C380.488 27.4058 378.736 28.2111 378.018 31.7008C377.299 35.1906 376.198 47.785 372.47 54.071C368.741 60.357 360.52 74.2712 360.52 74.2712L352.164 70.7591Z" fill="#F79C8D"/>
<path d="M292.101 141.09C293.202 140.128 295.583 138.048 295.358 137.847C295.089 137.556 294.056 137.757 293.719 137.891C293.382 138.026 293 138.138 292.663 138.249C292.326 138.384 291.967 138.227 291.787 137.847C291.607 137.444 292.798 136.683 293.269 136.482C294.729 135.901 298.93 135.118 299.379 135.028C299.896 134.916 305.893 127.646 308.139 125.319C311.711 121.405 315.192 117.199 315.552 116.774L325.322 96.3054L334.24 96.9541C334.24 96.9541 323.705 119.816 323.054 120.89C322.739 121.405 313.755 129.861 313.755 129.838C309.06 133.708 304.927 137.131 304.163 137.802C304.163 137.802 302.389 140.442 301.356 142.209C300.704 143.327 299.783 144.222 299.109 144.849C297.268 143.193 294.909 142.679 292.708 141.515C292.528 141.381 292.326 141.247 292.101 141.09Z" fill="#F48C7F"/>
<path d="M329.635 80.4678C329.635 80.4678 322.739 83.7562 319.325 104.18L331.028 107.424L335.902 94.2478L329.635 80.4678Z" fill="#F47458"/>
<path d="M345.403 128.609C345.403 128.609 351.356 137.49 352.771 144.849C354.141 152.008 351.85 173.64 354.253 183.684C358.319 187.442 365.349 191.827 368.606 196.882C372.29 202.609 382.959 217.105 382.959 217.105L376.782 221.691L341.832 189.433L327.681 146.393L322.829 133.798L345.403 128.609Z" fill="#50BFA5"/>
<path d="M340.596 78.0296C340.596 78.0296 348.458 77.5374 351.58 80.8929C354.702 84.2708 344.684 110.936 344.1 115.231C343.539 119.526 348.75 128.072 348.75 128.072C348.75 128.072 327.097 138.16 321.818 134.671C321.818 134.671 322.672 100.265 323.233 97.2008C323.795 94.1361 328.512 81.6759 329.657 80.4455C330.758 79.2599 340.596 78.0296 340.596 78.0296Z" fill="#F7CC7F"/>
<path d="M337.968 67.583C337.968 67.583 338.013 67.8067 338.08 68.2093C338.44 70.0884 339.788 76.3297 340.686 78.0522C341.787 80.1326 336.912 86.7318 332.218 85.9265C330.825 85.6804 333.408 79.8642 333.274 79.2378C333.027 78.0522 332.712 76.4415 332.375 74.7861C332.195 73.8466 331.993 72.9071 331.814 72.0122C331.319 69.4844 330.893 67.4264 330.893 67.4264L337.968 67.583Z" fill="#F7A491"/>
<path d="M338.081 68.1865C338.013 67.7838 337.968 67.5601 337.968 67.5601L330.938 67.3811C330.938 67.3811 331.342 69.4392 331.859 71.967C332.038 72.8618 332.218 73.8014 332.398 74.7185C333.476 74.5619 334.621 74.0251 335.767 73.0408C337.002 71.967 337.811 70.6695 338.305 69.2826C338.215 68.8576 338.125 68.4773 338.081 68.1865Z" fill="#F47458"/>
<path d="M333.229 51.677C333.229 51.677 336.553 51.2967 338.62 53.9587C340.709 56.6207 342.932 64.8977 337.766 69.3941C332.6 73.8905 327.501 68.8125 326.737 63.3989C325.996 58.0301 325.704 51.4756 333.229 51.677Z" fill="#F7A491"/>
<path d="M325.232 63.3328C325.839 64.5184 326.895 65.1895 327.546 64.8092C328.197 64.4289 328.242 63.1538 327.636 61.9682C327.029 60.7826 325.974 60.1115 325.322 60.4918C324.648 60.8721 324.603 62.1472 325.232 63.3328Z" fill="#F7A491"/>
<path d="M332.869 50.7822C332.869 50.7822 337.294 58.6341 340.461 59.0144C343.628 59.3723 344.055 63.5555 344.055 63.5555C344.055 63.5555 342.932 53.9364 339.787 52.0796C336.643 50.2229 332.869 50.7822 332.869 50.7822Z" fill="#184655"/>
<path d="M339.631 60.9835C339.384 62.3704 339.9 63.6679 340.799 63.8468C341.697 64.0258 342.64 63.0415 342.888 61.6546C343.135 60.2676 342.618 58.9702 341.72 58.7912C340.821 58.6122 339.878 59.5965 339.631 60.9835Z" fill="#F7A491"/>
<path d="M354.949 64.9657C354.949 64.9657 343.831 76.8443 342.191 81.6315C340.529 86.4187 343.808 93.2639 348.301 93.5548C352.816 93.8456 362.833 72.4821 362.833 72.4821L354.949 64.9657Z" fill="#FAE0B2"/>
<path d="M280.232 52.5599L277.558 53.1339C277.558 53.1339 273.632 51.4364 273.318 50.5778C273.004 49.7192 273.115 47.7354 272.542 47.624C271.969 47.5125 270.833 47.588 270.414 48.9194C270.112 49.8862 271.249 52.8647 270.986 53.1555C270.816 53.3274 269.303 53.6942 268.177 53.9539C267.434 54.1285 266.869 54.6796 266.68 55.4176C266.559 55.9184 266.783 56.4176 267.242 56.6436L267.949 57.0089L267.623 57.7432C267.38 58.2884 267.626 58.906 268.174 59.1492L268.722 59.3923L268.478 59.8235C268.186 60.3821 268.437 61.0918 269.033 61.3216L269.523 61.508L269.497 61.6397C269.347 62.1802 269.65 62.7404 270.162 62.9311L270.652 63.1175L277.742 61.6016C278.411 61.4581 279.035 61.192 279.592 60.7989L281.995 59.8531C282.246 59.7423 282.389 59.474 282.326 59.211L280.896 53.0307C280.828 52.6756 280.518 52.5015 280.232 52.5599Z" fill="#50BFA5"/>
<path d="M231.499 165.968L232.286 168.831L227.479 170.352L227.322 169.167L231.499 165.968ZM231.275 168.585L230.826 167.288L227.995 169.368L231.275 168.585Z" fill="#355389"/>
<path d="M215.372 156.147L216.922 149.145L226.289 154.939L220.92 159.234C220.943 159.212 219.258 154.849 215.372 156.147Z" fill="#F47458"/>
<path d="M276.356 182.208C276.356 182.208 287.16 187.017 299.132 192.968C311.104 198.918 313.979 198.359 315.686 196.636C317.416 194.914 317.528 191.089 317.528 191.089C317.528 191.089 320.336 195.16 318.898 200.372C317.461 205.584 313.328 205.652 313.328 205.652L310.341 203.884L312.295 207.374C312.295 207.374 308.072 209.589 304.119 205.652C300.188 201.737 299.334 199.231 299.334 199.231C299.334 199.231 300.884 205.294 302.434 206.86C302.434 206.86 298.054 208.806 295.471 205.316C292.888 201.826 291.742 197.352 291.742 197.352L292.73 205.54C292.73 205.54 288.71 203.996 286.509 197.643L287.654 203.661C287.654 203.661 283.589 198.046 281.949 191.804C280.287 185.563 276.85 184.87 276.85 184.87L276.356 182.208Z" fill="#B75742"/>
<path d="M255.736 203.214C255.736 203.214 255.332 216.368 264.249 221.2C266.405 222.363 269.909 226.636 269.213 229.007C268.562 231.244 263.238 235.83 263.238 235.83C263.238 235.83 259.532 236.098 257.87 240.237C257.6 240.885 258.813 240.729 258.813 240.729H268.247L276.378 227.038L275.817 218.448L270.516 205.093L260.386 203.483L255.736 203.214Z" fill="#B75742"/>
<path d="M211.239 194.937C211.239 194.937 199.154 213.012 196.504 216.949C194.662 219.678 194.662 223.123 194.662 223.123C194.662 223.123 195.179 228.627 196.279 229.723C196.459 229.902 196.729 230.013 197.088 230.103C199.851 230.796 202.322 228.179 201.535 225.45C201.176 224.175 200.884 223.034 200.884 222.564C200.884 221.311 201.468 221.2 201.468 221.2L214.81 213.527L219.19 200.798L211.239 194.937Z" fill="#B75742"/>
<path d="M220.021 198.941L222.2 216.143L221.167 235.717C221.167 235.717 216.922 236.746 215.641 238.916C214.383 241.086 214.608 241.444 214.608 241.444H224.738C224.738 241.444 233.027 221.825 233.027 219.656C233.027 217.486 235.206 205.339 235.206 203.728C235.206 202.117 233.835 194.937 228.984 194.355C224.154 193.796 220.021 198.941 220.021 198.941Z" fill="#F47458"/>
<path d="M205.983 153.395L208.588 149.861C208.588 149.861 217.169 147.422 220.852 151.091C222.02 152.254 223.346 153.954 223.862 156.214C224.132 157.377 224.177 159.771 224.154 161.873C224.132 164.245 224.604 165.811 225.569 167.958C227.254 170.531 234.262 175.922 237.07 176.593L235.116 176.347C235.116 176.347 238.889 178.338 241.989 178.875C254.073 180.776 272.312 181.112 276.378 182.275C281.207 183.64 284.15 197.845 282.825 205.025C281.499 212.184 291.338 209.32 293.719 213.951C295.965 218.313 287.339 238.424 287.339 238.424C287.339 238.424 285.116 241.131 284.711 241.533H274.963C274.963 241.533 275.277 235.27 280.129 233.659C285.003 232.048 284.307 221.713 284.307 221.713C284.307 221.713 270.381 223.615 263.485 214.6C258.161 207.665 258.678 205.786 259.195 205.294C256.657 206.703 238.867 216.3 229.905 214.6C220.246 212.765 217.169 206.972 217.169 206.972L217.82 211.177C217.82 211.177 211.329 208.828 211.958 203.549C211.958 203.549 210.969 204.242 210.969 205.719C210.969 205.719 208.161 202.117 208.161 190.664C208.161 184.266 208.386 168.07 208.386 168.07C208.386 168.07 196.841 165.967 195.336 164.468C194.325 163.462 192.977 156.035 192.977 156.035L205.983 153.395Z" fill="#F47458"/>
<path d="M226.311 154.917C226.311 154.917 223.975 159.95 221.572 160.711C219.146 161.471 216.944 149.123 216.944 149.123C216.944 149.123 220.336 147.825 223.234 150.711C224.379 151.852 226.311 154.917 226.311 154.917Z" fill="#B75742"/>
<path d="M218.899 201.893C221.774 205.227 219.146 202.162 221.122 204.466C221.527 200.417 220.246 195.384 219.191 191.38C220.988 193.303 223.391 197.129 224.514 198.762C222.47 195.272 222.987 188.494 223.391 184.534C223.413 184.557 225.749 187.308 226.693 188.449C226.873 186.659 227.187 182.655 226.581 180.933C225.952 179.143 224.11 177.04 222.74 175.743C224.267 177.018 226.176 178.986 226.917 180.798C227.951 183.304 227.209 189.568 227.187 190.015C223.773 186.145 226.109 188.785 223.953 186.346C223.728 189.702 223.391 196.659 224.963 199.433C223.121 198.27 221.392 195.764 220.336 193.84C223.099 200.954 221.302 205.115 221.302 205.227C221.324 205.249 221.145 205.025 218.966 202.207C218.854 202.654 218.607 203.571 218.562 204.019C218.562 203.862 218.786 202.43 218.899 201.893Z" fill="#B75742"/>
<path d="M226.423 167.31L227.996 170.576C227.996 170.576 226.513 181.649 208.252 180.419L207.645 175.721C207.645 175.721 224.289 175.139 226.423 167.31Z" fill="#184655"/>
<path d="M284.535 141.89L285.118 143.101L231.405 168.753L230.822 167.543L284.535 141.89Z" fill="#184655"/>
<path d="M284.262 142.657L285.722 141.158L294.078 138.116L303.557 142.657L292.528 153.753L291.742 151.046L298.66 144.223L293.157 140.644L292.349 141.113L289.496 142.769L284.262 142.657Z" fill="#FAE0B2"/>
<path d="M278.782 148.832C278.782 153.105 282.263 156.572 286.553 156.572C290.844 156.572 294.325 153.105 294.325 148.832C294.325 144.559 290.844 141.092 286.553 141.092C282.263 141.092 278.782 144.582 278.782 148.832Z" fill="#F7CC7F"/>
<path d="M282.6 148.742C282.6 151.091 284.509 153.014 286.89 153.014C289.249 153.014 291.181 151.113 291.181 148.742C291.181 146.393 289.271 144.469 286.89 144.469C284.509 144.469 282.6 146.393 282.6 148.742Z" fill="#FAE0B2"/>
<path d="M294.303 135.924C294.303 135.924 291.899 140.375 292.146 141.225C292.281 141.673 296.077 144.335 298.278 144.335C300.48 144.335 297.874 139.615 297.402 140.085C296.931 140.554 297.223 141.606 297.223 141.606C297.223 141.606 296.818 138.34 296.302 137.825C295.785 137.311 295.583 138.407 295.583 138.407C295.583 138.407 296.369 135.633 295.583 135.387C294.774 135.141 294.303 135.924 294.303 135.924Z" fill="#F79C8D"/>
<rect x="480" y="573.003" width="209" height="73" rx="20" fill="#16D3AA"/>
<path d="M516.803 603.818C516.378 602.487 515.528 601.411 514.226 600.575C512.909 599.711 511.365 599.273 509.581 599.273C507.57 599.273 505.899 599.853 504.597 600.986C503.322 602.119 502.685 603.606 502.685 605.418C502.685 607.485 503.662 609.043 505.616 610.091C506.409 610.516 508.052 611.096 510.516 611.818C511.252 612.073 511.79 612.272 512.13 612.427C512.498 612.597 512.781 612.753 512.979 612.923C513.461 613.376 513.702 613.843 513.702 614.353C513.702 615.047 513.348 615.613 512.654 616.052C511.946 616.491 511.082 616.704 510.048 616.704C509 616.704 508.108 616.477 507.358 616.024C506.607 615.571 506.154 615.019 505.984 614.353L502.104 615.514C502.529 616.902 503.45 618.077 504.88 619.04C506.296 619.975 508.009 620.442 510.048 620.442C512.271 620.442 514.084 619.861 515.472 618.7C516.874 617.525 517.582 615.953 517.582 613.999C517.582 613.263 517.44 612.555 517.185 611.903C516.916 611.252 516.59 610.714 516.222 610.317C515.854 609.921 515.373 609.567 514.778 609.241C514.636 609.17 514.495 609.1 514.381 609.043C514.268 608.986 514.141 608.93 514.027 608.873C513.914 608.816 513.815 608.774 513.73 608.732C513.645 608.703 513.532 608.661 513.404 608.618C513.277 608.576 513.178 608.547 513.121 608.519C513.064 608.491 512.951 608.462 512.81 608.42C512.668 608.378 512.555 608.349 512.498 608.321C512.441 608.307 512.314 608.278 512.144 608.222C511.96 608.165 511.833 608.137 511.762 608.108C509.978 607.599 508.873 607.245 508.42 607.046C507.174 606.537 506.565 605.885 506.565 605.121C506.565 604.526 506.862 604.03 507.457 603.606C508.052 603.195 508.774 602.982 509.638 602.982C510.431 602.982 511.125 603.181 511.748 603.563C512.356 603.945 512.753 604.413 512.923 604.951L516.803 603.818ZM534.654 613.801C534.725 613.291 534.768 612.838 534.768 612.47C534.768 610.204 534.003 608.307 532.474 606.777C530.973 605.248 529.104 604.483 526.852 604.483C524.601 604.483 522.717 605.248 521.188 606.777C519.687 608.278 518.937 610.176 518.937 612.47C518.937 614.735 519.701 616.647 521.245 618.176C522.831 619.691 524.771 620.442 527.079 620.442C528.58 620.442 529.967 620.102 531.213 619.394C532.459 618.7 533.422 617.737 534.13 616.52L530.619 615.514C529.769 616.576 528.58 617.1 527.079 617.1C526.017 617.1 525.082 616.803 524.289 616.194C523.482 615.599 522.944 614.792 522.675 613.801H534.654ZM522.703 610.983C522.972 610.048 523.482 609.284 524.247 608.703C524.997 608.123 525.847 607.825 526.795 607.825C527.772 607.825 528.65 608.123 529.429 608.703C530.194 609.284 530.732 610.048 531.029 610.983H522.703ZM536.491 620.003H540.116V611.394C540.116 610.417 540.441 609.595 541.093 608.93C541.744 608.278 542.565 607.939 543.557 607.939C544.52 607.939 545.327 608.278 545.978 608.93C546.629 609.595 546.955 610.417 546.955 611.394V620.003H550.58V610.374C550.58 608.717 550 607.315 548.867 606.169C547.734 605.05 546.332 604.483 544.633 604.483C542.735 604.483 541.22 605.248 540.116 606.749V604.922H536.491V620.003ZM559.936 604.483C557.84 604.483 556.084 605.248 554.682 606.777C553.294 608.278 552.601 610.176 552.601 612.47C552.601 614.735 553.294 616.647 554.682 618.176C556.098 619.691 557.854 620.442 559.936 620.442C561.635 620.442 563.164 619.904 564.509 618.814V620.003H568.106V598.253H564.509V606.112C563.164 605.036 561.635 604.483 559.936 604.483ZM563.263 609.355C564.056 610.204 564.453 611.252 564.453 612.47C564.453 613.688 564.056 614.721 563.263 615.571C562.484 616.406 561.536 616.817 560.403 616.817C559.242 616.817 558.265 616.406 557.5 615.571C556.721 614.75 556.339 613.716 556.339 612.47C556.339 611.224 556.721 610.19 557.5 609.355C558.265 608.533 559.242 608.108 560.403 608.108C561.536 608.108 562.484 608.533 563.263 609.355ZM581.691 620.003V599.697H577.811V620.003H581.691ZM584.419 620.003H588.044V611.394C588.044 610.417 588.37 609.595 589.021 608.93C589.673 608.278 590.494 607.939 591.485 607.939C592.448 607.939 593.255 608.278 593.907 608.93C594.558 609.595 594.884 610.417 594.884 611.394V620.003H598.509V610.374C598.509 608.717 597.928 607.315 596.795 606.169C595.663 605.05 594.261 604.483 592.562 604.483C590.664 604.483 589.149 605.248 588.044 606.749V604.922H584.419V620.003ZM605.386 620.003H608.827L615.043 604.922H611.291L607.128 615.415L602.922 604.922H599.17L605.386 620.003ZM617.432 618.176C618.99 619.691 620.887 620.442 623.153 620.442C625.39 620.442 627.302 619.691 628.859 618.176C630.389 616.647 631.153 614.75 631.153 612.47C631.153 610.176 630.389 608.278 628.859 606.777C627.33 605.248 625.418 604.483 623.153 604.483C620.859 604.483 618.961 605.248 617.432 606.777C615.931 608.278 615.181 610.176 615.181 612.47C615.181 614.735 615.931 616.647 617.432 618.176ZM620.137 609.355C620.93 608.533 621.935 608.108 623.153 608.108C624.356 608.108 625.362 608.533 626.169 609.355C626.976 610.204 627.387 611.238 627.387 612.47C627.387 613.702 626.976 614.735 626.169 615.571C625.362 616.406 624.356 616.817 623.153 616.817C621.935 616.817 620.93 616.406 620.137 615.571C619.315 614.735 618.919 613.702 618.919 612.47C618.919 611.238 619.315 610.204 620.137 609.355ZM636.785 620.003V604.922H633.16V620.003H636.785ZM634.958 603.591C635.624 603.591 636.176 603.379 636.615 602.926C637.04 602.487 637.266 601.935 637.266 601.269C637.266 600.618 637.04 600.08 636.601 599.641C636.147 599.202 635.609 598.975 634.958 598.975C634.307 598.975 633.754 599.202 633.315 599.641C632.876 600.08 632.664 600.618 632.664 601.269C632.664 601.92 632.876 602.473 633.315 602.926C633.754 603.379 634.307 603.591 634.958 603.591ZM654.24 609.482C653.645 607.967 652.682 606.749 651.351 605.843C650.02 604.937 648.491 604.483 646.792 604.483C644.498 604.483 642.6 605.248 641.071 606.777C639.57 608.278 638.819 610.176 638.819 612.47C638.819 614.735 639.57 616.647 641.071 618.176C642.628 619.691 644.526 620.442 646.792 620.442C648.491 620.442 650.02 619.989 651.351 619.083C652.682 618.176 653.645 616.973 654.24 615.443L650.615 614.381C650.275 615.146 649.765 615.741 649.085 616.166C648.406 616.605 647.641 616.817 646.792 616.817C645.574 616.817 644.568 616.406 643.775 615.571C642.954 614.735 642.558 613.702 642.558 612.47C642.558 611.238 642.954 610.204 643.775 609.355C644.568 608.533 645.574 608.108 646.792 608.108C647.641 608.108 648.406 608.335 649.085 608.76C649.765 609.199 650.275 609.794 650.615 610.544L654.24 609.482ZM671.143 613.801C671.213 613.291 671.256 612.838 671.256 612.47C671.256 610.204 670.491 608.307 668.962 606.777C667.461 605.248 665.592 604.483 663.34 604.483C661.089 604.483 659.206 605.248 657.676 606.777C656.175 608.278 655.425 610.176 655.425 612.47C655.425 614.735 656.189 616.647 657.733 618.176C659.319 619.691 661.259 620.442 663.567 620.442C665.068 620.442 666.456 620.102 667.702 619.394C668.948 618.7 669.911 617.737 670.619 616.52L667.107 615.514C666.257 616.576 665.068 617.1 663.567 617.1C662.505 617.1 661.57 616.803 660.777 616.194C659.97 615.599 659.432 614.792 659.163 613.801H671.143ZM659.191 610.983C659.46 610.048 659.97 609.284 660.735 608.703C661.485 608.123 662.335 607.825 663.284 607.825C664.261 607.825 665.139 608.123 665.917 608.703C666.682 609.284 667.22 610.048 667.518 610.983H659.191Z" fill="white"/>
<g filter="url(#filter1_d)">
<rect x="554" y="273.003" width="127" height="127" rx="20" fill="white"/>
</g>
<path d="M624.487 318.008L612.542 333.934L621.62 346.038L616.524 349.861C611.14 342.694 602.19 330.749 602.19 330.749L583.078 356.231H653.154L624.487 318.008V318.008Z" fill="#CAD1E1"/>
<defs>
<filter id="filter0_d" x="37" y="208.003" width="708" height="611" filterUnits="userSpaceOnUse" color-interpolation-filters="sRGB">
<feFlood flood-opacity="0" result="BackgroundImageFix"/>
<feColorMatrix in="SourceAlpha" type="matrix" values="0 0 0 0 0 0 0 0 0 0 0 0 0 0 0 0 0 0 127 0"/>
<feOffset dy="50"/>
<feGaussianBlur stdDeviation="42"/>
<feColorMatrix type="matrix" values="0 0 0 0 0 0 0 0 0 0 0 0 0 0 0 0 0 0 0.1 0"/>
<feBlend mode="normal" in2="BackgroundImageFix" result="effect1_dropShadow"/>
<feBlend mode="normal" in="SourceGraphic" in2="effect1_dropShadow" result="shape"/>
</filter>
<filter id="filter1_d" x="538" y="273.003" width="159" height="163" filterUnits="userSpaceOnUse" color-interpolation-filters="sRGB">
<feFlood flood-opacity="0" result="BackgroundImageFix"/>
<feColorMatrix in="SourceAlpha" type="matrix" values="0 0 0 0 0 0 0 0 0 0 0 0 0 0 0 0 0 0 127 0"/>
<feOffset dy="20"/>
<feGaussianBlur stdDeviation="8"/>
<feColorMatrix type="matrix" values="0 0 0 0 0.100104 0 0 0 0 0.17289 0 0 0 0 0.258333 0 0 0 0.05 0"/>
<feBlend mode="normal" in2="BackgroundImageFix" result="effect1_dropShadow"/>
<feBlend mode="normal" in="SourceGraphic" in2="effect1_dropShadow" result="shape"/>
</filter>
</defs>
</svg>
