<svg width="916" height="752" viewBox="0 0 916 752" fill="none" xmlns="http://www.w3.org/2000/svg">
<circle cx="540" cy="376" r="376" fill="#F1F7FF" fill-opacity="0.5"/>
<g filter="url(#filter0_d)">
<rect x="84" y="70" width="542" height="492" rx="16" fill="white"/>
</g>
<path d="M111.298 122L112.512 119.1H119.483L120.697 122H123.791L117.195 106.596H114.8L108.193 122H111.298ZM118.345 116.393H113.65L116.003 110.807L118.345 116.393ZM129.307 110.227C127.717 110.227 126.385 110.807 125.321 111.967C124.269 113.105 123.742 114.545 123.742 116.285C123.742 118.004 124.269 119.454 125.321 120.614C126.396 121.764 127.728 122.333 129.307 122.333C130.596 122.333 131.756 121.925 132.776 121.098V122H135.505V105.5H132.776V111.462C131.756 110.646 130.596 110.227 129.307 110.227ZM131.831 113.922C132.433 114.566 132.733 115.361 132.733 116.285C132.733 117.209 132.433 117.993 131.831 118.638C131.24 119.271 130.521 119.583 129.661 119.583C128.78 119.583 128.039 119.271 127.459 118.638C126.868 118.015 126.578 117.23 126.578 116.285C126.578 115.34 126.868 114.556 127.459 113.922C128.039 113.299 128.78 112.977 129.661 112.977C130.521 112.977 131.24 113.299 131.831 113.922ZM142.492 110.227C140.902 110.227 139.57 110.807 138.507 111.967C137.454 113.105 136.928 114.545 136.928 116.285C136.928 118.004 137.454 119.454 138.507 120.614C139.581 121.764 140.913 122.333 142.492 122.333C143.781 122.333 144.941 121.925 145.962 121.098V122H148.69V105.5H145.962V111.462C144.941 110.646 143.781 110.227 142.492 110.227ZM145.017 113.922C145.618 114.566 145.919 115.361 145.919 116.285C145.919 117.209 145.618 117.993 145.017 118.638C144.426 119.271 143.706 119.583 142.847 119.583C141.966 119.583 141.225 119.271 140.645 118.638C140.054 118.015 139.764 117.23 139.764 116.285C139.764 115.34 140.054 114.556 140.645 113.922C141.225 113.299 141.966 112.977 142.847 112.977C143.706 112.977 144.426 113.299 145.017 113.922ZM155.812 106.596V122H158.755V116.564H162.343L165.576 122H168.853L165.34 116.06C166.231 115.662 166.94 115.061 167.467 114.266C167.993 113.471 168.262 112.568 168.262 111.569C168.262 110.151 167.746 108.98 166.726 108.035C165.694 107.079 164.438 106.596 162.934 106.596H155.812ZM162.934 109.324C163.578 109.324 164.115 109.539 164.545 109.958C164.964 110.388 165.179 110.925 165.179 111.569C165.179 112.225 164.964 112.762 164.545 113.191C164.115 113.621 163.578 113.836 162.934 113.836H158.755V109.324H162.934ZM181.082 117.295C181.136 116.908 181.168 116.564 181.168 116.285C181.168 114.566 180.588 113.127 179.428 111.967C178.289 110.807 176.871 110.227 175.163 110.227C173.455 110.227 172.026 110.807 170.866 111.967C169.728 113.105 169.158 114.545 169.158 116.285C169.158 118.004 169.738 119.454 170.909 120.614C172.112 121.764 173.584 122.333 175.335 122.333C176.474 122.333 177.526 122.075 178.472 121.538C179.417 121.012 180.147 120.281 180.685 119.357L178.021 118.595C177.376 119.4 176.474 119.798 175.335 119.798C174.529 119.798 173.82 119.572 173.219 119.11C172.606 118.659 172.198 118.047 171.994 117.295H181.082ZM172.016 115.157C172.22 114.448 172.606 113.868 173.187 113.428C173.756 112.987 174.4 112.762 175.12 112.762C175.861 112.762 176.527 112.987 177.118 113.428C177.698 113.868 178.106 114.448 178.332 115.157H172.016ZM193.634 114.019C193.183 112.869 192.452 111.945 191.442 111.258C190.433 110.57 189.272 110.227 187.983 110.227C186.243 110.227 184.804 110.807 183.644 111.967C182.505 113.105 181.936 114.545 181.936 116.285C181.936 118.004 182.505 119.454 183.644 120.614C184.825 121.764 186.265 122.333 187.983 122.333C189.272 122.333 190.433 121.989 191.442 121.302C192.452 120.614 193.183 119.701 193.634 118.541L190.884 117.735C190.626 118.315 190.239 118.767 189.724 119.089C189.208 119.422 188.628 119.583 187.983 119.583C187.06 119.583 186.297 119.271 185.695 118.638C185.072 118.004 184.771 117.22 184.771 116.285C184.771 115.351 185.072 114.566 185.695 113.922C186.297 113.299 187.06 112.977 187.983 112.977C188.628 112.977 189.208 113.148 189.724 113.471C190.239 113.804 190.626 114.255 190.884 114.824L193.634 114.019ZM194.831 117.864C194.831 119.153 195.25 120.217 196.099 121.055C196.947 121.914 198.021 122.333 199.332 122.333C200.771 122.333 201.921 121.764 202.77 120.614V122H205.52V110.56H202.77V117.069C202.77 117.821 202.512 118.444 202.018 118.949C201.523 119.465 200.9 119.712 200.17 119.712C199.418 119.712 198.806 119.465 198.312 118.96C197.817 118.455 197.581 117.821 197.581 117.069V110.56H194.831V117.864ZM210.101 110.56H207.351V122H210.101V115.705C210.101 114.953 210.348 114.319 210.853 113.804C211.347 113.299 211.98 113.041 212.732 113.041C213.098 113.041 213.474 113.127 213.86 113.288V110.227C212.142 110.227 210.885 110.807 210.101 111.967V110.56ZM217.614 110.56H214.864V122H217.614V115.705C217.614 114.953 217.861 114.319 218.366 113.804C218.86 113.299 219.494 113.041 220.246 113.041C220.611 113.041 220.987 113.127 221.374 113.288V110.227C219.655 110.227 218.398 110.807 217.614 111.967V110.56ZM225.128 122V110.56H222.378V122H225.128ZM223.742 109.55C224.247 109.55 224.666 109.389 224.999 109.045C225.321 108.712 225.493 108.293 225.493 107.788C225.493 107.294 225.321 106.886 224.988 106.553C224.645 106.22 224.236 106.048 223.742 106.048C223.248 106.048 222.829 106.22 222.496 106.553C222.163 106.886 222.002 107.294 222.002 107.788C222.002 108.282 222.163 108.701 222.496 109.045C222.829 109.389 223.248 109.55 223.742 109.55ZM226.97 122H229.72V115.469C229.72 114.728 229.967 114.104 230.461 113.6C230.955 113.105 231.578 112.848 232.33 112.848C233.061 112.848 233.673 113.105 234.167 113.6C234.661 114.104 234.908 114.728 234.908 115.469V122H237.658V114.695C237.658 113.438 237.218 112.375 236.358 111.505C235.499 110.656 234.436 110.227 233.146 110.227C231.707 110.227 230.558 110.807 229.72 111.945V110.56H226.97V122ZM244.635 110.227C243.045 110.227 241.713 110.807 240.649 111.967C239.597 113.105 239.07 114.545 239.07 116.285C239.07 118.004 239.597 119.454 240.649 120.614C241.724 121.764 243.056 122.333 244.635 122.333C245.924 122.333 247.084 121.925 248.104 121.098V121.688C248.104 122.505 247.804 123.182 247.224 123.719C246.622 124.277 245.902 124.557 245.075 124.557C244.474 124.557 243.915 124.417 243.41 124.138C242.895 123.858 242.54 123.493 242.325 123.053L239.575 123.848C239.973 124.836 240.692 125.652 241.724 126.286C242.766 126.952 243.915 127.285 245.161 127.285C246.751 127.285 248.094 126.748 249.189 125.674C250.285 124.6 250.833 123.278 250.833 121.688V110.56H248.104V111.462C247.084 110.646 245.924 110.227 244.635 110.227ZM247.159 113.922C247.761 114.566 248.062 115.361 248.062 116.285C248.062 117.209 247.761 117.993 247.159 118.638C246.568 119.271 245.849 119.583 244.989 119.583C244.108 119.583 243.367 119.271 242.787 118.638C242.196 118.015 241.906 117.23 241.906 116.285C241.906 115.34 242.196 114.556 242.787 113.922C243.367 113.299 244.108 112.977 244.989 112.977C245.849 112.977 246.568 113.299 247.159 113.922ZM265.699 106.273C263.368 106.273 261.424 107.047 259.866 108.583C258.309 110.098 257.535 111.999 257.535 114.298C257.535 116.586 258.298 118.498 259.823 120.045C261.349 121.57 263.239 122.333 265.517 122.333C267.794 122.333 269.695 121.57 271.221 120.023C272.746 118.455 273.509 116.543 273.509 114.276C273.509 114.212 273.487 113.954 273.466 113.503H265.259V116.188H270.114C269.771 117.198 269.18 117.993 268.331 118.573C267.461 119.175 266.505 119.465 265.474 119.465C264.109 119.465 262.96 118.981 262.025 117.993C261.08 117.016 260.618 115.78 260.618 114.298C260.618 112.826 261.102 111.591 262.068 110.603C263.035 109.614 264.249 109.109 265.699 109.109C266.645 109.109 267.515 109.346 268.288 109.797C269.062 110.248 269.663 110.882 270.114 111.677L272.982 110.603C272.316 109.281 271.339 108.229 270.05 107.455C268.761 106.671 267.311 106.273 265.699 106.273ZM277.778 122V110.56H275.028V122H277.778ZM276.393 109.55C276.897 109.55 277.316 109.389 277.649 109.045C277.972 108.712 278.144 108.293 278.144 107.788C278.144 107.294 277.972 106.886 277.639 106.553C277.295 106.22 276.887 106.048 276.393 106.048C275.898 106.048 275.479 106.22 275.146 106.553C274.813 106.886 274.652 107.294 274.652 107.788C274.652 108.282 274.813 108.701 275.146 109.045C275.479 109.389 275.898 109.55 276.393 109.55ZM284.766 110.227C283.176 110.227 281.844 110.807 280.78 111.967C279.728 113.105 279.201 114.545 279.201 116.285C279.201 118.004 279.728 119.454 280.78 120.614C281.854 121.764 283.187 122.333 284.766 122.333C286.055 122.333 287.215 121.925 288.235 121.098V121.688C288.235 122.505 287.935 123.182 287.354 123.719C286.753 124.277 286.033 124.557 285.206 124.557C284.604 124.557 284.046 124.417 283.541 124.138C283.025 123.858 282.671 123.493 282.456 123.053L279.706 123.848C280.104 124.836 280.823 125.652 281.854 126.286C282.896 126.952 284.046 127.285 285.292 127.285C286.882 127.285 288.225 126.748 289.32 125.674C290.416 124.6 290.964 123.278 290.964 121.688V110.56H288.235V111.462C287.215 110.646 286.055 110.227 284.766 110.227ZM287.29 113.922C287.892 114.566 288.192 115.361 288.192 116.285C288.192 117.209 287.892 117.993 287.29 118.638C286.699 119.271 285.979 119.583 285.12 119.583C284.239 119.583 283.498 119.271 282.918 118.638C282.327 118.015 282.037 117.23 282.037 116.285C282.037 115.34 282.327 114.556 282.918 113.922C283.498 113.299 284.239 112.977 285.12 112.977C285.979 112.977 286.699 113.299 287.29 113.922ZM301.271 113.31C301.12 112.354 300.669 111.602 299.896 111.054C299.122 110.506 298.112 110.227 296.888 110.227C295.534 110.227 294.46 110.538 293.665 111.14C292.87 111.741 292.473 112.633 292.473 113.793C292.473 114.609 292.677 115.265 293.106 115.759C293.536 116.264 294.234 116.672 295.201 116.983L297.554 117.735C298.402 118.025 298.832 118.391 298.832 118.831C298.832 119.175 298.649 119.454 298.306 119.658C297.962 119.862 297.521 119.959 296.984 119.959C296.361 119.959 295.856 119.841 295.47 119.594C295.083 119.347 294.836 119.014 294.739 118.595L292.161 118.96C292.333 120.023 292.827 120.851 293.644 121.441C294.46 122.043 295.556 122.333 296.92 122.333C298.284 122.333 299.38 122.032 300.207 121.409C301.023 120.786 301.442 119.905 301.442 118.745C301.442 117.918 301.206 117.23 300.733 116.683C300.261 116.135 299.509 115.673 298.456 115.308L296.104 114.523C295.427 114.287 295.094 113.976 295.094 113.6C295.094 113.299 295.244 113.052 295.545 112.88C295.846 112.708 296.222 112.611 296.694 112.611C297.779 112.611 298.445 112.987 298.692 113.729L301.271 113.31Z" fill="#09265A"/>
<rect x="108" y="245" width="240" height="60.9358" rx="6" fill="white"/>
<rect x="108.25" y="245.25" width="239.5" height="60.4358" rx="5.75" stroke="#09265A" stroke-opacity="0.3" stroke-width="0.5"/>
<path d="M318.5 281.685L323 286.763L327.5 281.685" stroke="#6CA8ED" stroke-width="2" stroke-linecap="round" stroke-linejoin="round"/>
<path d="M127.905 264.968H124.858V257.268H127.905C129.027 257.268 129.969 257.639 130.732 258.379C131.495 259.12 131.876 260.033 131.876 261.118C131.876 262.204 131.495 263.117 130.732 263.857C129.969 264.598 129.027 264.968 127.905 264.968ZM127.905 258.192H125.848V264.044H127.905C128.734 264.044 129.43 263.762 129.995 263.197C130.56 262.633 130.842 261.94 130.842 261.118C130.842 260.29 130.56 259.593 129.995 259.028C129.438 258.471 128.741 258.192 127.905 258.192ZM135.233 259.127C136.091 259.127 136.787 259.439 137.323 260.062V259.248H138.247V264.968H137.323V264.154C136.787 264.778 136.091 265.089 135.233 265.089C134.433 265.089 133.762 264.807 133.22 264.242C132.684 263.678 132.417 262.966 132.417 262.108C132.417 261.25 132.684 260.543 133.22 259.985C133.755 259.413 134.426 259.127 135.233 259.127ZM135.332 260.051C134.782 260.051 134.316 260.249 133.935 260.645C133.561 261.034 133.374 261.522 133.374 262.108C133.374 262.695 133.561 263.186 133.935 263.582C134.323 263.971 134.789 264.165 135.332 264.165C135.889 264.165 136.355 263.971 136.729 263.582C137.11 263.194 137.301 262.702 137.301 262.108C137.301 261.514 137.11 261.027 136.729 260.645C136.355 260.249 135.889 260.051 135.332 260.051ZM138.687 260.062V259.248H139.611V258.104H140.535V259.248H142.13V260.062H140.535V263.175C140.535 263.432 140.612 263.648 140.766 263.824C140.928 263.993 141.126 264.077 141.36 264.077H142.13V264.968H141.294C140.818 264.968 140.418 264.807 140.095 264.484C139.773 264.162 139.611 263.762 139.611 263.285V260.062H138.687ZM148.323 262.427H143.406C143.472 262.941 143.699 263.37 144.088 263.714C144.469 264.052 144.939 264.22 145.496 264.22C146.222 264.22 146.787 263.945 147.19 263.395L148.092 263.681C147.828 264.121 147.465 264.466 147.003 264.715C146.548 264.965 146.046 265.089 145.496 265.089C144.631 265.089 143.905 264.807 143.318 264.242C142.739 263.67 142.449 262.959 142.449 262.108C142.449 261.258 142.731 260.55 143.296 259.985C143.861 259.413 144.561 259.127 145.397 259.127C146.24 259.127 146.941 259.413 147.498 259.985C148.063 260.55 148.345 261.258 148.345 262.108C148.345 262.13 148.338 262.237 148.323 262.427ZM143.417 261.679H147.388C147.3 261.188 147.069 260.781 146.695 260.458C146.328 260.143 145.888 259.985 145.375 259.985C144.876 259.985 144.447 260.143 144.088 260.458C143.729 260.774 143.505 261.181 143.417 261.679Z" fill="#4F4E56"/>
<path d="M133.504 276.161V284.207C133.504 285.575 133.03 286.715 132.082 287.627C131.158 288.539 129.982 288.995 128.554 288.995C127.666 288.995 126.85 288.803 126.106 288.419C125.374 288.035 124.792 287.501 124.36 286.817L126.034 285.737C126.286 286.169 126.634 286.511 127.078 286.763C127.534 287.003 128.038 287.123 128.59 287.123C129.442 287.123 130.144 286.847 130.696 286.295C131.272 285.731 131.56 285.035 131.56 284.207V276.161H133.504ZM139.392 279.167C140.604 279.167 141.642 279.581 142.506 280.409V279.401H144.378V288.761H142.506V287.753C141.642 288.581 140.604 288.995 139.392 288.995C138.084 288.995 136.986 288.527 136.098 287.591C135.222 286.667 134.784 285.497 134.784 284.081C134.784 282.665 135.222 281.495 136.098 280.571C136.986 279.635 138.084 279.167 139.392 279.167ZM139.59 281.039C138.786 281.039 138.108 281.333 137.556 281.921C137.004 282.485 136.728 283.205 136.728 284.081C136.728 284.945 137.004 285.671 137.556 286.259C138.12 286.835 138.798 287.123 139.59 287.123C140.406 287.123 141.09 286.835 141.642 286.259C142.194 285.671 142.47 284.945 142.47 284.081C142.47 283.205 142.194 282.485 141.642 281.921C141.09 281.333 140.406 281.039 139.59 281.039ZM146.106 288.761V279.401H147.978V280.769C148.662 279.701 149.688 279.167 151.056 279.167C152.136 279.167 153.024 279.515 153.72 280.211C154.428 280.919 154.782 281.795 154.782 282.839V288.761H152.91V283.379C152.91 282.683 152.682 282.107 152.226 281.651C151.77 281.183 151.194 280.949 150.498 280.949C149.778 280.949 149.178 281.183 148.698 281.651C148.218 282.119 147.978 282.701 147.978 283.397V288.761H146.106ZM164.98 288.995C163.912 288.995 162.964 288.725 162.136 288.185C161.32 287.633 160.738 286.901 160.39 285.989L162.334 285.449C162.562 285.965 162.91 286.373 163.378 286.673C163.846 286.973 164.38 287.123 164.98 287.123C165.748 287.123 166.39 286.901 166.906 286.457C167.434 286.001 167.698 285.443 167.698 284.783C167.698 284.087 167.416 283.511 166.852 283.055C166.288 282.599 165.592 282.371 164.764 282.371H161.326L161.956 276.161H168.67V277.961H163.576L163.324 280.571H164.836C166.24 280.571 167.404 280.973 168.328 281.777C169.264 282.593 169.732 283.595 169.732 284.783C169.732 285.983 169.276 286.985 168.364 287.789C167.476 288.593 166.348 288.995 164.98 288.995ZM173.382 288.239C173.382 289.295 172.794 290.255 171.618 291.119C171.594 291.131 171.576 291.137 171.564 291.137C171.552 291.149 171.54 291.161 171.528 291.173L171.456 291.209L170.844 290.579L171.114 290.291C171.246 290.135 171.384 289.931 171.528 289.679C171.708 289.403 171.798 289.175 171.798 288.995C171.498 288.947 171.246 288.803 171.042 288.563C170.85 288.323 170.754 288.041 170.754 287.717C170.754 287.369 170.868 287.081 171.096 286.853C171.336 286.625 171.636 286.511 171.996 286.511C172.404 286.511 172.734 286.673 172.986 286.997C173.25 287.309 173.382 287.723 173.382 288.239ZM185.273 279.797C185.273 279.245 185.045 278.777 184.589 278.393C184.133 277.997 183.587 277.799 182.951 277.799C182.351 277.799 181.823 277.973 181.367 278.321C180.911 278.669 180.557 279.149 180.305 279.761L178.487 278.897C178.883 277.985 179.477 277.265 180.269 276.737C181.061 276.197 181.955 275.927 182.951 275.927C184.163 275.927 185.189 276.305 186.029 277.061C186.881 277.805 187.307 278.699 187.307 279.743C187.307 280.403 187.091 281.075 186.659 281.759C186.239 282.431 185.561 283.211 184.625 284.099L181.709 286.889H187.433V288.761H178.703V287.303L183.383 282.785C184.643 281.561 185.273 280.565 185.273 279.797ZM188.734 284.513V280.409C188.734 279.113 189.19 278.045 190.102 277.205C191.026 276.353 192.178 275.927 193.558 275.927C194.914 275.927 196.054 276.359 196.978 277.223C197.902 278.075 198.364 279.137 198.364 280.409V284.513C198.364 285.785 197.902 286.853 196.978 287.717C196.054 288.569 194.914 288.995 193.558 288.995C192.178 288.995 191.026 288.569 190.102 287.717C189.19 286.877 188.734 285.809 188.734 284.513ZM190.678 280.373V284.531C190.678 285.263 190.954 285.881 191.506 286.385C192.07 286.877 192.754 287.123 193.558 287.123C194.362 287.123 195.04 286.877 195.592 286.385C196.144 285.881 196.42 285.263 196.42 284.531V280.373C196.42 279.629 196.144 279.017 195.592 278.537C195.04 278.045 194.362 277.799 193.558 277.799C192.754 277.799 192.07 278.045 191.506 278.537C190.954 279.017 190.678 279.629 190.678 280.373ZM206.193 279.797C206.193 279.245 205.965 278.777 205.509 278.393C205.053 277.997 204.507 277.799 203.871 277.799C203.271 277.799 202.743 277.973 202.287 278.321C201.831 278.669 201.477 279.149 201.225 279.761L199.407 278.897C199.803 277.985 200.397 277.265 201.189 276.737C201.981 276.197 202.875 275.927 203.871 275.927C205.083 275.927 206.109 276.305 206.949 277.061C207.801 277.805 208.227 278.699 208.227 279.743C208.227 280.403 208.011 281.075 207.579 281.759C207.159 282.431 206.481 283.211 205.545 284.099L202.629 286.889H208.353V288.761H199.623V287.303L204.303 282.785C205.563 281.561 206.193 280.565 206.193 279.797ZM212.786 278.591L210.428 279.797L209.582 278.069L213.344 276.161H214.73V288.761H212.786V278.591Z" fill="#09265A"/>
<rect x="108" y="332" width="240" height="60.9358" rx="6" fill="white"/>
<rect x="108.25" y="332.25" width="239.5" height="60.4358" rx="5.75" stroke="#09265A" stroke-opacity="0.3" stroke-width="0.5"/>
<path d="M318.5 368.685L323 373.763L327.5 368.685" stroke="#6CA8ED" stroke-width="2" stroke-linecap="round" stroke-linejoin="round"/>
<path d="M124.858 344.268H128.345C129.056 344.268 129.65 344.496 130.127 344.95C130.604 345.405 130.842 345.97 130.842 346.644C130.842 347.165 130.695 347.627 130.402 348.03C130.116 348.426 129.727 348.709 129.236 348.877L131.128 351.968H130.017L128.213 349.02H125.848V351.968H124.858V344.268ZM128.345 345.192H125.848V348.096H128.345C128.763 348.096 129.111 347.957 129.39 347.678C129.669 347.4 129.808 347.055 129.808 346.644C129.808 346.226 129.669 345.882 129.39 345.61C129.111 345.332 128.763 345.192 128.345 345.192ZM134.094 346.127C134.952 346.127 135.649 346.439 136.184 347.062V346.248H137.108V351.968H136.184V351.154C135.649 351.778 134.952 352.089 134.094 352.089C133.295 352.089 132.624 351.807 132.081 351.242C131.546 350.678 131.278 349.966 131.278 349.108C131.278 348.25 131.546 347.543 132.081 346.985C132.616 346.413 133.287 346.127 134.094 346.127ZM134.193 347.051C133.643 347.051 133.177 347.249 132.796 347.645C132.422 348.034 132.235 348.522 132.235 349.108C132.235 349.695 132.422 350.186 132.796 350.582C133.185 350.971 133.65 351.165 134.193 351.165C134.75 351.165 135.216 350.971 135.59 350.582C135.971 350.194 136.162 349.702 136.162 349.108C136.162 348.514 135.971 348.027 135.59 347.645C135.216 347.249 134.75 347.051 134.193 347.051ZM137.549 347.062V346.248H138.473V345.104H139.397V346.248H140.992V347.062H139.397V350.175C139.397 350.432 139.474 350.648 139.628 350.824C139.789 350.993 139.987 351.077 140.222 351.077H140.992V351.968H140.156C139.679 351.968 139.279 351.807 138.957 351.484C138.634 351.162 138.473 350.762 138.473 350.285V347.062H137.549ZM147.184 349.427H142.267C142.333 349.941 142.561 350.37 142.949 350.714C143.331 351.052 143.8 351.22 144.357 351.22C145.083 351.22 145.648 350.945 146.051 350.395L146.953 350.681C146.689 351.121 146.326 351.466 145.864 351.715C145.41 351.965 144.907 352.089 144.357 352.089C143.492 352.089 142.766 351.807 142.179 351.242C141.6 350.67 141.31 349.959 141.31 349.108C141.31 348.258 141.593 347.55 142.157 346.985C142.722 346.413 143.422 346.127 144.258 346.127C145.102 346.127 145.802 346.413 146.359 346.985C146.924 347.55 147.206 348.258 147.206 349.108C147.206 349.13 147.199 349.237 147.184 349.427ZM142.278 348.679H146.249C146.161 348.188 145.93 347.781 145.556 347.458C145.19 347.143 144.75 346.985 144.236 346.985C143.738 346.985 143.309 347.143 142.949 347.458C142.59 347.774 142.366 348.181 142.278 348.679Z" fill="#4F4E56"/>
<path d="M128.824 378.065V375.941C127.804 375.821 126.934 375.497 126.214 374.969C125.494 374.429 125.026 373.769 124.81 372.989L126.808 372.359C126.916 372.839 127.228 373.241 127.744 373.565C128.272 373.889 128.902 374.051 129.634 374.051C130.378 374.051 130.996 373.889 131.488 373.565C131.98 373.229 132.226 372.797 132.226 372.269C132.226 371.921 132.088 371.621 131.812 371.369C131.572 371.129 131.326 370.955 131.074 370.847C130.822 370.727 130.444 370.601 129.94 370.469C128.416 370.025 127.408 369.677 126.916 369.425C125.74 368.789 125.152 367.859 125.152 366.635C125.152 365.639 125.482 364.811 126.142 364.151C126.802 363.491 127.678 363.095 128.77 362.963V360.857H130.192V362.981C131.104 363.101 131.878 363.413 132.514 363.917C133.162 364.409 133.594 365.015 133.81 365.735L131.812 366.329C131.704 365.921 131.428 365.579 130.984 365.303C130.54 365.015 130.024 364.871 129.436 364.871C128.788 364.871 128.248 365.027 127.816 365.339C127.384 365.639 127.168 366.023 127.168 366.491C127.096 366.899 127.402 367.307 128.086 367.715C128.206 367.787 128.44 367.883 128.788 368.003C129.232 368.147 129.49 368.231 129.562 368.255L130.516 368.525C131.464 368.777 132.268 369.101 132.928 369.497C133.816 370.037 134.26 370.907 134.26 372.107C134.26 373.163 133.888 374.045 133.144 374.753C132.412 375.449 131.446 375.851 130.246 375.959V378.065H128.824ZM139.884 375.995C138.816 375.995 137.868 375.725 137.04 375.185C136.224 374.633 135.642 373.901 135.294 372.989L137.238 372.449C137.466 372.965 137.814 373.373 138.282 373.673C138.75 373.973 139.284 374.123 139.884 374.123C140.652 374.123 141.294 373.901 141.81 373.457C142.338 373.001 142.602 372.443 142.602 371.783C142.602 371.087 142.32 370.511 141.756 370.055C141.192 369.599 140.496 369.371 139.668 369.371H136.23L136.86 363.161H143.574V364.961H138.48L138.228 367.571H139.74C141.144 367.571 142.308 367.973 143.232 368.777C144.168 369.593 144.636 370.595 144.636 371.783C144.636 372.983 144.18 373.985 143.268 374.789C142.38 375.593 141.252 375.995 139.884 375.995ZM145.838 371.513V367.409C145.838 366.113 146.294 365.045 147.206 364.205C148.13 363.353 149.282 362.927 150.662 362.927C152.018 362.927 153.158 363.359 154.082 364.223C155.006 365.075 155.468 366.137 155.468 367.409V371.513C155.468 372.785 155.006 373.853 154.082 374.717C153.158 375.569 152.018 375.995 150.662 375.995C149.282 375.995 148.13 375.569 147.206 374.717C146.294 373.877 145.838 372.809 145.838 371.513ZM147.782 367.373V371.531C147.782 372.263 148.058 372.881 148.61 373.385C149.174 373.877 149.858 374.123 150.662 374.123C151.466 374.123 152.144 373.877 152.696 373.385C153.248 372.881 153.524 372.263 153.524 371.531V367.373C153.524 366.629 153.248 366.017 152.696 365.537C152.144 365.045 151.466 364.799 150.662 364.799C149.858 364.799 149.174 365.045 148.61 365.537C148.058 366.017 147.782 366.629 147.782 367.373ZM156.961 375.653C156.733 375.413 156.619 375.113 156.619 374.753C156.619 374.393 156.733 374.093 156.961 373.853C157.201 373.613 157.501 373.493 157.861 373.493C158.221 373.493 158.521 373.613 158.761 373.853C159.001 374.093 159.121 374.393 159.121 374.753C159.121 375.113 159.001 375.413 158.761 375.653C158.521 375.881 158.221 375.995 157.861 375.995C157.501 375.995 157.201 375.881 156.961 375.653ZM160.254 371.513V367.409C160.254 366.113 160.71 365.045 161.622 364.205C162.546 363.353 163.698 362.927 165.078 362.927C166.434 362.927 167.574 363.359 168.498 364.223C169.422 365.075 169.884 366.137 169.884 367.409V371.513C169.884 372.785 169.422 373.853 168.498 374.717C167.574 375.569 166.434 375.995 165.078 375.995C163.698 375.995 162.546 375.569 161.622 374.717C160.71 373.877 160.254 372.809 160.254 371.513ZM162.198 367.373V371.531C162.198 372.263 162.474 372.881 163.026 373.385C163.59 373.877 164.274 374.123 165.078 374.123C165.882 374.123 166.56 373.877 167.112 373.385C167.664 372.881 167.94 372.263 167.94 371.531V367.373C167.94 366.629 167.664 366.017 167.112 365.537C166.56 365.045 165.882 364.799 165.078 364.799C164.274 364.799 163.59 365.045 163.026 365.537C162.474 366.017 162.198 366.629 162.198 367.373ZM171.215 371.513V367.409C171.215 366.113 171.671 365.045 172.583 364.205C173.507 363.353 174.659 362.927 176.039 362.927C177.395 362.927 178.535 363.359 179.459 364.223C180.383 365.075 180.845 366.137 180.845 367.409V371.513C180.845 372.785 180.383 373.853 179.459 374.717C178.535 375.569 177.395 375.995 176.039 375.995C174.659 375.995 173.507 375.569 172.583 374.717C171.671 373.877 171.215 372.809 171.215 371.513ZM173.159 367.373V371.531C173.159 372.263 173.435 372.881 173.987 373.385C174.551 373.877 175.235 374.123 176.039 374.123C176.843 374.123 177.521 373.877 178.073 373.385C178.625 372.881 178.901 372.263 178.901 371.531V367.373C178.901 366.629 178.625 366.017 178.073 365.537C177.521 365.045 176.843 364.799 176.039 364.799C175.235 364.799 174.551 365.045 173.987 365.537C173.435 366.017 173.159 366.629 173.159 367.373Z" fill="#09265A"/>
<rect x="108" y="158" width="352" height="60.9358" rx="6" fill="white"/>
<rect x="108.25" y="158.25" width="351.5" height="60.4358" rx="5.75" stroke="#09265A" stroke-opacity="0.3" stroke-width="0.5"/>
<path d="M126.905 179H123.858V171.3H126.905C128.027 171.3 128.969 171.67 129.732 172.411C130.495 173.152 130.876 174.065 130.876 175.15C130.876 176.235 130.495 177.148 129.732 177.889C128.969 178.63 128.027 179 126.905 179ZM126.905 172.224H124.848V178.076H126.905C127.734 178.076 128.43 177.794 128.995 177.229C129.56 176.664 129.842 175.971 129.842 175.15C129.842 174.321 129.56 173.625 128.995 173.06C128.438 172.503 127.741 172.224 126.905 172.224ZM137.291 176.459H132.374C132.44 176.972 132.667 177.401 133.056 177.746C133.437 178.083 133.906 178.252 134.464 178.252C135.19 178.252 135.754 177.977 136.158 177.427L137.06 177.713C136.796 178.153 136.433 178.498 135.971 178.747C135.516 178.996 135.014 179.121 134.464 179.121C133.598 179.121 132.872 178.839 132.286 178.274C131.706 177.702 131.417 176.991 131.417 176.14C131.417 175.289 131.699 174.582 132.264 174.017C132.828 173.445 133.529 173.159 134.365 173.159C135.208 173.159 135.908 173.445 136.466 174.017C137.03 174.582 137.313 175.289 137.313 176.14C137.313 176.162 137.305 176.268 137.291 176.459ZM132.385 175.711H136.356C136.268 175.22 136.037 174.813 135.663 174.49C135.296 174.175 134.856 174.017 134.343 174.017C133.844 174.017 133.415 174.175 133.056 174.49C132.696 174.805 132.473 175.212 132.385 175.711ZM141.875 174.523L141.006 174.677C140.947 174.457 140.808 174.285 140.588 174.16C140.375 174.035 140.104 173.973 139.774 173.973C139.459 173.973 139.195 174.043 138.982 174.182C138.777 174.321 138.674 174.501 138.674 174.721C138.674 175.029 138.876 175.253 139.279 175.392L140.676 175.887C141.549 176.21 141.985 176.73 141.985 177.449C141.985 177.97 141.787 178.38 141.391 178.681C140.995 178.974 140.478 179.121 139.84 179.121C139.231 179.121 138.729 178.989 138.333 178.725C137.944 178.454 137.71 178.087 137.629 177.625L138.498 177.471C138.557 177.72 138.707 177.922 138.949 178.076C139.198 178.23 139.503 178.307 139.862 178.307C140.214 178.307 140.507 178.23 140.742 178.076C140.984 177.922 141.105 177.724 141.105 177.482C141.105 177.137 140.852 176.877 140.346 176.701L138.982 176.228C138.183 175.957 137.783 175.476 137.783 174.787C137.783 174.274 137.97 173.874 138.344 173.588C138.725 173.302 139.224 173.159 139.84 173.159C140.39 173.159 140.845 173.284 141.204 173.533C141.571 173.775 141.794 174.105 141.875 174.523ZM148.146 174.886L147.222 175.161C147.053 174.831 146.808 174.571 146.485 174.38C146.17 174.182 145.814 174.083 145.418 174.083C144.839 174.083 144.358 174.281 143.977 174.677C143.588 175.066 143.394 175.553 143.394 176.14C143.394 176.719 143.588 177.211 143.977 177.614C144.366 178.003 144.846 178.197 145.418 178.197C145.814 178.197 146.17 178.102 146.485 177.911C146.808 177.713 147.053 177.449 147.222 177.119L148.146 177.394C147.911 177.929 147.548 178.351 147.057 178.659C146.573 178.967 146.027 179.121 145.418 179.121C144.575 179.121 143.863 178.839 143.284 178.274C142.719 177.695 142.437 176.983 142.437 176.14C142.437 175.289 142.719 174.582 143.284 174.017C143.856 173.445 144.567 173.159 145.418 173.159C146.027 173.159 146.573 173.313 147.057 173.621C147.548 173.929 147.911 174.351 148.146 174.886ZM149.743 175.766V179H148.819V173.28H149.743V174.248C150.176 173.522 150.854 173.159 151.778 173.159H151.932V174.182C151.815 174.138 151.679 174.116 151.525 174.116C151.019 174.116 150.597 174.274 150.26 174.589C149.915 174.912 149.743 175.304 149.743 175.766ZM153.368 179H152.444V173.28H153.368V179ZM152.444 172.345C152.327 172.22 152.268 172.066 152.268 171.883C152.268 171.7 152.327 171.549 152.444 171.432C152.569 171.307 152.723 171.245 152.906 171.245C153.089 171.245 153.243 171.307 153.368 171.432C153.493 171.549 153.555 171.7 153.555 171.883C153.555 172.066 153.493 172.22 153.368 172.345C153.243 172.462 153.089 172.521 152.906 172.521C152.723 172.521 152.569 172.462 152.444 172.345ZM155.35 181.475H154.426V173.28H155.35V174.094C155.885 173.471 156.578 173.159 157.429 173.159C158.235 173.159 158.906 173.445 159.442 174.017C159.984 174.582 160.256 175.289 160.256 176.14C160.256 176.983 159.984 177.695 159.442 178.274C158.899 178.839 158.228 179.121 157.429 179.121C156.578 179.121 155.885 178.809 155.35 178.186V181.475ZM157.33 174.083C156.78 174.083 156.314 174.281 155.933 174.677C155.559 175.066 155.372 175.553 155.372 176.14C155.372 176.727 155.559 177.218 155.933 177.614C156.321 178.003 156.787 178.197 157.33 178.197C157.887 178.197 158.353 178.003 158.727 177.614C159.108 177.225 159.299 176.734 159.299 176.14C159.299 175.546 159.108 175.058 158.727 174.677C158.353 174.281 157.887 174.083 157.33 174.083ZM160.356 174.094V173.28H161.28V172.136H162.204V173.28H163.799V174.094H162.204V177.207C162.204 177.464 162.281 177.68 162.435 177.856C162.597 178.025 162.795 178.109 163.029 178.109H163.799V179H162.963C162.487 179 162.087 178.839 161.764 178.516C161.442 178.193 161.28 177.794 161.28 177.317V174.094H160.356ZM165.382 179H164.458V173.28H165.382V179ZM164.458 172.345C164.34 172.22 164.282 172.066 164.282 171.883C164.282 171.7 164.34 171.549 164.458 171.432C164.582 171.307 164.736 171.245 164.92 171.245C165.103 171.245 165.257 171.307 165.382 171.432C165.506 171.549 165.569 171.7 165.569 171.883C165.569 172.066 165.506 172.22 165.382 172.345C165.257 172.462 165.103 172.521 164.92 172.521C164.736 172.521 164.582 172.462 164.458 172.345ZM166.989 178.274C166.425 177.695 166.142 176.983 166.142 176.14C166.142 175.289 166.425 174.582 166.989 174.017C167.561 173.445 168.273 173.159 169.123 173.159C169.974 173.159 170.685 173.445 171.257 174.017C171.829 174.582 172.115 175.289 172.115 176.14C172.115 176.991 171.829 177.702 171.257 178.274C170.678 178.839 169.967 179.121 169.123 179.121C168.28 179.121 167.569 178.839 166.989 178.274ZM169.123 178.197C169.703 178.197 170.187 178.003 170.575 177.614C170.964 177.211 171.158 176.719 171.158 176.14C171.158 175.553 170.964 175.066 170.575 174.677C170.187 174.281 169.703 174.083 169.123 174.083C168.544 174.083 168.064 174.281 167.682 174.677C167.294 175.066 167.099 175.553 167.099 176.14C167.099 176.719 167.294 177.211 167.682 177.614C168.071 178.003 168.551 178.197 169.123 178.197ZM172.879 179V173.28H173.803V174.237C174.257 173.518 174.936 173.159 175.838 173.159C176.498 173.159 177.044 173.375 177.477 173.808C177.917 174.233 178.137 174.776 178.137 175.436V179H177.213V175.678C177.213 175.216 177.055 174.827 176.74 174.512C176.432 174.197 176.047 174.039 175.585 174.039C175.086 174.039 174.664 174.2 174.32 174.523C173.975 174.846 173.803 175.238 173.803 175.7V179H172.879Z" fill="#4F4E56"/>
<path d="M130.434 193.82C130.434 193.316 130.2 192.896 129.732 192.56C129.276 192.212 128.694 192.038 127.986 192.038C127.41 192.038 126.9 192.152 126.456 192.38C126.024 192.608 125.712 192.92 125.52 193.316L123.756 192.452C124.116 191.744 124.668 191.186 125.412 190.778C126.156 190.37 127.014 190.166 127.986 190.166C129.27 190.166 130.332 190.514 131.172 191.21C132.024 191.894 132.45 192.74 132.45 193.748C132.45 194.888 131.928 195.8 130.884 196.484C131.472 196.808 131.934 197.24 132.27 197.78C132.606 198.308 132.774 198.878 132.774 199.49C132.774 200.546 132.324 201.434 131.424 202.154C130.524 202.874 129.408 203.234 128.076 203.234C127.02 203.234 126.084 202.994 125.268 202.514C124.464 202.022 123.9 201.374 123.576 200.57L125.466 199.904C125.634 200.348 125.952 200.702 126.42 200.966C126.888 201.23 127.44 201.362 128.076 201.362C128.844 201.362 129.48 201.176 129.984 200.804C130.488 200.432 130.74 199.958 130.74 199.382C130.74 198.83 130.488 198.374 129.984 198.014C129.492 197.642 128.88 197.456 128.148 197.456H127.194V195.656H127.86C128.592 195.656 129.204 195.482 129.696 195.134C130.188 194.786 130.434 194.348 130.434 193.82ZM133.982 198.752V194.648C133.982 193.352 134.438 192.284 135.35 191.444C136.274 190.592 137.426 190.166 138.806 190.166C140.162 190.166 141.302 190.598 142.226 191.462C143.15 192.314 143.612 193.376 143.612 194.648V198.752C143.612 200.024 143.15 201.092 142.226 201.956C141.302 202.808 140.162 203.234 138.806 203.234C137.426 203.234 136.274 202.808 135.35 201.956C134.438 201.116 133.982 200.048 133.982 198.752ZM135.926 194.612V198.77C135.926 199.502 136.202 200.12 136.754 200.624C137.318 201.116 138.002 201.362 138.806 201.362C139.61 201.362 140.288 201.116 140.84 200.624C141.392 200.12 141.668 199.502 141.668 198.77V194.612C141.668 193.868 141.392 193.256 140.84 192.776C140.288 192.284 139.61 192.038 138.806 192.038C138.002 192.038 137.318 192.284 136.754 192.776C136.202 193.256 135.926 193.868 135.926 194.612ZM151.547 203H149.531V190.4H151.547L156.335 198.806L161.105 190.4H163.139V203H161.105V194.234L157.001 201.506H155.669L151.547 194.234V203ZM166.843 203H164.971V193.64H166.843V203ZM165.025 192.254C164.797 192.014 164.683 191.72 164.683 191.372C164.683 191.024 164.797 190.73 165.025 190.49C165.265 190.25 165.559 190.13 165.907 190.13C166.255 190.13 166.549 190.25 166.789 190.49C167.029 190.73 167.149 191.024 167.149 191.372C167.149 191.72 167.029 192.014 166.789 192.254C166.549 192.494 166.255 192.614 165.907 192.614C165.559 192.614 165.265 192.494 165.025 192.254ZM168.567 203V193.64H170.439V195.008C171.123 193.94 172.149 193.406 173.517 193.406C174.597 193.406 175.485 193.754 176.181 194.45C176.889 195.158 177.243 196.034 177.243 197.078V203H175.371V197.618C175.371 196.922 175.143 196.346 174.687 195.89C174.231 195.422 173.655 195.188 172.959 195.188C172.239 195.188 171.639 195.422 171.159 195.89C170.679 196.358 170.439 196.94 170.439 197.636V203H168.567ZM178.807 199.544V193.64H180.679V199.022C180.679 199.706 180.907 200.288 181.363 200.768C181.843 201.224 182.419 201.452 183.091 201.452C183.799 201.452 184.399 201.218 184.891 200.75C185.371 200.282 185.611 199.7 185.611 199.004V193.64H187.483V203H185.611V201.668C184.891 202.712 183.871 203.234 182.551 203.234C181.459 203.234 180.565 202.886 179.869 202.19C179.161 201.482 178.807 200.6 178.807 199.544ZM188.323 195.278V193.64H189.745V191.786H191.617V193.64H194.101V195.278H191.617V199.886C191.617 200.258 191.737 200.57 191.977 200.822C192.217 201.074 192.517 201.2 192.877 201.2H194.101V203H192.733C191.893 203 191.185 202.73 190.609 202.19C190.033 201.626 189.745 200.942 189.745 200.138V195.278H188.323ZM204.498 199.004H196.722C196.866 199.736 197.22 200.336 197.784 200.804C198.36 201.26 199.038 201.488 199.818 201.488C200.874 201.488 201.702 201.098 202.302 200.318L204.138 200.876C203.706 201.608 203.106 202.184 202.338 202.604C201.582 203.024 200.742 203.234 199.818 203.234C198.378 203.234 197.184 202.766 196.236 201.83C195.276 200.894 194.796 199.724 194.796 198.32C194.796 196.928 195.258 195.758 196.182 194.81C197.118 193.874 198.282 193.406 199.674 193.406C201.066 193.406 202.218 193.874 203.13 194.81C204.066 195.746 204.534 196.916 204.534 198.32C204.534 198.368 204.522 198.596 204.498 199.004ZM196.74 197.51H202.608C202.44 196.814 202.08 196.25 201.528 195.818C200.976 195.374 200.34 195.152 199.62 195.152C198.936 195.152 198.324 195.374 197.784 195.818C197.256 196.25 196.908 196.814 196.74 197.51ZM215.125 203H210.085V190.4H215.125C216.985 190.4 218.539 191.006 219.787 192.218C221.047 193.43 221.677 194.924 221.677 196.7C221.677 198.476 221.047 199.97 219.787 201.182C218.539 202.394 216.985 203 215.125 203ZM215.125 192.272H212.101V201.128H215.125C216.385 201.128 217.441 200.702 218.293 199.85C219.145 198.998 219.571 197.948 219.571 196.7C219.571 195.452 219.145 194.402 218.293 193.55C217.441 192.698 216.385 192.272 215.125 192.272ZM227.583 203.234C226.179 203.234 225.009 202.766 224.073 201.83C223.137 200.894 222.669 199.724 222.669 198.32C222.669 196.916 223.137 195.746 224.073 194.81C225.009 193.874 226.179 193.406 227.583 193.406C228.987 193.406 230.157 193.874 231.093 194.81C232.041 195.746 232.515 196.916 232.515 198.32C232.515 199.724 232.041 200.894 231.093 201.83C230.157 202.766 228.987 203.234 227.583 203.234ZM227.583 201.362C228.447 201.362 229.155 201.074 229.707 200.498C230.283 199.91 230.571 199.184 230.571 198.32C230.571 197.456 230.283 196.736 229.707 196.16C229.155 195.572 228.447 195.278 227.583 195.278C226.743 195.278 226.035 195.572 225.459 196.16C224.895 196.748 224.613 197.468 224.613 198.32C224.613 199.172 224.895 199.898 225.459 200.498C226.035 201.074 226.743 201.362 227.583 201.362ZM238.027 193.406C239.239 193.406 240.277 193.82 241.141 194.648V193.64H243.013V202.676C243.013 203.984 242.557 205.076 241.645 205.952C240.733 206.84 239.629 207.284 238.333 207.284C237.373 207.284 236.473 207.038 235.633 206.546C234.817 206.066 234.235 205.436 233.887 204.656L235.777 204.098C235.981 204.482 236.311 204.794 236.767 205.034C237.223 205.286 237.721 205.412 238.261 205.412C239.065 205.412 239.749 205.148 240.313 204.62C240.865 204.104 241.141 203.456 241.141 202.676V201.992C240.277 202.82 239.239 203.234 238.027 203.234C236.719 203.234 235.621 202.766 234.733 201.83C233.857 200.906 233.419 199.736 233.419 198.32C233.419 196.904 233.857 195.734 234.733 194.81C235.621 193.874 236.719 193.406 238.027 193.406ZM238.225 195.278C237.421 195.278 236.743 195.572 236.191 196.16C235.639 196.724 235.363 197.444 235.363 198.32C235.363 199.184 235.639 199.91 236.191 200.498C236.755 201.074 237.433 201.362 238.225 201.362C239.041 201.362 239.725 201.074 240.277 200.498C240.829 199.91 241.105 199.184 241.105 198.32C241.105 197.444 240.829 196.724 240.277 196.16C239.725 195.572 239.041 195.278 238.225 195.278ZM254.08 203H252.442L248.14 190.4H250.21L253.234 199.778L256.186 190.4H257.824L260.776 199.778L263.782 190.4H265.852L261.55 203H259.912L256.996 193.892L254.08 203ZM269.556 193.406C270.768 193.406 271.806 193.82 272.67 194.648V193.64H274.542V203H272.67V201.992C271.806 202.82 270.768 203.234 269.556 203.234C268.248 203.234 267.15 202.766 266.262 201.83C265.386 200.906 264.948 199.736 264.948 198.32C264.948 196.904 265.386 195.734 266.262 194.81C267.15 193.874 268.248 193.406 269.556 193.406ZM269.754 195.278C268.95 195.278 268.272 195.572 267.72 196.16C267.168 196.724 266.892 197.444 266.892 198.32C266.892 199.184 267.168 199.91 267.72 200.498C268.284 201.074 268.962 201.362 269.754 201.362C270.57 201.362 271.254 201.074 271.806 200.498C272.358 199.91 272.634 199.184 272.634 198.32C272.634 197.444 272.358 196.724 271.806 196.16C271.254 195.572 270.57 195.278 269.754 195.278ZM278.142 203H276.27V189.5H278.142V203ZM279.866 203V189.5H281.738V197.96L285.266 193.64H287.552L283.88 198.158L287.948 203H285.644L281.738 198.356V203H279.866Z" fill="#09265A"/>
<rect x="108" y="421" width="479" height="99" rx="6" fill="white"/>
<rect x="108.25" y="421.25" width="478.5" height="98.5" rx="5.75" stroke="#09265A" stroke-opacity="0.3" stroke-width="0.5"/>
<path d="M125.815 440.969H124.858V433.269H125.727L130.49 439.253V433.269H131.447V440.969H130.578L125.815 434.985V440.969ZM133.135 440.243C132.57 439.663 132.288 438.952 132.288 438.109C132.288 437.258 132.57 436.55 133.135 435.986C133.707 435.414 134.418 435.128 135.269 435.128C136.119 435.128 136.831 435.414 137.403 435.986C137.975 436.55 138.261 437.258 138.261 438.109C138.261 438.959 137.975 439.671 137.403 440.243C136.823 440.807 136.112 441.09 135.269 441.09C134.425 441.09 133.714 440.807 133.135 440.243ZM135.269 440.166C135.848 440.166 136.332 439.971 136.721 439.583C137.109 439.179 137.304 438.688 137.304 438.109C137.304 437.522 137.109 437.034 136.721 436.646C136.332 436.25 135.848 436.052 135.269 436.052C134.689 436.052 134.209 436.25 133.828 436.646C133.439 437.034 133.245 437.522 133.245 438.109C133.245 438.688 133.439 439.179 133.828 439.583C134.216 439.971 134.697 440.166 135.269 440.166ZM138.365 436.063V435.249H139.289V434.105H140.213V435.249H141.808V436.063H140.213V439.176C140.213 439.432 140.29 439.649 140.444 439.825C140.606 439.993 140.804 440.078 141.038 440.078H141.808V440.969H140.972C140.496 440.969 140.096 440.807 139.773 440.485C139.451 440.162 139.289 439.762 139.289 439.286V436.063H138.365ZM148.001 438.428H143.084C143.15 438.941 143.377 439.37 143.766 439.715C144.147 440.052 144.616 440.221 145.174 440.221C145.9 440.221 146.464 439.946 146.868 439.396L147.77 439.682C147.506 440.122 147.143 440.466 146.681 440.716C146.226 440.965 145.724 441.09 145.174 441.09C144.308 441.09 143.582 440.807 142.996 440.243C142.416 439.671 142.127 438.959 142.127 438.109C142.127 437.258 142.409 436.55 142.974 435.986C143.538 435.414 144.239 435.128 145.075 435.128C145.918 435.128 146.618 435.414 147.176 435.986C147.74 436.55 148.023 437.258 148.023 438.109C148.023 438.131 148.015 438.237 148.001 438.428ZM143.095 437.68H147.066C146.978 437.188 146.747 436.781 146.373 436.459C146.006 436.143 145.566 435.986 145.053 435.986C144.554 435.986 144.125 436.143 143.766 436.459C143.406 436.774 143.183 437.181 143.095 437.68ZM152.585 436.492L151.716 436.646C151.657 436.426 151.518 436.253 151.298 436.129C151.085 436.004 150.814 435.942 150.484 435.942C150.169 435.942 149.905 436.011 149.692 436.151C149.487 436.29 149.384 436.47 149.384 436.69C149.384 436.998 149.586 437.221 149.989 437.361L151.386 437.856C152.259 438.178 152.695 438.699 152.695 439.418C152.695 439.938 152.497 440.349 152.101 440.65C151.705 440.943 151.188 441.09 150.55 441.09C149.941 441.09 149.439 440.958 149.043 440.694C148.654 440.422 148.42 440.056 148.339 439.594L149.208 439.44C149.267 439.689 149.417 439.891 149.659 440.045C149.908 440.199 150.213 440.276 150.572 440.276C150.924 440.276 151.217 440.199 151.452 440.045C151.694 439.891 151.815 439.693 151.815 439.451C151.815 439.106 151.562 438.846 151.056 438.67L149.692 438.197C148.893 437.925 148.493 437.445 148.493 436.756C148.493 436.242 148.68 435.843 149.054 435.557C149.435 435.271 149.934 435.128 150.55 435.128C151.1 435.128 151.555 435.252 151.914 435.502C152.281 435.744 152.504 436.074 152.585 436.492Z" fill="#4F4E56"/>
<g filter="url(#filter1_d)">
<rect x="401" y="393" width="327" height="198" rx="16" fill="white"/>
</g>
<path d="M426.627 426.395V446H430.373V439.082H434.939L439.055 446H443.225L438.754 438.439C439.889 437.934 440.791 437.168 441.461 436.156C442.131 435.145 442.473 433.996 442.473 432.725C442.473 430.92 441.816 429.43 440.518 428.227C439.205 427.01 437.605 426.395 435.691 426.395H426.627ZM435.691 429.867C436.512 429.867 437.195 430.141 437.742 430.674C438.275 431.221 438.549 431.904 438.549 432.725C438.549 433.559 438.275 434.242 437.742 434.789C437.195 435.336 436.512 435.609 435.691 435.609H430.373V429.867H435.691ZM458.926 440.012C458.994 439.52 459.035 439.082 459.035 438.727C459.035 436.539 458.297 434.707 456.82 433.23C455.371 431.754 453.566 431.016 451.393 431.016C449.219 431.016 447.4 431.754 445.924 433.23C444.475 434.68 443.75 436.512 443.75 438.727C443.75 440.914 444.488 442.76 445.979 444.236C447.51 445.699 449.383 446.424 451.611 446.424C453.061 446.424 454.4 446.096 455.604 445.412C456.807 444.742 457.736 443.812 458.42 442.637L455.029 441.666C454.209 442.691 453.061 443.197 451.611 443.197C450.586 443.197 449.684 442.91 448.918 442.322C448.139 441.748 447.619 440.969 447.359 440.012H458.926ZM447.387 437.291C447.646 436.389 448.139 435.65 448.877 435.09C449.602 434.529 450.422 434.242 451.338 434.242C452.281 434.242 453.129 434.529 453.881 435.09C454.619 435.65 455.139 436.389 455.426 437.291H447.387ZM475.037 435.842C474.463 434.379 473.533 433.203 472.248 432.328C470.963 431.453 469.486 431.016 467.846 431.016C465.631 431.016 463.799 431.754 462.322 433.23C460.873 434.68 460.148 436.512 460.148 438.727C460.148 440.914 460.873 442.76 462.322 444.236C463.826 445.699 465.658 446.424 467.846 446.424C469.486 446.424 470.963 445.986 472.248 445.111C473.533 444.236 474.463 443.074 475.037 441.598L471.537 440.572C471.209 441.311 470.717 441.885 470.061 442.295C469.404 442.719 468.666 442.924 467.846 442.924C466.67 442.924 465.699 442.527 464.934 441.721C464.141 440.914 463.758 439.916 463.758 438.727C463.758 437.537 464.141 436.539 464.934 435.719C465.699 434.926 466.67 434.516 467.846 434.516C468.666 434.516 469.404 434.734 470.061 435.145C470.717 435.568 471.209 436.143 471.537 436.867L475.037 435.842ZM476.697 440.736C476.697 442.377 477.23 443.73 478.311 444.797C479.391 445.891 480.758 446.424 482.426 446.424C484.258 446.424 485.721 445.699 486.801 444.236V446H490.301V431.439H486.801V439.725C486.801 440.682 486.473 441.475 485.844 442.117C485.215 442.773 484.422 443.088 483.492 443.088C482.535 443.088 481.756 442.773 481.127 442.131C480.498 441.488 480.197 440.682 480.197 439.725V431.439H476.697V440.736ZM496.268 431.439H492.768V446H496.268V437.988C496.268 437.031 496.582 436.225 497.225 435.568C497.854 434.926 498.66 434.598 499.617 434.598C500.082 434.598 500.561 434.707 501.053 434.912V431.016C498.865 431.016 497.266 431.754 496.268 433.23V431.439ZM505.967 431.439H502.467V446H505.967V437.988C505.967 437.031 506.281 436.225 506.924 435.568C507.553 434.926 508.359 434.598 509.316 434.598C509.781 434.598 510.26 434.707 510.752 434.912V431.016C508.564 431.016 506.965 431.754 505.967 433.23V431.439ZM515.666 446V431.439H512.166V446H515.666ZM513.902 430.154C514.545 430.154 515.078 429.949 515.502 429.512C515.912 429.088 516.131 428.555 516.131 427.912C516.131 427.283 515.912 426.764 515.488 426.34C515.051 425.916 514.531 425.697 513.902 425.697C513.273 425.697 512.74 425.916 512.316 426.34C511.893 426.764 511.688 427.283 511.688 427.912C511.688 428.541 511.893 429.074 512.316 429.512C512.74 429.949 513.273 430.154 513.902 430.154ZM518.146 446H521.646V437.688C521.646 436.744 521.961 435.951 522.59 435.309C523.219 434.68 524.012 434.352 524.969 434.352C525.898 434.352 526.678 434.68 527.307 435.309C527.936 435.951 528.25 436.744 528.25 437.688V446H531.75V436.703C531.75 435.104 531.189 433.75 530.096 432.643C529.002 431.562 527.648 431.016 526.008 431.016C524.176 431.016 522.713 431.754 521.646 433.203V431.439H518.146V446ZM540.766 431.016C538.742 431.016 537.047 431.754 535.693 433.23C534.354 434.68 533.684 436.512 533.684 438.727C533.684 440.914 534.354 442.76 535.693 444.236C537.061 445.699 538.756 446.424 540.766 446.424C542.406 446.424 543.883 445.904 545.182 444.852V445.604C545.182 446.643 544.799 447.504 544.061 448.188C543.295 448.898 542.379 449.254 541.326 449.254C540.561 449.254 539.85 449.076 539.207 448.721C538.551 448.365 538.1 447.9 537.826 447.34L534.326 448.352C534.832 449.609 535.748 450.648 537.061 451.455C538.387 452.303 539.85 452.727 541.436 452.727C543.459 452.727 545.168 452.043 546.562 450.676C547.957 449.309 548.654 447.627 548.654 445.604V431.439H545.182V432.588C543.883 431.549 542.406 431.016 540.766 431.016ZM543.979 435.719C544.744 436.539 545.127 437.551 545.127 438.727C545.127 439.902 544.744 440.9 543.979 441.721C543.227 442.527 542.311 442.924 541.217 442.924C540.096 442.924 539.152 442.527 538.414 441.721C537.662 440.928 537.293 439.93 537.293 438.727C537.293 437.523 537.662 436.525 538.414 435.719C539.152 434.926 540.096 434.516 541.217 434.516C542.311 434.516 543.227 434.926 543.979 435.719ZM567.848 425.984C564.881 425.984 562.406 426.969 560.424 428.924C558.441 430.852 557.457 433.271 557.457 436.197C557.457 439.109 558.428 441.543 560.369 443.512C562.311 445.453 564.717 446.424 567.615 446.424C570.514 446.424 572.934 445.453 574.875 443.484C576.816 441.488 577.787 439.055 577.787 436.17C577.787 436.088 577.76 435.76 577.732 435.186H567.287V438.604H573.467C573.029 439.889 572.277 440.9 571.197 441.639C570.09 442.404 568.873 442.773 567.561 442.773C565.824 442.773 564.361 442.158 563.172 440.9C561.969 439.656 561.381 438.084 561.381 436.197C561.381 434.324 561.996 432.752 563.227 431.494C564.457 430.236 566.002 429.594 567.848 429.594C569.051 429.594 570.158 429.895 571.143 430.469C572.127 431.043 572.893 431.85 573.467 432.861L577.117 431.494C576.27 429.812 575.025 428.473 573.385 427.488C571.744 426.49 569.898 425.984 567.848 425.984ZM583.357 446V431.439H579.857V446H583.357ZM581.594 430.154C582.236 430.154 582.77 429.949 583.193 429.512C583.604 429.088 583.822 428.555 583.822 427.912C583.822 427.283 583.604 426.764 583.18 426.34C582.742 425.916 582.223 425.697 581.594 425.697C580.965 425.697 580.432 425.916 580.008 426.34C579.584 426.764 579.379 427.283 579.379 427.912C579.379 428.541 579.584 429.074 580.008 429.512C580.432 429.949 580.965 430.154 581.594 430.154ZM592.387 431.016C590.363 431.016 588.668 431.754 587.314 433.23C585.975 434.68 585.305 436.512 585.305 438.727C585.305 440.914 585.975 442.76 587.314 444.236C588.682 445.699 590.377 446.424 592.387 446.424C594.027 446.424 595.504 445.904 596.803 444.852V445.604C596.803 446.643 596.42 447.504 595.682 448.188C594.916 448.898 594 449.254 592.947 449.254C592.182 449.254 591.471 449.076 590.828 448.721C590.172 448.365 589.721 447.9 589.447 447.34L585.947 448.352C586.453 449.609 587.369 450.648 588.682 451.455C590.008 452.303 591.471 452.727 593.057 452.727C595.08 452.727 596.789 452.043 598.184 450.676C599.578 449.309 600.275 447.627 600.275 445.604V431.439H596.803V432.588C595.504 431.549 594.027 431.016 592.387 431.016ZM595.6 435.719C596.365 436.539 596.748 437.551 596.748 438.727C596.748 439.902 596.365 440.9 595.6 441.721C594.848 442.527 593.932 442.924 592.838 442.924C591.717 442.924 590.773 442.527 590.035 441.721C589.283 440.928 588.914 439.93 588.914 438.727C588.914 437.523 589.283 436.525 590.035 435.719C590.773 434.926 591.717 434.516 592.838 434.516C593.932 434.516 594.848 434.926 595.6 435.719Z" fill="#216ACC"/>
<rect x="426" y="500" width="87" height="61" rx="6" fill="white"/>
<rect x="426.25" y="500.25" width="86.5" height="60.5" rx="5.75" stroke="#09265A" stroke-opacity="0.3" stroke-width="0.5"/>
<rect x="528" y="500" width="87" height="61" rx="6" fill="white"/>
<rect x="528.25" y="500.25" width="86.5" height="60.5" rx="5.75" stroke="#09265A" stroke-opacity="0.3" stroke-width="0.5"/>
<path d="M424.858 478.268H428.345C429.056 478.268 429.65 478.496 430.127 478.95C430.604 479.405 430.842 479.97 430.842 480.644C430.842 481.165 430.695 481.627 430.402 482.03C430.116 482.426 429.727 482.709 429.236 482.877L431.128 485.968H430.017L428.213 483.02H425.848V485.968H424.858V478.268ZM428.345 479.192H425.848V482.096H428.345C428.763 482.096 429.111 481.957 429.39 481.678C429.669 481.4 429.808 481.055 429.808 480.644C429.808 480.226 429.669 479.882 429.39 479.61C429.111 479.332 428.763 479.192 428.345 479.192ZM437.152 483.427H432.235C432.301 483.941 432.528 484.37 432.917 484.714C433.298 485.052 433.768 485.22 434.325 485.22C435.051 485.22 435.616 484.945 436.019 484.395L436.921 484.681C436.657 485.121 436.294 485.466 435.832 485.715C435.377 485.965 434.875 486.089 434.325 486.089C433.46 486.089 432.734 485.807 432.147 485.242C431.568 484.67 431.278 483.959 431.278 483.108C431.278 482.258 431.56 481.55 432.125 480.985C432.69 480.413 433.39 480.127 434.226 480.127C435.069 480.127 435.77 480.413 436.327 480.985C436.892 481.55 437.174 482.258 437.174 483.108C437.174 483.13 437.167 483.237 437.152 483.427ZM432.246 482.679H436.217C436.129 482.188 435.898 481.781 435.524 481.458C435.157 481.143 434.717 480.985 434.204 480.985C433.705 480.985 433.276 481.143 432.917 481.458C432.558 481.774 432.334 482.181 432.246 482.679ZM438.777 488.443H437.853V480.248H438.777V481.062C439.313 480.439 440.006 480.127 440.856 480.127C441.663 480.127 442.334 480.413 442.869 480.985C443.412 481.55 443.683 482.258 443.683 483.108C443.683 483.952 443.412 484.663 442.869 485.242C442.327 485.807 441.656 486.089 440.856 486.089C440.006 486.089 439.313 485.778 438.777 485.154V488.443ZM440.757 481.051C440.207 481.051 439.742 481.249 439.36 481.645C438.986 482.034 438.799 482.522 438.799 483.108C438.799 483.695 438.986 484.186 439.36 484.582C439.749 484.971 440.215 485.165 440.757 485.165C441.315 485.165 441.78 484.971 442.154 484.582C442.536 484.194 442.726 483.702 442.726 483.108C442.726 482.514 442.536 482.027 442.154 481.645C441.78 481.249 441.315 481.051 440.757 481.051ZM450.02 483.427H445.103C445.169 483.941 445.396 484.37 445.785 484.714C446.166 485.052 446.636 485.22 447.193 485.22C447.919 485.22 448.484 484.945 448.887 484.395L449.789 484.681C449.525 485.121 449.162 485.466 448.7 485.715C448.245 485.965 447.743 486.089 447.193 486.089C446.328 486.089 445.602 485.807 445.015 485.242C444.436 484.67 444.146 483.959 444.146 483.108C444.146 482.258 444.428 481.55 444.993 480.985C445.558 480.413 446.258 480.127 447.094 480.127C447.937 480.127 448.638 480.413 449.195 480.985C449.76 481.55 450.042 482.258 450.042 483.108C450.042 483.13 450.035 483.237 450.02 483.427ZM445.114 482.679H449.085C448.997 482.188 448.766 481.781 448.392 481.458C448.025 481.143 447.585 480.985 447.072 480.985C446.573 480.985 446.144 481.143 445.785 481.458C445.426 481.774 445.202 482.181 445.114 482.679ZM453.24 480.127C454.098 480.127 454.795 480.439 455.33 481.062V480.248H456.254V485.968H455.33V485.154C454.795 485.778 454.098 486.089 453.24 486.089C452.441 486.089 451.77 485.807 451.227 485.242C450.692 484.678 450.424 483.966 450.424 483.108C450.424 482.25 450.692 481.543 451.227 480.985C451.763 480.413 452.434 480.127 453.24 480.127ZM453.339 481.051C452.789 481.051 452.324 481.249 451.942 481.645C451.568 482.034 451.381 482.522 451.381 483.108C451.381 483.695 451.568 484.186 451.942 484.582C452.331 484.971 452.797 485.165 453.339 485.165C453.897 485.165 454.362 484.971 454.736 484.582C455.118 484.194 455.308 483.702 455.308 483.108C455.308 482.514 455.118 482.027 454.736 481.645C454.362 481.249 453.897 481.051 453.339 481.051ZM456.695 481.062V480.248H457.619V479.104H458.543V480.248H460.138V481.062H458.543V484.175C458.543 484.432 458.62 484.648 458.774 484.824C458.936 484.993 459.134 485.077 459.368 485.077H460.138V485.968H459.302C458.826 485.968 458.426 485.807 458.103 485.484C457.781 485.162 457.619 484.762 457.619 484.285V481.062H456.695ZM463.392 478.268H468.936V479.192H464.382V481.612H468.375V482.536H464.382V485.044H468.991V485.968H463.392V478.268ZM471.398 485.968L468.934 480.248H469.891L471.816 484.78L473.752 480.248H474.709L472.245 485.968H471.398ZM480.514 483.427H475.597C475.663 483.941 475.891 484.37 476.279 484.714C476.661 485.052 477.13 485.22 477.687 485.22C478.413 485.22 478.978 484.945 479.381 484.395L480.283 484.681C480.019 485.121 479.656 485.466 479.194 485.715C478.74 485.965 478.237 486.089 477.687 486.089C476.822 486.089 476.096 485.807 475.509 485.242C474.93 484.67 474.64 483.959 474.64 483.108C474.64 482.258 474.923 481.55 475.487 480.985C476.052 480.413 476.752 480.127 477.588 480.127C478.432 480.127 479.132 480.413 479.689 480.985C480.254 481.55 480.536 482.258 480.536 483.108C480.536 483.13 480.529 483.237 480.514 483.427ZM475.608 482.679H479.579C479.491 482.188 479.26 481.781 478.886 481.458C478.52 481.143 478.08 480.985 477.566 480.985C477.068 480.985 476.639 481.143 476.279 481.458C475.92 481.774 475.696 482.181 475.608 482.679ZM482.14 482.734V485.968H481.216V480.248H482.14V481.216C482.572 480.49 483.251 480.127 484.175 480.127H484.329V481.15C484.211 481.106 484.076 481.084 483.922 481.084C483.416 481.084 482.994 481.242 482.657 481.557C482.312 481.88 482.14 482.272 482.14 482.734ZM486.15 486.639L486.491 485.803L484.214 480.248H485.171L486.964 484.692L488.812 480.248H489.769L486.953 486.947C486.74 487.468 486.465 487.846 486.128 488.08C485.798 488.322 485.376 488.443 484.863 488.443H484.599V487.552H484.863C485.464 487.552 485.893 487.248 486.15 486.639Z" fill="#4F4E56"/>
<path d="M469.05 524.83L466.692 526.036L465.846 524.308L469.608 522.4H470.994V535H469.05V524.83Z" fill="#09265A"/>
<path d="M465 539.05H473.064V539.95H465V539.05Z" fill="#09265A"/>
<path d="M546.174 535H544.536L540.234 522.4H542.304L545.328 531.778L548.28 522.4H549.918L552.87 531.778L555.876 522.4H557.946L553.644 535H552.006L549.09 525.892L546.174 535ZM566.744 531.004H558.968C559.112 531.736 559.466 532.336 560.03 532.804C560.606 533.26 561.284 533.488 562.064 533.488C563.12 533.488 563.948 533.098 564.548 532.318L566.384 532.876C565.952 533.608 565.352 534.184 564.584 534.604C563.828 535.024 562.988 535.234 562.064 535.234C560.624 535.234 559.43 534.766 558.482 533.83C557.522 532.894 557.042 531.724 557.042 530.32C557.042 528.928 557.504 527.758 558.428 526.81C559.364 525.874 560.528 525.406 561.92 525.406C563.312 525.406 564.464 525.874 565.376 526.81C566.312 527.746 566.78 528.916 566.78 530.32C566.78 530.368 566.768 530.596 566.744 531.004ZM558.986 529.51H564.854C564.686 528.814 564.326 528.25 563.774 527.818C563.222 527.374 562.586 527.152 561.866 527.152C561.182 527.152 560.57 527.374 560.03 527.818C559.502 528.25 559.154 528.814 558.986 529.51ZM577.23 531.004H569.454C569.598 531.736 569.952 532.336 570.516 532.804C571.092 533.26 571.77 533.488 572.55 533.488C573.606 533.488 574.434 533.098 575.034 532.318L576.87 532.876C576.438 533.608 575.838 534.184 575.07 534.604C574.314 535.024 573.474 535.234 572.55 535.234C571.11 535.234 569.916 534.766 568.968 533.83C568.008 532.894 567.528 531.724 567.528 530.32C567.528 528.928 567.99 527.758 568.914 526.81C569.85 525.874 571.014 525.406 572.406 525.406C573.798 525.406 574.95 525.874 575.862 526.81C576.798 527.746 577.266 528.916 577.266 530.32C577.266 530.368 577.254 530.596 577.23 531.004ZM569.472 529.51H575.34C575.172 528.814 574.812 528.25 574.26 527.818C573.708 527.374 573.072 527.152 572.352 527.152C571.668 527.152 571.056 527.374 570.516 527.818C569.988 528.25 569.64 528.814 569.472 529.51ZM578.429 535V521.5H580.301V529.96L583.829 525.64H586.115L582.443 530.158L586.511 535H584.207L580.301 530.356V535H578.429ZM589.51 520.924L589.78 520.6H591.508L591.202 520.978C591.082 521.122 590.866 521.494 590.554 522.094C589.918 523.258 589.426 524.674 589.078 526.342C588.694 528.346 588.688 530.362 589.06 532.39C589.276 533.434 589.504 534.256 589.744 534.856C590.284 536.212 590.782 537.184 591.238 537.772L591.508 538.15H589.78L589.762 538.132C588.802 537.028 588.082 535.534 587.602 533.65C587.254 532.294 587.08 530.866 587.08 529.366C587.08 527.158 587.398 525.262 588.034 523.678C588.562 522.358 589.054 521.44 589.51 520.924ZM598.994 527.782L597.23 528.088C597.014 527.392 596.402 527.044 595.394 527.044C594.938 527.044 594.566 527.134 594.278 527.314C593.99 527.494 593.846 527.74 593.846 528.052C593.846 528.46 594.146 528.772 594.746 528.988L596.852 529.708C597.656 530.008 598.238 530.374 598.598 530.806C598.97 531.238 599.156 531.772 599.156 532.408C599.156 533.308 598.826 534.004 598.166 534.496C597.506 534.988 596.636 535.234 595.556 535.234C594.5 535.234 593.642 535.006 592.982 534.55C592.322 534.082 591.926 533.44 591.794 532.624L593.558 532.354C593.642 532.726 593.864 533.026 594.224 533.254C594.584 533.482 595.04 533.596 595.592 533.596C596.108 533.596 596.528 533.494 596.852 533.29C597.188 533.086 597.356 532.81 597.356 532.462C597.356 532.018 596.978 531.658 596.222 531.382L594.134 530.68C593.402 530.428 592.868 530.104 592.532 529.708C592.208 529.312 592.046 528.808 592.046 528.196C592.046 527.296 592.364 526.606 593 526.126C593.636 525.646 594.482 525.406 595.538 525.406C596.486 525.406 597.266 525.622 597.878 526.054C598.49 526.474 598.862 527.05 598.994 527.782ZM599.783 520.96L599.513 520.6H601.259L601.547 520.942C601.667 521.086 601.883 521.428 602.195 521.968C602.543 522.58 602.819 523.162 603.023 523.714C603.263 524.338 603.479 525.154 603.671 526.162C603.863 527.158 603.959 528.226 603.959 529.366C603.959 531.418 603.671 533.236 603.095 534.82C602.867 535.456 602.609 536.032 602.321 536.548C602.009 537.1 601.787 537.466 601.655 537.646C601.535 537.85 601.409 538.012 601.277 538.132L601.259 538.15H599.513L599.801 537.754C599.957 537.562 600.179 537.19 600.467 536.638C600.755 536.11 601.025 535.51 601.277 534.838C601.505 534.202 601.721 533.392 601.925 532.408C602.333 530.428 602.339 528.412 601.943 526.36C601.763 525.364 601.541 524.542 601.277 523.894C600.773 522.598 600.275 521.62 599.783 520.96Z" fill="#09265A"/>
<path d="M540 539.05H604.751V539.95H540V539.05Z" fill="#09265A"/>
<rect x="643" y="418" width="61" height="37" rx="18.5" fill="#216ACC"/>
<circle cx="684" cy="437" r="15" fill="white"/>
<g filter="url(#filter2_d)">
<rect x="401" y="393" width="327" height="198" rx="16" fill="white"/>
</g>
<path d="M426.627 426.395V446H430.373V439.082H434.939L439.055 446H443.225L438.754 438.439C439.889 437.934 440.791 437.168 441.461 436.156C442.131 435.145 442.473 433.996 442.473 432.725C442.473 430.92 441.816 429.43 440.518 428.227C439.205 427.01 437.605 426.395 435.691 426.395H426.627ZM435.691 429.867C436.512 429.867 437.195 430.141 437.742 430.674C438.275 431.221 438.549 431.904 438.549 432.725C438.549 433.559 438.275 434.242 437.742 434.789C437.195 435.336 436.512 435.609 435.691 435.609H430.373V429.867H435.691ZM458.926 440.012C458.994 439.52 459.035 439.082 459.035 438.727C459.035 436.539 458.297 434.707 456.82 433.23C455.371 431.754 453.566 431.016 451.393 431.016C449.219 431.016 447.4 431.754 445.924 433.23C444.475 434.68 443.75 436.512 443.75 438.727C443.75 440.914 444.488 442.76 445.979 444.236C447.51 445.699 449.383 446.424 451.611 446.424C453.061 446.424 454.4 446.096 455.604 445.412C456.807 444.742 457.736 443.812 458.42 442.637L455.029 441.666C454.209 442.691 453.061 443.197 451.611 443.197C450.586 443.197 449.684 442.91 448.918 442.322C448.139 441.748 447.619 440.969 447.359 440.012H458.926ZM447.387 437.291C447.646 436.389 448.139 435.65 448.877 435.09C449.602 434.529 450.422 434.242 451.338 434.242C452.281 434.242 453.129 434.529 453.881 435.09C454.619 435.65 455.139 436.389 455.426 437.291H447.387ZM475.037 435.842C474.463 434.379 473.533 433.203 472.248 432.328C470.963 431.453 469.486 431.016 467.846 431.016C465.631 431.016 463.799 431.754 462.322 433.23C460.873 434.68 460.148 436.512 460.148 438.727C460.148 440.914 460.873 442.76 462.322 444.236C463.826 445.699 465.658 446.424 467.846 446.424C469.486 446.424 470.963 445.986 472.248 445.111C473.533 444.236 474.463 443.074 475.037 441.598L471.537 440.572C471.209 441.311 470.717 441.885 470.061 442.295C469.404 442.719 468.666 442.924 467.846 442.924C466.67 442.924 465.699 442.527 464.934 441.721C464.141 440.914 463.758 439.916 463.758 438.727C463.758 437.537 464.141 436.539 464.934 435.719C465.699 434.926 466.67 434.516 467.846 434.516C468.666 434.516 469.404 434.734 470.061 435.145C470.717 435.568 471.209 436.143 471.537 436.867L475.037 435.842ZM476.697 440.736C476.697 442.377 477.23 443.73 478.311 444.797C479.391 445.891 480.758 446.424 482.426 446.424C484.258 446.424 485.721 445.699 486.801 444.236V446H490.301V431.439H486.801V439.725C486.801 440.682 486.473 441.475 485.844 442.117C485.215 442.773 484.422 443.088 483.492 443.088C482.535 443.088 481.756 442.773 481.127 442.131C480.498 441.488 480.197 440.682 480.197 439.725V431.439H476.697V440.736ZM496.268 431.439H492.768V446H496.268V437.988C496.268 437.031 496.582 436.225 497.225 435.568C497.854 434.926 498.66 434.598 499.617 434.598C500.082 434.598 500.561 434.707 501.053 434.912V431.016C498.865 431.016 497.266 431.754 496.268 433.23V431.439ZM505.967 431.439H502.467V446H505.967V437.988C505.967 437.031 506.281 436.225 506.924 435.568C507.553 434.926 508.359 434.598 509.316 434.598C509.781 434.598 510.26 434.707 510.752 434.912V431.016C508.564 431.016 506.965 431.754 505.967 433.23V431.439ZM515.666 446V431.439H512.166V446H515.666ZM513.902 430.154C514.545 430.154 515.078 429.949 515.502 429.512C515.912 429.088 516.131 428.555 516.131 427.912C516.131 427.283 515.912 426.764 515.488 426.34C515.051 425.916 514.531 425.697 513.902 425.697C513.273 425.697 512.74 425.916 512.316 426.34C511.893 426.764 511.688 427.283 511.688 427.912C511.688 428.541 511.893 429.074 512.316 429.512C512.74 429.949 513.273 430.154 513.902 430.154ZM518.146 446H521.646V437.688C521.646 436.744 521.961 435.951 522.59 435.309C523.219 434.68 524.012 434.352 524.969 434.352C525.898 434.352 526.678 434.68 527.307 435.309C527.936 435.951 528.25 436.744 528.25 437.688V446H531.75V436.703C531.75 435.104 531.189 433.75 530.096 432.643C529.002 431.562 527.648 431.016 526.008 431.016C524.176 431.016 522.713 431.754 521.646 433.203V431.439H518.146V446ZM540.766 431.016C538.742 431.016 537.047 431.754 535.693 433.23C534.354 434.68 533.684 436.512 533.684 438.727C533.684 440.914 534.354 442.76 535.693 444.236C537.061 445.699 538.756 446.424 540.766 446.424C542.406 446.424 543.883 445.904 545.182 444.852V445.604C545.182 446.643 544.799 447.504 544.061 448.188C543.295 448.898 542.379 449.254 541.326 449.254C540.561 449.254 539.85 449.076 539.207 448.721C538.551 448.365 538.1 447.9 537.826 447.34L534.326 448.352C534.832 449.609 535.748 450.648 537.061 451.455C538.387 452.303 539.85 452.727 541.436 452.727C543.459 452.727 545.168 452.043 546.562 450.676C547.957 449.309 548.654 447.627 548.654 445.604V431.439H545.182V432.588C543.883 431.549 542.406 431.016 540.766 431.016ZM543.979 435.719C544.744 436.539 545.127 437.551 545.127 438.727C545.127 439.902 544.744 440.9 543.979 441.721C543.227 442.527 542.311 442.924 541.217 442.924C540.096 442.924 539.152 442.527 538.414 441.721C537.662 440.928 537.293 439.93 537.293 438.727C537.293 437.523 537.662 436.525 538.414 435.719C539.152 434.926 540.096 434.516 541.217 434.516C542.311 434.516 543.227 434.926 543.979 435.719ZM567.848 425.984C564.881 425.984 562.406 426.969 560.424 428.924C558.441 430.852 557.457 433.271 557.457 436.197C557.457 439.109 558.428 441.543 560.369 443.512C562.311 445.453 564.717 446.424 567.615 446.424C570.514 446.424 572.934 445.453 574.875 443.484C576.816 441.488 577.787 439.055 577.787 436.17C577.787 436.088 577.76 435.76 577.732 435.186H567.287V438.604H573.467C573.029 439.889 572.277 440.9 571.197 441.639C570.09 442.404 568.873 442.773 567.561 442.773C565.824 442.773 564.361 442.158 563.172 440.9C561.969 439.656 561.381 438.084 561.381 436.197C561.381 434.324 561.996 432.752 563.227 431.494C564.457 430.236 566.002 429.594 567.848 429.594C569.051 429.594 570.158 429.895 571.143 430.469C572.127 431.043 572.893 431.85 573.467 432.861L577.117 431.494C576.27 429.812 575.025 428.473 573.385 427.488C571.744 426.49 569.898 425.984 567.848 425.984ZM583.357 446V431.439H579.857V446H583.357ZM581.594 430.154C582.236 430.154 582.77 429.949 583.193 429.512C583.604 429.088 583.822 428.555 583.822 427.912C583.822 427.283 583.604 426.764 583.18 426.34C582.742 425.916 582.223 425.697 581.594 425.697C580.965 425.697 580.432 425.916 580.008 426.34C579.584 426.764 579.379 427.283 579.379 427.912C579.379 428.541 579.584 429.074 580.008 429.512C580.432 429.949 580.965 430.154 581.594 430.154ZM592.387 431.016C590.363 431.016 588.668 431.754 587.314 433.23C585.975 434.68 585.305 436.512 585.305 438.727C585.305 440.914 585.975 442.76 587.314 444.236C588.682 445.699 590.377 446.424 592.387 446.424C594.027 446.424 595.504 445.904 596.803 444.852V445.604C596.803 446.643 596.42 447.504 595.682 448.188C594.916 448.898 594 449.254 592.947 449.254C592.182 449.254 591.471 449.076 590.828 448.721C590.172 448.365 589.721 447.9 589.447 447.34L585.947 448.352C586.453 449.609 587.369 450.648 588.682 451.455C590.008 452.303 591.471 452.727 593.057 452.727C595.08 452.727 596.789 452.043 598.184 450.676C599.578 449.309 600.275 447.627 600.275 445.604V431.439H596.803V432.588C595.504 431.549 594.027 431.016 592.387 431.016ZM595.6 435.719C596.365 436.539 596.748 437.551 596.748 438.727C596.748 439.902 596.365 440.9 595.6 441.721C594.848 442.527 593.932 442.924 592.838 442.924C591.717 442.924 590.773 442.527 590.035 441.721C589.283 440.928 588.914 439.93 588.914 438.727C588.914 437.523 589.283 436.525 590.035 435.719C590.773 434.926 591.717 434.516 592.838 434.516C593.932 434.516 594.848 434.926 595.6 435.719Z" fill="#216ACC"/>
<rect x="426" y="500" width="87" height="61" rx="6" fill="white"/>
<rect x="426.25" y="500.25" width="86.5" height="60.5" rx="5.75" stroke="#09265A" stroke-opacity="0.3" stroke-width="0.5"/>
<rect x="528" y="500" width="87" height="61" rx="6" fill="white"/>
<rect x="528.25" y="500.25" width="86.5" height="60.5" rx="5.75" stroke="#09265A" stroke-opacity="0.3" stroke-width="0.5"/>
<path d="M425.17 472.5H429.925C430.895 472.5 431.705 472.81 432.355 473.43C433.005 474.05 433.33 474.82 433.33 475.74C433.33 476.45 433.13 477.08 432.73 477.63C432.34 478.17 431.81 478.555 431.14 478.785L433.72 483H432.205L429.745 478.98H426.52V483H425.17V472.5ZM429.925 473.76H426.52V477.72H429.925C430.495 477.72 430.97 477.53 431.35 477.15C431.73 476.77 431.92 476.3 431.92 475.74C431.92 475.17 431.73 474.7 431.35 474.33C430.97 473.95 430.495 473.76 429.925 473.76ZM442.116 479.535H435.411C435.501 480.235 435.811 480.82 436.341 481.29C436.861 481.75 437.501 481.98 438.261 481.98C439.251 481.98 440.021 481.605 440.571 480.855L441.801 481.245C441.441 481.845 440.946 482.315 440.316 482.655C439.696 482.995 439.011 483.165 438.261 483.165C437.081 483.165 436.091 482.78 435.291 482.01C434.501 481.23 434.106 480.26 434.106 479.1C434.106 477.94 434.491 476.975 435.261 476.205C436.031 475.425 436.986 475.035 438.126 475.035C439.276 475.035 440.231 475.425 440.991 476.205C441.761 476.975 442.146 477.94 442.146 479.1C442.146 479.13 442.136 479.275 442.116 479.535ZM435.426 478.515H440.841C440.721 477.845 440.406 477.29 439.896 476.85C439.396 476.42 438.796 476.205 438.096 476.205C437.416 476.205 436.831 476.42 436.341 476.85C435.851 477.28 435.546 477.835 435.426 478.515ZM444.514 486.375H443.254V475.2H444.514V476.31C445.244 475.46 446.189 475.035 447.349 475.035C448.449 475.035 449.364 475.425 450.094 476.205C450.834 476.975 451.204 477.94 451.204 479.1C451.204 480.25 450.834 481.22 450.094 482.01C449.354 482.78 448.439 483.165 447.349 483.165C446.189 483.165 445.244 482.74 444.514 481.89V486.375ZM447.214 476.295C446.464 476.295 445.829 476.565 445.309 477.105C444.799 477.635 444.544 478.3 444.544 479.1C444.544 479.9 444.799 480.57 445.309 481.11C445.839 481.64 446.474 481.905 447.214 481.905C447.974 481.905 448.609 481.64 449.119 481.11C449.639 480.58 449.899 479.91 449.899 479.1C449.899 478.29 449.639 477.625 449.119 477.105C448.609 476.565 447.974 476.295 447.214 476.295ZM460.027 479.535H453.322C453.412 480.235 453.722 480.82 454.252 481.29C454.772 481.75 455.412 481.98 456.172 481.98C457.162 481.98 457.932 481.605 458.482 480.855L459.712 481.245C459.352 481.845 458.857 482.315 458.227 482.655C457.607 482.995 456.922 483.165 456.172 483.165C454.992 483.165 454.002 482.78 453.202 482.01C452.412 481.23 452.017 480.26 452.017 479.1C452.017 477.94 452.402 476.975 453.172 476.205C453.942 475.425 454.897 475.035 456.037 475.035C457.187 475.035 458.142 475.425 458.902 476.205C459.672 476.975 460.057 477.94 460.057 479.1C460.057 479.13 460.047 479.275 460.027 479.535ZM453.337 478.515H458.752C458.632 477.845 458.317 477.29 457.807 476.85C457.307 476.42 456.707 476.205 456.007 476.205C455.327 476.205 454.742 476.42 454.252 476.85C453.762 477.28 453.457 477.835 453.337 478.515ZM464.601 475.035C465.771 475.035 466.721 475.46 467.451 476.31V475.2H468.711V483H467.451V481.89C466.721 482.74 465.771 483.165 464.601 483.165C463.511 483.165 462.596 482.78 461.856 482.01C461.126 481.24 460.761 480.27 460.761 479.1C460.761 477.93 461.126 476.965 461.856 476.205C462.586 475.425 463.501 475.035 464.601 475.035ZM464.736 476.295C463.986 476.295 463.351 476.565 462.831 477.105C462.321 477.635 462.066 478.3 462.066 479.1C462.066 479.9 462.321 480.57 462.831 481.11C463.361 481.64 463.996 481.905 464.736 481.905C465.496 481.905 466.131 481.64 466.641 481.11C467.161 480.58 467.421 479.91 467.421 479.1C467.421 478.29 467.161 477.625 466.641 477.105C466.131 476.565 465.496 476.295 464.736 476.295ZM469.494 476.31V475.2H470.754V473.64H472.014V475.2H474.189V476.31H472.014V480.555C472.014 480.905 472.119 481.2 472.329 481.44C472.549 481.67 472.819 481.785 473.139 481.785H474.189V483H473.049C472.399 483 471.854 482.78 471.414 482.34C470.974 481.9 470.754 481.355 470.754 480.705V476.31H469.494ZM478.989 472.5H486.549V473.76H480.339V477.06H485.784V478.32H480.339V481.74H486.624V483H478.989V472.5ZM490.089 483L486.729 475.2H488.034L490.659 481.38L493.299 475.2H494.604L491.244 483H490.089ZM502.701 479.535H495.996C496.086 480.235 496.396 480.82 496.926 481.29C497.446 481.75 498.086 481.98 498.846 481.98C499.836 481.98 500.606 481.605 501.156 480.855L502.386 481.245C502.026 481.845 501.531 482.315 500.901 482.655C500.281 482.995 499.596 483.165 498.846 483.165C497.666 483.165 496.676 482.78 495.876 482.01C495.086 481.23 494.691 480.26 494.691 479.1C494.691 477.94 495.076 476.975 495.846 476.205C496.616 475.425 497.571 475.035 498.711 475.035C499.861 475.035 500.816 475.425 501.576 476.205C502.346 476.975 502.731 477.94 502.731 479.1C502.731 479.13 502.721 479.275 502.701 479.535ZM496.011 478.515H501.426C501.306 477.845 500.991 477.29 500.481 476.85C499.981 476.42 499.381 476.205 498.681 476.205C498.001 476.205 497.416 476.42 496.926 476.85C496.436 477.28 496.131 477.835 496.011 478.515ZM505.099 478.59V483H503.839V475.2H505.099V476.52C505.689 475.53 506.614 475.035 507.874 475.035H508.084V476.43C507.924 476.37 507.739 476.34 507.529 476.34C506.839 476.34 506.264 476.555 505.804 476.985C505.334 477.425 505.099 477.96 505.099 478.59ZM510.749 483.915L511.214 482.775L508.109 475.2H509.414L511.859 481.26L514.379 475.2H515.684L511.844 484.335C511.554 485.045 511.179 485.56 510.719 485.88C510.269 486.21 509.694 486.375 508.994 486.375H508.634V485.16H508.994C509.814 485.16 510.399 484.745 510.749 483.915Z" fill="#4F4E56"/>
<path d="M469.05 524.83L466.692 526.036L465.846 524.308L469.608 522.4H470.994V535H469.05V524.83Z" fill="#09265A"/>
<path d="M465 539.05H473.064V539.95H465V539.05Z" fill="#09265A"/>
<path d="M546.174 535H544.536L540.234 522.4H542.304L545.328 531.778L548.28 522.4H549.918L552.87 531.778L555.876 522.4H557.946L553.644 535H552.006L549.09 525.892L546.174 535ZM566.744 531.004H558.968C559.112 531.736 559.466 532.336 560.03 532.804C560.606 533.26 561.284 533.488 562.064 533.488C563.12 533.488 563.948 533.098 564.548 532.318L566.384 532.876C565.952 533.608 565.352 534.184 564.584 534.604C563.828 535.024 562.988 535.234 562.064 535.234C560.624 535.234 559.43 534.766 558.482 533.83C557.522 532.894 557.042 531.724 557.042 530.32C557.042 528.928 557.504 527.758 558.428 526.81C559.364 525.874 560.528 525.406 561.92 525.406C563.312 525.406 564.464 525.874 565.376 526.81C566.312 527.746 566.78 528.916 566.78 530.32C566.78 530.368 566.768 530.596 566.744 531.004ZM558.986 529.51H564.854C564.686 528.814 564.326 528.25 563.774 527.818C563.222 527.374 562.586 527.152 561.866 527.152C561.182 527.152 560.57 527.374 560.03 527.818C559.502 528.25 559.154 528.814 558.986 529.51ZM577.23 531.004H569.454C569.598 531.736 569.952 532.336 570.516 532.804C571.092 533.26 571.77 533.488 572.55 533.488C573.606 533.488 574.434 533.098 575.034 532.318L576.87 532.876C576.438 533.608 575.838 534.184 575.07 534.604C574.314 535.024 573.474 535.234 572.55 535.234C571.11 535.234 569.916 534.766 568.968 533.83C568.008 532.894 567.528 531.724 567.528 530.32C567.528 528.928 567.99 527.758 568.914 526.81C569.85 525.874 571.014 525.406 572.406 525.406C573.798 525.406 574.95 525.874 575.862 526.81C576.798 527.746 577.266 528.916 577.266 530.32C577.266 530.368 577.254 530.596 577.23 531.004ZM569.472 529.51H575.34C575.172 528.814 574.812 528.25 574.26 527.818C573.708 527.374 573.072 527.152 572.352 527.152C571.668 527.152 571.056 527.374 570.516 527.818C569.988 528.25 569.64 528.814 569.472 529.51ZM578.429 535V521.5H580.301V529.96L583.829 525.64H586.115L582.443 530.158L586.511 535H584.207L580.301 530.356V535H578.429ZM589.51 520.924L589.78 520.6H591.508L591.202 520.978C591.082 521.122 590.866 521.494 590.554 522.094C589.918 523.258 589.426 524.674 589.078 526.342C588.694 528.346 588.688 530.362 589.06 532.39C589.276 533.434 589.504 534.256 589.744 534.856C590.284 536.212 590.782 537.184 591.238 537.772L591.508 538.15H589.78L589.762 538.132C588.802 537.028 588.082 535.534 587.602 533.65C587.254 532.294 587.08 530.866 587.08 529.366C587.08 527.158 587.398 525.262 588.034 523.678C588.562 522.358 589.054 521.44 589.51 520.924ZM598.994 527.782L597.23 528.088C597.014 527.392 596.402 527.044 595.394 527.044C594.938 527.044 594.566 527.134 594.278 527.314C593.99 527.494 593.846 527.74 593.846 528.052C593.846 528.46 594.146 528.772 594.746 528.988L596.852 529.708C597.656 530.008 598.238 530.374 598.598 530.806C598.97 531.238 599.156 531.772 599.156 532.408C599.156 533.308 598.826 534.004 598.166 534.496C597.506 534.988 596.636 535.234 595.556 535.234C594.5 535.234 593.642 535.006 592.982 534.55C592.322 534.082 591.926 533.44 591.794 532.624L593.558 532.354C593.642 532.726 593.864 533.026 594.224 533.254C594.584 533.482 595.04 533.596 595.592 533.596C596.108 533.596 596.528 533.494 596.852 533.29C597.188 533.086 597.356 532.81 597.356 532.462C597.356 532.018 596.978 531.658 596.222 531.382L594.134 530.68C593.402 530.428 592.868 530.104 592.532 529.708C592.208 529.312 592.046 528.808 592.046 528.196C592.046 527.296 592.364 526.606 593 526.126C593.636 525.646 594.482 525.406 595.538 525.406C596.486 525.406 597.266 525.622 597.878 526.054C598.49 526.474 598.862 527.05 598.994 527.782ZM599.783 520.96L599.513 520.6H601.259L601.547 520.942C601.667 521.086 601.883 521.428 602.195 521.968C602.543 522.58 602.819 523.162 603.023 523.714C603.263 524.338 603.479 525.154 603.671 526.162C603.863 527.158 603.959 528.226 603.959 529.366C603.959 531.418 603.671 533.236 603.095 534.82C602.867 535.456 602.609 536.032 602.321 536.548C602.009 537.1 601.787 537.466 601.655 537.646C601.535 537.85 601.409 538.012 601.277 538.132L601.259 538.15H599.513L599.801 537.754C599.957 537.562 600.179 537.19 600.467 536.638C600.755 536.11 601.025 535.51 601.277 534.838C601.505 534.202 601.721 533.392 601.925 532.408C602.333 530.428 602.339 528.412 601.943 526.36C601.763 525.364 601.541 524.542 601.277 523.894C600.773 522.598 600.275 521.62 599.783 520.96Z" fill="#09265A"/>
<path d="M540 539.05H604.751V539.95H540V539.05Z" fill="#09265A"/>
<rect x="643" y="418" width="61" height="37" rx="18.5" fill="#216ACC"/>
<circle cx="684" cy="437" r="15" fill="white"/>
<path d="M554.146 267.156C556.055 275.573 553.738 286.685 545.33 288.592C543.331 289.047 541.262 289.102 539.242 288.756C537.221 288.41 535.288 287.669 533.554 286.575C531.819 285.481 530.317 284.056 529.133 282.381C527.949 280.706 527.106 278.814 526.652 276.813C524.744 268.398 528.856 261.623 537.263 259.714C545.671 257.805 552.239 258.741 554.146 267.156Z" fill="#0A090B"/>
<path d="M531.66 262.972C531.66 262.972 523.208 264.403 523.899 271.109C524.463 276.585 532.845 276.073 532.845 276.073L531.66 262.972Z" fill="#0A090B"/>
<path d="M532.226 265.617C524.892 267.284 526.038 273.059 526.038 273.059L527.811 286.749C528.892 290.991 530.64 294.478 534.543 295.581C535.699 295.876 536.902 295.938 538.082 295.763C539.263 295.588 540.396 295.18 541.418 294.563L544.09 293.025C546.245 291.787 546.786 289.023 546.38 286.57L542.308 273.83C542.308 273.83 539.562 263.952 532.226 265.617Z" fill="#F0C6B2"/>
<path d="M527.615 280.241L525.174 284.99C525.032 285.306 525.018 285.664 525.133 285.99C525.248 286.316 525.485 286.585 525.793 286.741L528.74 287.475L527.615 280.241Z" fill="#F0C6B2"/>
<path d="M546.583 278.218L558.749 293.412L553.385 303.496L538.753 285.403L546.583 278.218Z" fill="#F0C6B2"/>
<path d="M544.569 292.751C546.086 291.178 546.983 289.11 547.096 286.927C547.818 289.692 547.686 292.61 546.718 295.298L544.569 292.751Z" fill="#F0C6B2"/>
<path d="M525.759 267.978C525.759 267.978 532.534 267.244 538.672 276.883L546.718 273.847C546.718 273.847 541.703 261.723 539.28 262.187C536.857 262.651 526.166 264.396 525.759 267.978Z" fill="#0A090B"/>
<path d="M536.598 273.219L540.746 280.548L541.379 273.646L536.598 273.219Z" fill="#0A090B"/>
<path d="M543.917 281.447C543.917 281.447 548.552 286.511 552.954 286.175L551.637 276.956L543.917 281.447Z" fill="#0A090B"/>
<path d="M539.913 278.909C539.976 279.735 540.282 280.523 540.793 281.175C541.303 281.826 541.996 282.311 542.782 282.569C543.568 282.826 544.413 282.845 545.209 282.621C546.006 282.398 546.719 281.944 547.257 281.315C547.796 280.686 548.136 279.912 548.234 279.09C548.333 278.268 548.186 277.435 547.812 276.696C547.437 275.958 546.853 275.347 546.132 274.941C545.411 274.536 544.585 274.353 543.761 274.417C542.655 274.502 541.629 275.023 540.908 275.866C540.186 276.708 539.828 277.803 539.913 278.909" fill="#F0C6B2"/>
<path d="M526.216 267.978C526.216 267.978 528.808 272.412 535.331 272.162C542.944 271.872 540.938 266.574 540.938 266.574L526.216 267.978Z" fill="#0A090B"/>
<path d="M553.901 254.644C554.015 255.785 553.787 256.934 553.248 257.946C552.709 258.958 551.882 259.787 550.872 260.329C549.862 260.871 548.715 261.1 547.574 260.989C546.434 260.878 545.352 260.43 544.466 259.704C543.58 258.977 542.929 258.004 542.595 256.907C542.261 255.809 542.26 254.638 542.592 253.54C542.923 252.442 543.572 251.468 544.457 250.739C545.342 250.011 546.423 249.561 547.563 249.448C549.092 249.296 550.618 249.758 551.807 250.732C552.996 251.707 553.749 253.114 553.901 254.644" fill="#0A090B"/>
<path d="M560.97 250.224C561.084 251.365 560.857 252.515 560.318 253.526C559.779 254.538 558.952 255.368 557.942 255.909C556.932 256.451 555.784 256.68 554.644 256.569C553.504 256.458 552.422 256.01 551.536 255.284C550.65 254.557 549.999 253.583 549.665 252.486C549.331 251.389 549.33 250.218 549.662 249.12C549.994 248.022 550.643 247.048 551.528 246.32C552.413 245.591 553.494 245.142 554.634 245.029C555.391 244.953 556.155 245.027 556.883 245.248C557.612 245.468 558.289 245.83 558.878 246.312C559.466 246.795 559.954 247.388 560.313 248.06C560.672 248.731 560.896 249.467 560.97 250.224" fill="#0A090B"/>
<path d="M568.084 256.44C568.197 257.581 567.97 258.73 567.431 259.742C566.892 260.754 566.065 261.583 565.055 262.124C564.046 262.666 562.898 262.895 561.758 262.784C560.618 262.673 559.536 262.225 558.65 261.499C557.764 260.772 557.113 259.799 556.779 258.702C556.446 257.605 556.445 256.434 556.776 255.336C557.108 254.238 557.757 253.264 558.642 252.536C559.527 251.807 560.607 251.358 561.747 251.245C562.504 251.169 563.269 251.243 563.997 251.464C564.725 251.684 565.403 252.046 565.991 252.528C566.58 253.011 567.067 253.604 567.426 254.276C567.786 254.947 568.009 255.683 568.084 256.44" fill="#0A090B"/>
<path d="M564.162 264.514C564.276 265.655 564.049 266.804 563.51 267.816C562.971 268.828 562.144 269.658 561.134 270.199C560.124 270.741 558.976 270.971 557.836 270.86C556.696 270.748 555.614 270.301 554.728 269.574C553.841 268.848 553.19 267.874 552.856 266.777C552.522 265.68 552.521 264.509 552.853 263.411C553.184 262.313 553.833 261.338 554.718 260.61C555.603 259.881 556.684 259.432 557.824 259.318C558.581 259.243 559.346 259.317 560.074 259.538C560.802 259.758 561.48 260.12 562.068 260.602C562.657 261.085 563.145 261.678 563.504 262.35C563.863 263.021 564.087 263.756 564.162 264.514" fill="#0A090B"/>
<path d="M559.128 258.008C559.241 259.149 559.014 260.298 558.474 261.309C557.935 262.321 557.108 263.15 556.098 263.691C555.089 264.232 553.941 264.462 552.801 264.35C551.661 264.239 550.579 263.791 549.693 263.064C548.807 262.338 548.156 261.364 547.823 260.267C547.49 259.171 547.489 257.999 547.82 256.902C548.152 255.804 548.801 254.83 549.686 254.102C550.571 253.373 551.651 252.924 552.791 252.811C554.32 252.659 555.847 253.121 557.035 254.096C558.223 255.07 558.976 256.478 559.128 258.008" fill="#0A090B"/>
<path d="M456.509 388.908L444.166 390.312L444.757 380.833L456.922 379.497L456.509 388.908Z" fill="#F0C6B2"/>
<path d="M444.61 380.13L438.438 371.768L436.494 366.266C436.058 365.037 435.236 363.981 434.151 363.258C433.066 362.535 431.776 362.182 430.474 362.254L429.222 362.323L433.741 393.727L446.156 391.059L444.61 380.128" fill="#0A090C"/>
<path d="M433.555 393.882L429 362.229L431 361.941C431.094 361.927 431.19 361.932 431.282 361.956C431.374 361.979 431.461 362.021 431.537 362.078C431.613 362.135 431.677 362.207 431.725 362.288C431.774 362.37 431.805 362.461 431.818 362.555L436.269 393.489L433.555 393.881" fill="#0A090C"/>
<path d="M566.07 391.466L505.298 388.918L452.925 392.157L452.275 374.976L506.625 369.964L566.07 370.596V391.466Z" fill="#A74C4C"/>
<path d="M494.293 383.264L487.542 391.7L480.858 384.961L487.538 376.704L494.293 383.264Z" fill="#F0C6B2"/>
<path d="M481.253 383.341L471.059 381.35L465.911 378.613C464.759 378.001 463.44 377.779 462.152 377.979C460.863 378.18 459.674 378.793 458.762 379.727L457.887 380.624L482.422 400.716L489.772 390.352L481.253 383.341Z" fill="#0A090C"/>
<path d="M482.386 400.955L457.661 380.705L458.941 379.139C459.001 379.066 459.075 379.004 459.158 378.959C459.242 378.914 459.334 378.886 459.428 378.876C459.523 378.867 459.618 378.876 459.709 378.904C459.8 378.931 459.885 378.977 459.958 379.037L484.125 398.83L482.386 400.955" fill="#0A090C"/>
<path d="M581.436 381.422C582.49 379.459 582.724 377.157 582.085 375.022C581.446 372.887 579.987 371.092 578.029 370.032L523.609 340.586C521.31 339.342 518.66 338.907 516.084 339.349C513.509 339.792 511.156 341.087 509.403 343.027L483.168 375.507L496.92 387.541L518.382 363.673L552.737 387.812C554.976 389.479 557.546 390.643 560.275 391.226C563.003 391.809 565.825 391.797 568.548 391.191C571.271 390.585 573.832 389.398 576.056 387.713C578.28 386.027 580.115 383.882 581.437 381.422" fill="#B95858"/>
<path d="M581.436 381.422C581.436 381.422 587.726 371.568 582.439 358.446L557.872 361.96L581.436 381.422Z" fill="#B95858"/>
<path d="M588.438 363.235C588.438 363.235 584.793 319.903 560.526 294.747C559.733 293.906 558.734 293.287 557.629 292.951C556.524 292.615 555.35 292.574 554.224 292.832C553.098 293.09 552.059 293.638 551.209 294.422C550.36 295.206 549.73 296.198 549.381 297.3C548.39 300.38 546.408 308.883 547.226 315.924C549.974 339.518 544.817 352.061 544.817 352.061C544.817 352.061 568.505 371.34 588.438 363.235Z" fill="#4A4E5F"/>
<path d="M514.432 320.31L508.003 313.798L502.095 318.49L510.109 326.652L514.434 320.308" fill="#F0C6B2"/>
<path d="M495.542 306.148C493.329 309.816 496.792 315.956 500.387 317.952C503.983 319.948 508.333 318.372 510.107 314.435C511.881 310.497 510.407 305.687 506.812 303.691C503.218 301.696 498.723 300.873 495.542 306.148Z" fill="#F0C6B2"/>
<path d="M491.053 293.133C490.777 293.472 490.632 293.901 490.647 294.339C490.661 294.777 490.834 295.195 491.132 295.515L505.054 309.629C505.197 309.777 505.37 309.893 505.561 309.968C505.752 310.043 505.957 310.077 506.162 310.067C506.368 310.056 506.568 310.002 506.751 309.908C506.933 309.814 507.094 309.682 507.221 309.52C507.498 309.18 507.643 308.752 507.629 308.313C507.614 307.875 507.441 307.457 507.142 307.136L493.22 293.022C493.077 292.875 492.904 292.759 492.713 292.684C492.522 292.609 492.317 292.575 492.111 292.586C491.906 292.596 491.706 292.65 491.523 292.745C491.34 292.839 491.18 292.972 491.053 293.133" fill="#0A090B"/>
<path d="M545.231 341.117L513.816 316.097L503.35 324.529L533.328 350.849L545.231 341.117Z" fill="#4A4E5F"/>
<path d="M550.046 296.506L530.291 341.095C529.486 342.866 529.376 344.875 529.983 346.723C530.59 348.571 531.869 350.123 533.566 351.071C534.998 351.856 536.675 352.07 538.258 351.669C539.841 351.268 541.214 350.282 542.101 348.909L562.702 316.54L550.046 296.506Z" fill="#4A4E5F"/>
<path d="M547.09 341.071L559.889 320.96" stroke="#3B3F4F" stroke-width="2.268" stroke-miterlimit="10"/>
<defs>
<filter id="filter0_d" x="0" y="36" width="710" height="660" filterUnits="userSpaceOnUse" color-interpolation-filters="sRGB">
<feFlood flood-opacity="0" result="BackgroundImageFix"/>
<feColorMatrix in="SourceAlpha" type="matrix" values="0 0 0 0 0 0 0 0 0 0 0 0 0 0 0 0 0 0 127 0"/>
<feOffset dy="50"/>
<feGaussianBlur stdDeviation="42"/>
<feColorMatrix type="matrix" values="0 0 0 0 0.435294 0 0 0 0 0.462745 0 0 0 0 0.541176 0 0 0 0.1 0"/>
<feBlend mode="normal" in2="BackgroundImageFix" result="effect1_dropShadow"/>
<feBlend mode="normal" in="SourceGraphic" in2="effect1_dropShadow" result="shape"/>
</filter>
<filter id="filter1_d" x="317" y="359" width="495" height="366" filterUnits="userSpaceOnUse" color-interpolation-filters="sRGB">
<feFlood flood-opacity="0" result="BackgroundImageFix"/>
<feColorMatrix in="SourceAlpha" type="matrix" values="0 0 0 0 0 0 0 0 0 0 0 0 0 0 0 0 0 0 127 0"/>
<feOffset dy="50"/>
<feGaussianBlur stdDeviation="42"/>
<feColorMatrix type="matrix" values="0 0 0 0 0.435294 0 0 0 0 0.462745 0 0 0 0 0.541176 0 0 0 0.1 0"/>
<feBlend mode="normal" in2="BackgroundImageFix" result="effect1_dropShadow"/>
<feBlend mode="normal" in="SourceGraphic" in2="effect1_dropShadow" result="shape"/>
</filter>
<filter id="filter2_d" x="317" y="359" width="495" height="366" filterUnits="userSpaceOnUse" color-interpolation-filters="sRGB">
<feFlood flood-opacity="0" result="BackgroundImageFix"/>
<feColorMatrix in="SourceAlpha" type="matrix" values="0 0 0 0 0 0 0 0 0 0 0 0 0 0 0 0 0 0 127 0"/>
<feOffset dy="50"/>
<feGaussianBlur stdDeviation="42"/>
<feColorMatrix type="matrix" values="0 0 0 0 0.435294 0 0 0 0 0.462745 0 0 0 0 0.541176 0 0 0 0.1 0"/>
<feBlend mode="normal" in2="BackgroundImageFix" result="effect1_dropShadow"/>
<feBlend mode="normal" in="SourceGraphic" in2="effect1_dropShadow" result="shape"/>
</filter>
</defs>
</svg>
