<svg width="795" height="886" viewBox="0 0 795 886" fill="none" xmlns="http://www.w3.org/2000/svg">
<circle cx="419" cy="376" r="376" fill="#F1F7FF" fill-opacity="0.5"/>
<g filter="url(#filter0_d)">
<rect x="164" y="199" width="540" height="443" rx="24" fill="white"/>
</g>
<path d="M234.307 264.984C231.395 264.984 228.961 265.969 227.006 267.924C225.064 269.865 224.094 272.299 224.094 275.197C224.094 278.109 225.064 280.543 227.006 282.512C228.975 284.453 231.408 285.424 234.307 285.424C237.232 285.424 239.68 284.453 241.621 282.512C243.576 280.557 244.561 278.123 244.561 275.197C244.561 272.285 243.576 269.865 241.621 267.924C239.68 265.969 237.246 264.984 234.307 264.984ZM228.018 275.197C228.018 273.311 228.605 271.752 229.809 270.494C231.012 269.236 232.516 268.594 234.307 268.594C236.098 268.594 237.602 269.236 238.818 270.494C240.021 271.766 240.637 273.338 240.637 275.197C240.637 277.07 240.021 278.643 238.818 279.9C237.615 281.158 236.111 281.773 234.307 281.773C232.502 281.773 230.998 281.158 229.809 279.9C228.605 278.656 228.018 277.084 228.018 275.197ZM246.131 279.736C246.131 281.377 246.664 282.73 247.744 283.797C248.824 284.891 250.191 285.424 251.859 285.424C253.691 285.424 255.154 284.699 256.234 283.236V285H259.734V270.439H256.234V278.725C256.234 279.682 255.906 280.475 255.277 281.117C254.648 281.773 253.855 282.088 252.926 282.088C251.969 282.088 251.189 281.773 250.561 281.131C249.932 280.488 249.631 279.682 249.631 278.725V270.439H246.131V279.736ZM260.484 273.488H262.562V280.406C262.562 281.746 263.027 282.84 263.984 283.688C264.955 284.562 266.131 285 267.525 285H269.672V281.664H267.854C267.334 281.664 266.896 281.5 266.568 281.172C266.227 280.844 266.062 280.42 266.062 279.9V273.488H269.672V270.439H266.062V267.582H262.562V270.439H260.484V273.488ZM281.619 273.939C281.428 272.723 280.854 271.766 279.869 271.068C278.885 270.371 277.6 270.016 276.041 270.016C274.318 270.016 272.951 270.412 271.939 271.178C270.928 271.943 270.422 273.078 270.422 274.555C270.422 275.594 270.682 276.428 271.229 277.057C271.775 277.699 272.664 278.219 273.895 278.615L276.889 279.572C277.969 279.941 278.516 280.406 278.516 280.967C278.516 281.404 278.283 281.76 277.846 282.02C277.408 282.279 276.848 282.402 276.164 282.402C275.371 282.402 274.729 282.252 274.236 281.938C273.744 281.623 273.43 281.199 273.307 280.666L270.025 281.131C270.244 282.484 270.873 283.537 271.912 284.289C272.951 285.055 274.346 285.424 276.082 285.424C277.818 285.424 279.213 285.041 280.266 284.248C281.305 283.455 281.838 282.334 281.838 280.857C281.838 279.805 281.537 278.93 280.936 278.232C280.334 277.535 279.377 276.947 278.037 276.482L275.043 275.484C274.182 275.184 273.758 274.787 273.758 274.309C273.758 273.926 273.949 273.611 274.332 273.393C274.715 273.174 275.193 273.051 275.795 273.051C277.176 273.051 278.023 273.529 278.338 274.473L281.619 273.939ZM281.918 273.488H283.996V280.406C283.996 281.746 284.461 282.84 285.418 283.688C286.389 284.562 287.564 285 288.959 285H291.105V281.664H289.287C288.768 281.664 288.33 281.5 288.002 281.172C287.66 280.844 287.496 280.42 287.496 279.9V273.488H291.105V270.439H287.496V267.582H283.996V270.439H281.918V273.488ZM298.828 270.016C296.805 270.016 295.109 270.754 293.756 272.23C292.416 273.68 291.746 275.512 291.746 277.727C291.746 279.914 292.416 281.76 293.756 283.236C295.123 284.699 296.818 285.424 298.828 285.424C300.469 285.424 301.945 284.904 303.244 283.852V285H306.717V270.439H303.244V271.588C301.945 270.549 300.469 270.016 298.828 270.016ZM302.041 274.719C302.807 275.539 303.189 276.551 303.189 277.727C303.189 278.902 302.807 279.9 302.041 280.721C301.289 281.527 300.373 281.924 299.279 281.924C298.158 281.924 297.215 281.527 296.477 280.721C295.725 279.928 295.355 278.93 295.355 277.727C295.355 276.523 295.725 275.525 296.477 274.719C297.215 273.926 298.158 273.516 299.279 273.516C300.373 273.516 301.289 273.926 302.041 274.719ZM308.697 285H312.197V276.688C312.197 275.744 312.512 274.951 313.141 274.309C313.77 273.68 314.562 273.352 315.52 273.352C316.449 273.352 317.229 273.68 317.857 274.309C318.486 274.951 318.801 275.744 318.801 276.688V285H322.301V275.703C322.301 274.104 321.74 272.75 320.646 271.643C319.553 270.562 318.199 270.016 316.559 270.016C314.727 270.016 313.264 270.754 312.197 272.203V270.439H308.697V285ZM330.816 270.016C328.793 270.016 327.098 270.754 325.744 272.23C324.404 273.68 323.734 275.512 323.734 277.727C323.734 279.914 324.404 281.76 325.744 283.236C327.111 284.699 328.807 285.424 330.816 285.424C332.457 285.424 333.934 284.904 335.232 283.852V285H338.705V264H335.232V271.588C333.934 270.549 332.457 270.016 330.816 270.016ZM334.029 274.719C334.795 275.539 335.178 276.551 335.178 277.727C335.178 278.902 334.795 279.9 334.029 280.721C333.277 281.527 332.361 281.924 331.268 281.924C330.146 281.924 329.203 281.527 328.465 280.721C327.713 279.928 327.344 278.93 327.344 277.727C327.344 276.523 327.713 275.525 328.465 274.719C329.203 273.926 330.146 273.516 331.268 273.516C332.361 273.516 333.277 273.926 334.029 274.719ZM344.186 285V270.439H340.686V285H344.186ZM342.422 269.154C343.064 269.154 343.598 268.949 344.021 268.512C344.432 268.088 344.65 267.555 344.65 266.912C344.65 266.283 344.432 265.764 344.008 265.34C343.57 264.916 343.051 264.697 342.422 264.697C341.793 264.697 341.26 264.916 340.836 265.34C340.412 265.764 340.207 266.283 340.207 266.912C340.207 267.541 340.412 268.074 340.836 268.512C341.26 268.949 341.793 269.154 342.422 269.154ZM346.166 285H349.666V276.688C349.666 275.744 349.98 274.951 350.609 274.309C351.238 273.68 352.031 273.352 352.988 273.352C353.918 273.352 354.697 273.68 355.326 274.309C355.955 274.951 356.27 275.744 356.27 276.688V285H359.77V275.703C359.77 274.104 359.209 272.75 358.115 271.643C357.021 270.562 355.668 270.016 354.027 270.016C352.195 270.016 350.732 270.754 349.666 272.203V270.439H346.166V285ZM368.285 270.016C366.262 270.016 364.566 270.754 363.213 272.23C361.873 273.68 361.203 275.512 361.203 277.727C361.203 279.914 361.873 281.76 363.213 283.236C364.58 284.699 366.275 285.424 368.285 285.424C369.926 285.424 371.402 284.904 372.701 283.852V284.604C372.701 285.643 372.318 286.504 371.58 287.188C370.814 287.898 369.898 288.254 368.846 288.254C368.08 288.254 367.369 288.076 366.727 287.721C366.07 287.365 365.619 286.9 365.346 286.34L361.846 287.352C362.352 288.609 363.268 289.648 364.58 290.455C365.906 291.303 367.369 291.727 368.955 291.727C370.979 291.727 372.688 291.043 374.082 289.676C375.477 288.309 376.174 286.627 376.174 284.604V270.439H372.701V271.588C371.402 270.549 369.926 270.016 368.285 270.016ZM371.498 274.719C372.264 275.539 372.646 276.551 372.646 277.727C372.646 278.902 372.264 279.9 371.498 280.721C370.746 281.527 369.83 281.924 368.736 281.924C367.615 281.924 366.672 281.527 365.934 280.721C365.182 279.928 364.812 278.93 364.812 277.727C364.812 276.523 365.182 275.525 365.934 274.719C366.672 273.926 367.615 273.516 368.736 273.516C369.83 273.516 370.746 273.926 371.498 274.719ZM388.256 278.082H393.301C395.215 278.082 396.814 277.48 398.113 276.264C399.412 275.074 400.068 273.557 400.068 271.725C400.068 269.92 399.412 268.43 398.113 267.227C396.801 266.01 395.201 265.395 393.301 265.395H384.51V285H388.256V278.082ZM393.301 268.867C394.121 268.867 394.805 269.141 395.352 269.674C395.885 270.221 396.158 270.904 396.158 271.725C396.158 272.559 395.885 273.242 395.352 273.789C394.805 274.336 394.121 274.609 393.301 274.609H388.256V268.867H393.301ZM407.094 270.016C405.07 270.016 403.375 270.754 402.021 272.23C400.682 273.68 400.012 275.512 400.012 277.727C400.012 279.914 400.682 281.76 402.021 283.236C403.389 284.699 405.084 285.424 407.094 285.424C408.734 285.424 410.211 284.904 411.51 283.852V285H414.982V270.439H411.51V271.588C410.211 270.549 408.734 270.016 407.094 270.016ZM410.307 274.719C411.072 275.539 411.455 276.551 411.455 277.727C411.455 278.902 411.072 279.9 410.307 280.721C409.555 281.527 408.639 281.924 407.545 281.924C406.424 281.924 405.48 281.527 404.742 280.721C403.99 279.928 403.621 278.93 403.621 277.727C403.621 276.523 403.99 275.525 404.742 274.719C405.48 273.926 406.424 273.516 407.545 273.516C408.639 273.516 409.555 273.926 410.307 274.719ZM420.928 285.725C420.326 287.229 419.205 287.967 417.551 287.967H416.99V291.303H417.551C419.15 291.303 420.449 290.961 421.461 290.25C422.459 289.553 423.266 288.432 423.895 286.9L430.484 270.439H426.875L423.061 280.27L419.342 270.439H415.719L421.324 284.727L420.928 285.725ZM434.721 285V276.428C434.721 275.553 435.008 274.828 435.596 274.24C436.184 273.652 436.908 273.352 437.77 273.352C438.617 273.352 439.342 273.652 439.916 274.24C440.49 274.828 440.791 275.553 440.791 276.428V285H444.291V276.428C444.291 275.553 444.578 274.828 445.166 274.24C445.754 273.652 446.479 273.352 447.34 273.352C448.188 273.352 448.912 273.652 449.486 274.24C450.061 274.828 450.361 275.553 450.361 276.428V285H453.834V275.43C453.834 273.898 453.273 272.613 452.18 271.561C451.086 270.535 449.705 270.016 448.037 270.016C445.959 270.016 444.414 270.809 443.389 272.395C442.35 270.809 440.832 270.016 438.809 270.016C437.086 270.016 435.732 270.672 434.721 271.984V270.439H431.221V285H434.721ZM470.457 279.012C470.525 278.52 470.566 278.082 470.566 277.727C470.566 275.539 469.828 273.707 468.352 272.23C466.902 270.754 465.098 270.016 462.924 270.016C460.75 270.016 458.932 270.754 457.455 272.23C456.006 273.68 455.281 275.512 455.281 277.727C455.281 279.914 456.02 281.76 457.51 283.236C459.041 284.699 460.914 285.424 463.143 285.424C464.592 285.424 465.932 285.096 467.135 284.412C468.338 283.742 469.268 282.812 469.951 281.637L466.561 280.666C465.74 281.691 464.592 282.197 463.143 282.197C462.117 282.197 461.215 281.91 460.449 281.322C459.67 280.748 459.15 279.969 458.891 279.012H470.457ZM458.918 276.291C459.178 275.389 459.67 274.65 460.408 274.09C461.133 273.529 461.953 273.242 462.869 273.242C463.812 273.242 464.66 273.529 465.412 274.09C466.15 274.65 466.67 275.389 466.957 276.291H458.918ZM471.713 285H475.213V276.688C475.213 275.744 475.527 274.951 476.156 274.309C476.785 273.68 477.578 273.352 478.535 273.352C479.465 273.352 480.244 273.68 480.873 274.309C481.502 274.951 481.816 275.744 481.816 276.688V285H485.316V275.703C485.316 274.104 484.756 272.75 483.662 271.643C482.568 270.562 481.215 270.016 479.574 270.016C477.742 270.016 476.279 270.754 475.213 272.203V270.439H471.713V285ZM486.066 273.488H488.145V280.406C488.145 281.746 488.609 282.84 489.566 283.688C490.537 284.562 491.713 285 493.107 285H495.254V281.664H493.436C492.916 281.664 492.479 281.5 492.15 281.172C491.809 280.844 491.645 280.42 491.645 279.9V273.488H495.254V270.439H491.645V267.582H488.145V270.439H486.066V273.488ZM507.201 273.939C507.01 272.723 506.436 271.766 505.451 271.068C504.467 270.371 503.182 270.016 501.623 270.016C499.9 270.016 498.533 270.412 497.521 271.178C496.51 271.943 496.004 273.078 496.004 274.555C496.004 275.594 496.264 276.428 496.811 277.057C497.357 277.699 498.246 278.219 499.477 278.615L502.471 279.572C503.551 279.941 504.098 280.406 504.098 280.967C504.098 281.404 503.865 281.76 503.428 282.02C502.99 282.279 502.43 282.402 501.746 282.402C500.953 282.402 500.311 282.252 499.818 281.938C499.326 281.623 499.012 281.199 498.889 280.666L495.607 281.131C495.826 282.484 496.455 283.537 497.494 284.289C498.533 285.055 499.928 285.424 501.664 285.424C503.4 285.424 504.795 285.041 505.848 284.248C506.887 283.455 507.42 282.334 507.42 280.857C507.42 279.805 507.119 278.93 506.518 278.232C505.916 277.535 504.959 276.947 503.619 276.482L500.625 275.484C499.764 275.184 499.34 274.787 499.34 274.309C499.34 273.926 499.531 273.611 499.914 273.393C500.297 273.174 500.775 273.051 501.377 273.051C502.758 273.051 503.605 273.529 503.92 274.473L507.201 273.939ZM228.373 385V372.545L234.143 382.785H236.631L242.4 372.518V385H246.16V365.395H242.4L235.4 377.781L228.373 365.395H224.627V385H228.373ZM254.812 370.016C252.789 370.016 251.094 370.754 249.74 372.23C248.4 373.68 247.73 375.512 247.73 377.727C247.73 379.914 248.4 381.76 249.74 383.236C251.107 384.699 252.803 385.424 254.812 385.424C256.453 385.424 257.93 384.904 259.229 383.852V385H262.701V370.439H259.229V371.588C257.93 370.549 256.453 370.016 254.812 370.016ZM258.025 374.719C258.791 375.539 259.174 376.551 259.174 377.727C259.174 378.902 258.791 379.9 258.025 380.721C257.273 381.527 256.357 381.924 255.264 381.924C254.143 381.924 253.199 381.527 252.461 380.721C251.709 379.928 251.34 378.93 251.34 377.727C251.34 376.523 251.709 375.525 252.461 374.719C253.199 373.926 254.143 373.516 255.264 373.516C256.357 373.516 257.273 373.926 258.025 374.719ZM268.182 370.439H264.682V385H268.182V376.988C268.182 376.031 268.496 375.225 269.139 374.568C269.768 373.926 270.574 373.598 271.531 373.598C271.996 373.598 272.475 373.707 272.967 373.912V370.016C270.779 370.016 269.18 370.754 268.182 372.23V370.439ZM277.846 385.725C277.244 387.229 276.123 387.967 274.469 387.967H273.908V391.303H274.469C276.068 391.303 277.367 390.961 278.379 390.25C279.377 389.553 280.184 388.432 280.812 386.9L287.402 370.439H283.793L279.979 380.27L276.26 370.439H272.637L278.242 384.727L277.846 385.725ZM308.125 369.373C307.715 368.088 306.895 367.049 305.637 366.242C304.365 365.408 302.875 364.984 301.152 364.984C299.211 364.984 297.598 365.545 296.34 366.639C295.109 367.732 294.494 369.168 294.494 370.918C294.494 372.914 295.438 374.418 297.324 375.43C298.09 375.84 299.676 376.4 302.055 377.098C302.766 377.344 303.285 377.535 303.613 377.686C303.969 377.85 304.242 378 304.434 378.164C304.898 378.602 305.131 379.053 305.131 379.545C305.131 380.215 304.789 380.762 304.119 381.186C303.436 381.609 302.602 381.814 301.604 381.814C300.592 381.814 299.73 381.596 299.006 381.158C298.281 380.721 297.844 380.188 297.68 379.545L293.934 380.666C294.344 382.006 295.232 383.141 296.613 384.07C297.98 384.973 299.635 385.424 301.604 385.424C303.75 385.424 305.5 384.863 306.84 383.742C308.193 382.607 308.877 381.09 308.877 379.203C308.877 378.492 308.74 377.809 308.494 377.18C308.234 376.551 307.92 376.031 307.564 375.648C307.209 375.266 306.744 374.924 306.17 374.609C306.033 374.541 305.896 374.473 305.787 374.418C305.678 374.363 305.555 374.309 305.445 374.254C305.336 374.199 305.24 374.158 305.158 374.117C305.076 374.09 304.967 374.049 304.844 374.008C304.721 373.967 304.625 373.939 304.57 373.912C304.516 373.885 304.406 373.857 304.27 373.816C304.133 373.775 304.023 373.748 303.969 373.721C303.914 373.707 303.791 373.68 303.627 373.625C303.449 373.57 303.326 373.543 303.258 373.516C301.535 373.023 300.469 372.682 300.031 372.49C298.828 371.998 298.24 371.369 298.24 370.631C298.24 370.057 298.527 369.578 299.102 369.168C299.676 368.771 300.373 368.566 301.207 368.566C301.973 368.566 302.643 368.758 303.244 369.127C303.832 369.496 304.215 369.947 304.379 370.467L308.125 369.373ZM316.559 385L319.334 376.236L322.068 385H325.213L329.943 370.439H326.443L323.668 379.6L320.893 370.439H317.734L314.959 379.6L312.184 370.439H308.656L313.428 385H316.559ZM336.668 370.016C334.645 370.016 332.949 370.754 331.596 372.23C330.256 373.68 329.586 375.512 329.586 377.727C329.586 379.914 330.256 381.76 331.596 383.236C332.963 384.699 334.658 385.424 336.668 385.424C338.309 385.424 339.785 384.904 341.084 383.852V385H344.557V370.439H341.084V371.588C339.785 370.549 338.309 370.016 336.668 370.016ZM339.881 374.719C340.646 375.539 341.029 376.551 341.029 377.727C341.029 378.902 340.646 379.9 339.881 380.721C339.129 381.527 338.213 381.924 337.119 381.924C335.998 381.924 335.055 381.527 334.316 380.721C333.564 379.928 333.195 378.93 333.195 377.727C333.195 376.523 333.564 375.525 334.316 374.719C335.055 373.926 335.998 373.516 337.119 373.516C338.213 373.516 339.129 373.926 339.881 374.719ZM346.537 385H350.037V376.688C350.037 375.744 350.352 374.951 350.98 374.309C351.609 373.68 352.402 373.352 353.359 373.352C354.289 373.352 355.068 373.68 355.697 374.309C356.326 374.951 356.641 375.744 356.641 376.688V385H360.141V375.703C360.141 374.104 359.58 372.75 358.486 371.643C357.393 370.562 356.039 370.016 354.398 370.016C352.566 370.016 351.104 370.754 350.037 372.203V370.439H346.537V385ZM372.881 373.939C372.689 372.723 372.115 371.766 371.131 371.068C370.146 370.371 368.861 370.016 367.303 370.016C365.58 370.016 364.213 370.412 363.201 371.178C362.189 371.943 361.684 373.078 361.684 374.555C361.684 375.594 361.943 376.428 362.49 377.057C363.037 377.699 363.926 378.219 365.156 378.615L368.15 379.572C369.23 379.941 369.777 380.406 369.777 380.967C369.777 381.404 369.545 381.76 369.107 382.02C368.67 382.279 368.109 382.402 367.426 382.402C366.633 382.402 365.99 382.252 365.498 381.938C365.006 381.623 364.691 381.199 364.568 380.666L361.287 381.131C361.506 382.484 362.135 383.537 363.174 384.289C364.213 385.055 365.607 385.424 367.344 385.424C369.08 385.424 370.475 385.041 371.527 384.248C372.566 383.455 373.1 382.334 373.1 380.857C373.1 379.805 372.799 378.93 372.197 378.232C371.596 377.535 370.639 376.947 369.299 376.482L366.305 375.484C365.443 375.184 365.02 374.787 365.02 374.309C365.02 373.926 365.211 373.611 365.594 373.393C365.977 373.174 366.455 373.051 367.057 373.051C368.438 373.051 369.285 373.529 369.6 374.473L372.881 373.939ZM376.037 383.236C377.541 384.699 379.373 385.424 381.561 385.424C383.721 385.424 385.566 384.699 387.07 383.236C388.547 381.76 389.285 379.928 389.285 377.727C389.285 375.512 388.547 373.68 387.07 372.23C385.594 370.754 383.748 370.016 381.561 370.016C379.346 370.016 377.514 370.754 376.037 372.23C374.588 373.68 373.863 375.512 373.863 377.727C373.863 379.914 374.588 381.76 376.037 383.236ZM378.648 374.719C379.414 373.926 380.385 373.516 381.561 373.516C382.723 373.516 383.693 373.926 384.473 374.719C385.252 375.539 385.648 376.537 385.648 377.727C385.648 378.916 385.252 379.914 384.473 380.721C383.693 381.527 382.723 381.924 381.561 381.924C380.385 381.924 379.414 381.527 378.648 380.721C377.855 379.914 377.473 378.916 377.473 377.727C377.473 376.537 377.855 375.539 378.648 374.719ZM390.705 385H394.205V376.688C394.205 375.744 394.52 374.951 395.148 374.309C395.777 373.68 396.57 373.352 397.527 373.352C398.457 373.352 399.236 373.68 399.865 374.309C400.494 374.951 400.809 375.744 400.809 376.688V385H404.309V375.703C404.309 374.104 403.748 372.75 402.654 371.643C401.561 370.562 400.207 370.016 398.566 370.016C396.734 370.016 395.271 370.754 394.205 372.203V370.439H390.705V385ZM232.57 485C235.482 485 237.916 484.057 239.857 482.17C241.812 480.297 242.797 477.973 242.797 475.197C242.797 472.436 241.812 470.111 239.857 468.225C237.916 466.338 235.482 465.395 232.57 465.395H224.627V485H232.57ZM232.57 468.867C234.361 468.867 235.865 469.482 237.082 470.686C238.285 471.902 238.9 473.406 238.9 475.197C238.9 476.975 238.285 478.479 237.082 479.709C235.865 480.926 234.361 481.527 232.57 481.527H228.373V468.867H232.57ZM250.93 470.016C248.906 470.016 247.211 470.754 245.857 472.23C244.518 473.68 243.848 475.512 243.848 477.727C243.848 479.914 244.518 481.76 245.857 483.236C247.225 484.699 248.92 485.424 250.93 485.424C252.57 485.424 254.047 484.904 255.346 483.852V485H258.818V470.439H255.346V471.588C254.047 470.549 252.57 470.016 250.93 470.016ZM254.143 474.719C254.908 475.539 255.291 476.551 255.291 477.727C255.291 478.902 254.908 479.9 254.143 480.721C253.391 481.527 252.475 481.924 251.381 481.924C250.26 481.924 249.316 481.527 248.578 480.721C247.826 479.928 247.457 478.93 247.457 477.727C247.457 476.523 247.826 475.525 248.578 474.719C249.316 473.926 250.26 473.516 251.381 473.516C252.475 473.516 253.391 473.926 254.143 474.719ZM265.557 485H268.879L274.881 470.439H271.258L267.238 480.57L263.178 470.439H259.555L265.557 485ZM279.131 485V470.439H275.631V485H279.131ZM277.367 469.154C278.01 469.154 278.543 468.949 278.967 468.512C279.377 468.088 279.596 467.555 279.596 466.912C279.596 466.283 279.377 465.764 278.953 465.34C278.516 464.916 277.996 464.697 277.367 464.697C276.738 464.697 276.205 464.916 275.781 465.34C275.357 465.764 275.152 466.283 275.152 466.912C275.152 467.541 275.357 468.074 275.781 468.512C276.205 468.949 276.738 469.154 277.367 469.154ZM287.66 470.016C285.637 470.016 283.941 470.754 282.588 472.23C281.248 473.68 280.578 475.512 280.578 477.727C280.578 479.914 281.248 481.76 282.588 483.236C283.955 484.699 285.65 485.424 287.66 485.424C289.301 485.424 290.777 484.904 292.076 483.852V485H295.549V464H292.076V471.588C290.777 470.549 289.301 470.016 287.66 470.016ZM290.873 474.719C291.639 475.539 292.021 476.551 292.021 477.727C292.021 478.902 291.639 479.9 290.873 480.721C290.121 481.527 289.205 481.924 288.111 481.924C286.99 481.924 286.047 481.527 285.309 480.721C284.557 479.928 284.188 478.93 284.188 477.727C284.188 476.523 284.557 475.525 285.309 474.719C286.047 473.926 286.99 473.516 288.111 473.516C289.205 473.516 290.121 473.926 290.873 474.719ZM317.188 465.395H313.564V477.836C313.564 478.998 313.154 479.982 312.361 480.775C311.541 481.568 310.543 481.951 309.367 481.951C308.574 481.951 307.863 481.773 307.234 481.418C306.605 481.062 306.113 480.584 305.785 479.955L302.654 481.979C303.338 483.059 304.268 483.906 305.443 484.508C306.619 485.123 307.904 485.424 309.312 485.424C311.555 485.424 313.428 484.713 314.945 483.264C316.436 481.814 317.188 480.01 317.188 477.836V465.395ZM320.686 483.236C322.189 484.699 324.021 485.424 326.209 485.424C328.369 485.424 330.215 484.699 331.719 483.236C333.195 481.76 333.934 479.928 333.934 477.727C333.934 475.512 333.195 473.68 331.719 472.23C330.242 470.754 328.396 470.016 326.209 470.016C323.994 470.016 322.162 470.754 320.686 472.23C319.236 473.68 318.512 475.512 318.512 477.727C318.512 479.914 319.236 481.76 320.686 483.236ZM323.297 474.719C324.062 473.926 325.033 473.516 326.209 473.516C327.371 473.516 328.342 473.926 329.121 474.719C329.9 475.539 330.297 476.537 330.297 477.727C330.297 478.916 329.9 479.914 329.121 480.721C328.342 481.527 327.371 481.924 326.209 481.924C325.033 481.924 324.062 481.527 323.297 480.721C322.504 479.914 322.121 478.916 322.121 477.727C322.121 476.537 322.504 475.539 323.297 474.719ZM335.354 485H338.854V476.688C338.854 475.744 339.168 474.951 339.797 474.309C340.426 473.68 341.219 473.352 342.176 473.352C343.105 473.352 343.885 473.68 344.514 474.309C345.143 474.951 345.457 475.744 345.457 476.688V485H348.957V475.703C348.957 474.104 348.396 472.75 347.303 471.643C346.209 470.562 344.855 470.016 343.215 470.016C341.383 470.016 339.92 470.754 338.854 472.203V470.439H335.354V485ZM365.566 479.012C365.635 478.52 365.676 478.082 365.676 477.727C365.676 475.539 364.938 473.707 363.461 472.23C362.012 470.754 360.207 470.016 358.033 470.016C355.859 470.016 354.041 470.754 352.564 472.23C351.115 473.68 350.391 475.512 350.391 477.727C350.391 479.914 351.129 481.76 352.619 483.236C354.15 484.699 356.023 485.424 358.252 485.424C359.701 485.424 361.041 485.096 362.244 484.412C363.447 483.742 364.377 482.812 365.061 481.637L361.67 480.666C360.85 481.691 359.701 482.197 358.252 482.197C357.227 482.197 356.324 481.91 355.559 481.322C354.779 480.748 354.26 479.969 354 479.012H365.566ZM354.027 476.291C354.287 475.389 354.779 474.65 355.518 474.09C356.242 473.529 357.062 473.242 357.979 473.242C358.922 473.242 359.77 473.529 360.521 474.09C361.26 474.65 361.779 475.389 362.066 476.291H354.027ZM377.596 473.939C377.404 472.723 376.83 471.766 375.846 471.068C374.861 470.371 373.576 470.016 372.018 470.016C370.295 470.016 368.928 470.412 367.916 471.178C366.904 471.943 366.398 473.078 366.398 474.555C366.398 475.594 366.658 476.428 367.205 477.057C367.752 477.699 368.641 478.219 369.871 478.615L372.865 479.572C373.945 479.941 374.492 480.406 374.492 480.967C374.492 481.404 374.26 481.76 373.822 482.02C373.385 482.279 372.824 482.402 372.141 482.402C371.348 482.402 370.705 482.252 370.213 481.938C369.721 481.623 369.406 481.199 369.283 480.666L366.002 481.131C366.221 482.484 366.85 483.537 367.889 484.289C368.928 485.055 370.322 485.424 372.059 485.424C373.795 485.424 375.189 485.041 376.242 484.248C377.281 483.455 377.814 482.334 377.814 480.857C377.814 479.805 377.514 478.93 376.912 478.232C376.311 477.535 375.354 476.947 374.014 476.482L371.02 475.484C370.158 475.184 369.734 474.787 369.734 474.309C369.734 473.926 369.926 473.611 370.309 473.393C370.691 473.174 371.17 473.051 371.771 473.051C373.152 473.051 374 473.529 374.314 474.473L377.596 473.939ZM237.93 565.395H234.307V577.836C234.307 578.998 233.896 579.982 233.104 580.775C232.283 581.568 231.285 581.951 230.109 581.951C229.316 581.951 228.605 581.773 227.977 581.418C227.348 581.062 226.855 580.584 226.527 579.955L223.396 581.979C224.08 583.059 225.01 583.906 226.186 584.508C227.361 585.123 228.646 585.424 230.055 585.424C232.297 585.424 234.17 584.713 235.688 583.264C237.178 581.814 237.93 580.01 237.93 577.836V565.395ZM246.336 570.016C244.312 570.016 242.617 570.754 241.264 572.23C239.924 573.68 239.254 575.512 239.254 577.727C239.254 579.914 239.924 581.76 241.264 583.236C242.631 584.699 244.326 585.424 246.336 585.424C247.977 585.424 249.453 584.904 250.752 583.852V585H254.225V570.439H250.752V571.588C249.453 570.549 247.977 570.016 246.336 570.016ZM249.549 574.719C250.314 575.539 250.697 576.551 250.697 577.727C250.697 578.902 250.314 579.9 249.549 580.721C248.797 581.527 247.881 581.924 246.787 581.924C245.666 581.924 244.723 581.527 243.984 580.721C243.232 579.928 242.863 578.93 242.863 577.727C242.863 576.523 243.232 575.525 243.984 574.719C244.723 573.926 245.666 573.516 246.787 573.516C247.881 573.516 248.797 573.926 249.549 574.719ZM256.205 585H259.705V576.688C259.705 575.744 260.02 574.951 260.648 574.309C261.277 573.68 262.07 573.352 263.027 573.352C263.957 573.352 264.736 573.68 265.365 574.309C265.994 574.951 266.309 575.744 266.309 576.688V585H269.809V575.703C269.809 574.104 269.248 572.75 268.154 571.643C267.061 570.562 265.707 570.016 264.066 570.016C262.234 570.016 260.771 570.754 259.705 572.203V570.439H256.205V585ZM286.418 579.012C286.486 578.52 286.527 578.082 286.527 577.727C286.527 575.539 285.789 573.707 284.312 572.23C282.863 570.754 281.059 570.016 278.885 570.016C276.711 570.016 274.893 570.754 273.416 572.23C271.967 573.68 271.242 575.512 271.242 577.727C271.242 579.914 271.98 581.76 273.471 583.236C275.002 584.699 276.875 585.424 279.104 585.424C280.553 585.424 281.893 585.096 283.096 584.412C284.299 583.742 285.229 582.812 285.912 581.637L282.521 580.666C281.701 581.691 280.553 582.197 279.104 582.197C278.078 582.197 277.176 581.91 276.41 581.322C275.631 580.748 275.111 579.969 274.852 579.012H286.418ZM274.879 576.291C275.139 575.389 275.631 574.65 276.369 574.09C277.094 573.529 277.914 573.242 278.83 573.242C279.773 573.242 280.621 573.529 281.373 574.09C282.111 574.65 282.631 575.389 282.918 576.291H274.879ZM307.66 569.373C307.25 568.088 306.43 567.049 305.172 566.242C303.9 565.408 302.41 564.984 300.688 564.984C298.746 564.984 297.133 565.545 295.875 566.639C294.645 567.732 294.029 569.168 294.029 570.918C294.029 572.914 294.973 574.418 296.859 575.43C297.625 575.84 299.211 576.4 301.59 577.098C302.301 577.344 302.82 577.535 303.148 577.686C303.504 577.85 303.777 578 303.969 578.164C304.434 578.602 304.666 579.053 304.666 579.545C304.666 580.215 304.324 580.762 303.654 581.186C302.971 581.609 302.137 581.814 301.139 581.814C300.127 581.814 299.266 581.596 298.541 581.158C297.816 580.721 297.379 580.188 297.215 579.545L293.469 580.666C293.879 582.006 294.768 583.141 296.148 584.07C297.516 584.973 299.17 585.424 301.139 585.424C303.285 585.424 305.035 584.863 306.375 583.742C307.729 582.607 308.412 581.09 308.412 579.203C308.412 578.492 308.275 577.809 308.029 577.18C307.77 576.551 307.455 576.031 307.1 575.648C306.744 575.266 306.279 574.924 305.705 574.609C305.568 574.541 305.432 574.473 305.322 574.418C305.213 574.363 305.09 574.309 304.98 574.254C304.871 574.199 304.775 574.158 304.693 574.117C304.611 574.09 304.502 574.049 304.379 574.008C304.256 573.967 304.16 573.939 304.105 573.912C304.051 573.885 303.941 573.857 303.805 573.816C303.668 573.775 303.559 573.748 303.504 573.721C303.449 573.707 303.326 573.68 303.162 573.625C302.984 573.57 302.861 573.543 302.793 573.516C301.07 573.023 300.004 572.682 299.566 572.49C298.363 571.998 297.775 571.369 297.775 570.631C297.775 570.057 298.062 569.578 298.637 569.168C299.211 568.771 299.908 568.566 300.742 568.566C301.508 568.566 302.178 568.758 302.779 569.127C303.367 569.496 303.75 569.947 303.914 570.467L307.66 569.373ZM313.51 585V576.428C313.51 575.553 313.797 574.828 314.385 574.24C314.973 573.652 315.697 573.352 316.559 573.352C317.406 573.352 318.131 573.652 318.705 574.24C319.279 574.828 319.58 575.553 319.58 576.428V585H323.08V576.428C323.08 575.553 323.367 574.828 323.955 574.24C324.543 573.652 325.268 573.352 326.129 573.352C326.977 573.352 327.701 573.652 328.275 574.24C328.85 574.828 329.15 575.553 329.15 576.428V585H332.623V575.43C332.623 573.898 332.062 572.613 330.969 571.561C329.875 570.535 328.494 570.016 326.826 570.016C324.748 570.016 323.203 570.809 322.178 572.395C321.139 570.809 319.621 570.016 317.598 570.016C315.875 570.016 314.521 570.672 313.51 571.984V570.439H310.01V585H313.51ZM338.104 585V570.439H334.604V585H338.104ZM336.34 569.154C336.982 569.154 337.516 568.949 337.939 568.512C338.35 568.088 338.568 567.555 338.568 566.912C338.568 566.283 338.35 565.764 337.926 565.34C337.488 564.916 336.969 564.697 336.34 564.697C335.711 564.697 335.178 564.916 334.754 565.34C334.33 565.764 334.125 566.283 334.125 566.912C334.125 567.541 334.33 568.074 334.754 568.512C335.178 568.949 335.711 569.154 336.34 569.154ZM338.867 573.488H340.945V580.406C340.945 581.746 341.41 582.84 342.367 583.688C343.338 584.562 344.514 585 345.908 585H348.055V581.664H346.236C345.717 581.664 345.279 581.5 344.951 581.172C344.609 580.844 344.445 580.42 344.445 579.9V573.488H348.055V570.439H344.445V567.582H340.945V570.439H338.867V573.488ZM349.229 585H352.729V576.688C352.729 575.73 353.043 574.938 353.699 574.309C354.355 573.68 355.176 573.352 356.16 573.352C357.145 573.352 357.965 573.68 358.621 574.309C359.277 574.951 359.605 575.744 359.605 576.688V585H363.078V575.703C363.078 574.09 362.518 572.736 361.396 571.643C360.303 570.562 358.922 570.016 357.227 570.016C355.326 570.016 353.822 570.754 352.729 572.203V564H349.229V585Z" fill="#343E61"/>
<path d="M469.504 388.584V385.28C467.917 385.093 466.564 384.589 465.444 383.768C464.324 382.928 463.596 381.901 463.26 380.688L466.368 379.708C466.536 380.455 467.021 381.08 467.824 381.584C468.645 382.088 469.625 382.34 470.764 382.34C471.921 382.34 472.883 382.088 473.648 381.584C474.413 381.061 474.796 380.389 474.796 379.568C474.796 379.027 474.581 378.56 474.152 378.168C473.779 377.795 473.396 377.524 473.004 377.356C472.612 377.169 472.024 376.973 471.24 376.768C468.869 376.077 467.301 375.536 466.536 375.144C464.707 374.155 463.792 372.708 463.792 370.804C463.792 369.255 464.305 367.967 465.332 366.94C466.359 365.913 467.721 365.297 469.42 365.092V361.816H471.632V365.12C473.051 365.307 474.255 365.792 475.244 366.576C476.252 367.341 476.924 368.284 477.26 369.404L474.152 370.328C473.984 369.693 473.555 369.161 472.864 368.732C472.173 368.284 471.371 368.06 470.456 368.06C469.448 368.06 468.608 368.303 467.936 368.788C467.264 369.255 466.928 369.852 466.928 370.58C466.816 371.215 467.292 371.849 468.356 372.484C468.543 372.596 468.907 372.745 469.448 372.932C470.139 373.156 470.54 373.287 470.652 373.324L472.136 373.744C473.611 374.136 474.861 374.64 475.888 375.256C477.269 376.096 477.96 377.449 477.96 379.316C477.96 380.959 477.381 382.331 476.224 383.432C475.085 384.515 473.583 385.14 471.716 385.308V388.584H469.504ZM485.527 369.18L481.859 371.056L480.543 368.368L486.395 365.4H488.551V385H485.527V369.18ZM507.317 368.648L504.489 370.02C504.135 369.385 503.612 368.881 502.921 368.508C502.249 368.135 501.493 367.948 500.653 367.948C499.421 367.948 498.367 368.331 497.489 369.096C496.649 369.843 496.229 370.795 496.229 371.952V373.8C497.424 372.904 498.843 372.456 500.485 372.456C502.557 372.456 504.275 373.081 505.637 374.332C507.037 375.564 507.737 377.104 507.737 378.952C507.737 380.763 507.037 382.284 505.637 383.516C504.275 384.748 502.557 385.364 500.485 385.364C498.413 385.364 496.677 384.748 495.277 383.516C493.896 382.247 493.205 380.707 493.205 378.896V372.008C493.205 369.992 493.915 368.331 495.333 367.024C496.771 365.699 498.563 365.036 500.709 365.036C502.147 365.036 503.444 365.363 504.601 366.016C505.777 366.651 506.683 367.528 507.317 368.648ZM503.397 376.404C502.632 375.713 501.661 375.368 500.485 375.368C499.309 375.368 498.329 375.704 497.545 376.376C496.761 377.048 496.369 377.879 496.369 378.868C496.369 379.895 496.761 380.753 497.545 381.444C498.329 382.116 499.309 382.452 500.485 382.452C501.624 382.452 502.595 382.125 503.397 381.472C504.2 380.8 504.601 379.969 504.601 378.98C504.601 377.953 504.2 377.095 503.397 376.404ZM510.268 378.392V372.008C510.268 369.992 510.977 368.331 512.396 367.024C513.833 365.699 515.625 365.036 517.772 365.036C519.881 365.036 521.655 365.708 523.092 367.052C524.529 368.377 525.248 370.029 525.248 372.008V378.392C525.248 380.371 524.529 382.032 523.092 383.376C521.655 384.701 519.881 385.364 517.772 385.364C515.625 385.364 513.833 384.701 512.396 383.376C510.977 382.069 510.268 380.408 510.268 378.392ZM513.292 371.952V378.42C513.292 379.559 513.721 380.52 514.58 381.304C515.457 382.069 516.521 382.452 517.772 382.452C519.023 382.452 520.077 382.069 520.936 381.304C521.795 380.52 522.224 379.559 522.224 378.42V371.952C522.224 370.795 521.795 369.843 520.936 369.096C520.077 368.331 519.023 367.948 517.772 367.948C516.521 367.948 515.457 368.331 514.58 369.096C513.721 369.843 513.292 370.795 513.292 371.952ZM528.348 384.832C527.993 384.459 527.816 383.992 527.816 383.432C527.816 382.872 527.993 382.405 528.348 382.032C528.721 381.659 529.188 381.472 529.748 381.472C530.308 381.472 530.775 381.659 531.148 382.032C531.521 382.405 531.708 382.872 531.708 383.432C531.708 383.992 531.521 384.459 531.148 384.832C530.775 385.187 530.308 385.364 529.748 385.364C529.188 385.364 528.721 385.187 528.348 384.832ZM534.248 378.392V372.008C534.248 369.992 534.958 368.331 536.376 367.024C537.814 365.699 539.606 365.036 541.752 365.036C543.862 365.036 545.635 365.708 547.072 367.052C548.51 368.377 549.228 370.029 549.228 372.008V378.392C549.228 380.371 548.51 382.032 547.072 383.376C545.635 384.701 543.862 385.364 541.752 385.364C539.606 385.364 537.814 384.701 536.376 383.376C534.958 382.069 534.248 380.408 534.248 378.392ZM537.272 371.952V378.42C537.272 379.559 537.702 380.52 538.56 381.304C539.438 382.069 540.502 382.452 541.752 382.452C543.003 382.452 544.058 382.069 544.916 381.304C545.775 380.52 546.204 379.559 546.204 378.42V371.952C546.204 370.795 545.775 369.843 544.916 369.096C544.058 368.331 543.003 367.948 541.752 367.948C540.502 367.948 539.438 368.331 538.56 369.096C537.702 369.843 537.272 370.795 537.272 371.952ZM552.076 378.392V372.008C552.076 369.992 552.786 368.331 554.204 367.024C555.642 365.699 557.434 365.036 559.58 365.036C561.69 365.036 563.463 365.708 564.9 367.052C566.338 368.377 567.056 370.029 567.056 372.008V378.392C567.056 380.371 566.338 382.032 564.9 383.376C563.463 384.701 561.69 385.364 559.58 385.364C557.434 385.364 555.642 384.701 554.204 383.376C552.786 382.069 552.076 380.408 552.076 378.392ZM555.1 371.952V378.42C555.1 379.559 555.53 380.52 556.388 381.304C557.266 382.069 558.33 382.452 559.58 382.452C560.831 382.452 561.886 382.069 562.744 381.304C563.603 380.52 564.032 379.559 564.032 378.42V371.952C564.032 370.795 563.603 369.843 562.744 369.096C561.886 368.331 560.831 367.948 559.58 367.948C558.33 367.948 557.266 368.331 556.388 369.096C555.53 369.843 555.1 370.795 555.1 371.952ZM469.504 488.584V485.28C467.917 485.093 466.564 484.589 465.444 483.768C464.324 482.928 463.596 481.901 463.26 480.688L466.368 479.708C466.536 480.455 467.021 481.08 467.824 481.584C468.645 482.088 469.625 482.34 470.764 482.34C471.921 482.34 472.883 482.088 473.648 481.584C474.413 481.061 474.796 480.389 474.796 479.568C474.796 479.027 474.581 478.56 474.152 478.168C473.779 477.795 473.396 477.524 473.004 477.356C472.612 477.169 472.024 476.973 471.24 476.768C468.869 476.077 467.301 475.536 466.536 475.144C464.707 474.155 463.792 472.708 463.792 470.804C463.792 469.255 464.305 467.967 465.332 466.94C466.359 465.913 467.721 465.297 469.42 465.092V461.816H471.632V465.12C473.051 465.307 474.255 465.792 475.244 466.576C476.252 467.341 476.924 468.284 477.26 469.404L474.152 470.328C473.984 469.693 473.555 469.161 472.864 468.732C472.173 468.284 471.371 468.06 470.456 468.06C469.448 468.06 468.608 468.303 467.936 468.788C467.264 469.255 466.928 469.852 466.928 470.58C466.816 471.215 467.292 471.849 468.356 472.484C468.543 472.596 468.907 472.745 469.448 472.932C470.139 473.156 470.54 473.287 470.652 473.324L472.136 473.744C473.611 474.136 474.861 474.64 475.888 475.256C477.269 476.096 477.96 477.449 477.96 479.316C477.96 480.959 477.381 482.331 476.224 483.432C475.085 484.515 473.583 485.14 471.716 485.308V488.584H469.504ZM480.487 479.596C480.487 478.588 480.757 477.664 481.299 476.824C481.84 475.984 482.596 475.303 483.567 474.78C481.812 473.716 480.935 472.269 480.935 470.44C480.935 468.909 481.579 467.631 482.867 466.604C484.192 465.559 485.816 465.036 487.739 465.036C489.643 465.036 491.248 465.559 492.555 466.604C493.861 467.631 494.515 468.919 494.515 470.468C494.515 472.297 493.637 473.735 491.883 474.78C492.853 475.303 493.609 475.984 494.151 476.824C494.711 477.664 494.991 478.588 494.991 479.596C494.991 481.239 494.3 482.611 492.919 483.712C491.537 484.813 489.811 485.364 487.739 485.364C485.667 485.364 483.94 484.813 482.559 483.712C481.177 482.611 480.487 481.239 480.487 479.596ZM483.623 479.316C483.623 480.212 484.005 480.959 484.771 481.556C485.555 482.153 486.544 482.452 487.739 482.452C488.915 482.452 489.885 482.163 490.651 481.584C491.435 480.987 491.827 480.24 491.827 479.344C491.827 478.467 491.435 477.729 490.651 477.132C489.885 476.535 488.915 476.236 487.739 476.236C486.581 476.236 485.601 476.535 484.799 477.132C484.015 477.711 483.623 478.439 483.623 479.316ZM484.099 470.664C484.099 471.467 484.444 472.129 485.135 472.652C485.825 473.175 486.693 473.436 487.739 473.436C488.784 473.436 489.652 473.175 490.343 472.652C491.033 472.129 491.379 471.467 491.379 470.664C491.379 469.917 491.024 469.273 490.315 468.732C489.624 468.209 488.765 467.948 487.739 467.948C486.693 467.948 485.825 468.209 485.135 468.732C484.444 469.255 484.099 469.899 484.099 470.664ZM497.662 478.392V472.008C497.662 469.992 498.372 468.331 499.79 467.024C501.228 465.699 503.02 465.036 505.166 465.036C507.276 465.036 509.049 465.708 510.486 467.052C511.924 468.377 512.642 470.029 512.642 472.008V478.392C512.642 480.371 511.924 482.032 510.486 483.376C509.049 484.701 507.276 485.364 505.166 485.364C503.02 485.364 501.228 484.701 499.79 483.376C498.372 482.069 497.662 480.408 497.662 478.392ZM500.686 471.952V478.42C500.686 479.559 501.116 480.52 501.974 481.304C502.852 482.069 503.916 482.452 505.166 482.452C506.417 482.452 507.472 482.069 508.33 481.304C509.189 480.52 509.618 479.559 509.618 478.42V471.952C509.618 470.795 509.189 469.843 508.33 469.096C507.472 468.331 506.417 467.948 505.166 467.948C503.916 467.948 502.852 468.331 501.974 469.096C501.116 469.843 500.686 470.795 500.686 471.952ZM515.743 484.832C515.388 484.459 515.211 483.992 515.211 483.432C515.211 482.872 515.388 482.405 515.743 482.032C516.116 481.659 516.583 481.472 517.143 481.472C517.703 481.472 518.169 481.659 518.543 482.032C518.916 482.405 519.103 482.872 519.103 483.432C519.103 483.992 518.916 484.459 518.543 484.832C518.169 485.187 517.703 485.364 517.143 485.364C516.583 485.364 516.116 485.187 515.743 484.832ZM521.643 478.392V472.008C521.643 469.992 522.352 468.331 523.771 467.024C525.208 465.699 527 465.036 529.147 465.036C531.256 465.036 533.03 465.708 534.467 467.052C535.904 468.377 536.623 470.029 536.623 472.008V478.392C536.623 480.371 535.904 482.032 534.467 483.376C533.03 484.701 531.256 485.364 529.147 485.364C527 485.364 525.208 484.701 523.771 483.376C522.352 482.069 521.643 480.408 521.643 478.392ZM524.667 471.952V478.42C524.667 479.559 525.096 480.52 525.955 481.304C526.832 482.069 527.896 482.452 529.147 482.452C530.398 482.452 531.452 482.069 532.311 481.304C533.17 480.52 533.599 479.559 533.599 478.42V471.952C533.599 470.795 533.17 469.843 532.311 469.096C531.452 468.331 530.398 467.948 529.147 467.948C527.896 467.948 526.832 468.331 525.955 469.096C525.096 469.843 524.667 470.795 524.667 471.952ZM539.471 478.392V472.008C539.471 469.992 540.18 468.331 541.599 467.024C543.036 465.699 544.828 465.036 546.975 465.036C549.084 465.036 550.858 465.708 552.295 467.052C553.732 468.377 554.451 470.029 554.451 472.008V478.392C554.451 480.371 553.732 482.032 552.295 483.376C550.858 484.701 549.084 485.364 546.975 485.364C544.828 485.364 543.036 484.701 541.599 483.376C540.18 482.069 539.471 480.408 539.471 478.392ZM542.495 471.952V478.42C542.495 479.559 542.924 480.52 543.783 481.304C544.66 482.069 545.724 482.452 546.975 482.452C548.226 482.452 549.28 482.069 550.139 481.304C550.998 480.52 551.427 479.559 551.427 478.42V471.952C551.427 470.795 550.998 469.843 550.139 469.096C549.28 468.331 548.226 467.948 546.975 467.948C545.724 467.948 544.66 468.331 543.783 469.096C542.924 469.843 542.495 470.795 542.495 471.952ZM469.504 588.584V585.28C467.917 585.093 466.564 584.589 465.444 583.768C464.324 582.928 463.596 581.901 463.26 580.688L466.368 579.708C466.536 580.455 467.021 581.08 467.824 581.584C468.645 582.088 469.625 582.34 470.764 582.34C471.921 582.34 472.883 582.088 473.648 581.584C474.413 581.061 474.796 580.389 474.796 579.568C474.796 579.027 474.581 578.56 474.152 578.168C473.779 577.795 473.396 577.524 473.004 577.356C472.612 577.169 472.024 576.973 471.24 576.768C468.869 576.077 467.301 575.536 466.536 575.144C464.707 574.155 463.792 572.708 463.792 570.804C463.792 569.255 464.305 567.967 465.332 566.94C466.359 565.913 467.721 565.297 469.42 565.092V561.816H471.632V565.12C473.051 565.307 474.255 565.792 475.244 566.576C476.252 567.341 476.924 568.284 477.26 569.404L474.152 570.328C473.984 569.693 473.555 569.161 472.864 568.732C472.173 568.284 471.371 568.06 470.456 568.06C469.448 568.06 468.608 568.303 467.936 568.788C467.264 569.255 466.928 569.852 466.928 570.58C466.816 571.215 467.292 571.849 468.356 572.484C468.543 572.596 468.907 572.745 469.448 572.932C470.139 573.156 470.54 573.287 470.652 573.324L472.136 573.744C473.611 574.136 474.861 574.64 475.888 575.256C477.269 576.096 477.96 577.449 477.96 579.316C477.96 580.959 477.381 582.331 476.224 583.432C475.085 584.515 473.583 585.14 471.716 585.308V588.584H469.504ZM490.791 585V581.108H480.291V578.196L490.931 565.4H493.815V578.196H496.475V581.108H493.815V585H490.791ZM490.791 569.936L483.931 578.196H490.791V569.936ZM498.838 578.392V572.008C498.838 569.992 499.547 568.331 500.966 567.024C502.403 565.699 504.195 565.036 506.342 565.036C508.451 565.036 510.225 565.708 511.662 567.052C513.099 568.377 513.818 570.029 513.818 572.008V578.392C513.818 580.371 513.099 582.032 511.662 583.376C510.225 584.701 508.451 585.364 506.342 585.364C504.195 585.364 502.403 584.701 500.966 583.376C499.547 582.069 498.838 580.408 498.838 578.392ZM501.862 571.952V578.42C501.862 579.559 502.291 580.52 503.15 581.304C504.027 582.069 505.091 582.452 506.342 582.452C507.593 582.452 508.647 582.069 509.506 581.304C510.365 580.52 510.794 579.559 510.794 578.42V571.952C510.794 570.795 510.365 569.843 509.506 569.096C508.647 568.331 507.593 567.948 506.342 567.948C505.091 567.948 504.027 568.331 503.15 569.096C502.291 569.843 501.862 570.795 501.862 571.952ZM516.918 584.832C516.564 584.459 516.386 583.992 516.386 583.432C516.386 582.872 516.564 582.405 516.918 582.032C517.292 581.659 517.758 581.472 518.318 581.472C518.878 581.472 519.345 581.659 519.718 582.032C520.092 582.405 520.278 582.872 520.278 583.432C520.278 583.992 520.092 584.459 519.718 584.832C519.345 585.187 518.878 585.364 518.318 585.364C517.758 585.364 517.292 585.187 516.918 584.832ZM522.819 578.392V572.008C522.819 569.992 523.528 568.331 524.947 567.024C526.384 565.699 528.176 565.036 530.323 565.036C532.432 565.036 534.205 565.708 535.643 567.052C537.08 568.377 537.799 570.029 537.799 572.008V578.392C537.799 580.371 537.08 582.032 535.643 583.376C534.205 584.701 532.432 585.364 530.323 585.364C528.176 585.364 526.384 584.701 524.947 583.376C523.528 582.069 522.819 580.408 522.819 578.392ZM525.843 571.952V578.42C525.843 579.559 526.272 580.52 527.131 581.304C528.008 582.069 529.072 582.452 530.323 582.452C531.573 582.452 532.628 582.069 533.487 581.304C534.345 580.52 534.775 579.559 534.775 578.42V571.952C534.775 570.795 534.345 569.843 533.487 569.096C532.628 568.331 531.573 567.948 530.323 567.948C529.072 567.948 528.008 568.331 527.131 569.096C526.272 569.843 525.843 570.795 525.843 571.952ZM540.647 578.392V572.008C540.647 569.992 541.356 568.331 542.775 567.024C544.212 565.699 546.004 565.036 548.151 565.036C550.26 565.036 552.033 565.708 553.471 567.052C554.908 568.377 555.627 570.029 555.627 572.008V578.392C555.627 580.371 554.908 582.032 553.471 583.376C552.033 584.701 550.26 585.364 548.151 585.364C546.004 585.364 544.212 584.701 542.775 583.376C541.356 582.069 540.647 580.408 540.647 578.392ZM543.671 571.952V578.42C543.671 579.559 544.1 580.52 544.959 581.304C545.836 582.069 546.9 582.452 548.151 582.452C549.401 582.452 550.456 582.069 551.315 581.304C552.173 580.52 552.603 579.559 552.603 578.42V571.952C552.603 570.795 552.173 569.843 551.315 569.096C550.456 568.331 549.401 567.948 548.151 567.948C546.9 567.948 545.836 568.331 544.959 569.096C544.1 569.843 543.671 570.795 543.671 571.952Z" fill="#343E61"/>
<path d="M632.617 380.724L637.695 376.224L632.617 371.724" stroke="#343E61" stroke-width="2" stroke-linecap="round" stroke-linejoin="round"/>
<path d="M632.617 480.5L637.695 476L632.617 471.5" stroke="#343E61" stroke-width="2" stroke-linecap="round" stroke-linejoin="round"/>
<path d="M632.617 580.5L637.695 576L632.617 571.5" stroke="#343E61" stroke-width="2" stroke-linecap="round" stroke-linejoin="round"/>
<line x1="218" y1="419.5" x2="653" y2="419.5" stroke="#343E61" stroke-opacity="0.3"/>
<line x1="218" y1="525.5" x2="653" y2="525.5" stroke="#343E61" stroke-opacity="0.3"/>
<g filter="url(#filter1_d)">
<rect x="84" y="561" width="325" height="191" rx="24" fill="white"/>
</g>
<path d="M131.988 661.445H136.603V655.659C139.947 655.293 142.608 654.121 144.61 652.168C146.588 650.215 147.589 647.7 147.589 644.648C147.589 643.379 147.345 642.158 146.905 641.035C146.441 639.912 145.88 638.984 145.245 638.301C144.61 637.617 143.78 637.007 142.755 636.445C142.511 636.323 142.267 636.201 142.071 636.104C141.876 636.006 141.656 635.908 141.461 635.811C141.266 635.713 141.095 635.64 140.948 635.566C140.802 635.518 140.606 635.444 140.387 635.371C140.167 635.298 139.996 635.249 139.898 635.2C139.801 635.151 139.605 635.103 139.361 635.029C139.117 634.956 138.922 634.907 138.824 634.858C138.727 634.834 138.507 634.785 138.214 634.688C137.896 634.59 137.677 634.541 137.555 634.492C134.479 633.613 132.574 633.003 131.793 632.661C129.645 631.782 128.595 630.659 128.595 629.341C128.595 628.315 129.107 627.461 130.133 626.729C131.158 626.021 132.403 625.654 133.893 625.654C135.26 625.654 136.456 625.996 137.53 626.655C138.58 627.314 139.264 628.12 139.557 629.048L146.246 627.095C145.636 625.19 144.439 623.53 142.682 622.139C140.924 620.747 138.8 619.844 136.358 619.453V613.545H131.744V619.404C128.79 619.746 126.397 620.894 124.591 622.798C122.784 624.702 121.905 627.046 121.905 629.854C121.905 633.418 123.59 636.104 126.959 637.91C128.326 638.643 131.158 639.644 135.406 640.889C136.676 641.328 137.604 641.67 138.189 641.938C138.824 642.231 139.312 642.5 139.654 642.793C140.484 643.574 140.899 644.38 140.899 645.259C140.899 646.455 140.289 647.432 139.093 648.188C137.872 648.945 136.383 649.312 134.601 649.312C132.794 649.312 131.256 648.921 129.962 648.14C128.668 647.358 127.887 646.406 127.594 645.259L120.904 647.261C121.539 649.409 122.833 651.24 124.835 652.754C126.812 654.268 129.205 655.22 131.988 655.61V661.445ZM168.866 630.195C168.866 632.246 167.255 634.81 164.057 637.91L151.215 650.142V655H175.873V648.799H161.225L168.061 642.305C170.648 639.814 172.553 637.568 173.749 635.615C174.945 633.662 175.556 631.807 175.556 630C175.556 627.046 174.359 624.507 171.967 622.407C169.623 620.308 166.693 619.258 163.227 619.258C160.395 619.258 157.855 620.015 155.585 621.528C153.314 623.042 151.63 625.117 150.507 627.705L156.513 630.562C157.099 628.999 158.002 627.754 159.198 626.826C160.37 625.923 161.713 625.459 163.227 625.459C164.765 625.459 166.083 625.923 167.157 626.851C168.28 627.803 168.866 628.926 168.866 630.195ZM192.731 655.757C196.467 655.757 199.592 654.756 202.082 652.754C204.597 650.728 205.866 648.237 205.866 645.259C205.866 641.694 204.157 638.862 200.764 636.812C203.645 634.858 205.109 632.319 205.109 629.194C205.109 626.411 203.913 624.067 201.569 622.139C199.25 620.234 196.296 619.258 192.731 619.258C189.118 619.258 186.14 620.21 183.82 622.09C181.452 624.019 180.28 626.362 180.28 629.146C180.28 632.319 181.721 634.858 184.626 636.812C183.015 637.739 181.77 638.96 180.866 640.425C179.963 641.914 179.523 643.501 179.523 645.21C179.523 648.188 180.769 650.703 183.259 652.754C185.798 654.756 188.947 655.757 192.731 655.757ZM186.213 644.648C186.213 643.281 186.823 642.134 188.068 641.206C189.289 640.303 190.852 639.839 192.731 639.839C194.538 639.839 196.076 640.303 197.297 641.23C198.518 642.158 199.128 643.33 199.128 644.697C199.128 646.089 198.518 647.236 197.297 648.164C196.076 649.092 194.538 649.556 192.731 649.556C190.852 649.556 189.289 649.092 188.068 648.164C186.823 647.236 186.213 646.064 186.213 644.648ZM186.97 629.658C186.97 628.486 187.507 627.51 188.63 626.68C189.729 625.874 191.096 625.459 192.731 625.459C194.318 625.459 195.661 625.874 196.735 626.68C197.81 627.51 198.371 628.486 198.371 629.658C198.371 630.879 197.834 631.88 196.76 632.686C195.686 633.516 194.343 633.906 192.731 633.906C191.096 633.906 189.729 633.516 188.63 632.686C187.507 631.88 186.97 630.879 186.97 629.658ZM209.395 643.159C209.395 646.724 210.664 649.727 213.252 652.144C215.84 654.561 219.087 655.757 222.944 655.757C226.802 655.757 230.024 654.561 232.588 652.144C235.176 649.751 236.494 646.748 236.494 643.159V631.855C236.494 628.267 235.176 625.264 232.588 622.847C230.049 620.454 226.826 619.258 222.944 619.258C219.062 619.258 215.84 620.454 213.252 622.847C210.664 625.288 209.395 628.291 209.395 631.855V643.159ZM215.889 631.758C215.889 629.976 216.548 628.486 217.891 627.29C219.209 626.069 220.894 625.459 222.944 625.459C224.995 625.459 226.68 626.069 227.998 627.29C229.365 628.511 230.049 630 230.049 631.758V643.257C230.049 644.99 229.365 646.479 227.998 647.749C226.631 648.97 224.946 649.556 222.944 649.556C220.918 649.556 219.233 648.97 217.891 647.749C216.548 646.528 215.889 645.015 215.889 643.257V631.758ZM239.852 651.802C239.852 652.925 240.218 653.877 240.95 654.634C241.683 655.391 242.61 655.757 243.733 655.757C244.856 655.757 245.784 655.391 246.517 654.634C247.249 653.877 247.64 652.925 247.64 651.802C247.64 650.703 247.249 649.775 246.517 649.019C245.784 648.286 244.856 647.896 243.733 647.896C242.61 647.896 241.683 648.286 240.95 649.019C240.218 649.775 239.852 650.703 239.852 651.802ZM250.973 643.159C250.973 646.724 252.242 649.727 254.83 652.144C257.418 654.561 260.665 655.757 264.522 655.757C268.38 655.757 271.603 654.561 274.166 652.144C276.754 649.751 278.072 646.748 278.072 643.159V631.855C278.072 628.267 276.754 625.264 274.166 622.847C271.627 620.454 268.404 619.258 264.522 619.258C260.641 619.258 257.418 620.454 254.83 622.847C252.242 625.288 250.973 628.291 250.973 631.855V643.159ZM257.467 631.758C257.467 629.976 258.126 628.486 259.469 627.29C260.787 626.069 262.472 625.459 264.522 625.459C266.573 625.459 268.258 626.069 269.576 627.29C270.943 628.511 271.627 630 271.627 631.758V643.257C271.627 644.99 270.943 646.479 269.576 647.749C268.209 648.97 266.524 649.556 264.522 649.556C262.496 649.556 260.812 648.97 259.469 647.749C258.126 646.528 257.467 645.015 257.467 643.257V631.758ZM281.869 643.159C281.869 646.724 283.139 649.727 285.727 652.144C288.314 654.561 291.562 655.757 295.419 655.757C299.276 655.757 302.499 654.561 305.062 652.144C307.65 649.751 308.969 646.748 308.969 643.159V631.855C308.969 628.267 307.65 625.264 305.062 622.847C302.523 620.454 299.301 619.258 295.419 619.258C291.537 619.258 288.314 620.454 285.727 622.847C283.139 625.288 281.869 628.291 281.869 631.855V643.159ZM288.363 631.758C288.363 629.976 289.022 628.486 290.365 627.29C291.684 626.069 293.368 625.459 295.419 625.459C297.47 625.459 299.154 626.069 300.473 627.29C301.84 628.511 302.523 630 302.523 631.758V643.257C302.523 644.99 301.84 646.479 300.473 647.749C299.105 648.97 297.421 649.556 295.419 649.556C293.393 649.556 291.708 648.97 290.365 647.749C289.022 646.528 288.363 645.015 288.363 643.257V631.758Z" fill="#216ACC"/>
<path d="M125.396 686.596V701H128.778V686.596H134.576V683.495H119.598V686.596H125.396ZM135.236 699.425C136.579 700.731 138.214 701.378 140.167 701.378C142.096 701.378 143.744 700.731 145.087 699.425C146.405 698.107 147.064 696.471 147.064 694.506C147.064 692.528 146.405 690.893 145.087 689.599C143.769 688.28 142.121 687.621 140.167 687.621C138.19 687.621 136.554 688.28 135.236 689.599C133.942 690.893 133.295 692.528 133.295 694.506C133.295 696.459 133.942 698.107 135.236 699.425ZM137.567 691.82C138.251 691.112 139.118 690.746 140.167 690.746C141.205 690.746 142.072 691.112 142.768 691.82C143.463 692.553 143.817 693.444 143.817 694.506C143.817 695.568 143.463 696.459 142.768 697.179C142.072 697.899 141.205 698.253 140.167 698.253C139.118 698.253 138.251 697.899 137.567 697.179C136.859 696.459 136.518 695.568 136.518 694.506C136.518 693.444 136.859 692.553 137.567 691.82ZM147.639 690.722H149.494V696.898C149.494 698.095 149.909 699.071 150.764 699.828C151.63 700.609 152.68 701 153.925 701H155.842V698.021H154.218C153.754 698.021 153.364 697.875 153.071 697.582C152.766 697.289 152.619 696.911 152.619 696.447V690.722H155.842V688H152.619V685.448H149.494V688H147.639V690.722ZM163.13 687.621C161.323 687.621 159.81 688.28 158.601 689.599C157.405 690.893 156.807 692.528 156.807 694.506C156.807 696.459 157.405 698.107 158.601 699.425C159.822 700.731 161.335 701.378 163.13 701.378C164.595 701.378 165.913 700.915 167.073 699.975V701H170.173V688H167.073V689.025C165.913 688.097 164.595 687.621 163.13 687.621ZM165.999 691.82C166.682 692.553 167.024 693.456 167.024 694.506C167.024 695.556 166.682 696.447 165.999 697.179C165.327 697.899 164.509 698.253 163.533 698.253C162.532 698.253 161.689 697.899 161.03 697.179C160.359 696.471 160.029 695.58 160.029 694.506C160.029 693.432 160.359 692.541 161.03 691.82C161.689 691.112 162.532 690.746 163.533 690.746C164.509 690.746 165.327 691.112 165.999 691.82ZM175.459 701V682.25H172.334V701H175.459ZM192.331 683.129C189.73 683.129 187.558 684.008 185.812 685.753C184.079 687.487 183.212 689.66 183.212 692.248C183.212 694.848 184.079 697.021 185.812 698.778C187.57 700.512 189.743 701.378 192.331 701.378C194.943 701.378 197.128 700.512 198.861 698.778C200.607 697.033 201.486 694.86 201.486 692.248C201.486 689.647 200.607 687.487 198.861 685.753C197.128 684.008 194.955 683.129 192.331 683.129ZM186.715 692.248C186.715 690.563 187.24 689.171 188.314 688.048C189.389 686.925 190.731 686.352 192.331 686.352C193.93 686.352 195.272 686.925 196.359 688.048C197.433 689.184 197.982 690.587 197.982 692.248C197.982 693.92 197.433 695.324 196.359 696.447C195.285 697.57 193.942 698.119 192.331 698.119C190.719 698.119 189.376 697.57 188.314 696.447C187.24 695.336 186.715 693.932 186.715 692.248ZM203.281 696.3C203.281 697.765 203.757 698.974 204.721 699.926C205.686 700.902 206.906 701.378 208.396 701.378C210.031 701.378 211.337 700.731 212.302 699.425V701H215.427V688H212.302V695.397C212.302 696.251 212.009 696.959 211.447 697.533C210.886 698.119 210.178 698.4 209.348 698.4C208.493 698.4 207.797 698.119 207.236 697.545C206.674 696.972 206.406 696.251 206.406 695.397V688H203.281V696.3ZM216.489 690.722H218.345V696.898C218.345 698.095 218.76 699.071 219.614 699.828C220.481 700.609 221.531 701 222.776 701H224.692V698.021H223.069C222.605 698.021 222.214 697.875 221.921 697.582C221.616 697.289 221.47 696.911 221.47 696.447V690.722H224.692V688H221.47V685.448H218.345V688H216.489V690.722ZM235.752 691.125C235.582 690.038 235.069 689.184 234.19 688.561C233.311 687.938 232.164 687.621 230.772 687.621C229.234 687.621 228.013 687.975 227.11 688.659C226.207 689.342 225.755 690.355 225.755 691.674C225.755 692.602 225.987 693.346 226.475 693.908C226.963 694.481 227.757 694.945 228.855 695.299L231.529 696.154C232.493 696.483 232.981 696.898 232.981 697.399C232.981 697.79 232.774 698.107 232.383 698.339C231.993 698.571 231.492 698.681 230.882 698.681C230.174 698.681 229.6 698.546 229.161 698.266C228.721 697.985 228.44 697.606 228.331 697.13L225.401 697.545C225.596 698.754 226.158 699.694 227.085 700.365C228.013 701.049 229.258 701.378 230.809 701.378C232.359 701.378 233.604 701.037 234.544 700.329C235.472 699.621 235.948 698.62 235.948 697.301C235.948 696.361 235.679 695.58 235.142 694.958C234.605 694.335 233.75 693.81 232.554 693.395L229.881 692.504C229.112 692.235 228.733 691.881 228.733 691.454C228.733 691.112 228.904 690.832 229.246 690.636C229.588 690.441 230.015 690.331 230.552 690.331C231.785 690.331 232.542 690.758 232.823 691.601L235.752 691.125ZM236.412 690.722H238.268V696.898C238.268 698.095 238.683 699.071 239.537 699.828C240.404 700.609 241.454 701 242.699 701H244.615V698.021H242.992C242.528 698.021 242.137 697.875 241.844 697.582C241.539 697.289 241.393 696.911 241.393 696.447V690.722H244.615V688H241.393V685.448H238.268V688H236.412V690.722ZM251.903 687.621C250.097 687.621 248.583 688.28 247.375 689.599C246.178 690.893 245.58 692.528 245.58 694.506C245.58 696.459 246.178 698.107 247.375 699.425C248.595 700.731 250.109 701.378 251.903 701.378C253.368 701.378 254.687 700.915 255.846 699.975V701H258.947V688H255.846V689.025C254.687 688.097 253.368 687.621 251.903 687.621ZM254.772 691.82C255.456 692.553 255.797 693.456 255.797 694.506C255.797 695.556 255.456 696.447 254.772 697.179C254.101 697.899 253.283 698.253 252.306 698.253C251.305 698.253 250.463 697.899 249.804 697.179C249.132 696.471 248.803 695.58 248.803 694.506C248.803 693.432 249.132 692.541 249.804 691.82C250.463 691.112 251.305 690.746 252.306 690.746C253.283 690.746 254.101 691.112 254.772 691.82ZM261.108 701H264.233V693.578C264.233 692.736 264.514 692.028 265.075 691.454C265.637 690.893 266.345 690.6 267.199 690.6C268.029 690.6 268.725 690.893 269.287 691.454C269.848 692.028 270.129 692.736 270.129 693.578V701H273.254V692.699C273.254 691.271 272.753 690.062 271.777 689.074C270.8 688.109 269.592 687.621 268.127 687.621C266.491 687.621 265.185 688.28 264.233 689.574V688H261.108V701ZM281.25 687.621C279.443 687.621 277.93 688.28 276.721 689.599C275.525 690.893 274.927 692.528 274.927 694.506C274.927 696.459 275.525 698.107 276.721 699.425C277.942 700.731 279.456 701.378 281.25 701.378C282.715 701.378 284.033 700.915 285.193 699.975V701H288.293V682.25H285.193V689.025C284.033 688.097 282.715 687.621 281.25 687.621ZM284.119 691.82C284.802 692.553 285.144 693.456 285.144 694.506C285.144 695.556 284.802 696.447 284.119 697.179C283.447 697.899 282.629 698.253 281.653 698.253C280.652 698.253 279.81 697.899 279.15 697.179C278.479 696.471 278.149 695.58 278.149 694.506C278.149 693.432 278.479 692.541 279.15 691.82C279.81 691.112 280.652 690.746 281.653 690.746C282.629 690.746 283.447 691.112 284.119 691.82ZM293.58 701V688H290.455V701H293.58ZM292.005 686.852C292.579 686.852 293.055 686.669 293.433 686.278C293.799 685.9 293.995 685.424 293.995 684.85C293.995 684.289 293.799 683.825 293.421 683.446C293.03 683.068 292.566 682.873 292.005 682.873C291.443 682.873 290.967 683.068 290.589 683.446C290.21 683.825 290.027 684.289 290.027 684.85C290.027 685.412 290.21 685.888 290.589 686.278C290.967 686.669 291.443 686.852 292.005 686.852ZM295.741 701H298.866V693.578C298.866 692.736 299.146 692.028 299.708 691.454C300.27 690.893 300.978 690.6 301.832 690.6C302.662 690.6 303.358 690.893 303.919 691.454C304.481 692.028 304.762 692.736 304.762 693.578V701H307.887V692.699C307.887 691.271 307.386 690.062 306.41 689.074C305.433 688.109 304.225 687.621 302.76 687.621C301.124 687.621 299.818 688.28 298.866 689.574V688H295.741V701ZM315.883 687.621C314.076 687.621 312.562 688.28 311.354 689.599C310.158 690.893 309.56 692.528 309.56 694.506C309.56 696.459 310.158 698.107 311.354 699.425C312.575 700.731 314.088 701.378 315.883 701.378C317.348 701.378 318.666 700.915 319.826 699.975V700.646C319.826 701.574 319.484 702.343 318.825 702.953C318.141 703.588 317.323 703.905 316.383 703.905C315.7 703.905 315.065 703.747 314.491 703.429C313.905 703.112 313.502 702.697 313.258 702.196L310.133 703.1C310.585 704.223 311.403 705.15 312.575 705.871C313.759 706.627 315.065 707.006 316.481 707.006C318.288 707.006 319.813 706.396 321.059 705.175C322.304 703.954 322.926 702.453 322.926 700.646V688H319.826V689.025C318.666 688.097 317.348 687.621 315.883 687.621ZM318.751 691.82C319.435 692.553 319.777 693.456 319.777 694.506C319.777 695.556 319.435 696.447 318.751 697.179C318.08 697.899 317.262 698.253 316.286 698.253C315.285 698.253 314.442 697.899 313.783 697.179C313.112 696.471 312.782 695.58 312.782 694.506C312.782 693.432 313.112 692.541 313.783 691.82C314.442 691.112 315.285 690.746 316.286 690.746C317.262 690.746 318.08 691.112 318.751 691.82Z" fill="#343E61"/>
<g clip-path="url(#clip0)">
<path d="M152.259 457.677C152.461 457.753 149.489 461.622 146.593 464.327C144.251 467.26 142.06 470.749 141.304 474.542C140.146 480.307 141.103 508.854 140.121 510.876C131.558 519.296 125.337 540.409 123.6 546.857C123.272 548.121 122.567 549.234 121.61 550.118L121.988 557.401L126.244 561.345C126.244 561.345 125.287 555.403 127.201 551.003C127.201 551.003 148.784 518.184 150.068 515.681C152.511 508.525 161.427 471.938 161.427 471.938L163.492 463.518C163.492 463.543 152.259 457.677 152.259 457.677Z" fill="#F7A491"/>
<path d="M116.951 552.496C116.951 552.496 119.646 556.668 119.872 558.286C120.099 559.904 121.535 563.596 123.121 563.823C123.474 563.874 129.669 564.329 129.619 563.545C129.594 562.964 127.352 562.104 126.32 561.396C124.532 560.157 121.736 550.018 121.736 550.018C121.736 550.018 117.052 551.181 116.951 552.496Z" fill="#F47458"/>
<path d="M170.694 470.321C170.694 470.321 184.596 500.157 184.697 505.416C184.772 509.917 182.279 535.151 182.959 556.162C182.984 556.921 183.941 557.932 185.326 558.565C186.107 558.919 189.809 560.739 189.809 560.739L190.414 561.978L177.368 561.042L177.091 558.008L177.167 557.477C177.167 557.477 171.979 526.048 172.507 517.148C172.583 515.757 173.263 507.388 173.263 507.388L157.623 476.996L167.496 463.974L170.694 470.321Z" fill="#F7A491"/>
<path d="M187.719 492.04L160.419 452.469C158.732 453.152 157.145 453.759 155.357 454.087C151.454 454.846 147.525 454.72 143.571 454.593C143.571 454.745 143.571 454.871 143.546 454.972C143.092 458.234 138.786 463.291 137.879 473.203C136.872 484.455 137.476 503.974 137.829 505.239C155.962 503.014 182.556 497.451 187.719 492.04Z" fill="#50BFA5"/>
<path d="M152.083 399.7C152.184 400.863 152.813 401.748 153.443 401.672C154.098 401.596 154.526 400.61 154.4 399.472C154.299 398.309 153.67 397.424 153.04 397.5C152.41 397.551 151.982 398.537 152.083 399.7Z" fill="#F7A491"/>
<path d="M176.991 564.001H194.091C194.695 563.95 194.846 563.166 194.519 562.838C193.99 562.307 191.975 561.75 189.809 560.764C186.032 561.169 177.721 558.893 177.117 558.033C176.764 559.753 176.663 563.925 176.991 564.001Z" fill="#F47458"/>
<path d="M191.874 422.152C191.194 423.417 190.565 424.984 190.464 424.934C190.313 424.833 191.27 423.113 191.95 421.798C192.63 420.484 192.101 414.491 191.471 418.79C190.842 423.088 186.686 426.375 186.586 425.06C186.46 423.745 184.369 428.423 184.369 429.308C184.369 429.763 184.092 430.193 183.664 430.345L172.785 434.314L165.683 421.874L157.649 423.594C157.649 423.594 164.121 440.484 169.637 443.038C172.155 444.201 183.967 436.009 188.525 432.014C191.925 428.979 192.554 420.888 191.874 422.152Z" fill="#F7A491"/>
<path d="M162.132 414.061C164.978 415.427 172.206 432.291 172.206 432.291L162.887 438.031L159.941 429.46C159.966 429.46 158.631 412.392 162.132 414.061Z" fill="#78759E"/>
<path d="M159.462 400.357C160.847 396.918 162.207 393.429 160.646 389.206C159.387 385.768 156.616 383.517 153.166 382.607C143.369 380.028 143.52 386.678 129.367 385.287C114.709 383.846 108.841 399.826 110.201 405.136C116.674 430.446 145.787 418.107 149.741 413.91C152.662 410.774 158.555 402.557 159.462 400.357Z" fill="#F47458"/>
<path d="M140.221 412.645C140.221 412.645 138.635 412.569 134.404 414.516C130.148 416.463 121.056 429.131 121.056 429.131L128.485 434.921L141.204 426.577C141.153 426.602 142.765 412.645 140.221 412.645Z" fill="#78759E"/>
<path d="M164.146 456.692C159.764 459.018 141.078 460.08 141.078 460.08C140.649 455.68 139.038 440.383 138.055 430.926C136.821 424.352 138.861 422.481 140.171 412.645C140.171 412.57 146.946 412.115 146.946 412.115L153.997 412.291C153.997 412.291 160.142 412.797 162.081 414.061C162.207 414.163 162.988 425.237 162.384 433.101C161.981 438.461 161.376 442.785 161.401 446.325C161.502 451.483 164.146 456.692 164.146 456.692Z" fill="#A7A4BC"/>
<path d="M164.297 427.715C164.172 431.912 158.782 435.932 151.126 435.932C143.47 435.932 137.275 432.544 137.275 428.347C137.275 424.15 142.362 418.258 150.018 418.258C157.649 418.258 164.474 422.405 164.297 427.715Z" fill="#A7A4BC"/>
<path d="M148.633 401.697C148.633 401.697 148.482 402.759 148.255 404.226C147.827 406.906 147.626 411.305 147.097 412.646C146.618 413.834 150.723 424.959 152.058 421.849C154.425 416.413 154.35 414.769 154.476 413.328C154.602 411.887 154.98 406.982 155.231 403.695C155.357 401.925 155.458 400.635 155.458 400.635L148.633 401.697Z" fill="#F7A491"/>
<path d="M155.256 403.669C155.382 401.924 155.483 400.66 155.483 400.66L148.633 401.697C148.633 401.697 148.456 402.708 148.28 404.124C151.05 405.742 153.544 405.237 155.256 403.669Z" fill="#F47458"/>
<path d="M150.799 386.147C150.799 386.147 148.104 386.754 146.442 389.307C144.78 391.861 143.621 399.371 149.111 402.885C154.602 406.4 158.858 401.419 158.933 396.589C159.009 391.76 157.976 385.287 150.799 386.147Z" fill="#F7A491"/>
<path d="M160.193 395.073C159.714 396.236 158.807 396.969 158.127 396.691C157.447 396.413 157.271 395.25 157.75 394.087C158.228 392.924 159.135 392.19 159.815 392.468C160.495 392.747 160.646 393.91 160.193 395.073Z" fill="#F7A491"/>
<path d="M151.604 385.995C151.604 385.995 148.154 393.733 145.132 394.441C142.11 395.123 142.16 399.042 142.16 399.042C142.16 399.042 142.236 390.041 145.057 387.968C147.902 385.894 151.604 385.995 151.604 385.995Z" fill="#F47458"/>
<path d="M146.341 396.033C146.744 397.298 146.366 398.537 145.535 398.789C144.679 399.068 143.671 398.258 143.293 396.994C142.891 395.73 143.268 394.491 144.099 394.238C144.93 393.985 145.938 394.794 146.341 396.033Z" fill="#F7A491"/>
<path d="M203.737 417.971L199.041 409.512L199.701 409.143L204.396 417.602L203.737 417.971Z" fill="#FFD09F"/>
<path d="M203.743 417.952L199.047 409.493L199.421 409.284L204.117 417.743L203.743 417.952Z" fill="#FFB769"/>
<path d="M200.465 419.534L195.878 411.274L196.538 410.904L201.124 419.165L200.465 419.534Z" fill="#FFD09F"/>
<path d="M200.465 419.522L195.878 411.262L196.362 410.991L200.948 419.251L200.465 419.522Z" fill="#FFB769"/>
<path d="M197.131 421.383L192.545 413.123L193.205 412.753L197.791 421.014L197.131 421.383Z" fill="#FFD09F"/>
<path d="M197.146 421.398L192.561 413.138L192.957 412.916L197.542 421.177L197.146 421.398Z" fill="#FFB769"/>
<path d="M139.97 471.23C142.966 468.5 144.83 462.836 145.963 460.535C145.963 460.535 147.424 457.551 151.831 457.476C156.239 457.4 161.124 454.77 163.341 449.738C165.582 444.681 160.142 437.071 160.142 437.071L159.916 436.641C159.916 436.641 156.339 427.993 150.874 427.26C145.409 426.502 140.624 429.308 138.257 433.025C135.89 436.742 132.59 436.413 132.59 436.413C130.072 436.16 124.28 434.77 120.376 435.908C116.749 436.97 113.853 439.65 112.09 443.038C110.176 446.729 109.849 451.761 112.619 458.108C112.77 458.436 114.231 461.42 114.71 462.229C115.138 463.063 116.901 465.87 117.102 466.174C121.031 471.863 125.463 474.239 129.594 474.543C133.371 474.821 137.174 473.784 139.97 471.23Z" fill="#EA7708"/>
<path d="M149.867 451.963C146.291 453.96 141.657 452.469 139.516 448.6C137.375 444.731 138.534 439.978 142.11 437.98C145.686 435.983 150.32 437.475 152.461 441.343C154.627 445.212 153.468 449.965 149.867 451.963Z" fill="#B3431D"/>
<path d="M148.507 449.536C146.19 450.826 143.168 449.865 141.783 447.362C140.397 444.858 141.153 441.774 143.47 440.459C145.787 439.169 148.809 440.13 150.194 442.633C151.604 445.137 150.849 448.221 148.507 449.536Z" fill="#40264F"/>
<path d="M204.593 406.627C207.464 408.145 209.176 411.204 208.975 414.466V414.542L195.451 421.293C194.871 421.116 192.932 421.571 192.932 421.571L190.212 416.64C190.212 416.64 191.623 415.224 191.774 414.617L204.593 406.627ZM194.695 416.868L202.175 412.241C202.779 411.887 202.93 411.052 202.553 410.42C202.175 409.788 201.369 409.56 200.765 409.914L193.285 414.542C192.68 414.921 192.529 415.73 192.907 416.362C193.285 417.019 194.091 417.247 194.695 416.868ZM204.643 414.188C204.29 413.53 203.51 413.227 202.905 413.555L195.073 417.525C194.443 417.829 194.217 418.638 194.569 419.295C194.922 419.953 195.703 420.256 196.307 419.927L204.139 415.958C204.744 415.654 204.97 414.87 204.643 414.188Z" fill="#EA7708"/>
<path d="M150.219 442.633C150.95 443.923 151.076 445.389 150.723 446.679L192.932 421.546L190.212 416.641L146.467 439.928C147.953 440.181 149.363 441.116 150.219 442.633Z" fill="#4C081C"/>
<path d="M132.19 464.863L121.978 446.465L124.705 444.939L134.918 463.337L132.19 464.863Z" fill="#B3431D"/>
<path d="M191.673 413.505L191.648 413.48C191.547 413.278 191.598 413.025 191.799 412.898L193.386 412.013C193.587 411.912 193.839 411.963 193.965 412.165L193.99 412.19C194.091 412.393 194.041 412.646 193.839 412.772L192.252 413.657C192.026 413.758 191.774 413.708 191.673 413.505Z" fill="#40264F"/>
<path d="M194.997 411.634L194.972 411.609C194.871 411.407 194.922 411.154 195.123 411.027L196.71 410.142C196.911 410.041 197.163 410.092 197.289 410.294L197.314 410.319C197.415 410.522 197.365 410.774 197.163 410.901L195.577 411.786C195.35 411.912 195.098 411.836 194.997 411.634Z" fill="#40264F"/>
<path d="M198.095 409.713L198.07 409.687C197.969 409.485 198.02 409.232 198.221 409.106L199.808 408.221C200.009 408.12 200.261 408.17 200.387 408.372L200.412 408.398C200.513 408.6 200.462 408.853 200.261 408.979L198.674 409.864C198.448 409.991 198.196 409.915 198.095 409.713Z" fill="#40264F"/>
<path d="M202.93 418.436L202.905 418.41C202.804 418.208 202.855 417.955 203.056 417.829L204.643 416.944C204.844 416.843 205.096 416.893 205.222 417.096V417.146C205.323 417.348 205.272 417.601 205.071 417.728L203.484 418.613C203.283 418.714 203.031 418.638 202.93 418.436Z" fill="#40264F"/>
<path d="M199.707 420.105L199.682 420.079C199.581 419.877 199.631 419.624 199.833 419.498L201.419 418.613C201.621 418.512 201.873 418.562 201.999 418.765L202.024 418.79C202.125 418.992 202.074 419.245 201.873 419.371L200.286 420.256C200.059 420.383 199.808 420.307 199.707 420.105Z" fill="#40264F"/>
<path d="M196.458 421.924L196.433 421.899C196.332 421.697 196.382 421.444 196.584 421.318L198.17 420.433C198.372 420.332 198.624 420.382 198.75 420.584L198.775 420.61C198.876 420.812 198.825 421.065 198.624 421.191L197.037 422.076C196.836 422.203 196.559 422.127 196.458 421.924Z" fill="#40264F"/>
<path d="M192.932 421.546L190.212 416.641L189.658 416.944L192.378 421.875L192.932 421.546Z" fill="#FFFBF0"/>
<path d="M189.18 423.796L186.359 418.689L186.107 418.815L188.953 423.923L189.18 423.796Z" fill="#FFFBF0"/>
<path d="M185.729 425.844L182.833 420.585L182.581 420.711L185.503 425.971L185.729 425.844Z" fill="#FFFBF0"/>
<path d="M182.808 427.563L179.811 422.177L179.585 422.304L182.581 427.715L182.808 427.563Z" fill="#FFFBF0"/>
<path d="M179.887 429.308L176.814 423.77L176.588 423.897L179.66 429.459L179.887 429.308Z" fill="#FFFBF0"/>
<path d="M177.192 430.926L174.044 425.237L173.817 425.363L176.965 431.053L177.192 430.926Z" fill="#FFFBF0"/>
<path d="M174.497 432.519L171.273 426.729L171.047 426.855L174.27 432.671L174.497 432.519Z" fill="#FFFBF0"/>
<path d="M172.206 433.884L168.932 427.968L168.705 428.094L171.979 434.011L172.206 433.884Z" fill="#FFFBF0"/>
<path d="M169.939 435.249L166.589 429.206L166.363 429.332L169.712 435.376L169.939 435.249Z" fill="#FFFBF0"/>
<path d="M167.723 436.565L164.323 430.421L164.096 430.547L167.496 436.692L167.723 436.565Z" fill="#FFFBF0"/>
<path d="M165.658 437.778L162.207 431.558L161.956 431.685L165.431 437.93L165.658 437.778Z" fill="#FFFBF0"/>
<path d="M163.718 438.941L160.192 432.62L159.966 432.746L163.466 439.067L163.718 438.941Z" fill="#FFFBF0"/>
<path d="M160.192 441.04L156.591 434.542L156.339 434.668L159.966 441.166L160.192 441.04Z" fill="#FFFBF0"/>
<path d="M158.455 442.051L154.803 435.477L154.576 435.604L158.228 442.203L158.455 442.051Z" fill="#FFFBF0"/>
<path d="M157.07 442.886L153.368 436.262L153.141 436.388L156.843 443.038L157.07 442.886Z" fill="#FFFBF0"/>
<path d="M155.583 443.771L151.856 437.07L151.63 437.196L155.357 443.922L155.583 443.771Z" fill="#FFFBF0"/>
<path d="M200.232 411.954L200.036 411.601L201.091 411.01L201.288 411.363L200.232 411.954Z" fill="white"/>
<path d="M202.172 415.459L202.037 415.217L202.982 414.686L203.117 414.929L202.172 415.459Z" fill="white"/>
<path d="M197.005 413.77L196.845 413.483L197.989 412.843L198.148 413.13L197.005 413.77Z" fill="white"/>
<path d="M198.937 417.267L198.729 416.892L199.74 416.325L199.949 416.7L198.937 417.267Z" fill="white"/>
<path d="M193.727 415.45L193.555 415.141L194.523 414.599L194.695 414.909L193.727 415.45Z" fill="white"/>
<path d="M195.865 419.388L195.767 419.211L196.669 418.707L196.767 418.884L195.865 419.388Z" fill="white"/>
<path d="M162.031 439.953L158.455 433.53L158.228 433.657L161.804 440.079L162.031 439.953Z" fill="#FFFBF0"/>
<path d="M143.747 453.353C143.697 453.455 145.233 453.783 146.618 454.188C148.003 454.592 150.27 454.592 150.169 454.921C150.094 455.174 148.683 455.326 147.399 455.225C147.726 455.351 147.877 455.503 147.701 455.604C146.996 456.059 142.967 455.806 139.29 454.213C135.587 452.645 114.105 440.787 116.271 437.449C117.077 436.21 120.527 432.696 122.492 430.243L128.133 434.643L125.237 437.829C129.669 442.607 136.469 447.791 136.822 448.044C137.753 448.726 139.567 448.145 139.995 448.12C142.236 448.069 145.107 448.044 145.586 448.777C146.064 449.535 143.974 449.283 142.74 449.662C141.506 450.041 145.611 453.328 149.892 453.05C154.174 452.772 149.338 454.694 147.928 454.314C146.492 453.96 143.823 453.176 143.747 453.353Z" fill="#F7A491"/>
<path d="M172.759 434.314L183.639 430.345C184.067 430.193 184.244 429.763 184.344 429.308C185.201 426.147 190.288 424.807 190.439 424.934C190.54 425.01 191.572 429.131 188.223 432.064C183.614 435.983 172.079 444.226 169.561 443.063L172.759 434.314Z" fill="#F7A491"/>
</g>
<rect x="110" y="565" width="119" height="4" rx="2" fill="#E6F0FF"/>
<rect x="199" y="557" width="10" height="4" rx="2" fill="#E6F0FF"/>
<defs>
<filter id="filter0_d" x="80" y="165" width="708" height="611" filterUnits="userSpaceOnUse" color-interpolation-filters="sRGB">
<feFlood flood-opacity="0" result="BackgroundImageFix"/>
<feColorMatrix in="SourceAlpha" type="matrix" values="0 0 0 0 0 0 0 0 0 0 0 0 0 0 0 0 0 0 127 0"/>
<feOffset dy="50"/>
<feGaussianBlur stdDeviation="42"/>
<feColorMatrix type="matrix" values="0 0 0 0 0 0 0 0 0 0 0 0 0 0 0 0 0 0 0.1 0"/>
<feBlend mode="normal" in2="BackgroundImageFix" result="effect1_dropShadow"/>
<feBlend mode="normal" in="SourceGraphic" in2="effect1_dropShadow" result="shape"/>
</filter>
<filter id="filter1_d" x="0" y="527" width="493" height="359" filterUnits="userSpaceOnUse" color-interpolation-filters="sRGB">
<feFlood flood-opacity="0" result="BackgroundImageFix"/>
<feColorMatrix in="SourceAlpha" type="matrix" values="0 0 0 0 0 0 0 0 0 0 0 0 0 0 0 0 0 0 127 0"/>
<feOffset dy="50"/>
<feGaussianBlur stdDeviation="42"/>
<feColorMatrix type="matrix" values="0 0 0 0 0 0 0 0 0 0 0 0 0 0 0 0 0 0 0.1 0"/>
<feBlend mode="normal" in2="BackgroundImageFix" result="effect1_dropShadow"/>
<feBlend mode="normal" in="SourceGraphic" in2="effect1_dropShadow" result="shape"/>
</filter>
<clipPath id="clip0">
<rect width="99" height="182" fill="white" transform="matrix(-1 0 0 1 209 382)"/>
</clipPath>
</defs>
</svg>
