<svg width="916" height="775" viewBox="0 0 916 775" fill="none" xmlns="http://www.w3.org/2000/svg">
<circle cx="540" cy="384" r="376" fill="#F1F7FF" fill-opacity="0.5"/>
<g filter="url(#filter0_d)">
<rect x="84" y="78" width="542" height="492" rx="16" fill="white"/>
</g>
<path d="M565.189 241.356L564.149 241.876C563.716 241.191 563.061 240.849 562.186 240.849C561.545 240.849 560.999 241.053 560.548 241.46C560.115 241.867 559.898 242.366 559.898 242.955V244.099C560.453 243.501 561.185 243.202 562.095 243.202C563.04 243.202 563.828 243.488 564.461 244.06C565.094 244.632 565.41 245.343 565.41 246.192C565.41 247.024 565.094 247.726 564.461 248.298C563.82 248.861 563.031 249.143 562.095 249.143C561.15 249.143 560.357 248.857 559.716 248.285C559.083 247.713 558.767 247.007 558.767 246.166V242.968C558.767 242.049 559.092 241.287 559.742 240.68C560.409 240.065 561.228 239.757 562.199 239.757C562.849 239.757 563.438 239.9 563.967 240.186C564.496 240.472 564.903 240.862 565.189 241.356ZM559.95 246.166C559.95 246.703 560.154 247.154 560.561 247.518C560.986 247.873 561.497 248.051 562.095 248.051C562.702 248.051 563.209 247.873 563.616 247.518C564.032 247.171 564.24 246.729 564.24 246.192C564.24 245.655 564.032 245.204 563.616 244.84C563.217 244.476 562.71 244.294 562.095 244.294C561.488 244.294 560.977 244.476 560.561 244.84C560.154 245.195 559.95 245.637 559.95 246.166ZM567.331 249L570.633 240.953H565.797V239.9H571.816V241.005L568.566 249H567.331ZM573.856 249L573.284 248.519L580.473 239.9L581.058 240.394L573.856 249ZM574.545 239.757C575.177 239.757 575.706 239.969 576.131 240.394C576.555 240.81 576.768 241.334 576.768 241.967C576.768 242.6 576.555 243.128 576.131 243.553C575.706 243.969 575.177 244.177 574.545 244.177C573.921 244.177 573.396 243.969 572.972 243.553C572.547 243.128 572.335 242.6 572.335 241.967C572.335 241.334 572.547 240.81 572.972 240.394C573.396 239.969 573.921 239.757 574.545 239.757ZM574.545 243.202C574.9 243.202 575.195 243.085 575.429 242.851C575.663 242.617 575.78 242.322 575.78 241.967C575.78 241.612 575.663 241.317 575.429 241.083C575.195 240.849 574.9 240.732 574.545 240.732C574.198 240.732 573.908 240.853 573.674 241.096C573.44 241.33 573.323 241.62 573.323 241.967C573.323 242.314 573.44 242.608 573.674 242.851C573.908 243.085 574.198 243.202 574.545 243.202ZM577.561 246.933C577.561 246.318 577.769 245.793 578.185 245.36C578.609 244.935 579.138 244.723 579.771 244.723C580.403 244.723 580.928 244.935 581.344 245.36C581.768 245.785 581.981 246.309 581.981 246.933C581.981 247.566 581.768 248.094 581.344 248.519C580.928 248.935 580.403 249.143 579.771 249.143C579.138 249.143 578.609 248.935 578.185 248.519C577.769 248.094 577.561 247.566 577.561 246.933ZM579.771 248.168C580.117 248.168 580.408 248.051 580.642 247.817C580.884 247.583 581.006 247.293 581.006 246.946C581.006 246.591 580.884 246.296 580.642 246.062C580.408 245.819 580.117 245.698 579.771 245.698C579.415 245.698 579.121 245.815 578.887 246.049C578.653 246.283 578.536 246.578 578.536 246.933C578.536 247.288 578.653 247.583 578.887 247.817C579.121 248.051 579.415 248.168 579.771 248.168Z" fill="#4F4E56"/>
<path d="M110.24 216H108.224V203.4H110.24L115.028 211.806L119.798 203.4H121.832V216H119.798V207.234L115.694 214.506H114.362L110.24 207.234V216ZM127.859 206.406C129.071 206.406 130.109 206.82 130.973 207.648V206.64H132.845V216H130.973V214.992C130.109 215.82 129.071 216.234 127.859 216.234C126.551 216.234 125.453 215.766 124.565 214.83C123.689 213.906 123.251 212.736 123.251 211.32C123.251 209.904 123.689 208.734 124.565 207.81C125.453 206.874 126.551 206.406 127.859 206.406ZM128.057 208.278C127.253 208.278 126.575 208.572 126.023 209.16C125.471 209.724 125.195 210.444 125.195 211.32C125.195 212.184 125.471 212.91 126.023 213.498C126.587 214.074 127.265 214.362 128.057 214.362C128.873 214.362 129.557 214.074 130.109 213.498C130.661 212.91 130.937 212.184 130.937 211.32C130.937 210.444 130.661 209.724 130.109 209.16C129.557 208.572 128.873 208.278 128.057 208.278ZM136.445 206.64V208.008C137.153 206.94 138.263 206.406 139.775 206.406V208.494C139.559 208.398 139.289 208.35 138.965 208.35C138.245 208.35 137.645 208.584 137.165 209.052C136.685 209.496 136.445 210.072 136.445 210.78V216H134.573V206.64H136.445ZM143.058 216.792L143.472 215.766L139.818 206.64H141.744L144.408 213.444L147.162 206.64H149.088L144.678 217.422C144.306 218.334 143.82 219 143.22 219.42C142.62 219.84 141.852 220.05 140.916 220.05H140.52V218.25H140.916C141.468 218.25 141.912 218.136 142.248 217.908C142.584 217.68 142.854 217.308 143.058 216.792ZM162.896 205.974L160.898 206.568C160.79 206.16 160.514 205.818 160.07 205.542C159.626 205.254 159.11 205.11 158.522 205.11C157.874 205.11 157.334 205.266 156.902 205.578C156.47 205.878 156.254 206.262 156.254 206.73C156.182 207.138 156.488 207.546 157.172 207.954C157.292 208.026 157.526 208.122 157.874 208.242C158.318 208.386 158.576 208.47 158.648 208.494L159.602 208.764C160.55 209.016 161.354 209.34 162.014 209.736C162.902 210.276 163.346 211.146 163.346 212.346C163.346 213.51 162.914 214.452 162.05 215.172C161.174 215.88 160.064 216.234 158.72 216.234C157.496 216.234 156.446 215.952 155.57 215.388C154.706 214.812 154.148 214.092 153.896 213.228L155.894 212.598C156.002 213.078 156.314 213.48 156.83 213.804C157.358 214.128 157.988 214.29 158.72 214.29C159.464 214.29 160.082 214.128 160.574 213.804C161.066 213.468 161.312 213.036 161.312 212.508C161.312 212.16 161.174 211.86 160.898 211.608C160.658 211.368 160.412 211.194 160.16 211.086C159.908 210.966 159.53 210.84 159.026 210.708C157.502 210.264 156.494 209.916 156.002 209.664C154.826 209.028 154.238 208.098 154.238 206.874C154.238 205.77 154.634 204.876 155.426 204.192C156.218 203.508 157.238 203.166 158.486 203.166C159.59 203.166 160.544 203.436 161.348 203.976C162.14 204.492 162.656 205.158 162.896 205.974ZM168.347 216H166.691L163.577 206.64H165.467L167.501 213.102L169.535 206.64H171.227L173.243 213.102L175.295 206.64H177.185L174.071 216H172.397L170.381 209.754L168.347 216ZM181.865 206.406C183.077 206.406 184.115 206.82 184.979 207.648V206.64H186.851V216H184.979V214.992C184.115 215.82 183.077 216.234 181.865 216.234C180.557 216.234 179.459 215.766 178.571 214.83C177.695 213.906 177.257 212.736 177.257 211.32C177.257 209.904 177.695 208.734 178.571 207.81C179.459 206.874 180.557 206.406 181.865 206.406ZM182.063 208.278C181.259 208.278 180.581 208.572 180.029 209.16C179.477 209.724 179.201 210.444 179.201 211.32C179.201 212.184 179.477 212.91 180.029 213.498C180.593 214.074 181.271 214.362 182.063 214.362C182.879 214.362 183.563 214.074 184.115 213.498C184.667 212.91 184.943 212.184 184.943 211.32C184.943 210.444 184.667 209.724 184.115 209.16C183.563 208.572 182.879 208.278 182.063 208.278ZM188.579 216V206.64H190.451V208.008C191.135 206.94 192.161 206.406 193.529 206.406C194.609 206.406 195.497 206.754 196.193 207.45C196.901 208.158 197.255 209.034 197.255 210.078V216H195.383V210.618C195.383 209.922 195.155 209.346 194.699 208.89C194.243 208.422 193.667 208.188 192.971 208.188C192.251 208.188 191.651 208.422 191.171 208.89C190.691 209.358 190.451 209.94 190.451 210.636V216H188.579ZM205.619 208.782L203.855 209.088C203.639 208.392 203.027 208.044 202.019 208.044C201.563 208.044 201.191 208.134 200.903 208.314C200.615 208.494 200.471 208.74 200.471 209.052C200.471 209.46 200.771 209.772 201.371 209.988L203.477 210.708C204.281 211.008 204.863 211.374 205.223 211.806C205.595 212.238 205.781 212.772 205.781 213.408C205.781 214.308 205.451 215.004 204.791 215.496C204.131 215.988 203.261 216.234 202.181 216.234C201.125 216.234 200.267 216.006 199.607 215.55C198.947 215.082 198.551 214.44 198.419 213.624L200.183 213.354C200.267 213.726 200.489 214.026 200.849 214.254C201.209 214.482 201.665 214.596 202.217 214.596C202.733 214.596 203.153 214.494 203.477 214.29C203.813 214.086 203.981 213.81 203.981 213.462C203.981 213.018 203.603 212.658 202.847 212.382L200.759 211.68C200.027 211.428 199.493 211.104 199.157 210.708C198.833 210.312 198.671 209.808 198.671 209.196C198.671 208.296 198.989 207.606 199.625 207.126C200.261 206.646 201.107 206.406 202.163 206.406C203.111 206.406 203.891 206.622 204.503 207.054C205.115 207.474 205.487 208.05 205.619 208.782ZM211.52 216.234C210.116 216.234 208.946 215.766 208.01 214.83C207.074 213.894 206.606 212.724 206.606 211.32C206.606 209.916 207.074 208.746 208.01 207.81C208.946 206.874 210.116 206.406 211.52 206.406C212.924 206.406 214.094 206.874 215.03 207.81C215.978 208.746 216.452 209.916 216.452 211.32C216.452 212.724 215.978 213.894 215.03 214.83C214.094 215.766 212.924 216.234 211.52 216.234ZM211.52 214.362C212.384 214.362 213.092 214.074 213.644 213.498C214.22 212.91 214.508 212.184 214.508 211.32C214.508 210.456 214.22 209.736 213.644 209.16C213.092 208.572 212.384 208.278 211.52 208.278C210.68 208.278 209.972 208.572 209.396 209.16C208.832 209.748 208.55 210.468 208.55 211.32C208.55 212.172 208.832 212.898 209.396 213.498C209.972 214.074 210.68 214.362 211.52 214.362ZM217.77 216V206.64H219.642V208.008C220.326 206.94 221.352 206.406 222.72 206.406C223.8 206.406 224.688 206.754 225.384 207.45C226.092 208.158 226.446 209.034 226.446 210.078V216H224.574V210.618C224.574 209.922 224.346 209.346 223.89 208.89C223.434 208.422 222.858 208.188 222.162 208.188C221.442 208.188 220.842 208.422 220.362 208.89C219.882 209.358 219.642 209.94 219.642 210.636V216H217.77Z" fill="#09265A"/>
<path d="M519.676 218.32H521.337V216.237C522.541 216.105 523.499 215.684 524.22 214.98C524.932 214.277 525.292 213.372 525.292 212.273C525.292 211.816 525.204 211.377 525.046 210.973C524.879 210.568 524.677 210.234 524.448 209.988C524.22 209.742 523.921 209.522 523.552 209.32C523.464 209.276 523.376 209.232 523.306 209.197C523.235 209.162 523.156 209.127 523.086 209.092C523.016 209.057 522.954 209.03 522.901 209.004C522.849 208.986 522.778 208.96 522.699 208.934C522.62 208.907 522.559 208.89 522.523 208.872C522.488 208.854 522.418 208.837 522.33 208.811C522.242 208.784 522.172 208.767 522.137 208.749C522.102 208.74 522.022 208.723 521.917 208.688C521.803 208.652 521.724 208.635 521.68 208.617C520.572 208.301 519.887 208.081 519.605 207.958C518.832 207.642 518.454 207.237 518.454 206.763C518.454 206.394 518.639 206.086 519.008 205.822C519.377 205.567 519.825 205.436 520.361 205.436C520.854 205.436 521.284 205.559 521.671 205.796C522.049 206.033 522.295 206.323 522.4 206.657L524.809 205.954C524.589 205.269 524.158 204.671 523.525 204.17C522.893 203.669 522.128 203.344 521.249 203.203V201.076H519.588V203.186C518.524 203.309 517.663 203.722 517.013 204.407C516.362 205.093 516.046 205.937 516.046 206.947C516.046 208.23 516.652 209.197 517.865 209.848C518.357 210.111 519.377 210.472 520.906 210.92C521.363 211.078 521.697 211.201 521.908 211.298C522.137 211.403 522.312 211.5 522.436 211.605C522.734 211.887 522.884 212.177 522.884 212.493C522.884 212.924 522.664 213.275 522.233 213.548C521.794 213.82 521.258 213.952 520.616 213.952C519.966 213.952 519.412 213.812 518.946 213.53C518.48 213.249 518.199 212.906 518.094 212.493L515.686 213.214C515.914 213.987 516.38 214.646 517.101 215.191C517.812 215.736 518.674 216.079 519.676 216.22V218.32ZM530.962 216.272C532.307 216.272 533.432 215.912 534.328 215.191C535.233 214.462 535.69 213.565 535.69 212.493C535.69 211.21 535.075 210.19 533.854 209.452C534.891 208.749 535.418 207.835 535.418 206.71C535.418 205.708 534.987 204.864 534.144 204.17C533.309 203.484 532.245 203.133 530.962 203.133C529.661 203.133 528.589 203.476 527.754 204.152C526.901 204.847 526.479 205.69 526.479 206.692C526.479 207.835 526.998 208.749 528.044 209.452C527.464 209.786 527.016 210.226 526.69 210.753C526.365 211.289 526.207 211.86 526.207 212.476C526.207 213.548 526.655 214.453 527.552 215.191C528.466 215.912 529.6 216.272 530.962 216.272ZM528.615 212.273C528.615 211.781 528.835 211.368 529.283 211.034C529.723 210.709 530.285 210.542 530.962 210.542C531.612 210.542 532.166 210.709 532.605 211.043C533.045 211.377 533.265 211.799 533.265 212.291C533.265 212.792 533.045 213.205 532.605 213.539C532.166 213.873 531.612 214.04 530.962 214.04C530.285 214.04 529.723 213.873 529.283 213.539C528.835 213.205 528.615 212.783 528.615 212.273ZM528.888 206.877C528.888 206.455 529.081 206.104 529.485 205.805C529.881 205.515 530.373 205.365 530.962 205.365C531.533 205.365 532.017 205.515 532.403 205.805C532.79 206.104 532.992 206.455 532.992 206.877C532.992 207.316 532.799 207.677 532.412 207.967C532.025 208.266 531.542 208.406 530.962 208.406C530.373 208.406 529.881 208.266 529.485 207.967C529.081 207.677 528.888 207.316 528.888 206.877ZM542.995 207.07C542.995 207.809 542.415 208.731 541.264 209.848L536.641 214.251V216H545.518V213.768H540.244L542.705 211.43C543.637 210.533 544.322 209.725 544.753 209.021C545.184 208.318 545.403 207.65 545.403 207C545.403 205.937 544.973 205.022 544.111 204.267C543.268 203.511 542.213 203.133 540.965 203.133C539.945 203.133 539.031 203.405 538.214 203.95C537.396 204.495 536.79 205.242 536.386 206.174L538.548 207.202C538.759 206.64 539.084 206.191 539.515 205.857C539.937 205.532 540.42 205.365 540.965 205.365C541.519 205.365 541.993 205.532 542.38 205.866C542.784 206.209 542.995 206.613 542.995 207.07ZM546.582 211.737C546.582 213.021 547.039 214.102 547.971 214.972C548.902 215.842 550.071 216.272 551.46 216.272C552.849 216.272 554.009 215.842 554.932 214.972C555.863 214.11 556.338 213.029 556.338 211.737V207.668C556.338 206.376 555.863 205.295 554.932 204.425C554.018 203.563 552.857 203.133 551.46 203.133C550.062 203.133 548.902 203.563 547.971 204.425C547.039 205.304 546.582 206.385 546.582 207.668V211.737ZM548.92 207.633C548.92 206.991 549.157 206.455 549.641 206.024C550.115 205.585 550.722 205.365 551.46 205.365C552.198 205.365 552.805 205.585 553.279 206.024C553.771 206.464 554.018 207 554.018 207.633V211.772C554.018 212.396 553.771 212.933 553.279 213.39C552.787 213.829 552.181 214.04 551.46 214.04C550.73 214.04 550.124 213.829 549.641 213.39C549.157 212.95 548.92 212.405 548.92 211.772V207.633ZM557.227 214.849C557.227 215.253 557.358 215.596 557.622 215.868C557.886 216.141 558.22 216.272 558.624 216.272C559.028 216.272 559.362 216.141 559.626 215.868C559.89 215.596 560.03 215.253 560.03 214.849C560.03 214.453 559.89 214.119 559.626 213.847C559.362 213.583 559.028 213.442 558.624 213.442C558.22 213.442 557.886 213.583 557.622 213.847C557.358 214.119 557.227 214.453 557.227 214.849ZM560.91 211.737C560.91 213.021 561.367 214.102 562.299 214.972C563.23 215.842 564.399 216.272 565.788 216.272C567.177 216.272 568.337 215.842 569.26 214.972C570.191 214.11 570.666 213.029 570.666 211.737V207.668C570.666 206.376 570.191 205.295 569.26 204.425C568.346 203.563 567.186 203.133 565.788 203.133C564.391 203.133 563.23 203.563 562.299 204.425C561.367 205.304 560.91 206.385 560.91 207.668V211.737ZM563.248 207.633C563.248 206.991 563.485 206.455 563.969 206.024C564.443 205.585 565.05 205.365 565.788 205.365C566.526 205.365 567.133 205.585 567.607 206.024C568.1 206.464 568.346 207 568.346 207.633V211.772C568.346 212.396 568.1 212.933 567.607 213.39C567.115 213.829 566.509 214.04 565.788 214.04C565.059 214.04 564.452 213.829 563.969 213.39C563.485 212.95 563.248 212.405 563.248 211.772V207.633ZM571.713 211.737C571.713 213.021 572.17 214.102 573.102 214.972C574.033 215.842 575.202 216.272 576.591 216.272C577.979 216.272 579.14 215.842 580.062 214.972C580.994 214.11 581.469 213.029 581.469 211.737V207.668C581.469 206.376 580.994 205.295 580.062 204.425C579.148 203.563 577.988 203.133 576.591 203.133C575.193 203.133 574.033 203.563 573.102 204.425C572.17 205.304 571.713 206.385 571.713 207.668V211.737ZM574.051 207.633C574.051 206.991 574.288 206.455 574.771 206.024C575.246 205.585 575.853 205.365 576.591 205.365C577.329 205.365 577.936 205.585 578.41 206.024C578.902 206.464 579.148 207 579.148 207.633V211.772C579.148 212.396 578.902 212.933 578.41 213.39C577.918 213.829 577.312 214.04 576.591 214.04C575.861 214.04 575.255 213.829 574.771 213.39C574.288 212.95 574.051 212.405 574.051 211.772V207.633Z" fill="#52D079"/>
<rect opacity="0.5" x="107" y="238" width="442" height="14" rx="7" fill="#E5F1EF"/>
<rect x="107" y="238" width="282.647" height="14" rx="7" fill="#16D3AA"/>
<path d="M563.577 334.513C563.577 334.054 563.391 333.664 563.018 333.343C562.637 333.014 562.186 332.849 561.666 332.849C561.198 332.849 560.782 332.988 560.418 333.265C560.054 333.534 559.781 333.902 559.599 334.37L558.546 333.863C558.815 333.213 559.226 332.702 559.781 332.329C560.336 331.948 560.964 331.757 561.666 331.757C562.533 331.757 563.261 332.021 563.85 332.55C564.448 333.079 564.747 333.72 564.747 334.474C564.747 334.959 564.595 335.44 564.292 335.917C563.997 336.385 563.516 336.94 562.849 337.581L560.418 339.908H564.877V341H558.65V340.155L562.095 336.827C562.632 336.298 563.014 335.869 563.239 335.54C563.464 335.202 563.577 334.86 563.577 334.513ZM568.888 341.143C568.16 341.143 567.506 340.961 566.925 340.597C566.353 340.233 565.937 339.743 565.677 339.128L566.795 338.803C566.986 339.193 567.263 339.501 567.627 339.726C568 339.943 568.42 340.051 568.888 340.051C569.512 340.051 570.036 339.869 570.461 339.505C570.886 339.141 571.098 338.69 571.098 338.153C571.098 337.598 570.877 337.139 570.435 336.775C570.002 336.402 569.447 336.216 568.771 336.216H566.34L566.782 331.9H571.54V332.953H567.731L567.51 335.163H568.81C569.789 335.163 570.613 335.449 571.28 336.021C571.939 336.593 572.268 337.304 572.268 338.153C572.268 339.002 571.943 339.713 571.293 340.285C570.643 340.857 569.841 341.143 568.888 341.143ZM574.427 341L573.855 340.519L581.044 331.9L581.629 332.394L574.427 341ZM575.116 331.757C575.748 331.757 576.277 331.969 576.702 332.394C577.126 332.81 577.339 333.334 577.339 333.967C577.339 334.6 577.126 335.128 576.702 335.553C576.277 335.969 575.748 336.177 575.116 336.177C574.492 336.177 573.967 335.969 573.543 335.553C573.118 335.128 572.906 334.6 572.906 333.967C572.906 333.334 573.118 332.81 573.543 332.394C573.967 331.969 574.492 331.757 575.116 331.757ZM575.116 335.202C575.471 335.202 575.766 335.085 576 334.851C576.234 334.617 576.351 334.322 576.351 333.967C576.351 333.612 576.234 333.317 576 333.083C575.766 332.849 575.471 332.732 575.116 332.732C574.769 332.732 574.479 332.853 574.245 333.096C574.011 333.33 573.894 333.62 573.894 333.967C573.894 334.314 574.011 334.608 574.245 334.851C574.479 335.085 574.769 335.202 575.116 335.202ZM578.132 338.933C578.132 338.318 578.34 337.793 578.756 337.36C579.18 336.935 579.709 336.723 580.342 336.723C580.974 336.723 581.499 336.935 581.915 337.36C582.339 337.785 582.552 338.309 582.552 338.933C582.552 339.566 582.339 340.094 581.915 340.519C581.499 340.935 580.974 341.143 580.342 341.143C579.709 341.143 579.18 340.935 578.756 340.519C578.34 340.094 578.132 339.566 578.132 338.933ZM580.342 340.168C580.688 340.168 580.979 340.051 581.213 339.817C581.455 339.583 581.577 339.293 581.577 338.946C581.577 338.591 581.455 338.296 581.213 338.062C580.979 337.819 580.688 337.698 580.342 337.698C579.986 337.698 579.692 337.815 579.458 338.049C579.224 338.283 579.107 338.578 579.107 338.933C579.107 339.288 579.224 339.583 579.458 339.817C579.692 340.051 579.986 340.168 580.342 340.168Z" fill="#4F4E56"/>
<path d="M116.504 295.4V303.446C116.504 304.814 116.03 305.954 115.082 306.866C114.158 307.778 112.982 308.234 111.554 308.234C110.666 308.234 109.85 308.042 109.106 307.658C108.374 307.274 107.792 306.74 107.36 306.056L109.034 304.976C109.286 305.408 109.634 305.75 110.078 306.002C110.534 306.242 111.038 306.362 111.59 306.362C112.442 306.362 113.144 306.086 113.696 305.534C114.272 304.97 114.56 304.274 114.56 303.446V295.4H116.504ZM122.392 298.406C123.604 298.406 124.642 298.82 125.506 299.648V298.64H127.378V308H125.506V306.992C124.642 307.82 123.604 308.234 122.392 308.234C121.084 308.234 119.986 307.766 119.098 306.83C118.222 305.906 117.784 304.736 117.784 303.32C117.784 301.904 118.222 300.734 119.098 299.81C119.986 298.874 121.084 298.406 122.392 298.406ZM122.59 300.278C121.786 300.278 121.108 300.572 120.556 301.16C120.004 301.724 119.728 302.444 119.728 303.32C119.728 304.184 120.004 304.91 120.556 305.498C121.12 306.074 121.798 306.362 122.59 306.362C123.406 306.362 124.09 306.074 124.642 305.498C125.194 304.91 125.47 304.184 125.47 303.32C125.47 302.444 125.194 301.724 124.642 301.16C124.09 300.572 123.406 300.278 122.59 300.278ZM129.106 308V298.64H130.978V300.008C131.662 298.94 132.688 298.406 134.056 298.406C135.136 298.406 136.024 298.754 136.72 299.45C137.428 300.158 137.782 301.034 137.782 302.078V308H135.91V302.618C135.91 301.922 135.682 301.346 135.226 300.89C134.77 300.422 134.194 300.188 133.498 300.188C132.778 300.188 132.178 300.422 131.698 300.89C131.218 301.358 130.978 301.94 130.978 302.636V308H129.106ZM148.793 304.004H141.017C141.161 304.736 141.515 305.336 142.079 305.804C142.655 306.26 143.333 306.488 144.113 306.488C145.169 306.488 145.997 306.098 146.597 305.318L148.433 305.876C148.001 306.608 147.401 307.184 146.633 307.604C145.877 308.024 145.037 308.234 144.113 308.234C142.673 308.234 141.479 307.766 140.531 306.83C139.571 305.894 139.091 304.724 139.091 303.32C139.091 301.928 139.553 300.758 140.477 299.81C141.413 298.874 142.577 298.406 143.969 298.406C145.361 298.406 146.513 298.874 147.425 299.81C148.361 300.746 148.829 301.916 148.829 303.32C148.829 303.368 148.817 303.596 148.793 304.004ZM141.035 302.51H146.903C146.735 301.814 146.375 301.25 145.823 300.818C145.271 300.374 144.635 300.152 143.915 300.152C143.231 300.152 142.619 300.374 142.079 300.818C141.551 301.25 141.203 301.814 141.035 302.51ZM162.966 297.974L160.968 298.568C160.86 298.16 160.584 297.818 160.14 297.542C159.696 297.254 159.18 297.11 158.592 297.11C157.944 297.11 157.404 297.266 156.972 297.578C156.54 297.878 156.324 298.262 156.324 298.73C156.252 299.138 156.558 299.546 157.242 299.954C157.362 300.026 157.596 300.122 157.944 300.242C158.388 300.386 158.646 300.47 158.718 300.494L159.672 300.764C160.62 301.016 161.424 301.34 162.084 301.736C162.972 302.276 163.416 303.146 163.416 304.346C163.416 305.51 162.984 306.452 162.12 307.172C161.244 307.88 160.134 308.234 158.79 308.234C157.566 308.234 156.516 307.952 155.64 307.388C154.776 306.812 154.218 306.092 153.966 305.228L155.964 304.598C156.072 305.078 156.384 305.48 156.9 305.804C157.428 306.128 158.058 306.29 158.79 306.29C159.534 306.29 160.152 306.128 160.644 305.804C161.136 305.468 161.382 305.036 161.382 304.508C161.382 304.16 161.244 303.86 160.968 303.608C160.728 303.368 160.482 303.194 160.23 303.086C159.978 302.966 159.6 302.84 159.096 302.708C157.572 302.264 156.564 301.916 156.072 301.664C154.896 301.028 154.308 300.098 154.308 298.874C154.308 297.77 154.704 296.876 155.496 296.192C156.288 295.508 157.308 295.166 158.556 295.166C159.66 295.166 160.614 295.436 161.418 295.976C162.21 296.492 162.726 297.158 162.966 297.974ZM166.718 308H164.846V298.64H166.718V299.828C167.366 298.88 168.32 298.406 169.58 298.406C170.228 298.406 170.816 298.556 171.344 298.856C171.872 299.144 172.298 299.546 172.622 300.062C172.766 299.834 172.94 299.606 173.144 299.378C173.396 299.126 173.762 298.904 174.242 298.712C174.722 298.508 175.232 298.406 175.772 298.406C176.84 298.406 177.722 298.736 178.418 299.396C179.126 300.068 179.48 300.896 179.48 301.88V308H177.608V302.402C177.608 301.778 177.398 301.256 176.978 300.836C176.558 300.404 176.036 300.188 175.412 300.188C174.752 300.188 174.2 300.404 173.756 300.836C173.324 301.244 173.108 301.772 173.108 302.42V308H171.236V302.402C171.236 301.778 171.026 301.256 170.606 300.836C170.186 300.404 169.664 300.188 169.04 300.188C168.38 300.188 167.828 300.404 167.384 300.836C166.94 301.244 166.718 301.772 166.718 302.42V308ZM183.076 308H181.204V298.64H183.076V308ZM181.258 297.254C181.03 297.014 180.916 296.72 180.916 296.372C180.916 296.024 181.03 295.73 181.258 295.49C181.498 295.25 181.792 295.13 182.14 295.13C182.488 295.13 182.782 295.25 183.022 295.49C183.262 295.73 183.382 296.024 183.382 296.372C183.382 296.72 183.262 297.014 183.022 297.254C182.782 297.494 182.488 297.614 182.14 297.614C181.792 297.614 181.498 297.494 181.258 297.254ZM183.9 300.278V298.64H185.322V296.786H187.194V298.64H189.678V300.278H187.194V304.886C187.194 305.258 187.314 305.57 187.554 305.822C187.794 306.074 188.094 306.2 188.454 306.2H189.678V308H188.31C187.47 308 186.762 307.73 186.186 307.19C185.61 306.626 185.322 305.942 185.322 305.138V300.278H183.9ZM190.821 308V294.5H192.693V300.008C193.401 298.94 194.445 298.406 195.825 298.406C196.929 298.406 197.835 298.754 198.543 299.45C199.263 300.158 199.623 301.034 199.623 302.078V308H197.751V302.618C197.751 301.91 197.517 301.334 197.049 300.89C196.581 300.422 195.993 300.188 195.285 300.188C194.553 300.188 193.935 300.422 193.431 300.89C192.939 301.358 192.693 301.94 192.693 302.636V308H190.821Z" fill="#09265A"/>
<path d="M519.676 310.32H521.337V308.237C522.541 308.105 523.499 307.684 524.22 306.98C524.932 306.277 525.292 305.372 525.292 304.273C525.292 303.816 525.204 303.377 525.046 302.973C524.879 302.568 524.677 302.234 524.448 301.988C524.22 301.742 523.921 301.522 523.552 301.32C523.464 301.276 523.376 301.232 523.306 301.197C523.235 301.162 523.156 301.127 523.086 301.092C523.016 301.057 522.954 301.03 522.901 301.004C522.849 300.986 522.778 300.96 522.699 300.934C522.62 300.907 522.559 300.89 522.523 300.872C522.488 300.854 522.418 300.837 522.33 300.811C522.242 300.784 522.172 300.767 522.137 300.749C522.102 300.74 522.022 300.723 521.917 300.688C521.803 300.652 521.724 300.635 521.68 300.617C520.572 300.301 519.887 300.081 519.605 299.958C518.832 299.642 518.454 299.237 518.454 298.763C518.454 298.394 518.639 298.086 519.008 297.822C519.377 297.567 519.825 297.436 520.361 297.436C520.854 297.436 521.284 297.559 521.671 297.796C522.049 298.033 522.295 298.323 522.4 298.657L524.809 297.954C524.589 297.269 524.158 296.671 523.525 296.17C522.893 295.669 522.128 295.344 521.249 295.203V293.076H519.588V295.186C518.524 295.309 517.663 295.722 517.013 296.407C516.362 297.093 516.046 297.937 516.046 298.947C516.046 300.23 516.652 301.197 517.865 301.848C518.357 302.111 519.377 302.472 520.906 302.92C521.363 303.078 521.697 303.201 521.908 303.298C522.137 303.403 522.312 303.5 522.436 303.605C522.734 303.887 522.884 304.177 522.884 304.493C522.884 304.924 522.664 305.275 522.233 305.548C521.794 305.82 521.258 305.952 520.616 305.952C519.966 305.952 519.412 305.812 518.946 305.53C518.48 305.249 518.199 304.906 518.094 304.493L515.686 305.214C515.914 305.987 516.38 306.646 517.101 307.191C517.812 307.736 518.674 308.079 519.676 308.22V310.32ZM532.614 298.912C532.614 299.378 532.386 299.765 531.946 300.063C531.507 300.362 530.962 300.512 530.312 300.512H529.661V302.621H530.619C531.27 302.621 531.814 302.788 532.263 303.104C532.711 303.421 532.939 303.816 532.939 304.291C532.939 304.801 532.711 305.214 532.254 305.548C531.797 305.882 531.234 306.04 530.558 306.04C529.96 306.04 529.45 305.917 529.028 305.653C528.606 305.398 528.325 305.064 528.185 304.651L525.935 305.442C526.242 306.295 526.813 306.98 527.648 307.499C528.483 308.018 529.459 308.272 530.584 308.272C531.938 308.272 533.071 307.912 533.985 307.174C534.891 306.444 535.348 305.521 535.348 304.396C535.348 303.166 534.785 302.19 533.678 301.47C534.574 300.767 535.022 299.896 535.022 298.842C535.022 297.787 534.592 296.899 533.73 296.196C532.86 295.493 531.771 295.133 530.452 295.133C529.468 295.133 528.589 295.344 527.815 295.766C527.042 296.188 526.471 296.768 526.102 297.488L528.22 298.499C528.396 298.165 528.677 297.893 529.063 297.682C529.45 297.471 529.907 297.365 530.435 297.365C531.067 297.365 531.586 297.515 531.999 297.813C532.403 298.112 532.614 298.481 532.614 298.912ZM545.579 297.576C545.166 296.82 544.577 296.231 543.804 295.792C543.03 295.353 542.16 295.133 541.202 295.133C539.813 295.133 538.662 295.563 537.73 296.425C536.799 297.304 536.342 298.376 536.342 299.65V304.08C536.342 305.258 536.79 306.26 537.695 307.068C538.601 307.877 539.726 308.272 541.079 308.272C542.424 308.272 543.549 307.877 544.445 307.086C545.351 306.286 545.808 305.293 545.808 304.115C545.808 302.92 545.359 301.918 544.463 301.109C543.549 300.292 542.433 299.879 541.114 299.879C540.218 299.879 539.4 300.081 538.662 300.477V299.615C538.662 298.982 538.891 298.446 539.365 298.007C539.84 297.585 540.446 297.365 541.167 297.365C542.213 297.365 542.96 297.778 543.417 298.604L545.579 297.576ZM538.759 304.054C538.759 303.509 538.979 303.052 539.427 302.674C539.866 302.305 540.42 302.111 541.079 302.111C541.721 302.111 542.274 302.305 542.731 302.691C543.171 303.069 543.399 303.544 543.399 304.115C543.399 304.66 543.171 305.117 542.731 305.486C542.283 305.855 541.729 306.04 541.079 306.04C540.411 306.04 539.857 305.855 539.418 305.478C538.979 305.1 538.759 304.625 538.759 304.054ZM546.688 303.737C546.688 305.021 547.145 306.102 548.076 306.972C549.008 307.842 550.177 308.272 551.565 308.272C552.954 308.272 554.114 307.842 555.037 306.972C555.969 306.11 556.443 305.029 556.443 303.737V299.668C556.443 298.376 555.969 297.295 555.037 296.425C554.123 295.563 552.963 295.133 551.565 295.133C550.168 295.133 549.008 295.563 548.076 296.425C547.145 297.304 546.688 298.385 546.688 299.668V303.737ZM549.025 299.633C549.025 298.991 549.263 298.455 549.746 298.024C550.221 297.585 550.827 297.365 551.565 297.365C552.304 297.365 552.91 297.585 553.385 298.024C553.877 298.464 554.123 299 554.123 299.633V303.772C554.123 304.396 553.877 304.933 553.385 305.39C552.893 305.829 552.286 306.04 551.565 306.04C550.836 306.04 550.229 305.829 549.746 305.39C549.263 304.95 549.025 304.405 549.025 303.772V299.633ZM557.332 306.849C557.332 307.253 557.464 307.596 557.728 307.868C557.991 308.141 558.325 308.272 558.729 308.272C559.134 308.272 559.468 308.141 559.731 307.868C559.995 307.596 560.136 307.253 560.136 306.849C560.136 306.453 559.995 306.119 559.731 305.847C559.468 305.583 559.134 305.442 558.729 305.442C558.325 305.442 557.991 305.583 557.728 305.847C557.464 306.119 557.332 306.453 557.332 306.849ZM561.016 303.737C561.016 305.021 561.473 306.102 562.404 306.972C563.336 307.842 564.505 308.272 565.894 308.272C567.282 308.272 568.442 307.842 569.365 306.972C570.297 306.11 570.771 305.029 570.771 303.737V299.668C570.771 298.376 570.297 297.295 569.365 296.425C568.451 295.563 567.291 295.133 565.894 295.133C564.496 295.133 563.336 295.563 562.404 296.425C561.473 297.304 561.016 298.385 561.016 299.668V303.737ZM563.354 299.633C563.354 298.991 563.591 298.455 564.074 298.024C564.549 297.585 565.155 297.365 565.894 297.365C566.632 297.365 567.238 297.585 567.713 298.024C568.205 298.464 568.451 299 568.451 299.633V303.772C568.451 304.396 568.205 304.933 567.713 305.39C567.221 305.829 566.614 306.04 565.894 306.04C565.164 306.04 564.558 305.829 564.074 305.39C563.591 304.95 563.354 304.405 563.354 303.772V299.633ZM571.818 303.737C571.818 305.021 572.275 306.102 573.207 306.972C574.139 307.842 575.308 308.272 576.696 308.272C578.085 308.272 579.245 307.842 580.168 306.972C581.1 306.11 581.574 305.029 581.574 303.737V299.668C581.574 298.376 581.1 297.295 580.168 296.425C579.254 295.563 578.094 295.133 576.696 295.133C575.299 295.133 574.139 295.563 573.207 296.425C572.275 297.304 571.818 298.385 571.818 299.668V303.737ZM574.156 299.633C574.156 298.991 574.394 298.455 574.877 298.024C575.352 297.585 575.958 297.365 576.696 297.365C577.435 297.365 578.041 297.585 578.516 298.024C579.008 298.464 579.254 299 579.254 299.633V303.772C579.254 304.396 579.008 304.933 578.516 305.39C578.023 305.829 577.417 306.04 576.696 306.04C575.967 306.04 575.36 305.829 574.877 305.39C574.394 304.95 574.156 304.405 574.156 303.772V299.633Z" fill="#52D079"/>
<rect opacity="0.5" x="107" y="330" width="442" height="14" rx="7" fill="#E5F1EF"/>
<rect x="107" y="330" width="151" height="14" rx="7" fill="#16D3AA"/>
<path d="M563.577 427.513C563.577 427.054 563.391 426.664 563.018 426.343C562.637 426.014 562.186 425.849 561.666 425.849C561.198 425.849 560.782 425.988 560.418 426.265C560.054 426.534 559.781 426.902 559.599 427.37L558.546 426.863C558.815 426.213 559.226 425.702 559.781 425.329C560.336 424.948 560.964 424.757 561.666 424.757C562.533 424.757 563.261 425.021 563.85 425.55C564.448 426.079 564.747 426.72 564.747 427.474C564.747 427.959 564.595 428.44 564.292 428.917C563.997 429.385 563.516 429.94 562.849 430.581L560.418 432.908H564.877V434H558.65V433.155L562.095 429.827C562.632 429.298 563.014 428.869 563.239 428.54C563.464 428.202 563.577 427.86 563.577 427.513ZM568.888 434.143C568.16 434.143 567.506 433.961 566.925 433.597C566.353 433.233 565.937 432.743 565.677 432.128L566.795 431.803C566.986 432.193 567.263 432.501 567.627 432.726C568 432.943 568.42 433.051 568.888 433.051C569.512 433.051 570.036 432.869 570.461 432.505C570.886 432.141 571.098 431.69 571.098 431.153C571.098 430.598 570.877 430.139 570.435 429.775C570.002 429.402 569.447 429.216 568.771 429.216H566.34L566.782 424.9H571.54V425.953H567.731L567.51 428.163H568.81C569.789 428.163 570.613 428.449 571.28 429.021C571.939 429.593 572.268 430.304 572.268 431.153C572.268 432.002 571.943 432.713 571.293 433.285C570.643 433.857 569.841 434.143 568.888 434.143ZM574.427 434L573.855 433.519L581.044 424.9L581.629 425.394L574.427 434ZM575.116 424.757C575.748 424.757 576.277 424.969 576.702 425.394C577.126 425.81 577.339 426.334 577.339 426.967C577.339 427.6 577.126 428.128 576.702 428.553C576.277 428.969 575.748 429.177 575.116 429.177C574.492 429.177 573.967 428.969 573.543 428.553C573.118 428.128 572.906 427.6 572.906 426.967C572.906 426.334 573.118 425.81 573.543 425.394C573.967 424.969 574.492 424.757 575.116 424.757ZM575.116 428.202C575.471 428.202 575.766 428.085 576 427.851C576.234 427.617 576.351 427.322 576.351 426.967C576.351 426.612 576.234 426.317 576 426.083C575.766 425.849 575.471 425.732 575.116 425.732C574.769 425.732 574.479 425.853 574.245 426.096C574.011 426.33 573.894 426.62 573.894 426.967C573.894 427.314 574.011 427.608 574.245 427.851C574.479 428.085 574.769 428.202 575.116 428.202ZM578.132 431.933C578.132 431.318 578.34 430.793 578.756 430.36C579.18 429.935 579.709 429.723 580.342 429.723C580.974 429.723 581.499 429.935 581.915 430.36C582.339 430.785 582.552 431.309 582.552 431.933C582.552 432.566 582.339 433.094 581.915 433.519C581.499 433.935 580.974 434.143 580.342 434.143C579.709 434.143 579.18 433.935 578.756 433.519C578.34 433.094 578.132 432.566 578.132 431.933ZM580.342 433.168C580.688 433.168 580.979 433.051 581.213 432.817C581.455 432.583 581.577 432.293 581.577 431.946C581.577 431.591 581.455 431.296 581.213 431.062C580.979 430.819 580.688 430.698 580.342 430.698C579.986 430.698 579.692 430.815 579.458 431.049C579.224 431.283 579.107 431.578 579.107 431.933C579.107 432.288 579.224 432.583 579.458 432.817C579.692 433.051 579.986 433.168 580.342 433.168Z" fill="#4F4E56"/>
<path d="M113.264 401H108.224V388.4H113.264C115.124 388.4 116.678 389.006 117.926 390.218C119.186 391.43 119.816 392.924 119.816 394.7C119.816 396.476 119.186 397.97 117.926 399.182C116.678 400.394 115.124 401 113.264 401ZM113.264 390.272H110.24V399.128H113.264C114.524 399.128 115.58 398.702 116.432 397.85C117.284 396.998 117.71 395.948 117.71 394.7C117.71 393.452 117.284 392.402 116.432 391.55C115.58 390.698 114.524 390.272 113.264 390.272ZM125.415 391.406C126.627 391.406 127.665 391.82 128.529 392.648V391.64H130.401V401H128.529V399.992C127.665 400.82 126.627 401.234 125.415 401.234C124.107 401.234 123.009 400.766 122.121 399.83C121.245 398.906 120.807 397.736 120.807 396.32C120.807 394.904 121.245 393.734 122.121 392.81C123.009 391.874 124.107 391.406 125.415 391.406ZM125.613 393.278C124.809 393.278 124.131 393.572 123.579 394.16C123.027 394.724 122.751 395.444 122.751 396.32C122.751 397.184 123.027 397.91 123.579 398.498C124.143 399.074 124.821 399.362 125.613 399.362C126.429 399.362 127.113 399.074 127.665 398.498C128.217 397.91 128.493 397.184 128.493 396.32C128.493 395.444 128.217 394.724 127.665 394.16C127.113 393.572 126.429 393.278 125.613 393.278ZM135.172 401L131.23 391.64H133.156L136.054 398.606L138.934 391.64H140.86L136.918 401H135.172ZM143.556 401H141.684V391.64H143.556V401ZM141.738 390.254C141.51 390.014 141.396 389.72 141.396 389.372C141.396 389.024 141.51 388.73 141.738 388.49C141.978 388.25 142.272 388.13 142.62 388.13C142.968 388.13 143.262 388.25 143.502 388.49C143.742 388.73 143.862 389.024 143.862 389.372C143.862 389.72 143.742 390.014 143.502 390.254C143.262 390.494 142.968 390.614 142.62 390.614C142.272 390.614 141.978 390.494 141.738 390.254ZM149.474 391.406C150.686 391.406 151.724 391.82 152.588 392.648V387.5H154.46V401H152.588V399.992C151.724 400.82 150.686 401.234 149.474 401.234C148.166 401.234 147.068 400.766 146.18 399.83C145.304 398.906 144.866 397.736 144.866 396.32C144.866 394.904 145.304 393.734 146.18 392.81C147.068 391.874 148.166 391.406 149.474 391.406ZM149.672 393.278C148.868 393.278 148.19 393.572 147.638 394.16C147.086 394.724 146.81 395.444 146.81 396.32C146.81 397.184 147.086 397.91 147.638 398.498C148.202 399.074 148.88 399.362 149.672 399.362C150.488 399.362 151.172 399.074 151.724 398.498C152.276 397.91 152.552 397.184 152.552 396.32C152.552 395.444 152.276 394.724 151.724 394.16C151.172 393.572 150.488 393.278 149.672 393.278ZM168.858 388.4V396.446C168.858 397.814 168.384 398.954 167.436 399.866C166.512 400.778 165.336 401.234 163.908 401.234C163.02 401.234 162.204 401.042 161.46 400.658C160.728 400.274 160.146 399.74 159.714 399.056L161.388 397.976C161.64 398.408 161.988 398.75 162.432 399.002C162.888 399.242 163.392 399.362 163.944 399.362C164.796 399.362 165.498 399.086 166.05 398.534C166.626 397.97 166.914 397.274 166.914 396.446V388.4H168.858ZM175.052 401.234C173.648 401.234 172.478 400.766 171.542 399.83C170.606 398.894 170.138 397.724 170.138 396.32C170.138 394.916 170.606 393.746 171.542 392.81C172.478 391.874 173.648 391.406 175.052 391.406C176.456 391.406 177.626 391.874 178.562 392.81C179.51 393.746 179.984 394.916 179.984 396.32C179.984 397.724 179.51 398.894 178.562 399.83C177.626 400.766 176.456 401.234 175.052 401.234ZM175.052 399.362C175.916 399.362 176.624 399.074 177.176 398.498C177.752 397.91 178.04 397.184 178.04 396.32C178.04 395.456 177.752 394.736 177.176 394.16C176.624 393.572 175.916 393.278 175.052 393.278C174.212 393.278 173.504 393.572 172.928 394.16C172.364 394.748 172.082 395.468 172.082 396.32C172.082 397.172 172.364 397.898 172.928 398.498C173.504 399.074 174.212 399.362 175.052 399.362ZM181.302 401V391.64H183.174V393.008C183.858 391.94 184.884 391.406 186.252 391.406C187.332 391.406 188.22 391.754 188.916 392.45C189.624 393.158 189.978 394.034 189.978 395.078V401H188.106V395.618C188.106 394.922 187.878 394.346 187.422 393.89C186.966 393.422 186.39 393.188 185.694 393.188C184.974 393.188 184.374 393.422 183.894 393.89C183.414 394.358 183.174 394.94 183.174 395.636V401H181.302ZM200.988 397.004H193.212C193.356 397.736 193.71 398.336 194.274 398.804C194.85 399.26 195.528 399.488 196.308 399.488C197.364 399.488 198.192 399.098 198.792 398.318L200.628 398.876C200.196 399.608 199.596 400.184 198.828 400.604C198.072 401.024 197.232 401.234 196.308 401.234C194.868 401.234 193.674 400.766 192.726 399.83C191.766 398.894 191.286 397.724 191.286 396.32C191.286 394.928 191.748 393.758 192.672 392.81C193.608 391.874 194.772 391.406 196.164 391.406C197.556 391.406 198.708 391.874 199.62 392.81C200.556 393.746 201.024 394.916 201.024 396.32C201.024 396.368 201.012 396.596 200.988 397.004ZM193.23 395.51H199.098C198.93 394.814 198.57 394.25 198.018 393.818C197.466 393.374 196.83 393.152 196.11 393.152C195.426 393.152 194.814 393.374 194.274 393.818C193.746 394.25 193.398 394.814 193.23 395.51ZM208.828 393.782L207.064 394.088C206.848 393.392 206.236 393.044 205.228 393.044C204.772 393.044 204.4 393.134 204.112 393.314C203.824 393.494 203.68 393.74 203.68 394.052C203.68 394.46 203.98 394.772 204.58 394.988L206.686 395.708C207.49 396.008 208.072 396.374 208.432 396.806C208.804 397.238 208.99 397.772 208.99 398.408C208.99 399.308 208.66 400.004 208 400.496C207.34 400.988 206.47 401.234 205.39 401.234C204.334 401.234 203.476 401.006 202.816 400.55C202.156 400.082 201.76 399.44 201.628 398.624L203.392 398.354C203.476 398.726 203.698 399.026 204.058 399.254C204.418 399.482 204.874 399.596 205.426 399.596C205.942 399.596 206.362 399.494 206.686 399.29C207.022 399.086 207.19 398.81 207.19 398.462C207.19 398.018 206.812 397.658 206.056 397.382L203.968 396.68C203.236 396.428 202.702 396.104 202.366 395.708C202.042 395.312 201.88 394.808 201.88 394.196C201.88 393.296 202.198 392.606 202.834 392.126C203.47 391.646 204.316 391.406 205.372 391.406C206.32 391.406 207.1 391.622 207.712 392.054C208.324 392.474 208.696 393.05 208.828 393.782Z" fill="#09265A"/>
<path d="M529.654 403.32H531.315V401.237C532.52 401.105 533.478 400.684 534.198 399.98C534.91 399.277 535.271 398.372 535.271 397.273C535.271 396.816 535.183 396.377 535.024 395.973C534.857 395.568 534.655 395.234 534.427 394.988C534.198 394.742 533.899 394.522 533.53 394.32C533.442 394.276 533.354 394.232 533.284 394.197C533.214 394.162 533.135 394.127 533.064 394.092C532.994 394.057 532.933 394.03 532.88 394.004C532.827 393.986 532.757 393.96 532.678 393.934C532.599 393.907 532.537 393.89 532.502 393.872C532.467 393.854 532.396 393.837 532.309 393.811C532.221 393.784 532.15 393.767 532.115 393.749C532.08 393.74 532.001 393.723 531.896 393.688C531.781 393.652 531.702 393.635 531.658 393.617C530.551 393.301 529.865 393.081 529.584 392.958C528.811 392.642 528.433 392.237 528.433 391.763C528.433 391.394 528.617 391.086 528.986 390.822C529.355 390.567 529.804 390.436 530.34 390.436C530.832 390.436 531.263 390.559 531.649 390.796C532.027 391.033 532.273 391.323 532.379 391.657L534.787 390.954C534.567 390.269 534.137 389.671 533.504 389.17C532.871 388.669 532.106 388.344 531.228 388.203V386.076H529.566V388.186C528.503 388.309 527.642 388.722 526.991 389.407C526.341 390.093 526.024 390.937 526.024 391.947C526.024 393.23 526.631 394.197 527.844 394.848C528.336 395.111 529.355 395.472 530.885 395.92C531.342 396.078 531.676 396.201 531.887 396.298C532.115 396.403 532.291 396.5 532.414 396.605C532.713 396.887 532.862 397.177 532.862 397.493C532.862 397.924 532.643 398.275 532.212 398.548C531.772 398.82 531.236 398.952 530.595 398.952C529.944 398.952 529.391 398.812 528.925 398.53C528.459 398.249 528.178 397.906 528.072 397.493L525.664 398.214C525.893 398.987 526.358 399.646 527.079 400.191C527.791 400.736 528.652 401.079 529.654 401.22V403.32ZM542.628 401H544.948V398.592H546.557V396.359H544.948V388.396H542.733L536.098 396.359V398.592H542.628V401ZM542.628 391.877V396.359H538.884L542.628 391.877ZM547.34 396.737C547.34 398.021 547.797 399.102 548.729 399.972C549.66 400.842 550.829 401.272 552.218 401.272C553.606 401.272 554.767 400.842 555.689 399.972C556.621 399.11 557.096 398.029 557.096 396.737V392.668C557.096 391.376 556.621 390.295 555.689 389.425C554.775 388.563 553.615 388.133 552.218 388.133C550.82 388.133 549.66 388.563 548.729 389.425C547.797 390.304 547.34 391.385 547.34 392.668V396.737ZM549.678 392.633C549.678 391.991 549.915 391.455 550.398 391.024C550.873 390.585 551.479 390.365 552.218 390.365C552.956 390.365 553.562 390.585 554.037 391.024C554.529 391.464 554.775 392 554.775 392.633V396.772C554.775 397.396 554.529 397.933 554.037 398.39C553.545 398.829 552.938 399.04 552.218 399.04C551.488 399.04 550.882 398.829 550.398 398.39C549.915 397.95 549.678 397.405 549.678 396.772V392.633ZM557.984 399.849C557.984 400.253 558.116 400.596 558.38 400.868C558.644 401.141 558.978 401.272 559.382 401.272C559.786 401.272 560.12 401.141 560.384 400.868C560.647 400.596 560.788 400.253 560.788 399.849C560.788 399.453 560.647 399.119 560.384 398.847C560.12 398.583 559.786 398.442 559.382 398.442C558.978 398.442 558.644 398.583 558.38 398.847C558.116 399.119 557.984 399.453 557.984 399.849ZM561.668 396.737C561.668 398.021 562.125 399.102 563.057 399.972C563.988 400.842 565.157 401.272 566.546 401.272C567.935 401.272 569.095 400.842 570.018 399.972C570.949 399.11 571.424 398.029 571.424 396.737V392.668C571.424 391.376 570.949 390.295 570.018 389.425C569.104 388.563 567.943 388.133 566.546 388.133C565.148 388.133 563.988 388.563 563.057 389.425C562.125 390.304 561.668 391.385 561.668 392.668V396.737ZM564.006 392.633C564.006 391.991 564.243 391.455 564.727 391.024C565.201 390.585 565.808 390.365 566.546 390.365C567.284 390.365 567.891 390.585 568.365 391.024C568.857 391.464 569.104 392 569.104 392.633V396.772C569.104 397.396 568.857 397.933 568.365 398.39C567.873 398.829 567.267 399.04 566.546 399.04C565.816 399.04 565.21 398.829 564.727 398.39C564.243 397.95 564.006 397.405 564.006 396.772V392.633ZM572.471 396.737C572.471 398.021 572.928 399.102 573.859 399.972C574.791 400.842 575.96 401.272 577.349 401.272C578.737 401.272 579.897 400.842 580.82 399.972C581.752 399.11 582.227 398.029 582.227 396.737V392.668C582.227 391.376 581.752 390.295 580.82 389.425C579.906 388.563 578.746 388.133 577.349 388.133C575.951 388.133 574.791 388.563 573.859 389.425C572.928 390.304 572.471 391.385 572.471 392.668V396.737ZM574.809 392.633C574.809 391.991 575.046 391.455 575.529 391.024C576.004 390.585 576.61 390.365 577.349 390.365C578.087 390.365 578.693 390.585 579.168 391.024C579.66 391.464 579.906 392 579.906 392.633V396.772C579.906 397.396 579.66 397.933 579.168 398.39C578.676 398.829 578.069 399.04 577.349 399.04C576.619 399.04 576.013 398.829 575.529 398.39C575.046 397.95 574.809 397.405 574.809 396.772V392.633Z" fill="#52D079"/>
<rect opacity="0.5" x="107" y="423" width="442" height="14" rx="7" fill="#E5F1EF"/>
<rect x="107" y="423" width="37" height="14" rx="7" fill="#16D3AA"/>
<path d="M563.577 516.513C563.577 516.054 563.391 515.664 563.018 515.343C562.637 515.014 562.186 514.849 561.666 514.849C561.198 514.849 560.782 514.988 560.418 515.265C560.054 515.534 559.781 515.902 559.599 516.37L558.546 515.863C558.815 515.213 559.226 514.702 559.781 514.329C560.336 513.948 560.964 513.757 561.666 513.757C562.533 513.757 563.261 514.021 563.85 514.55C564.448 515.079 564.747 515.72 564.747 516.474C564.747 516.959 564.595 517.44 564.292 517.917C563.997 518.385 563.516 518.94 562.849 519.581L560.418 521.908H564.877V523H558.65V522.155L562.095 518.827C562.632 518.298 563.014 517.869 563.239 517.54C563.464 517.202 563.577 516.86 563.577 516.513ZM568.888 523.143C568.16 523.143 567.506 522.961 566.925 522.597C566.353 522.233 565.937 521.743 565.677 521.128L566.795 520.803C566.986 521.193 567.263 521.501 567.627 521.726C568 521.943 568.42 522.051 568.888 522.051C569.512 522.051 570.036 521.869 570.461 521.505C570.886 521.141 571.098 520.69 571.098 520.153C571.098 519.598 570.877 519.139 570.435 518.775C570.002 518.402 569.447 518.216 568.771 518.216H566.34L566.782 513.9H571.54V514.953H567.731L567.51 517.163H568.81C569.789 517.163 570.613 517.449 571.28 518.021C571.939 518.593 572.268 519.304 572.268 520.153C572.268 521.002 571.943 521.713 571.293 522.285C570.643 522.857 569.841 523.143 568.888 523.143ZM574.427 523L573.855 522.519L581.044 513.9L581.629 514.394L574.427 523ZM575.116 513.757C575.748 513.757 576.277 513.969 576.702 514.394C577.126 514.81 577.339 515.334 577.339 515.967C577.339 516.6 577.126 517.128 576.702 517.553C576.277 517.969 575.748 518.177 575.116 518.177C574.492 518.177 573.967 517.969 573.543 517.553C573.118 517.128 572.906 516.6 572.906 515.967C572.906 515.334 573.118 514.81 573.543 514.394C573.967 513.969 574.492 513.757 575.116 513.757ZM575.116 517.202C575.471 517.202 575.766 517.085 576 516.851C576.234 516.617 576.351 516.322 576.351 515.967C576.351 515.612 576.234 515.317 576 515.083C575.766 514.849 575.471 514.732 575.116 514.732C574.769 514.732 574.479 514.853 574.245 515.096C574.011 515.33 573.894 515.62 573.894 515.967C573.894 516.314 574.011 516.608 574.245 516.851C574.479 517.085 574.769 517.202 575.116 517.202ZM578.132 520.933C578.132 520.318 578.34 519.793 578.756 519.36C579.18 518.935 579.709 518.723 580.342 518.723C580.974 518.723 581.499 518.935 581.915 519.36C582.339 519.785 582.552 520.309 582.552 520.933C582.552 521.566 582.339 522.094 581.915 522.519C581.499 522.935 580.974 523.143 580.342 523.143C579.709 523.143 579.18 522.935 578.756 522.519C578.34 522.094 578.132 521.566 578.132 520.933ZM580.342 522.168C580.688 522.168 580.979 522.051 581.213 521.817C581.455 521.583 581.577 521.293 581.577 520.946C581.577 520.591 581.455 520.296 581.213 520.062C580.979 519.819 580.688 519.698 580.342 519.698C579.986 519.698 579.692 519.815 579.458 520.049C579.224 520.283 579.107 520.578 579.107 520.933C579.107 521.288 579.224 521.583 579.458 521.817C579.692 522.051 579.986 522.168 580.342 522.168Z" fill="#4F4E56"/>
<path d="M114.344 477.166C115.604 477.166 116.744 477.472 117.764 478.084C118.796 478.696 119.588 479.53 120.14 480.586L118.178 481.306C117.782 480.622 117.248 480.088 116.576 479.704C115.904 479.308 115.16 479.11 114.344 479.11C113.072 479.11 112.016 479.548 111.176 480.424C110.324 481.312 109.898 482.404 109.898 483.7C109.898 484.996 110.324 486.088 111.176 486.976C112.016 487.852 113.072 488.29 114.344 488.29C115.16 488.29 115.904 488.098 116.576 487.714C117.248 487.318 117.782 486.778 118.178 486.094L120.14 486.814C119.588 487.87 118.796 488.704 117.764 489.316C116.744 489.928 115.604 490.234 114.344 490.234C112.484 490.234 110.93 489.61 109.682 488.362C108.434 487.114 107.81 485.56 107.81 483.7C107.81 481.84 108.434 480.286 109.682 479.038C110.93 477.79 112.484 477.166 114.344 477.166ZM121.468 490V476.5H123.34V482.008C124.048 480.94 125.092 480.406 126.472 480.406C127.576 480.406 128.482 480.754 129.19 481.45C129.91 482.158 130.27 483.034 130.27 484.078V490H128.398V484.618C128.398 483.91 128.164 483.334 127.696 482.89C127.228 482.422 126.64 482.188 125.932 482.188C125.2 482.188 124.582 482.422 124.078 482.89C123.586 483.358 123.34 483.94 123.34 484.636V490H121.468ZM136.183 480.406C137.395 480.406 138.433 480.82 139.297 481.648V480.64H141.169V490H139.297V488.992C138.433 489.82 137.395 490.234 136.183 490.234C134.875 490.234 133.777 489.766 132.889 488.83C132.013 487.906 131.575 486.736 131.575 485.32C131.575 483.904 132.013 482.734 132.889 481.81C133.777 480.874 134.875 480.406 136.183 480.406ZM136.381 482.278C135.577 482.278 134.899 482.572 134.347 483.16C133.795 483.724 133.519 484.444 133.519 485.32C133.519 486.184 133.795 486.91 134.347 487.498C134.911 488.074 135.589 488.362 136.381 488.362C137.197 488.362 137.881 488.074 138.433 487.498C138.985 486.91 139.261 486.184 139.261 485.32C139.261 484.444 138.985 483.724 138.433 483.16C137.881 482.572 137.197 482.278 136.381 482.278ZM147.091 480.406C148.303 480.406 149.341 480.82 150.205 481.648V476.5H152.077V490H150.205V488.992C149.341 489.82 148.303 490.234 147.091 490.234C145.783 490.234 144.685 489.766 143.797 488.83C142.921 487.906 142.483 486.736 142.483 485.32C142.483 483.904 142.921 482.734 143.797 481.81C144.685 480.874 145.783 480.406 147.091 480.406ZM147.289 482.278C146.485 482.278 145.807 482.572 145.255 483.16C144.703 483.724 144.427 484.444 144.427 485.32C144.427 486.184 144.703 486.91 145.255 487.498C145.819 488.074 146.497 488.362 147.289 488.362C148.105 488.362 148.789 488.074 149.341 487.498C149.893 486.91 150.169 486.184 150.169 485.32C150.169 484.444 149.893 483.724 149.341 483.16C148.789 482.572 148.105 482.278 147.289 482.278ZM157.675 490H156.019L152.905 480.64H154.795L156.829 487.102L158.863 480.64H160.555L162.571 487.102L164.623 480.64H166.513L163.399 490H161.725L159.709 483.754L157.675 490ZM169.205 490H167.333V480.64H169.205V490ZM167.387 479.254C167.159 479.014 167.045 478.72 167.045 478.372C167.045 478.024 167.159 477.73 167.387 477.49C167.627 477.25 167.921 477.13 168.269 477.13C168.617 477.13 168.911 477.25 169.151 477.49C169.391 477.73 169.511 478.024 169.511 478.372C169.511 478.72 169.391 479.014 169.151 479.254C168.911 479.494 168.617 479.614 168.269 479.614C167.921 479.614 167.627 479.494 167.387 479.254ZM179.982 483.358L178.093 483.916C177.853 483.412 177.499 483.016 177.031 482.728C176.563 482.428 176.029 482.278 175.429 482.278C174.589 482.278 173.881 482.572 173.305 483.16C172.741 483.748 172.458 484.468 172.458 485.32C172.458 486.172 172.741 486.898 173.305 487.498C173.881 488.074 174.589 488.362 175.429 488.362C176.029 488.362 176.563 488.218 177.031 487.93C177.499 487.63 177.853 487.228 178.093 486.724L179.982 487.282C179.611 488.182 179.017 488.902 178.201 489.442C177.397 489.97 176.473 490.234 175.429 490.234C174.025 490.234 172.855 489.766 171.919 488.83C170.983 487.894 170.515 486.724 170.515 485.32C170.515 483.916 170.983 482.746 171.919 481.81C172.855 480.874 174.025 480.406 175.429 480.406C176.473 480.406 177.397 480.676 178.201 481.216C179.017 481.744 179.611 482.458 179.982 483.358ZM181.116 490V476.5H182.988V484.96L186.516 480.64H188.802L185.13 485.158L189.198 490H186.894L182.988 485.356V490H181.116ZM200.852 490H194.462V477.4H200.492C201.56 477.4 202.454 477.724 203.174 478.372C203.894 478.996 204.254 479.794 204.254 480.766C204.254 481.822 203.81 482.686 202.922 483.358C203.51 483.67 203.972 484.102 204.308 484.654C204.644 485.194 204.812 485.788 204.812 486.436C204.812 487.456 204.434 488.308 203.678 488.992C202.91 489.664 201.968 490 200.852 490ZM200.852 484.42H196.478V488.128H200.852C201.38 488.128 201.824 487.954 202.184 487.606C202.544 487.246 202.724 486.802 202.724 486.274C202.724 485.746 202.544 485.308 202.184 484.96C201.824 484.6 201.38 484.42 200.852 484.42ZM200.492 479.272H196.478V482.548H200.492C200.972 482.548 201.368 482.392 201.68 482.08C201.992 481.768 202.148 481.378 202.148 480.91C202.148 480.442 201.992 480.052 201.68 479.74C201.368 479.428 200.972 479.272 200.492 479.272ZM210.571 490.234C209.167 490.234 207.997 489.766 207.061 488.83C206.125 487.894 205.657 486.724 205.657 485.32C205.657 483.916 206.125 482.746 207.061 481.81C207.997 480.874 209.167 480.406 210.571 480.406C211.975 480.406 213.145 480.874 214.081 481.81C215.029 482.746 215.503 483.916 215.503 485.32C215.503 486.724 215.029 487.894 214.081 488.83C213.145 489.766 211.975 490.234 210.571 490.234ZM210.571 488.362C211.435 488.362 212.143 488.074 212.695 487.498C213.271 486.91 213.559 486.184 213.559 485.32C213.559 484.456 213.271 483.736 212.695 483.16C212.143 482.572 211.435 482.278 210.571 482.278C209.731 482.278 209.023 482.572 208.447 483.16C207.883 483.748 207.601 484.468 207.601 485.32C207.601 486.172 207.883 486.898 208.447 487.498C209.023 488.074 209.731 488.362 210.571 488.362ZM223.463 482.782L221.699 483.088C221.483 482.392 220.871 482.044 219.863 482.044C219.407 482.044 219.035 482.134 218.747 482.314C218.459 482.494 218.315 482.74 218.315 483.052C218.315 483.46 218.615 483.772 219.215 483.988L221.321 484.708C222.125 485.008 222.707 485.374 223.067 485.806C223.439 486.238 223.625 486.772 223.625 487.408C223.625 488.308 223.295 489.004 222.635 489.496C221.975 489.988 221.105 490.234 220.025 490.234C218.969 490.234 218.111 490.006 217.451 489.55C216.791 489.082 216.395 488.44 216.263 487.624L218.027 487.354C218.111 487.726 218.333 488.026 218.693 488.254C219.053 488.482 219.509 488.596 220.061 488.596C220.577 488.596 220.997 488.494 221.321 488.29C221.657 488.086 221.825 487.81 221.825 487.462C221.825 487.018 221.447 486.658 220.691 486.382L218.603 485.68C217.871 485.428 217.337 485.104 217.001 484.708C216.677 484.312 216.515 483.808 216.515 483.196C216.515 482.296 216.833 481.606 217.469 481.126C218.105 480.646 218.951 480.406 220.007 480.406C220.955 480.406 221.735 480.622 222.347 481.054C222.959 481.474 223.331 482.05 223.463 482.782ZM234.152 486.004H226.376C226.52 486.736 226.874 487.336 227.438 487.804C228.014 488.26 228.692 488.488 229.472 488.488C230.528 488.488 231.356 488.098 231.956 487.318L233.792 487.876C233.36 488.608 232.76 489.184 231.992 489.604C231.236 490.024 230.396 490.234 229.472 490.234C228.032 490.234 226.838 489.766 225.89 488.83C224.93 487.894 224.45 486.724 224.45 485.32C224.45 483.928 224.912 482.758 225.836 481.81C226.772 480.874 227.936 480.406 229.328 480.406C230.72 480.406 231.872 480.874 232.784 481.81C233.72 482.746 234.188 483.916 234.188 485.32C234.188 485.368 234.176 485.596 234.152 486.004ZM226.394 484.51H232.262C232.094 483.814 231.734 483.25 231.182 482.818C230.63 482.374 229.994 482.152 229.274 482.152C228.59 482.152 227.978 482.374 227.438 482.818C226.91 483.25 226.562 483.814 226.394 484.51ZM237.222 490H235.35V480.64H237.222V481.828C237.87 480.88 238.824 480.406 240.084 480.406C240.732 480.406 241.32 480.556 241.848 480.856C242.376 481.144 242.802 481.546 243.126 482.062C243.27 481.834 243.444 481.606 243.648 481.378C243.9 481.126 244.266 480.904 244.746 480.712C245.226 480.508 245.736 480.406 246.276 480.406C247.344 480.406 248.226 480.736 248.922 481.396C249.63 482.068 249.984 482.896 249.984 483.88V490H248.112V484.402C248.112 483.778 247.902 483.256 247.482 482.836C247.062 482.404 246.54 482.188 245.916 482.188C245.256 482.188 244.704 482.404 244.26 482.836C243.828 483.244 243.612 483.772 243.612 484.42V490H241.74V484.402C241.74 483.778 241.53 483.256 241.11 482.836C240.69 482.404 240.168 482.188 239.544 482.188C238.884 482.188 238.332 482.404 237.888 482.836C237.444 483.244 237.222 483.772 237.222 484.42V490ZM255.902 480.406C257.114 480.406 258.152 480.82 259.016 481.648V480.64H260.888V490H259.016V488.992C258.152 489.82 257.114 490.234 255.902 490.234C254.594 490.234 253.496 489.766 252.608 488.83C251.732 487.906 251.294 486.736 251.294 485.32C251.294 483.904 251.732 482.734 252.608 481.81C253.496 480.874 254.594 480.406 255.902 480.406ZM256.1 482.278C255.296 482.278 254.618 482.572 254.066 483.16C253.514 483.724 253.238 484.444 253.238 485.32C253.238 486.184 253.514 486.91 254.066 487.498C254.63 488.074 255.308 488.362 256.1 488.362C256.916 488.362 257.6 488.074 258.152 487.498C258.704 486.91 258.98 486.184 258.98 485.32C258.98 484.444 258.704 483.724 258.152 483.16C257.6 482.572 256.916 482.278 256.1 482.278ZM264.488 490H262.616V480.64H264.488V481.828C265.136 480.88 266.09 480.406 267.35 480.406C267.998 480.406 268.586 480.556 269.114 480.856C269.642 481.144 270.068 481.546 270.392 482.062C270.536 481.834 270.71 481.606 270.914 481.378C271.166 481.126 271.532 480.904 272.012 480.712C272.492 480.508 273.002 480.406 273.542 480.406C274.61 480.406 275.492 480.736 276.188 481.396C276.896 482.068 277.25 482.896 277.25 483.88V490H275.378V484.402C275.378 483.778 275.168 483.256 274.748 482.836C274.328 482.404 273.806 482.188 273.182 482.188C272.522 482.188 271.97 482.404 271.526 482.836C271.094 483.244 270.878 483.772 270.878 484.42V490H269.006V484.402C269.006 483.778 268.796 483.256 268.376 482.836C267.956 482.404 267.434 482.188 266.81 482.188C266.15 482.188 265.598 482.404 265.154 482.836C264.71 483.244 264.488 483.772 264.488 484.42V490Z" fill="#09265A"/>
<path d="M529.654 492.32H531.315V490.237C532.52 490.105 533.478 489.684 534.198 488.98C534.91 488.277 535.271 487.372 535.271 486.273C535.271 485.816 535.183 485.377 535.024 484.973C534.857 484.568 534.655 484.234 534.427 483.988C534.198 483.742 533.899 483.522 533.53 483.32C533.442 483.276 533.354 483.232 533.284 483.197C533.214 483.162 533.135 483.127 533.064 483.092C532.994 483.057 532.933 483.03 532.88 483.004C532.827 482.986 532.757 482.96 532.678 482.934C532.599 482.907 532.537 482.89 532.502 482.872C532.467 482.854 532.396 482.837 532.309 482.811C532.221 482.784 532.15 482.767 532.115 482.749C532.08 482.74 532.001 482.723 531.896 482.688C531.781 482.652 531.702 482.635 531.658 482.617C530.551 482.301 529.865 482.081 529.584 481.958C528.811 481.642 528.433 481.237 528.433 480.763C528.433 480.394 528.617 480.086 528.986 479.822C529.355 479.567 529.804 479.436 530.34 479.436C530.832 479.436 531.263 479.559 531.649 479.796C532.027 480.033 532.273 480.323 532.379 480.657L534.787 479.954C534.567 479.269 534.137 478.671 533.504 478.17C532.871 477.669 532.106 477.344 531.228 477.203V475.076H529.566V477.186C528.503 477.309 527.642 477.722 526.991 478.407C526.341 479.093 526.024 479.937 526.024 480.947C526.024 482.23 526.631 483.197 527.844 483.848C528.336 484.111 529.355 484.472 530.885 484.92C531.342 485.078 531.676 485.201 531.887 485.298C532.115 485.403 532.291 485.5 532.414 485.605C532.713 485.887 532.862 486.177 532.862 486.493C532.862 486.924 532.643 487.275 532.212 487.548C531.772 487.82 531.236 487.952 530.595 487.952C529.944 487.952 529.391 487.812 528.925 487.53C528.459 487.249 528.178 486.906 528.072 486.493L525.664 487.214C525.893 487.987 526.358 488.646 527.079 489.191C527.791 489.736 528.652 490.079 529.654 490.22V492.32ZM542.628 490H544.948V487.592H546.557V485.359H544.948V477.396H542.733L536.098 485.359V487.592H542.628V490ZM542.628 480.877V485.359H538.884L542.628 480.877ZM547.34 485.737C547.34 487.021 547.797 488.102 548.729 488.972C549.66 489.842 550.829 490.272 552.218 490.272C553.606 490.272 554.767 489.842 555.689 488.972C556.621 488.11 557.096 487.029 557.096 485.737V481.668C557.096 480.376 556.621 479.295 555.689 478.425C554.775 477.563 553.615 477.133 552.218 477.133C550.82 477.133 549.66 477.563 548.729 478.425C547.797 479.304 547.34 480.385 547.34 481.668V485.737ZM549.678 481.633C549.678 480.991 549.915 480.455 550.398 480.024C550.873 479.585 551.479 479.365 552.218 479.365C552.956 479.365 553.562 479.585 554.037 480.024C554.529 480.464 554.775 481 554.775 481.633V485.772C554.775 486.396 554.529 486.933 554.037 487.39C553.545 487.829 552.938 488.04 552.218 488.04C551.488 488.04 550.882 487.829 550.398 487.39C549.915 486.95 549.678 486.405 549.678 485.772V481.633ZM557.984 488.849C557.984 489.253 558.116 489.596 558.38 489.868C558.644 490.141 558.978 490.272 559.382 490.272C559.786 490.272 560.12 490.141 560.384 489.868C560.647 489.596 560.788 489.253 560.788 488.849C560.788 488.453 560.647 488.119 560.384 487.847C560.12 487.583 559.786 487.442 559.382 487.442C558.978 487.442 558.644 487.583 558.38 487.847C558.116 488.119 557.984 488.453 557.984 488.849ZM561.668 485.737C561.668 487.021 562.125 488.102 563.057 488.972C563.988 489.842 565.157 490.272 566.546 490.272C567.935 490.272 569.095 489.842 570.018 488.972C570.949 488.11 571.424 487.029 571.424 485.737V481.668C571.424 480.376 570.949 479.295 570.018 478.425C569.104 477.563 567.943 477.133 566.546 477.133C565.148 477.133 563.988 477.563 563.057 478.425C562.125 479.304 561.668 480.385 561.668 481.668V485.737ZM564.006 481.633C564.006 480.991 564.243 480.455 564.727 480.024C565.201 479.585 565.808 479.365 566.546 479.365C567.284 479.365 567.891 479.585 568.365 480.024C568.857 480.464 569.104 481 569.104 481.633V485.772C569.104 486.396 568.857 486.933 568.365 487.39C567.873 487.829 567.267 488.04 566.546 488.04C565.816 488.04 565.21 487.829 564.727 487.39C564.243 486.95 564.006 486.405 564.006 485.772V481.633ZM572.471 485.737C572.471 487.021 572.928 488.102 573.859 488.972C574.791 489.842 575.96 490.272 577.349 490.272C578.737 490.272 579.897 489.842 580.82 488.972C581.752 488.11 582.227 487.029 582.227 485.737V481.668C582.227 480.376 581.752 479.295 580.82 478.425C579.906 477.563 578.746 477.133 577.349 477.133C575.951 477.133 574.791 477.563 573.859 478.425C572.928 479.304 572.471 480.385 572.471 481.668V485.737ZM574.809 481.633C574.809 480.991 575.046 480.455 575.529 480.024C576.004 479.585 576.61 479.365 577.349 479.365C578.087 479.365 578.693 479.585 579.168 480.024C579.66 480.464 579.906 481 579.906 481.633V485.772C579.906 486.396 579.66 486.933 579.168 487.39C578.676 487.829 578.069 488.04 577.349 488.04C576.619 488.04 576.013 487.829 575.529 487.39C575.046 486.95 574.809 486.405 574.809 485.772V481.633Z" fill="#52D079"/>
<rect opacity="0.5" x="107" y="512" width="442" height="14" rx="7" fill="#E5F1EF"/>
<rect x="107" y="512" width="171" height="14" rx="7" fill="#16D3AA"/>
<path d="M109.278 123.596V139H112.222V133.564H115.81L119.043 139H122.319L118.807 133.06C119.698 132.662 120.407 132.061 120.934 131.266C121.46 130.471 121.729 129.568 121.729 128.569C121.729 127.151 121.213 125.98 120.192 125.035C119.161 124.079 117.904 123.596 116.4 123.596H109.278ZM116.4 126.324C117.045 126.324 117.582 126.539 118.012 126.958C118.431 127.388 118.646 127.925 118.646 128.569C118.646 129.225 118.431 129.762 118.012 130.191C117.582 130.621 117.045 130.836 116.4 130.836H112.222V126.324H116.4ZM134.549 134.295C134.603 133.908 134.635 133.564 134.635 133.285C134.635 131.566 134.055 130.127 132.895 128.967C131.756 127.807 130.338 127.227 128.63 127.227C126.922 127.227 125.493 127.807 124.333 128.967C123.194 130.105 122.625 131.545 122.625 133.285C122.625 135.004 123.205 136.454 124.376 137.614C125.579 138.764 127.051 139.333 128.802 139.333C129.94 139.333 130.993 139.075 131.938 138.538C132.884 138.012 133.614 137.281 134.151 136.357L131.487 135.595C130.843 136.4 129.94 136.798 128.802 136.798C127.996 136.798 127.287 136.572 126.686 136.11C126.073 135.659 125.665 135.047 125.461 134.295H134.549ZM125.482 132.157C125.687 131.448 126.073 130.868 126.653 130.428C127.223 129.987 127.867 129.762 128.587 129.762C129.328 129.762 129.994 129.987 130.585 130.428C131.165 130.868 131.573 131.448 131.799 132.157H125.482ZM138.571 143.952V138.098C139.581 138.925 140.73 139.333 142.02 139.333C143.588 139.333 144.92 138.764 146.005 137.614C147.068 136.454 147.605 135.015 147.605 133.285C147.605 131.545 147.068 130.105 146.005 128.967C144.931 127.807 143.609 127.227 142.02 127.227C140.73 127.227 139.581 127.646 138.571 128.462V127.56H135.821V143.952H138.571ZM143.846 130.922C144.447 131.566 144.748 132.361 144.748 133.285C144.748 134.209 144.447 134.993 143.846 135.638C143.255 136.271 142.524 136.583 141.665 136.583C140.806 136.583 140.075 136.271 139.495 135.638C138.904 135.015 138.614 134.23 138.614 133.285C138.614 132.34 138.904 131.556 139.495 130.922C140.075 130.299 140.806 129.977 141.665 129.977C142.524 129.977 143.255 130.299 143.846 130.922ZM150.296 137.614C151.478 138.764 152.917 139.333 154.636 139.333C156.333 139.333 157.783 138.764 158.965 137.614C160.125 136.454 160.705 135.015 160.705 133.285C160.705 131.545 160.125 130.105 158.965 128.967C157.805 127.807 156.354 127.227 154.636 127.227C152.896 127.227 151.456 127.807 150.296 128.967C149.157 130.105 148.588 131.545 148.588 133.285C148.588 135.004 149.157 136.454 150.296 137.614ZM152.348 130.922C152.949 130.299 153.712 129.977 154.636 129.977C155.549 129.977 156.312 130.299 156.924 130.922C157.536 131.566 157.848 132.351 157.848 133.285C157.848 134.22 157.536 135.004 156.924 135.638C156.312 136.271 155.549 136.583 154.636 136.583C153.712 136.583 152.949 136.271 152.348 135.638C151.725 135.004 151.424 134.22 151.424 133.285C151.424 132.351 151.725 131.566 152.348 130.922ZM164.856 127.56H162.106V139H164.856V132.705C164.856 131.953 165.104 131.319 165.608 130.804C166.103 130.299 166.736 130.041 167.488 130.041C167.854 130.041 168.229 130.127 168.616 130.288V127.227C166.897 127.227 165.641 127.807 164.856 128.967V127.56ZM168.664 129.955H170.297V135.391C170.297 136.443 170.662 137.303 171.414 137.969C172.177 138.656 173.101 139 174.196 139H175.883V136.379H174.454C174.046 136.379 173.702 136.25 173.444 135.992C173.176 135.734 173.047 135.401 173.047 134.993V129.955H175.883V127.56H173.047V125.314H170.297V127.56H168.664V129.955ZM185.556 130.31C185.405 129.354 184.954 128.602 184.181 128.054C183.407 127.506 182.397 127.227 181.173 127.227C179.819 127.227 178.745 127.538 177.95 128.14C177.155 128.741 176.758 129.633 176.758 130.793C176.758 131.609 176.962 132.265 177.392 132.759C177.821 133.264 178.52 133.672 179.486 133.983L181.839 134.735C182.688 135.025 183.117 135.391 183.117 135.831C183.117 136.175 182.935 136.454 182.591 136.658C182.247 136.862 181.807 136.959 181.27 136.959C180.646 136.959 180.142 136.841 179.755 136.594C179.368 136.347 179.121 136.014 179.024 135.595L176.446 135.96C176.618 137.023 177.112 137.851 177.929 138.441C178.745 139.043 179.841 139.333 181.205 139.333C182.569 139.333 183.665 139.032 184.492 138.409C185.309 137.786 185.728 136.905 185.728 135.745C185.728 134.918 185.491 134.23 185.019 133.683C184.546 133.135 183.794 132.673 182.741 132.308L180.389 131.523C179.712 131.287 179.379 130.976 179.379 130.6C179.379 130.299 179.529 130.052 179.83 129.88C180.131 129.708 180.507 129.611 180.979 129.611C182.064 129.611 182.73 129.987 182.978 130.729L185.556 130.31Z" fill="#09265A"/>
<g filter="url(#filter1_d)">
<rect x="368" y="432" width="284" height="209" rx="16" fill="white"/>
</g>
<rect x="391" y="543" width="240" height="73" rx="10" fill="#216ACC"/>
<path d="M456.648 589H454.464L447.312 572.2H450.144L455.568 585.136L460.992 572.2H463.824L456.648 589ZM467.617 589H465.121V576.52H467.617V589ZM465.193 574.672C464.889 574.352 464.737 573.96 464.737 573.496C464.737 573.032 464.889 572.64 465.193 572.32C465.513 572 465.905 571.84 466.369 571.84C466.833 571.84 467.225 572 467.545 572.32C467.865 572.64 468.025 573.032 468.025 573.496C468.025 573.96 467.865 574.352 467.545 574.672C467.225 574.992 466.833 575.152 466.369 575.152C465.905 575.152 465.513 574.992 465.193 574.672ZM482.466 583.672H472.098C472.29 584.648 472.762 585.448 473.514 586.072C474.282 586.68 475.186 586.984 476.226 586.984C477.634 586.984 478.738 586.464 479.538 585.424L481.986 586.168C481.41 587.144 480.61 587.912 479.586 588.472C478.578 589.032 477.458 589.312 476.226 589.312C474.306 589.312 472.714 588.688 471.45 587.44C470.17 586.192 469.53 584.632 469.53 582.76C469.53 580.904 470.146 579.344 471.378 578.08C472.626 576.832 474.178 576.208 476.034 576.208C477.89 576.208 479.426 576.832 480.642 578.08C481.89 579.328 482.514 580.888 482.514 582.76C482.514 582.824 482.498 583.128 482.466 583.672ZM472.122 581.68H479.946C479.722 580.752 479.242 580 478.506 579.424C477.77 578.832 476.922 578.536 475.962 578.536C475.05 578.536 474.234 578.832 473.514 579.424C472.81 580 472.346 580.752 472.122 581.68ZM488.945 589H486.737L482.585 576.52H485.105L487.817 585.136L490.529 576.52H492.785L495.473 585.136L498.209 576.52H500.729L496.577 589H494.345L491.657 580.672L488.945 589ZM508.007 572.2H515.687C517.287 572.2 518.623 572.704 519.695 573.712C520.783 574.72 521.327 575.984 521.327 577.504C521.327 578.608 521.023 579.6 520.415 580.48C519.807 581.344 518.999 581.976 517.991 582.376L521.975 589H518.951L515.207 582.808H510.695V589H508.007V572.2ZM515.687 574.696H510.695V580.312H515.687C516.487 580.312 517.159 580.048 517.703 579.52C518.247 578.976 518.519 578.304 518.519 577.504C518.519 576.704 518.247 576.04 517.703 575.512C517.159 574.968 516.487 574.696 515.687 574.696ZM535.567 583.672H525.199C525.391 584.648 525.863 585.448 526.615 586.072C527.383 586.68 528.287 586.984 529.327 586.984C530.735 586.984 531.839 586.464 532.639 585.424L535.087 586.168C534.511 587.144 533.711 587.912 532.687 588.472C531.679 589.032 530.559 589.312 529.327 589.312C527.407 589.312 525.815 588.688 524.551 587.44C523.271 586.192 522.631 584.632 522.631 582.76C522.631 580.904 523.247 579.344 524.479 578.08C525.727 576.832 527.279 576.208 529.135 576.208C530.991 576.208 532.527 576.832 533.743 578.08C534.991 579.328 535.615 580.888 535.615 582.76C535.615 582.824 535.599 583.128 535.567 583.672ZM525.223 581.68H533.047C532.823 580.752 532.343 580 531.607 579.424C530.871 578.832 530.023 578.536 529.063 578.536C528.151 578.536 527.335 578.832 526.615 579.424C525.911 580 525.447 580.752 525.223 581.68ZM539.828 594.4H537.332V576.52H539.828V577.864C540.98 576.76 542.364 576.208 543.98 576.208C545.724 576.208 547.188 576.832 548.372 578.08C549.54 579.312 550.124 580.872 550.124 582.76C550.124 584.648 549.54 586.208 548.372 587.44C547.188 588.688 545.724 589.312 543.98 589.312C542.364 589.312 540.98 588.76 539.828 587.656V594.4ZM543.692 578.704C542.62 578.704 541.716 579.096 540.98 579.88C540.244 580.632 539.876 581.592 539.876 582.76C539.876 583.912 540.244 584.88 540.98 585.664C541.716 586.432 542.62 586.816 543.692 586.816C544.764 586.816 545.676 586.432 546.428 585.664C547.164 584.88 547.532 583.912 547.532 582.76C547.532 581.592 547.164 580.632 546.428 579.88C545.692 579.096 544.78 578.704 543.692 578.704ZM558.043 589.312C556.171 589.312 554.611 588.688 553.363 587.44C552.115 586.192 551.491 584.632 551.491 582.76C551.491 580.888 552.115 579.328 553.363 578.08C554.611 576.832 556.171 576.208 558.043 576.208C559.915 576.208 561.475 576.832 562.723 578.08C563.987 579.328 564.619 580.888 564.619 582.76C564.619 584.632 563.987 586.192 562.723 587.44C561.475 588.688 559.915 589.312 558.043 589.312ZM558.043 586.816C559.195 586.816 560.139 586.432 560.875 585.664C561.643 584.88 562.027 583.912 562.027 582.76C562.027 581.608 561.643 580.648 560.875 579.88C560.139 579.096 559.195 578.704 558.043 578.704C556.923 578.704 555.979 579.096 555.211 579.88C554.459 580.664 554.083 581.624 554.083 582.76C554.083 583.896 554.459 584.864 555.211 585.664C555.979 586.432 556.923 586.816 558.043 586.816ZM569.039 576.52V578.344C569.983 576.92 571.463 576.208 573.479 576.208V578.992C573.191 578.864 572.831 578.8 572.399 578.8C571.439 578.8 570.639 579.112 569.999 579.736C569.359 580.328 569.039 581.096 569.039 582.04V589H566.543V576.52H569.039ZM573.702 578.704V576.52H575.598V574.048H578.094V576.52H581.406V578.704H578.094V584.848C578.094 585.344 578.254 585.76 578.574 586.096C578.894 586.432 579.294 586.6 579.774 586.6H581.406V589H579.582C578.462 589 577.518 588.64 576.75 587.92C575.982 587.168 575.598 586.256 575.598 585.184V578.704H573.702Z" fill="white"/>
<rect x="391" y="468" width="240" height="60.9358" rx="6" fill="white"/>
<rect x="391.25" y="468.25" width="239.5" height="60.4358" rx="5.75" stroke="#09265A" stroke-opacity="0.3" stroke-width="0.5"/>
<path d="M601.5 504.685L606 509.763L610.5 504.685" stroke="#6CA8ED" stroke-width="2" stroke-linecap="round" stroke-linejoin="round"/>
<path d="M408.848 485.02V487.968H407.858V480.268H411.235C411.946 480.268 412.54 480.496 413.017 480.95C413.494 481.405 413.732 481.97 413.732 482.644C413.732 483.319 413.494 483.884 413.017 484.338C412.54 484.793 411.946 485.02 411.235 485.02H408.848ZM411.235 481.192H408.848V484.096H411.235C411.653 484.096 412.001 483.957 412.28 483.678C412.559 483.4 412.698 483.055 412.698 482.644C412.698 482.226 412.559 481.882 412.28 481.61C412.001 481.332 411.653 481.192 411.235 481.192ZM416.632 482.127C417.49 482.127 418.187 482.439 418.722 483.062V482.248H419.646V487.968H418.722V487.154C418.187 487.778 417.49 488.089 416.632 488.089C415.833 488.089 415.162 487.807 414.619 487.242C414.084 486.678 413.816 485.966 413.816 485.108C413.816 484.25 414.084 483.543 414.619 482.985C415.154 482.413 415.825 482.127 416.632 482.127ZM416.731 483.051C416.181 483.051 415.715 483.249 415.334 483.645C414.96 484.034 414.773 484.522 414.773 485.108C414.773 485.695 414.96 486.186 415.334 486.582C415.723 486.971 416.188 487.165 416.731 487.165C417.288 487.165 417.754 486.971 418.128 486.582C418.509 486.194 418.7 485.702 418.7 485.108C418.7 484.514 418.509 484.027 418.128 483.645C417.754 483.249 417.288 483.051 416.731 483.051ZM422.012 488.639L422.353 487.803L420.076 482.248H421.033L422.826 486.692L424.674 482.248H425.631L422.815 488.947C422.602 489.468 422.327 489.846 421.99 490.08C421.66 490.322 421.238 490.443 420.725 490.443H420.461V489.552H420.725C421.326 489.552 421.755 489.248 422.012 488.639ZM426.057 487.968V482.248H426.981V483.084C427.414 482.446 428.041 482.127 428.862 482.127C429.273 482.127 429.647 482.226 429.984 482.424C430.329 482.622 430.593 482.89 430.776 483.227C430.901 483.007 431.095 482.787 431.359 482.567C431.711 482.274 432.192 482.127 432.8 482.127C433.446 482.127 433.981 482.329 434.406 482.732C434.832 483.136 435.044 483.642 435.044 484.25V487.968H434.12V484.503C434.12 484.078 433.981 483.722 433.702 483.436C433.424 483.15 433.072 483.007 432.646 483.007C432.184 483.007 431.796 483.154 431.48 483.447C431.172 483.733 431.018 484.089 431.018 484.514V487.968H430.094V484.503C430.094 484.078 429.951 483.722 429.665 483.436C429.387 483.15 429.035 483.007 428.609 483.007C428.147 483.007 427.759 483.154 427.443 483.447C427.135 483.733 426.981 484.089 426.981 484.514V487.968H426.057ZM441.672 485.427H436.755C436.821 485.941 437.049 486.37 437.437 486.714C437.819 487.052 438.288 487.22 438.845 487.22C439.571 487.22 440.136 486.945 440.539 486.395L441.441 486.681C441.177 487.121 440.814 487.466 440.352 487.715C439.898 487.965 439.395 488.089 438.845 488.089C437.98 488.089 437.254 487.807 436.667 487.242C436.088 486.67 435.798 485.959 435.798 485.108C435.798 484.258 436.081 483.55 436.645 482.985C437.21 482.413 437.91 482.127 438.746 482.127C439.59 482.127 440.29 482.413 440.847 482.985C441.412 483.55 441.694 484.258 441.694 485.108C441.694 485.13 441.687 485.237 441.672 485.427ZM436.766 484.679H440.737C440.649 484.188 440.418 483.781 440.044 483.458C439.678 483.143 439.238 482.985 438.724 482.985C438.226 482.985 437.797 483.143 437.437 483.458C437.078 483.774 436.854 484.181 436.766 484.679ZM442.374 487.968V482.248H443.298V483.205C443.752 482.487 444.431 482.127 445.333 482.127C445.993 482.127 446.539 482.344 446.972 482.776C447.412 483.202 447.632 483.744 447.632 484.404V487.968H446.708V484.646C446.708 484.184 446.55 483.796 446.235 483.48C445.927 483.165 445.542 483.007 445.08 483.007C444.581 483.007 444.159 483.169 443.815 483.491C443.47 483.814 443.298 484.206 443.298 484.668V487.968H442.374ZM448.058 483.062V482.248H448.982V481.104H449.906V482.248H451.501V483.062H449.906V486.175C449.906 486.432 449.983 486.648 450.137 486.824C450.298 486.993 450.496 487.077 450.731 487.077H451.501V487.968H450.665C450.188 487.968 449.788 487.807 449.466 487.484C449.143 487.162 448.982 486.762 448.982 486.285V483.062H448.058ZM454.677 487.968V479.718H455.601V483.062C456.137 482.439 456.83 482.127 457.68 482.127C458.487 482.127 459.158 482.413 459.693 482.985C460.236 483.55 460.507 484.258 460.507 485.108C460.507 485.952 460.236 486.663 459.693 487.242C459.151 487.807 458.48 488.089 457.68 488.089C456.83 488.089 456.137 487.778 455.601 487.154V487.968H454.677ZM457.581 483.051C457.031 483.051 456.566 483.249 456.184 483.645C455.81 484.034 455.623 484.522 455.623 485.108C455.623 485.695 455.81 486.186 456.184 486.582C456.573 486.971 457.039 487.165 457.581 487.165C458.139 487.165 458.604 486.971 458.978 486.582C459.36 486.194 459.55 485.702 459.55 485.108C459.55 484.514 459.36 484.027 458.978 483.645C458.604 483.249 458.139 483.051 457.581 483.051ZM462.383 488.639L462.724 487.803L460.447 482.248H461.404L463.197 486.692L465.045 482.248H466.002L463.186 488.947C462.973 489.468 462.698 489.846 462.361 490.08C462.031 490.322 461.609 490.443 461.096 490.443H460.832V489.552H461.096C461.697 489.552 462.126 489.248 462.383 488.639Z" fill="#4F4E56"/>
<path d="M414.344 498.927C415.604 498.927 416.744 499.233 417.764 499.845C418.796 500.457 419.588 501.291 420.14 502.347L418.178 503.067C417.782 502.383 417.248 501.849 416.576 501.465C415.904 501.069 415.16 500.871 414.344 500.871C413.072 500.871 412.016 501.309 411.176 502.185C410.324 503.073 409.898 504.165 409.898 505.461C409.898 506.757 410.324 507.849 411.176 508.737C412.016 509.613 413.072 510.051 414.344 510.051C415.16 510.051 415.904 509.859 416.576 509.475C417.248 509.079 417.782 508.539 418.178 507.855L420.14 508.575C419.588 509.631 418.796 510.465 417.764 511.077C416.744 511.689 415.604 511.995 414.344 511.995C412.484 511.995 410.93 511.371 409.682 510.123C408.434 508.875 407.81 507.321 407.81 505.461C407.81 503.601 408.434 502.047 409.682 500.799C410.93 499.551 412.484 498.927 414.344 498.927ZM423.34 511.761H421.468V498.261H423.34V511.761ZM426.935 511.761H425.063V502.401H426.935V511.761ZM425.117 501.015C424.889 500.775 424.775 500.481 424.775 500.133C424.775 499.785 424.889 499.491 425.117 499.251C425.357 499.011 425.651 498.891 425.999 498.891C426.347 498.891 426.641 499.011 426.881 499.251C427.121 499.491 427.241 499.785 427.241 500.133C427.241 500.481 427.121 500.775 426.881 501.015C426.641 501.255 426.347 501.375 425.999 501.375C425.651 501.375 425.357 501.255 425.117 501.015ZM437.947 507.765H430.171C430.315 508.497 430.669 509.097 431.233 509.565C431.809 510.021 432.487 510.249 433.267 510.249C434.323 510.249 435.151 509.859 435.751 509.079L437.587 509.637C437.155 510.369 436.555 510.945 435.787 511.365C435.031 511.785 434.191 511.995 433.267 511.995C431.827 511.995 430.633 511.527 429.685 510.591C428.725 509.655 428.245 508.485 428.245 507.081C428.245 505.689 428.707 504.519 429.631 503.571C430.567 502.635 431.731 502.167 433.123 502.167C434.515 502.167 435.667 502.635 436.579 503.571C437.515 504.507 437.983 505.677 437.983 507.081C437.983 507.129 437.971 507.357 437.947 507.765ZM430.189 506.271H436.057C435.889 505.575 435.529 505.011 434.977 504.579C434.425 504.135 433.789 503.913 433.069 503.913C432.385 503.913 431.773 504.135 431.233 504.579C430.705 505.011 430.357 505.575 430.189 506.271ZM439.145 511.761V502.401H441.017V503.769C441.701 502.701 442.727 502.167 444.095 502.167C445.175 502.167 446.063 502.515 446.759 503.211C447.467 503.919 447.821 504.795 447.821 505.839V511.761H445.949V506.379C445.949 505.683 445.721 505.107 445.265 504.651C444.809 504.183 444.233 503.949 443.537 503.949C442.817 503.949 442.217 504.183 441.737 504.651C441.257 505.119 441.017 505.701 441.017 506.397V511.761H439.145ZM448.644 504.039V502.401H450.066V500.547H451.938V502.401H454.422V504.039H451.938V508.647C451.938 509.019 452.058 509.331 452.298 509.583C452.538 509.835 452.838 509.961 453.198 509.961H454.422V511.761H453.054C452.214 511.761 451.506 511.491 450.93 510.951C450.354 510.387 450.066 509.703 450.066 508.899V504.039H448.644ZM462.207 504.543L460.443 504.849C460.227 504.153 459.615 503.805 458.607 503.805C458.151 503.805 457.779 503.895 457.491 504.075C457.203 504.255 457.059 504.501 457.059 504.813C457.059 505.221 457.359 505.533 457.959 505.749L460.065 506.469C460.869 506.769 461.451 507.135 461.811 507.567C462.183 507.999 462.369 508.533 462.369 509.169C462.369 510.069 462.039 510.765 461.379 511.257C460.719 511.749 459.849 511.995 458.769 511.995C457.713 511.995 456.855 511.767 456.195 511.311C455.535 510.843 455.139 510.201 455.007 509.385L456.771 509.115C456.855 509.487 457.077 509.787 457.437 510.015C457.797 510.243 458.253 510.357 458.805 510.357C459.321 510.357 459.741 510.255 460.065 510.051C460.401 509.847 460.569 509.571 460.569 509.223C460.569 508.779 460.191 508.419 459.435 508.143L457.347 507.441C456.615 507.189 456.081 506.865 455.745 506.469C455.421 506.073 455.259 505.569 455.259 504.957C455.259 504.057 455.577 503.367 456.213 502.887C456.849 502.407 457.695 502.167 458.751 502.167C459.699 502.167 460.479 502.383 461.091 502.815C461.703 503.235 462.075 503.811 462.207 504.543Z" fill="#09265A"/>
<path d="M526.729 139.164C524.176 141.205 520.395 139.645 517.217 140.359C514.393 140.994 512.073 143.445 509.179 143.481C507.756 143.498 506.4 142.916 505.094 142.342C504.027 141.872 502.886 141.332 502.33 140.297C501.856 139.414 501.911 138.349 501.98 137.346C502.063 136.119 502.145 134.892 502.228 133.664C502.337 132.07 502.491 130.357 503.507 129.133C504.564 127.861 506.329 127.425 507.97 127.429C509.612 127.432 511.238 127.799 512.882 127.806C513.871 127.81 514.858 127.682 515.847 127.685C518.65 127.694 521.333 128.731 523.943 129.755C525.509 130.368 530.274 131.622 530.777 133.477C531.147 134.845 527.772 138.332 526.729 139.164Z" fill="#4B4143"/>
<path d="M522.252 54.6038C524.854 57.5598 527.667 60.539 531.337 61.9744C534.998 63.4009 539.744 62.8247 542.041 59.627C542.786 58.487 543.338 57.2331 543.678 55.9147C543.959 54.9624 544.222 54.0109 544.457 53.052C545.352 49.472 545.936 45.8211 546.202 42.1404C546.268 41.5453 546.247 40.9438 546.139 40.3548C545.618 38.179 543.101 37.2744 541.364 35.8701C539.354 34.2404 538.294 31.7603 537.009 29.5141C535.99 27.7429 534.468 25.6219 532.466 24.8657C531.856 24.631 531.2 24.54 530.549 24.5999C528.298 24.8031 528.804 26.347 528.438 28.3441C528.11 30.1222 527.651 31.8738 527.067 33.5849C526.734 34.7615 526.155 35.8539 525.368 36.7901C522.906 39.4112 518.489 38.6392 515.388 40.4638C515.13 45.8373 518.707 50.564 522.252 54.6038" fill="#E2B488"/>
<path d="M557.135 39.2246C564.079 42.1193 567.796 49.5797 570.929 56.4542C571.061 56.6861 571.126 56.9496 571.118 57.2161C571.029 57.5542 570.82 57.8486 570.531 58.0449C567.874 60.3364 565.218 62.6279 562.561 64.9194C561.693 65.6003 560.925 66.4013 560.282 67.2983C559.775 68.1419 559.398 69.0571 559.165 70.0131C557.576 75.7213 557.713 81.7722 559.559 87.4025C561.162 92.2558 563.978 96.5977 566.765 100.875L568.637 103.751C560.373 104.914 552.092 106.081 543.98 108.054C541.37 108.688 538.739 109.412 536.055 109.368C533.428 109.324 530.868 108.55 528.379 107.701C524.578 106.407 520.842 104.929 517.109 103.451C516.732 103.337 516.391 103.129 516.117 102.847C515.733 102.375 515.775 101.699 515.821 101.091C516.171 96.4873 515.578 91.7483 513.619 87.5715C512.083 84.295 509.66 81.0377 510.222 77.4568C511.846 76.9677 513.582 77.642 515.275 77.5606C516.967 77.4792 518.87 75.8236 518.05 74.3313C512.987 74.7645 507.9 74.8486 502.826 74.5831C502.905 68.9716 502.7 63.3597 502.211 57.7691C501.914 54.3761 501.541 50.7939 502.968 47.7047C505.128 43.0301 510.587 41.0531 515.546 39.7474C516.965 46.43 520.526 52.467 525.688 56.9415C527.785 58.7473 530.19 60.296 532.889 60.8823C535.588 61.4686 538.62 60.9642 540.66 59.0932C542.995 56.9516 543.625 53.5323 543.82 50.3608C543.98 47.7827 542.336 39.4457 544.21 38.0813C545.349 37.2516 549.462 37.791 550.875 37.8817C553.022 37.9789 555.138 38.4326 557.136 39.2242" fill="#2A8199"/>
<path d="M556.143 103.012C551.432 103.765 546.844 105.184 542.126 105.895C532.896 107.265 523.467 105.905 515.001 101.982C512.538 100.834 510.068 99.4473 507.353 99.3387C506.825 99.2756 506.292 99.3927 505.839 99.671C505.495 99.9672 505.242 100.354 505.109 100.788C503.839 104.081 504.433 107.892 506.089 111.009C507.745 114.126 510.364 116.627 513.182 118.75C516.82 121.49 520.838 123.684 525.109 125.264C530.27 127.17 535.719 128.148 541.135 129.117C542.459 129.355 543.824 129.591 545.139 129.305C545.975 129.086 546.781 128.762 547.536 128.342C552.659 125.771 557.844 123.16 562.166 119.39C565.262 116.69 570.928 110.675 570.034 106.047C569.055 100.979 559.588 102.459 556.143 103.012Z" fill="#DB726F"/>
<path d="M545.22 129.355C545.819 129.814 546.498 130.156 547.223 130.362C547.973 130.477 548.738 130.442 549.475 130.261C550.406 130.089 551.337 129.909 552.269 129.722C563.793 127.364 574.96 123.515 585.489 118.271C587.166 117.436 588.858 116.537 590.139 115.162C592.265 112.866 592.95 109.429 592.282 106.359C591.608 103.297 589.719 100.594 587.367 98.533C586.743 97.9443 586.017 97.4732 585.225 97.1423C584.021 96.697 582.686 96.8139 581.413 96.9387C578.898 97.1804 576.313 97.4462 574.085 98.6332C572.694 99.4642 571.403 100.45 570.234 101.571C564.535 107.304 557.105 111.999 550.181 116.068C548.24 117.209 545.857 118.154 543.621 119.224C542.085 119.909 540.636 120.774 539.305 121.802C535.579 124.856 542.962 127.84 545.22 129.355" fill="#EABD92"/>
<path d="M545.143 129.373C545.744 129.825 546.425 130.161 547.15 130.364C547.902 130.477 548.668 130.443 549.407 130.264C550.341 130.095 551.275 129.918 552.209 129.734C549.04 127.109 546.335 123.97 544.209 120.447C543.99 120.093 543.771 119.74 543.539 119.402C541.944 120.146 538.903 121.828 537.681 122.812C533.945 125.818 542.878 127.882 545.143 129.373Z" fill="#EABD92"/>
<path d="M567.573 45.7019L562.838 45.1628C562.52 45.127 562.199 45.1792 561.909 45.3136C561.619 45.4481 561.371 45.6596 561.193 45.9252L550.028 62.4559C549.86 62.7021 549.757 62.9863 549.728 63.2826C549.699 63.579 549.745 63.8778 549.861 64.1518C549.978 64.4258 550.161 64.6661 550.395 64.8508C550.628 65.0355 550.905 65.1586 551.198 65.2088L557.311 66.2001C557.662 66.2564 558.022 66.2044 558.342 66.0509C558.663 65.8974 558.93 65.6498 559.106 65.341L568.893 48.3597C569.04 48.1055 569.123 47.8187 569.132 47.5249C569.142 47.2311 569.079 46.9395 568.948 46.6761C568.817 46.4128 568.623 46.186 568.384 46.016C568.144 45.8459 567.866 45.738 567.574 45.7019" fill="#0B3A47"/>
<path d="M553.082 141.977C552.362 142.053 516.44 127.849 501.335 120.503C498.506 119.128 495.629 117.719 493.35 115.54C491.702 113.878 490.314 111.977 489.234 109.901C487.179 106.186 485.767 101.16 488.567 97.9813C490.424 95.8738 493.462 95.4232 496.235 95.104C499.037 94.7818 502.009 94.4845 504.568 95.6877C506.087 96.4027 507.331 97.5937 508.552 98.7528C516.552 106.322 525.026 112.902 533.904 119.395C538.343 122.64 539.539 125.424 544.172 128.381C545.248 129.067 548.726 131.667 551.508 133.43C552.306 133.937 553.949 134.003 554.726 134.468C556.371 135.452 557.525 141.509 553.082 141.977Z" fill="#EABD92"/>
<path d="M566.095 130.494C567.169 130.353 568.261 130.43 569.305 130.72C570.081 130.988 570.767 131.475 571.538 131.761C573.23 132.39 575.122 131.988 576.902 132.272C581.2 132.96 583.958 137.623 584.063 142.009C584.114 144.17 583.462 146.633 581.54 147.594C580.204 148.263 578.584 148.018 577.201 147.455C575.818 146.892 574.569 146.034 573.192 145.454C568.383 143.427 562.934 145.014 557.735 145.426C556.407 145.532 554.989 145.536 553.848 144.844C553.55 144.684 553.294 144.458 553.097 144.183C552.901 143.908 552.77 143.592 552.715 143.258C552.551 141.551 554.904 140.83 555.751 139.342C557.163 136.861 553.091 133.352 555.554 131.974C558.151 130.52 563.174 130.701 566.095 130.494Z" fill="#4B4143"/>
<path d="M551.222 62.0583C551.128 62.6713 551.87 63.0269 552.463 63.1845C554.492 63.6964 556.522 64.2157 558.55 64.7276C559.016 64.7995 559.449 65.0135 559.79 65.3406C560.259 65.8918 560.097 66.7264 559.915 67.427C559.861 67.6407 559.806 67.8526 559.752 68.0654C558.73 71.9557 557.713 75.8412 556.7 79.7218C556.255 81.4295 555.802 83.1783 555.896 84.9429C556.06 88.1323 557.941 90.9285 559.76 93.5352C560.04 94.0359 560.461 94.444 560.97 94.7095L561.11 94.7559C562.124 95.0554 563.163 94.1893 563.904 93.3863C566.34 90.7337 568.681 87.5828 568.695 83.9761C568.702 81.2749 567.407 78.7782 566.619 76.2027C565.685 73.149 565.446 69.9252 565.918 66.7671C566.112 65.2695 566.522 63.808 567.136 62.4283C567.612 61.3731 568.439 61.2023 567.8 59.7271C567.402 58.8212 566.754 57.8999 566.972 56.9392C567.183 55.9856 568.135 55.4264 568.68 54.6229C568.891 54.2781 569.031 53.8948 569.092 53.4953C569.153 53.0958 569.134 52.6881 569.036 52.2961C568.938 51.904 568.763 51.5353 568.521 51.2115C568.28 50.8878 567.976 50.6154 567.627 50.4102C567.376 50.2542 567.086 50.1709 566.79 50.1695C566.494 50.168 566.203 50.2484 565.95 50.4019C564.755 51.3065 566.27 53.3395 565.653 54.7101C565.318 55.4431 564.427 55.7732 563.631 55.7263C562.842 55.6155 562.071 55.3981 561.339 55.0801C559.858 54.5807 558.293 54.3748 556.732 54.4736C556.179 54.513 555.546 54.6391 555.288 55.1431C554.781 56.1196 556.232 56.9462 557.333 56.9546C558.427 56.9624 559.9 57.0807 560.073 58.167C558.057 57.6862 555.974 57.5529 553.913 57.7729C553.703 57.7967 553.503 57.8808 553.339 58.0151C553.174 58.1494 553.052 58.3282 552.987 58.5302C552.921 58.7321 552.916 58.9486 552.97 59.1537C553.025 59.3589 553.137 59.544 553.294 59.6868C553.892 60.163 554.57 60.528 555.297 60.7644C554.337 60.9299 553.385 61.1033 552.424 61.2684C551.917 61.356 551.308 61.5517 551.222 62.0566" fill="#EABD92"/>
<path d="M507.412 75.0125C508.517 80.2564 510.811 85.4206 512.552 90.4823C513.276 92.5718 514.085 94.7086 515.461 96.4198C515.641 96.6479 515.834 96.8695 516.036 97.0818C517.762 98.8771 520.492 99.928 522.787 98.9743C523.736 98.518 524.603 97.9075 525.353 97.1677C529.669 93.3521 534 89.5203 537.757 85.1264C539.001 83.6678 540.191 82.1462 541.489 80.7267C542.922 79.1743 544.495 77.757 546.187 76.4925C549.179 74.2519 552.518 72.5159 556.071 71.3533C557.572 70.8651 559.29 70.3462 559.625 68.5072C559.729 67.8502 559.641 67.1772 559.372 66.569C559.103 65.9608 558.664 65.4431 558.108 65.0782C556.263 63.8172 554.131 63.3749 551.978 63.3325C551.729 63.326 551.486 63.2507 551.277 63.1148C551.068 62.979 550.901 62.7879 550.794 62.5629C550.687 62.3378 550.644 62.0874 550.671 61.8396C550.697 61.5918 550.792 61.3562 550.944 61.1589C552.508 59.1167 554.779 57.4331 555.612 55.1698C555.666 55.0331 555.677 54.8828 555.643 54.7396C555.609 54.5964 555.532 54.4671 555.422 54.3694C555.312 54.2717 555.174 54.2104 555.028 54.1938C554.881 54.1772 554.734 54.2061 554.604 54.2765C553.608 54.8814 552.686 55.6016 551.858 56.4221C542.307 65.3869 535.597 77.7899 524.064 83.9078C523.636 84.1951 523.121 84.3209 522.609 84.2629C521.949 84.1127 521.576 83.4112 521.296 82.7886C520.424 80.8961 519.133 76.5039 518.278 74.636C518.013 74.0444 507.251 75.1794 507.413 75.0143" fill="#EABD92"/>
<path d="M556.729 11.5747C558.366 13.725 559.099 16.4286 558.774 19.1112C558.544 20.9375 557.828 22.6702 557.52 24.4851C557.212 26.3001 557.399 28.3616 558.696 29.666C559.315 30.2882 560.129 30.6796 560.776 31.2725C561.524 31.9976 562.002 32.9571 562.129 33.9913C562.257 35.0255 562.026 36.0722 561.476 36.9573C560.569 38.3278 558.913 39.1821 558.355 40.7273C558.03 41.6328 558.141 42.6373 557.919 43.5734C557.338 46.043 554.612 47.4267 552.088 47.6294C548.793 47.896 545.107 46.3696 543.94 43.2726C542.904 40.5211 544.056 37.3089 543.027 34.5552C542.557 33.2954 541.664 32.238 541.097 31.0181C540.32 29.3463 540.192 27.4438 540.289 25.6017C540.527 21.2434 541.949 17.0324 544.401 13.4216C544.769 12.9464 545.067 12.4201 545.284 11.8593C545.465 11.29 545.457 10.674 545.61 10.0969C547.046 4.70543 554.805 9.07051 556.729 11.5733" fill="#1C2528"/>
<path d="M551.439 27.7613C551.272 28.5238 551.003 29.2603 550.638 29.9506C549.744 31.5011 548.042 32.443 547.065 33.9431C545.947 35.6617 545.661 38.1904 543.745 38.9435C541.845 39.6879 539.905 38.0678 538.511 36.579C537.139 35.1174 535.767 33.6561 534.395 32.1951C532.965 30.6727 531.457 28.9759 531.315 26.897C531.284 26.4398 531.303 25.9306 530.994 25.5921C530.608 25.1722 529.943 25.2444 529.384 25.117C528.392 24.8902 527.695 23.951 527.454 22.9689C527.274 21.9715 527.281 20.9495 527.474 19.9546C527.649 18.6309 528.28 16.918 529.616 17.0555C530.619 17.1593 531.171 18.317 532.114 18.6756C533.451 19.1822 534.781 17.894 535.444 16.6325C536.107 15.371 536.692 13.8551 538.039 13.3735C538.608 13.2167 539.198 13.1512 539.787 13.1795C542.074 13.1265 544.329 12.5577 546.617 12.5415C549.188 12.5236 552.551 13.3967 553.047 16.1684C553.669 19.6415 552.303 24.4077 551.439 27.7609" fill="#EABD92"/>
<path d="M554.695 13.4111C554.635 15.0312 553.495 16.7362 551.898 16.808C550.409 16.875 549.236 15.6009 547.891 14.9471C546.577 14.3087 545.062 14.2667 543.605 14.3258C540.959 14.4335 538.044 14.9966 536.436 17.1325C535.482 18.3997 534.772 20.3136 533.196 20.3206C532.314 20.3241 531.589 19.6691 530.866 19.1576C530.142 18.6462 529.135 18.26 528.42 18.7824C527.807 19.2316 527.734 20.1139 527.72 20.8811C527.695 22.0283 527.697 23.267 528.359 24.1979C528.801 24.8184 529.546 25.367 529.457 26.1276C529.38 26.7844 529.609 27.6925 529.186 28.1961C528.467 29.0499 528.266 30.4804 528.287 31.6044C528.313 32.9224 527.63 33.5205 527.655 34.8385C527.682 36.2646 527.487 38.0445 526.169 38.5376C525.914 38.6041 525.663 38.6866 525.418 38.7845C524.826 39.091 524.622 39.8301 524.469 40.4856C524.045 42.312 523.393 44.3292 521.741 45.1738C520.988 45.5126 520.168 45.6758 519.343 45.6511C516.748 45.6949 514.017 44.9983 512.185 43.1312C510.354 41.2641 509.733 38.0616 511.261 35.9301C511.848 35.1113 512.69 34.5035 513.256 33.6689C514.382 32.0081 514.219 29.7894 513.802 27.8177C513.384 25.846 512.758 23.838 513.111 21.8544C513.264 21.0157 513.588 20.2176 514.064 19.5104C514.541 18.8032 515.158 18.2022 515.877 17.7451C516.992 17.0506 518.351 16.7078 519.237 15.7309C520.524 14.3157 520.36 12.1461 520.403 10.2212C520.455 7.81297 521.267 5.02727 523.495 4.19664C525.414 3.48073 527.581 4.53599 529.578 4.09243C531.326 3.70448 532.621 2.25865 534.143 1.30279C535.712 0.354557 537.533 -0.0940622 539.364 0.0164362C541.194 0.126935 542.948 0.791329 544.392 1.92149C545.454 2.78058 546.331 3.89189 547.525 4.54431C548.583 5.12273 549.814 5.29831 550.897 5.82769C553.166 6.93812 554.783 11.0111 554.695 13.4111Z" fill="#1C2528"/>
<defs>
<filter id="filter0_d" x="0" y="44" width="710" height="660" filterUnits="userSpaceOnUse" color-interpolation-filters="sRGB">
<feFlood flood-opacity="0" result="BackgroundImageFix"/>
<feColorMatrix in="SourceAlpha" type="matrix" values="0 0 0 0 0 0 0 0 0 0 0 0 0 0 0 0 0 0 127 0"/>
<feOffset dy="50"/>
<feGaussianBlur stdDeviation="42"/>
<feColorMatrix type="matrix" values="0 0 0 0 0.435294 0 0 0 0 0.462745 0 0 0 0 0.541176 0 0 0 0.1 0"/>
<feBlend mode="normal" in2="BackgroundImageFix" result="effect1_dropShadow"/>
<feBlend mode="normal" in="SourceGraphic" in2="effect1_dropShadow" result="shape"/>
</filter>
<filter id="filter1_d" x="284" y="398" width="452" height="377" filterUnits="userSpaceOnUse" color-interpolation-filters="sRGB">
<feFlood flood-opacity="0" result="BackgroundImageFix"/>
<feColorMatrix in="SourceAlpha" type="matrix" values="0 0 0 0 0 0 0 0 0 0 0 0 0 0 0 0 0 0 127 0"/>
<feOffset dy="50"/>
<feGaussianBlur stdDeviation="42"/>
<feColorMatrix type="matrix" values="0 0 0 0 0.435294 0 0 0 0 0.462745 0 0 0 0 0.541176 0 0 0 0.1 0"/>
<feBlend mode="normal" in2="BackgroundImageFix" result="effect1_dropShadow"/>
<feBlend mode="normal" in="SourceGraphic" in2="effect1_dropShadow" result="shape"/>
</filter>
</defs>
</svg>
