<svg width="101" height="16" viewBox="0 0 101 16" fill="none" xmlns="http://www.w3.org/2000/svg">
<path d="M16.9557 6.04621C16.8444 5.70813 16.539 5.46802 16.1778 5.43605L11.2712 4.99849L9.33094 0.538446C9.18788 0.211582 8.86207 0 8.50007 0C8.13807 0 7.81225 0.211582 7.66919 0.53921L5.72897 4.99849L0.821535 5.43605C0.460961 5.46878 0.156419 5.70813 0.0444859 6.04621C-0.0674476 6.38428 0.0359255 6.75509 0.30869 6.98884L4.01754 10.1833L2.92389 14.9147C2.84386 15.2626 2.98135 15.6222 3.27525 15.8308C3.43323 15.9429 3.61806 16 3.80444 16C3.96514 16 4.12455 15.9575 4.26761 15.8734L8.50007 13.389L12.731 15.8734C13.0406 16.0563 13.4308 16.0396 13.7241 15.8308C14.0181 15.6215 14.1555 15.2618 14.0755 14.9147L12.9818 10.1833L16.6907 6.98947C16.9634 6.75509 17.0676 6.38492 16.9557 6.04621Z" fill="url(#paint0_linear)"/>
<path d="M37.9557 6.04621C37.8444 5.70813 37.539 5.46802 37.1778 5.43605L32.2712 4.99849L30.3309 0.538446C30.1879 0.211582 29.8621 0 29.5001 0C29.1381 0 28.8123 0.211582 28.6692 0.53921L26.729 4.99849L21.8215 5.43605C21.461 5.46878 21.1564 5.70813 21.0445 6.04621C20.9326 6.38428 21.0359 6.75509 21.3087 6.98884L25.0175 10.1833L23.9239 14.9147C23.8439 15.2626 23.9813 15.6222 24.2753 15.8308C24.4332 15.9429 24.6181 16 24.8044 16C24.9651 16 25.1245 15.9575 25.2676 15.8734L29.5001 13.389L33.731 15.8734C34.0406 16.0563 34.4308 16.0396 34.7241 15.8308C35.0181 15.6215 35.1555 15.2618 35.0755 14.9147L33.9818 10.1833L37.6907 6.98947C37.9634 6.75509 38.0676 6.38492 37.9557 6.04621Z" fill="url(#paint1_linear)"/>
<path d="M58.9557 6.04621C58.8444 5.70813 58.539 5.46802 58.1778 5.43605L53.2712 4.99849L51.3309 0.538446C51.1879 0.211582 50.8621 0 50.5001 0C50.1381 0 49.8123 0.211582 49.6692 0.53921L47.729 4.99849L42.8215 5.43605C42.461 5.46878 42.1564 5.70813 42.0445 6.04621C41.9326 6.38428 42.0359 6.75509 42.3087 6.98884L46.0175 10.1833L44.9239 14.9147C44.8439 15.2626 44.9813 15.6222 45.2753 15.8308C45.4332 15.9429 45.6181 16 45.8044 16C45.9651 16 46.1245 15.9575 46.2676 15.8734L50.5001 13.389L54.731 15.8734C55.0406 16.0563 55.4308 16.0396 55.7241 15.8308C56.0181 15.6215 56.1555 15.2618 56.0755 14.9147L54.9818 10.1833L58.6907 6.98947C58.9634 6.75509 59.0676 6.38492 58.9557 6.04621Z" fill="url(#paint2_linear)"/>
<path d="M79.9557 6.04621C79.8444 5.70813 79.539 5.46802 79.1778 5.43605L74.2712 4.99849L72.3309 0.538446C72.1879 0.211582 71.8621 0 71.5001 0C71.1381 0 70.8123 0.211582 70.6692 0.53921L68.729 4.99849L63.8215 5.43605C63.461 5.46878 63.1564 5.70813 63.0445 6.04621C62.9326 6.38428 63.0359 6.75509 63.3087 6.98884L67.0175 10.1833L65.9239 14.9147C65.8439 15.2626 65.9813 15.6222 66.2753 15.8308C66.4332 15.9429 66.6181 16 66.8044 16C66.9651 16 67.1245 15.9575 67.2676 15.8734L71.5001 13.389L75.731 15.8734C76.0406 16.0563 76.4308 16.0396 76.7241 15.8308C77.0181 15.6215 77.1555 15.2618 77.0755 14.9147L75.9818 10.1833L79.6907 6.98947C79.9634 6.75509 80.0676 6.38492 79.9557 6.04621Z" fill="url(#paint3_linear)"/>
<path d="M100.956 6.04621C100.844 5.70813 100.539 5.46802 100.178 5.43605L95.2712 4.99849L93.3309 0.538446C93.1879 0.211582 92.8621 0 92.5001 0C92.1381 0 91.8123 0.211582 91.6692 0.53921L89.729 4.99849L84.8215 5.43605C84.461 5.46878 84.1564 5.70813 84.0445 6.04621C83.9326 6.38428 84.0359 6.75509 84.3087 6.98884L88.0175 10.1833L86.9239 14.9147C86.8439 15.2626 86.9813 15.6222 87.2753 15.8308C87.4332 15.9429 87.6181 16 87.8044 16C87.9651 16 88.1245 15.9575 88.2676 15.8734L92.5001 13.389L96.731 15.8734C97.0406 16.0563 97.4308 16.0396 97.7241 15.8308C98.0181 15.6215 98.1555 15.2618 98.0755 14.9147L96.9818 10.1833L100.691 6.98947C100.963 6.75509 101.068 6.38492 100.956 6.04621Z" fill="url(#paint4_linear)"/>
<defs>
<linearGradient id="paint0_linear" x1="19.5342" y1="20.2718" x2="5.85741" y2="-4.11417" gradientUnits="userSpaceOnUse">
<stop stop-color="#FFDE77"/>
<stop offset="1" stop-color="#FE990D"/>
</linearGradient>
<linearGradient id="paint1_linear" x1="40.5342" y1="20.2718" x2="26.8574" y2="-4.11417" gradientUnits="userSpaceOnUse">
<stop stop-color="#FFDE77"/>
<stop offset="1" stop-color="#FE990D"/>
</linearGradient>
<linearGradient id="paint2_linear" x1="61.5342" y1="20.2718" x2="47.8574" y2="-4.11417" gradientUnits="userSpaceOnUse">
<stop stop-color="#FFDE77"/>
<stop offset="1" stop-color="#FE990D"/>
</linearGradient>
<linearGradient id="paint3_linear" x1="82.5342" y1="20.2718" x2="68.8574" y2="-4.11417" gradientUnits="userSpaceOnUse">
<stop stop-color="#FFDE77"/>
<stop offset="1" stop-color="#FE990D"/>
</linearGradient>
<linearGradient id="paint4_linear" x1="103.534" y1="20.2718" x2="89.8574" y2="-4.11417" gradientUnits="userSpaceOnUse">
<stop stop-color="#FFDE77"/>
<stop offset="1" stop-color="#FE990D"/>
</linearGradient>
</defs>
</svg>
