<svg width="134" height="170" viewBox="0 0 134 170" fill="none" xmlns="http://www.w3.org/2000/svg">
<path d="M60.1187 134.076C83.75 134.076 102.907 114.919 102.907 91.2876C102.907 67.6562 83.75 48.4993 60.1187 48.4993C36.4874 48.4993 17.3304 67.6562 17.3304 91.2876C17.3304 114.919 36.4874 134.076 60.1187 134.076Z" fill="white"/>
<path d="M130.032 67.6024H124.319C123.104 67.6024 122.122 66.6128 122.122 65.3982V47.4266V32.5366C122.122 30.8796 120.78 29.5376 119.123 29.5376H113.845C113.838 29.5001 113.83 29.4701 113.815 29.4326H95.926C94.8239 29.4326 93.8642 29.9875 93.3019 30.8347C92.972 31.3145 92.7696 31.8993 92.7696 32.5366V32.5966V65.4057C92.7696 66.6203 91.7799 67.6099 90.5653 67.6099H84.8522C82.1755 67.6099 80.8185 70.8264 82.6704 72.7457L105.26 96.1605C106.452 97.3901 108.439 97.3901 109.624 96.1605L132.214 72.7457C134.081 70.8114 132.709 67.6024 130.032 67.6024Z" fill="#00C092"/>
<path d="M101.286 100.967C97.7098 116.225 85.7812 128.903 69.4817 132.644C59.9973 134.819 50.5205 133.626 42.3182 129.855C37.3474 127.568 32.8338 124.33 29.0701 120.318" stroke="#1F1927" stroke-miterlimit="10" stroke-linecap="round"/>
<path d="M18.4917 82.7332C21.7606 67.0184 33.8541 53.8452 50.5285 50.0215C64.0316 46.925 77.5047 50.6513 87.3414 58.9361" stroke="#1F1927" stroke-miterlimit="10" stroke-linecap="round"/>
<path d="M27.3758 83.4976C30.2623 71.5166 39.6717 61.5749 52.5 58.6284" stroke="#1F1927" stroke-miterlimit="10" stroke-linecap="round"/>
<path d="M87.9333 110.414C83.3298 117.904 76.0272 123.145 67.795 125.289" stroke="#1F1927" stroke-miterlimit="10" stroke-linecap="round"/>
<path d="M67.7949 110.301L61.407 111.764L60.3648 107.228C58.0406 107.452 55.7015 107.183 53.962 106.455L52.6575 105.915L53.4822 98.9803L55.7164 99.8275C57.4184 100.472 59.5252 100.607 61.3471 100.187C63.3939 99.715 64.496 98.4479 64.1511 96.9559C63.9337 96.0038 63.3789 94.9391 59.5551 94.3243C55.0716 93.657 50.3108 92.2625 49.1037 87.0067C48.174 82.9431 49.9733 79.1643 53.7446 77.0275L52.65 72.2516L58.9928 70.7971L59.9975 75.1757C61.8194 75.0182 63.5138 75.1981 65.1408 75.708L66.6403 76.1803L65.6957 83.0331L63.6038 82.4032C62.8016 82.1633 61.1446 81.661 58.7229 82.2158C56.9685 82.6207 56.0838 83.5804 56.3612 84.795C56.5711 85.7097 57.036 86.3694 61.407 87.1042C65.4182 87.7565 70.1942 89.241 71.5062 94.9541C72.4659 99.1452 70.539 103.171 66.6478 105.391L67.7949 110.301Z" fill="#1F1927"/>
<path d="M16.6478 123.557L20.8239 121.428C22.7058 120.468 22.091 117.634 19.9842 117.544L15.2982 117.341C14.556 117.311 13.8962 116.884 13.5588 116.224L11.4296 112.048C10.4699 110.166 7.63579 110.781 7.54582 112.888L7.34337 117.574C7.31338 118.316 6.88603 118.976 6.22625 119.313L2.05018 121.443C0.168301 122.402 0.783094 125.236 2.88989 125.326L7.57584 125.529C8.31809 125.559 8.97783 125.986 9.31522 126.646L11.4445 130.822C12.4042 132.704 15.2383 132.089 15.3282 129.982L15.5307 125.296C15.5607 124.562 15.988 123.894 16.6478 123.557Z" fill="#FFC13B"/>
<path d="M15.5307 125.296C15.5607 124.554 15.988 123.894 16.6478 123.557L20.8239 121.428C22.7058 120.468 22.091 117.634 19.9842 117.544L15.2982 117.341C14.556 117.311 13.8962 116.884 13.5588 116.224L11.4296 112.048C10.4699 110.166 7.63579 110.781 7.54582 112.888L7.34337 117.574C7.31338 118.316 6.88603 118.976 6.22625 119.313L2.05018 121.443C0.168301 122.402 0.783094 125.236 2.88989 125.326L7.57584 125.529C8.31809 125.559 8.97783 125.986 9.31522 126.646L11.4445 130.822C12.4042 132.704 15.2383 132.089 15.3282 129.982" stroke="#1F1927" stroke-miterlimit="10" stroke-linecap="round"/>
<path d="M93.1897 12.2337L96.811 11.8888C98.4455 11.7313 98.8053 9.51208 97.3058 8.84481L93.9845 7.36779C93.4596 7.13537 93.0998 6.63305 93.0473 6.06324L92.7023 2.44193C92.5449 0.814966 90.3257 0.447608 89.6584 1.94711L88.1814 5.2685C87.949 5.79333 87.4467 6.15321 86.8768 6.20569L83.2555 6.55057C81.6285 6.70802 81.2611 8.92728 82.7606 9.59456L86.0821 11.0716C86.6069 11.304 86.9668 11.8063 87.0193 12.3761L87.3641 15.9974C87.5216 17.6244 89.7409 17.9918 90.4081 16.4923L91.8851 13.1709C92.1176 12.6461 92.6199 12.2862 93.1897 12.2337Z" fill="white"/>
<path d="M93.1897 12.2337L96.811 11.8888C98.4455 11.7313 98.8053 9.51208 97.3058 8.84481L93.9845 7.3678C93.4596 7.13537 93.0998 6.63305 93.0473 6.06324L92.7023 2.44193C92.5449 0.814966 90.3257 0.447608 89.6584 1.94711L88.1814 5.2685C87.949 5.79333 87.4467 6.15321 86.8768 6.20569L83.2555 6.55057C81.6285 6.70802 81.2611 8.92728 82.7606 9.59456L86.0821 11.0716C86.6069 11.304 86.9668 11.8063 87.0193 12.3761L87.3641 15.9974C87.5216 17.6244 89.7409 17.9918 90.4081 16.4923L91.8851 13.1709C92.1176 12.6461 92.6199 12.2862 93.1897 12.2337Z" stroke="#1F1927" stroke-miterlimit="10"/>
<path d="M1.51831 168.774H119.372" stroke="#1F1927" stroke-miterlimit="10"/>
<path d="M122.123 40.4989V32.5366C122.123 30.8796 120.781 29.5376 119.124 29.5376H113.846C113.838 29.5001 113.831 29.4701 113.816 29.4326H95.9267C94.8245 29.4326 93.8648 29.9875 93.3025 30.8347C92.9726 31.3145 92.7702 31.8993 92.7702 32.5366V32.5966V65.4057C92.7702 66.6203 91.7805 67.6099 90.5659 67.6099" stroke="#1F1927" stroke-miterlimit="10" stroke-linecap="round"/>
<path d="M105.261 96.1606C106.453 97.3901 108.44 97.3901 109.624 96.1606L132.214 72.7458C134.074 70.8189 132.702 67.61 130.033 67.61H124.32C123.105 67.61 122.123 66.6204 122.123 65.4058V53.5747" stroke="#1F1927" stroke-miterlimit="10" stroke-linecap="round"/>
<path d="M58.2211 32.1543V2.72656" stroke="#1F1927" stroke-miterlimit="10" stroke-linecap="round"/>
<path d="M73.4637 38.2422V20.623" stroke="#1F1927" stroke-miterlimit="10" stroke-linecap="round"/>
<path d="M6.99805 87.479V65.8337" stroke="#1F1927" stroke-miterlimit="10" stroke-linecap="round"/>
<path d="M16.2659 51.0936V36.376" stroke="#1F1927" stroke-miterlimit="10" stroke-linecap="round"/>
</svg>
