<svg width="166" height="173" viewBox="0 0 166 173" fill="none" xmlns="http://www.w3.org/2000/svg">
<path d="M119.607 14.7273H42.1973C39.0453 14.7273 36.4919 17.2807 36.4919 20.4328V102.848H30.7V114.85C30.7 118.045 33.2965 120.635 36.4919 120.635H119.527C122.723 120.635 125.312 118.045 125.312 114.85V20.4328C125.312 17.2807 122.759 14.7273 119.607 14.7273Z" fill="white"/>
<path d="M37.9409 171.811H124.814" stroke="#1F1927" stroke-miterlimit="10" stroke-linecap="round"/>
<path d="M15.6823 12.239L19.4114 9.90923C21.092 8.85614 20.2841 6.25948 18.3006 6.34604L13.9079 6.5408C13.2155 6.56965 12.5591 6.22343 12.184 5.63918L9.85422 1.9101C8.80113 0.229488 6.20447 1.03732 6.29103 3.02088L6.48575 7.41358C6.5146 8.10603 6.16838 8.76237 5.58413 9.13744L1.85505 11.4673C0.174435 12.5203 0.982269 15.117 2.96583 15.0304L7.35853 14.8357C8.05097 14.8068 8.70736 15.1531 9.08243 15.7373L11.4122 19.4664C12.4653 21.147 15.062 20.3392 14.9754 18.3556L14.7806 13.9629C14.7518 13.2632 15.0908 12.6069 15.6823 12.239Z" fill="#FFC13B"/>
<path d="M14.7806 13.9629C14.7518 13.2705 15.098 12.6141 15.6823 12.239L19.4114 9.90923C21.092 8.85614 20.2841 6.25948 18.3006 6.34604L13.9079 6.5408C13.2155 6.56965 12.5591 6.22343 12.184 5.63918L9.85422 1.9101C8.80113 0.229488 6.20447 1.03732 6.29103 3.02088L6.48575 7.41358C6.5146 8.10603 6.16838 8.76237 5.58413 9.13744L1.85505 11.4673C0.174435 12.5203 0.982269 15.117 2.96583 15.0304L7.35853 14.8357C8.05097 14.8068 8.70736 15.1531 9.08243 15.7373L11.4122 19.4664C12.4653 21.147 15.062 20.3392 14.9754 18.3556" stroke="#1F1927" stroke-miterlimit="10" stroke-linecap="round"/>
<path d="M159.205 108.135L163.403 107.688C165.293 107.486 165.682 104.904 163.937 104.154L160.064 102.481C159.45 102.214 159.032 101.644 158.96 100.98L158.513 96.7823C158.311 94.8925 155.729 94.503 154.978 96.2486L153.305 100.122C153.038 100.735 152.468 101.153 151.805 101.226L147.607 101.673C145.717 101.875 145.327 104.457 147.073 105.207L150.946 106.88C151.559 107.147 151.978 107.717 152.05 108.381L152.497 112.579C152.699 114.468 155.281 114.858 156.032 113.112L157.705 109.239C157.965 108.626 158.542 108.208 159.205 108.135Z" fill="white"/>
<path d="M159.033 101.031L158.636 96.8476C158.456 94.9651 155.895 94.5467 155.123 96.2706L153.414 100.108C153.147 100.714 152.57 101.125 151.906 101.19L147.723 101.587C145.84 101.767 145.422 104.327 147.146 105.099" stroke="#1F1927" stroke-miterlimit="10" stroke-linecap="round"/>
<path d="M150.983 106.823C151.588 107.09 152 107.667 152.064 108.331L152.461 112.514C152.641 114.397 155.209 114.815 155.974 113.091L157.683 109.254C157.95 108.648 158.527 108.237 159.191 108.172L163.374 107.775C165.257 107.595 165.675 105.034 163.951 104.263L160.114 102.553" stroke="#1F1927" stroke-miterlimit="10" stroke-linecap="round"/>
<path d="M16.2528 99.1912V137.982" stroke="#1F1927" stroke-miterlimit="10" stroke-linecap="round"/>
<path d="M34.3851 131.144V148.96" stroke="#1F1927" stroke-miterlimit="10" stroke-linecap="round"/>
<path d="M135.352 124.574V137.716" stroke="#1F1927" stroke-miterlimit="10" stroke-linecap="round"/>
<path d="M121.056 131.988V137.715" stroke="#1F1927" stroke-miterlimit="10" stroke-linecap="round"/>
<path d="M119.527 120.635H36.4919C33.2965 120.635 30.7 118.046 30.7 114.851V102.848H113.735V114.851C113.735 118.046 116.332 120.635 119.527 120.635Z" stroke="#1F1927" stroke-miterlimit="10" stroke-linecap="round"/>
<path d="M125.312 20.4328V114.85C125.312 118.045 122.722 120.635 119.527 120.635C116.332 120.635 113.735 118.045 113.735 114.85V102.848H36.4915V20.4328C36.4915 17.2807 39.0449 14.7273 42.1969 14.7273H119.606C122.758 14.7273 125.312 17.2807 125.312 20.4328Z" stroke="#1F1927" stroke-miterlimit="10" stroke-linecap="round"/>
<path d="M68.4227 23.6497H94.3317" stroke="#1F1927" stroke-miterlimit="10" stroke-linecap="round"/>
<path d="M65.0121 27.249H97.7444" stroke="#1F1927" stroke-miterlimit="10" stroke-linecap="round"/>
<path d="M68.4227 30.8486H94.3317" stroke="#1F1927" stroke-miterlimit="10" stroke-linecap="round"/>
<path d="M47.2108 44.4736H68.424" stroke="#1F1927" stroke-miterlimit="10" stroke-linecap="round"/>
<path d="M47.2108 58.8923H68.424" stroke="#1F1927" stroke-miterlimit="10" stroke-linecap="round"/>
<path d="M47.2108 51.6794H62.9926" stroke="#1F1927" stroke-miterlimit="10" stroke-linecap="round"/>
<path d="M47.2108 66.4729H68.424" stroke="#1F1927" stroke-miterlimit="10" stroke-linecap="round"/>
<path d="M47.2108 80.8918H68.424" stroke="#1F1927" stroke-miterlimit="10" stroke-linecap="round"/>
<path d="M47.2108 73.686H62.9926" stroke="#1F1927" stroke-miterlimit="10" stroke-linecap="round"/>
<path d="M120.624 81.1512C118.705 81.2666 117.674 80.9853 115.986 79.5499C109.494 74.0248 102.274 67.7568 95.8471 62.073C94.5993 60.9694 94.6715 59.9163 95.6019 58.719C97.0806 56.822 99.2517 54.3119 100.932 52.5735C101.993 51.4772 102.995 51.2752 104.286 52.3427C109.371 56.5623 114.666 61.3805 119.809 65.7299C128.327 56.6633 136.918 47.1927 145.393 38.2703C146.569 37.0369 147.578 37.1739 148.754 38.1404C150.608 39.6696 153.046 41.9416 154.712 43.6728C155.765 44.7619 155.981 45.7862 154.835 47.034C145.169 57.5577 134.833 68.6801 125.103 79.0523C123.545 80.7185 122.542 81.0358 120.624 81.1512Z" fill="#00C092"/>
<path d="M102.36 67.8002C100.341 65.9176 97.7295 63.9268 95.8325 62.0731C94.7073 60.9695 94.6279 59.9236 95.5945 58.7191C97.1236 56.8149 99.237 54.312 100.932 52.5736C102.007 51.4773 102.995 51.2753 104.286 52.3428C109.4 56.5335 114.608 61.4383 119.859 65.6868C122.924 62.4121 128.421 56.4831 130.902 53.8071C133.383 51.1311 132.885 51.672 134.797 49.6163C136.708 47.5606 138.793 45.3102 140.776 43.1824" stroke="#1F1927" stroke-miterlimit="10" stroke-linecap="round" stroke-linejoin="round"/>
<path d="M154.827 43.6587C155.505 44.8055 156.025 45.7721 154.863 47.0271C145.111 57.5797 134.862 68.6515 125.103 79.0598C123.538 80.726 122.513 80.9568 120.631 81.166C118.748 81.3752 117.565 80.7188 116.014 79.5936C114.896 78.7785 113.439 77.2854 112.271 76.3838" stroke="#1F1927" stroke-miterlimit="10" stroke-linecap="round" stroke-linejoin="round"/>
<path d="M145.429 63.1406C141.202 67.8146 136.976 72.4886 132.749 77.1554" stroke="#1F1927" stroke-miterlimit="10" stroke-linecap="round" stroke-linejoin="round"/>
</svg>
