<svg width="154" height="165" viewBox="0 0 154 165" fill="none" xmlns="http://www.w3.org/2000/svg">
<path d="M123.343 116.016L84.9461 82.3204C81.9813 79.7207 81.6855 75.2075 84.2915 72.2427L102.376 51.6278C104.976 48.663 109.489 48.3672 112.454 50.9732L150.851 84.6683C153.816 87.268 154.111 91.7812 151.505 94.746L133.421 115.361C130.815 118.319 126.308 118.615 123.343 116.016Z" fill="white"/>
<path d="M123.343 116.016L84.9461 82.3204C81.9813 79.7207 81.6855 75.2075 84.2915 72.2427L102.376 51.6278C104.976 48.663 109.489 48.3672 112.454 50.9732L150.851 84.6683C153.816 87.268 154.111 91.7812 151.505 94.746L133.421 115.361C130.815 118.319 126.308 118.615 123.343 116.016Z" stroke="black" stroke-miterlimit="10" stroke-linecap="round"/>
<path d="M107.84 65.5203L110.691 68.0256L112.573 65.8791L109.722 63.3801L107.877 65.4825C107.871 65.4951 107.858 65.5077 107.84 65.5203Z" fill="black"/>
<path d="M109.319 61.385C108.84 60.9633 108.11 61.0136 107.689 61.492L105.794 63.6511C105.372 64.1295 105.422 64.8596 105.901 65.2814C106.379 65.7031 107.109 65.6527 107.531 65.1744L109.426 63.0153C109.848 62.5369 109.797 61.8005 109.319 61.385Z" fill="black"/>
<path d="M109.791 61.2023C110.219 61.7059 110.294 62.4109 109.999 62.99L112.888 65.5267L113.328 65.0231C113.794 64.4881 113.744 63.6761 113.209 63.2103L110.282 60.6421L109.791 61.2023Z" fill="black"/>
<path d="M107.469 65.8159C106.952 66.1117 106.304 66.0991 105.788 65.7655L105.291 66.332L104.938 66.0236L105.435 65.4571C105.039 64.9913 104.944 64.3492 105.171 63.7953L102.25 61.2334L101.892 61.6362C101.426 62.1713 101.476 62.9833 102.011 63.4491L108.218 68.8939C108.753 69.3597 109.565 69.3094 110.03 68.7743L110.389 68.3715L107.469 65.8159Z" fill="black"/>
<path d="M104.442 58.7346L102.56 60.8811L105.411 63.3864C105.424 63.3738 105.43 63.3549 105.442 63.336L107.287 61.2336L104.442 58.7346Z" fill="black"/>
<path d="M107.638 60.9188C108.173 60.5474 108.884 60.5348 109.438 60.8936L109.936 60.3271L107.008 57.7589C106.473 57.2931 105.661 57.3435 105.196 57.8785L104.755 58.3821L107.638 60.9188Z" fill="black"/>
<path d="M122.481 107.033C124.637 107.033 126.384 105.286 126.384 103.13C126.384 100.975 124.637 99.2275 122.481 99.2275C120.326 99.2275 118.579 100.975 118.579 103.13C118.579 105.286 120.326 107.033 122.481 107.033Z" stroke="black" stroke-miterlimit="10"/>
<path d="M121.738 106.24C121.65 105.214 121.959 104.156 122.695 103.319C123.413 102.501 124.401 102.054 125.408 101.997" stroke="black" stroke-miterlimit="10" stroke-linecap="round"/>
<path d="M126.825 102.173C127.322 102.33 127.794 102.595 128.209 102.96C129.833 104.383 129.991 106.85 128.568 108.468C127.146 110.092 124.678 110.249 123.06 108.827C122.645 108.461 122.33 108.033 122.11 107.568" stroke="black" stroke-miterlimit="10" stroke-linecap="round"/>
<path d="M114.122 86.7139L118.157 90.2577" stroke="black" stroke-miterlimit="10" stroke-linecap="round"/>
<path d="M95.0621 69.9895L111.724 84.6056" stroke="black" stroke-miterlimit="10" stroke-linecap="round"/>
<path d="M92.2925 73.1428L106.078 85.2411" stroke="black" stroke-miterlimit="10" stroke-linecap="round"/>
<path d="M94.7907 99.297L95.0802 99.2404C95.1431 99.2278 95.1557 99.2278 95.1557 99.2278L96.8742 98.8879C97.5666 98.7494 98.1457 99.4355 97.875 100.09C97.2455 101.626 95.7852 104.075 92.4805 106.076L54.889 112.925C54.889 112.925 43.5713 115.877 37.283 105.705" fill="white"/>
<path d="M94.4505 99.3662L61.8821 105.85C61.2274 105.982 60.6169 106.284 60.1259 106.731C50.5392 115.543 42.9794 111.213 39.4418 108.021C38.4095 107.09 37.717 106.253 37.4149 105.869C37.3645 105.793 37.3205 105.736 37.289 105.699C37.2701 105.68 37.2638 105.661 37.2575 105.648C37.2512 105.642 37.2512 105.642 37.2449 105.636C32.3918 98.6423 20.1802 76.0635 24.064 29.8862C24.2025 28.1992 25.4929 26.8333 27.1673 26.6004L66.3261 21.1367C68.2774 20.866 69.9959 22.4207 69.9203 24.3847C69.3475 38.6672 68.8062 88.9612 88.9238 97.1568C88.9301 97.1568 94.1609 99.4229 94.4505 99.3662Z" fill="white"/>
<path d="M94.7907 99.297L95.0802 99.2404C95.1431 99.2278 95.1557 99.2278 95.1557 99.2278L96.8742 98.8879C97.5666 98.7494 98.1457 99.4355 97.875 100.09C97.2455 101.626 95.7852 104.075 92.4805 106.076L54.889 112.925C54.889 112.925 43.5713 115.877 37.283 105.705" stroke="black" stroke-miterlimit="10" stroke-linecap="round"/>
<path d="M67.2134 104.792L61.8818 105.856C61.2271 105.988 60.6166 106.29 60.1256 106.737C50.5389 115.55 42.9791 111.219 39.4415 108.027C38.4092 107.096 37.7167 106.259 37.4146 105.875C37.3642 105.799 37.3202 105.742 37.2887 105.705C37.2698 105.686 37.2635 105.667 37.2572 105.654C37.2509 105.648 37.2509 105.648 37.2446 105.642C32.3915 98.6485 20.1799 76.0696 24.0637 29.8923C24.2022 28.2053 25.4926 26.8394 27.167 26.6065L66.3258 21.1428C68.2771 20.8721 69.9956 22.4269 69.92 24.3908C69.8256 26.7261 69.7312 30.0182 69.7312 33.9334" stroke="black" stroke-miterlimit="10" stroke-linecap="round"/>
<path d="M69.8012 39.6807C70.267 60.2515 73.6095 90.9189 88.9306 97.1568C88.9306 97.1568 94.1677 99.4229 94.4509 99.3663L72.5331 103.728" stroke="black" stroke-miterlimit="10" stroke-linecap="round"/>
<path d="M36.156 33.2415L58.4138 30.8118" stroke="black" stroke-miterlimit="10" stroke-linecap="round"/>
<path d="M36.5717 37.0557L58.8295 34.626" stroke="black" stroke-miterlimit="10" stroke-linecap="round"/>
<path d="M34.1041 35.3941L60.8814 32.4734" stroke="black" stroke-miterlimit="10" stroke-linecap="round"/>
<path d="M28.3193 54.7123L44.7483 52.4966" stroke="black" stroke-miterlimit="10" stroke-linecap="round"/>
<path d="M56.9282 51.3448L65.4637 50.1929" stroke="black" stroke-miterlimit="10" stroke-linecap="round"/>
<path d="M57.463 56.783L65.9985 55.6311" stroke="black" stroke-miterlimit="10" stroke-linecap="round"/>
<path d="M58.2559 62.2596L66.7914 61.1077" stroke="black" stroke-miterlimit="10" stroke-linecap="round"/>
<path d="M59.2886 67.459L67.8241 66.3008" stroke="black" stroke-miterlimit="10" stroke-linecap="round"/>
<path d="M60.4085 72.7403L68.944 71.5884" stroke="black" stroke-miterlimit="10" stroke-linecap="round"/>
<path d="M61.5606 78.0335L70.0961 76.8816" stroke="black" stroke-miterlimit="10" stroke-linecap="round"/>
<path d="M68.2645 93.6194L76.8 92.4675" stroke="black" stroke-miterlimit="10" stroke-linecap="round"/>
<path d="M29.0558 60.3899L42.3563 58.5896" stroke="black" stroke-miterlimit="10" stroke-linecap="round"/>
<path d="M29.4961 66.0236L42.7966 64.2234" stroke="black" stroke-miterlimit="10" stroke-linecap="round"/>
<path d="M29.9376 71.6571L47.2352 69.3218" stroke="black" stroke-miterlimit="10" stroke-linecap="round"/>
<path d="M31.447 77.2341L44.7475 75.4338" stroke="black" stroke-miterlimit="10" stroke-linecap="round"/>
<path d="M33.6943 82.6479L46.9949 80.8477" stroke="black" stroke-miterlimit="10" stroke-linecap="round"/>
<path d="M39.3917 98.0193L52.6923 96.2253" stroke="black" stroke-miterlimit="10" stroke-linecap="round"/>
<path d="M96.2764 126.779L91.5492 125.042L93.3054 120.264C93.4438 119.88 93.2487 119.452 92.8648 119.314L89.3272 118.011C88.9432 117.872 88.5152 118.067 88.3767 118.451L86.6205 123.229L81.8932 121.492C81.4841 121.341 81.0246 121.548 80.8735 121.964L79.6083 125.394C79.4572 125.804 79.665 126.263 80.0804 126.414L84.8076 128.151L83.0514 132.929C82.913 133.313 83.1081 133.741 83.4921 133.88L87.0296 135.183C87.4136 135.321 87.8417 135.126 87.9801 134.742L89.7363 129.964L94.4636 131.702C94.8727 131.853 95.3322 131.645 95.4833 131.23L96.7485 127.799C96.8996 127.384 96.6856 126.93 96.2764 126.779Z" fill="#FFC13B"/>
<path d="M89.3025 131.141L89.7368 129.958L94.4641 131.695C94.8732 131.846 95.3327 131.639 95.4838 131.223L96.749 127.793C96.9001 127.383 96.6924 126.924 96.2769 126.773L91.5497 125.036L93.3059 120.258C93.4443 119.874 93.2492 119.446 92.8653 119.307L89.3277 118.004C88.9437 117.866 88.5157 118.061 88.3772 118.445L86.621 123.223L81.8937 121.485C81.4846 121.334 81.025 121.542 80.874 121.957L79.6088 125.388C79.4577 125.797 79.6654 126.257 80.0809 126.408L84.8081 128.145L83.0519 132.923C82.9134 133.307 83.1086 133.735 83.4926 133.873L87.0301 135.176C87.4141 135.315 87.8421 135.12 87.9806 134.736L88.522 133.269" stroke="#1F1927" stroke-miterlimit="10" stroke-linecap="round" stroke-linejoin="round"/>
<path d="M86.4193 119.692L85.7836 121.417L84.5435 120.957" stroke="#1F1927" stroke-miterlimit="10" stroke-linecap="round" stroke-linejoin="round"/>
<path d="M94.4212 19.2166C99.4516 19.2166 103.53 15.1387 103.53 10.1083C103.53 5.07793 99.4516 1 94.4212 1C89.3908 1 85.3129 5.07793 85.3129 10.1083C85.3129 15.1387 89.3908 19.2166 94.4212 19.2166Z" fill="white"/>
<path d="M98.2158 18.3921C97.1016 18.9019 95.8741 19.1978 94.5712 19.2166C89.5418 19.3048 85.3936 15.2951 85.3118 10.2657C85.2237 5.23629 89.2333 1.08814 94.2627 1.00631C99.2921 0.918183 103.44 4.92786 103.522 9.95726" stroke="#1F1927" stroke-miterlimit="10" stroke-linecap="round"/>
<path d="M94.3511 14.4576L92.8655 14.1932L93.0544 13.142C92.5445 12.9784 92.0724 12.714 91.7702 12.3993L91.5436 12.1664L92.3431 10.7752L92.7396 11.1529C93.0418 11.4425 93.4761 11.6628 93.8978 11.7383C94.3762 11.8264 94.7224 11.6565 94.7854 11.3103C94.8232 11.09 94.8043 10.813 94.0489 10.3409C93.1614 9.79327 92.2801 9.06939 92.4941 7.84823C92.6641 6.90404 93.388 6.26828 94.3762 6.15498L94.5777 5.04712L96.0506 5.3115L95.868 6.33123C96.2709 6.46341 96.6108 6.65226 96.9067 6.91034L97.1836 7.14324L96.3653 8.50916L95.9813 8.18815C95.8366 8.06226 95.5281 7.81047 94.9679 7.70975C94.5588 7.63422 94.2881 7.76011 94.2378 8.04337C94.2 8.25738 94.2377 8.43993 95.0938 8.98756C95.8806 9.48483 96.7619 10.2339 96.5227 11.5621C96.3465 12.5377 95.5785 13.2112 94.5525 13.3308L94.3511 14.4576Z" fill="#1F1927"/>
<path d="M87.3888 11.2222C86.772 7.33843 89.422 3.69383 93.3058 3.08325" stroke="#1F1927" stroke-miterlimit="10" stroke-linecap="round"/>
<path d="M81.2757 30.8809L67.843 32.0014C67.0373 32.0706 66.3323 31.4726 66.2694 30.6669L66.005 27.4881C65.9357 26.6824 66.5337 25.9774 67.3394 25.9145L80.7722 24.794C81.5779 24.7248 82.2829 25.3228 82.3458 26.1285L82.6102 29.3073C82.6731 30.1067 82.0751 30.8117 81.2757 30.8809Z" fill="#00C092"/>
<path d="M78.7645 24.9639L81.0243 24.7751C81.6852 24.7184 82.2706 25.3416 82.3398 26.1662L82.5979 29.2694C82.6672 30.094 82.1888 30.8053 81.5278 30.8619L67.5726 32.0265C66.9117 32.0831 66.3263 31.4599 66.2571 30.6354L65.999 27.5321C65.9297 26.7075 66.4081 25.9962 67.0691 25.9396L74.6226 25.3101" stroke="#1F1927" stroke-miterlimit="10" stroke-linecap="round" stroke-linejoin="round"/>
<path d="M3.34866 85.1275C3.23536 85.096 3.12833 85.0583 3.01503 85.0079C1.94494 84.5295 1.46029 83.2706 1.94497 82.2005L8.08223 68.472C8.56062 67.4019 9.81952 66.9235 10.8896 67.4019C11.9597 67.8803 12.4444 69.1392 11.9597 70.2092L5.82244 83.9378C5.39441 84.9009 4.33692 85.3919 3.34866 85.1275Z" fill="white"/>
<path d="M10.8333 85.9709C12.0987 85.9709 13.1245 84.9451 13.1245 83.6797C13.1245 82.4143 12.0987 81.3884 10.8333 81.3884C9.56789 81.3884 8.54205 82.4143 8.54205 83.6797C8.54205 84.9451 9.56789 85.9709 10.8333 85.9709Z" fill="white"/>
<path d="M3.0089 71.2795C4.27432 71.2795 5.30012 70.2537 5.30012 68.9882C5.30012 67.7228 4.27432 66.697 3.0089 66.697C1.74348 66.697 0.717651 67.7228 0.717651 68.9882C0.717651 70.2537 1.74348 71.2795 3.0089 71.2795Z" fill="white"/>
<path d="M10.0274 74.5399L5.82263 83.9378C5.3946 84.9009 4.33081 85.3856 3.34255 85.1275C3.22925 85.096 3.12226 85.0583 3.00895 85.0079C1.93887 84.5295 1.45418 83.2706 1.93886 82.2005L8.07612 68.472C8.55451 67.4019 9.81341 66.9235 10.8835 67.4019C11.9536 67.8803 12.4383 69.1392 11.9536 70.2092L11.2171 71.8522" stroke="#1F1927" stroke-miterlimit="10" stroke-linecap="round"/>
<path d="M10.8333 85.9709C12.0987 85.9709 13.1245 84.9451 13.1245 83.6797C13.1245 82.4143 12.0987 81.3884 10.8333 81.3884C9.56789 81.3884 8.54205 82.4143 8.54205 83.6797C8.54205 84.9451 9.56789 85.9709 10.8333 85.9709Z" stroke="#1F1927" stroke-miterlimit="10"/>
<path d="M3.0089 71.2795C4.27432 71.2795 5.30012 70.2537 5.30012 68.9882C5.30012 67.7228 4.27432 66.697 3.0089 66.697C1.74348 66.697 0.717651 67.7228 0.717651 68.9882C0.717651 70.2537 1.74348 71.2795 3.0089 71.2795Z" stroke="#1F1927" stroke-miterlimit="10"/>
<path d="M42.7969 164.081H129.531" stroke="black" stroke-miterlimit="10" stroke-linecap="round"/>
<path d="M29.0557 106.24V135.227" stroke="black" stroke-miterlimit="10" stroke-linecap="round"/>
<path d="M42.7969 126.597V143.592" stroke="black" stroke-miterlimit="10" stroke-linecap="round"/>
<path d="M114.122 113.322V146.62" stroke="black" stroke-miterlimit="10" stroke-linecap="round"/>
<path d="M126.384 123.701V138.046" stroke="black" stroke-miterlimit="10" stroke-linecap="round"/>
</svg>
