<?xml version="1.0" encoding="UTF-8"?>
<svg width="1600px" height="497px" viewBox="0 0 1600 497" version="1.1" xmlns="http://www.w3.org/2000/svg" xmlns:xlink="http://www.w3.org/1999/xlink">
    <!-- Generator: Sketch 49 (51002) - http://www.bohemiancoding.com/sketch -->
    <title>Group</title>
    <desc>Created with Sketch.</desc>
    <defs></defs>
    <g id="Page-1" stroke="none" stroke-width="1" fill="none" fill-rule="evenodd">
        <g id="Giggy-Bank-Logo-Identity_Vector" transform="translate(-2254.000000, -4477.000000)">
            <g id="design" transform="translate(210.000000, 0.000000)">
                <g id="Group" transform="translate(2044.000000, 4477.000000)">
                    <g transform="translate(522.000000, 207.000000)" fill="#2B353F" fill-rule="nonzero" id="Shape">
                        <path d="M114,39.6 C104.3,30.3 89.8,25.1 77.1,25.1 C46,25.1 27.2,48.7 27.2,78.5 C27.2,102.3 41.1,127 77.1,127 C88.5,127 98.4,124.5 109.8,115.4 L109.8,89.7 L72.7,89.7 L72.7,65.3 L134.8,65.3 L134.8,126.4 C120.5,142.8 102.5,152.5 77,152.5 C22.5,152.5 0.4,116.7 0.4,78.6 C0.4,37.8 25.9,0.1 77,0.1 C96.5,0.1 115.9,7.6 130.9,22.3 L114,39.6 Z"></path>
                        <path d="M183,18.3 C183,38 153.2,38 153.2,18.3 C153.2,-1.4 183,-1.4 183,18.3 Z M155.5,46.6 L155.5,149.1 L180.8,149.1 L180.8,46.6 L155.5,46.6 Z"></path>
                        <path d="M283.7,36.7 L302.3,50.8 L290.9,65.3 C298.8,74.2 301.7,84.4 301.7,95.5 C301.7,108.1 296.9,125.9 280.2,133.6 C297.2,142.1 301.3,154.3 301.3,167.4 C301.3,195.6 279.8,213 250.1,213 C220.5,213 198.3,195 198.3,167.4 L223.4,167.4 C223.4,180.7 235.6,189.4 250.1,189.4 C264.6,189.4 276,181.5 276,167.4 C276,153.3 262.7,146.9 250.1,146.9 C218.2,146.9 198.3,127.4 198.3,95.5 C198.3,63.6 221.5,43.7 250.1,43.7 C258.2,43.7 266.5,44.7 273.5,49.5 L283.7,36.7 Z M223.4,95.5 C223.4,113.3 235.4,123.9 250.1,123.9 C264.6,123.9 276.6,113.1 276.6,95.5 C276.6,77.9 264.6,66.7 250.1,66.7 C235.4,66.7 223.4,77.7 223.4,95.5 Z"></path>
                        <path d="M398,36.7 L416.6,50.8 L405.2,65.3 C413.1,74.2 416,84.4 416,95.5 C416,108.1 411.2,125.9 394.5,133.6 C411.5,142.1 415.6,154.3 415.6,167.4 C415.6,195.6 394.1,213 364.4,213 C334.8,213 312.6,195 312.6,167.4 L337.7,167.4 C337.7,180.7 349.9,189.4 364.4,189.4 C378.9,189.4 390.3,181.5 390.3,167.4 C390.3,153.3 377,146.9 364.4,146.9 C332.5,146.9 312.6,127.4 312.6,95.5 C312.6,63.6 335.8,43.7 364.4,43.7 C372.5,43.7 380.8,44.7 387.8,49.5 L398,36.7 Z M337.7,95.5 C337.7,113.3 349.7,123.9 364.4,123.9 C378.9,123.9 390.9,113.1 390.9,95.5 C390.9,77.9 378.9,66.7 364.4,66.7 C349.8,66.7 337.7,77.7 337.7,95.5 Z"></path>
                        <polygon points="537.2 47.1 474.9 191.9 447.1 191.9 466.2 147.6 425.4 47.1 454.8 47.1 470.3 91.2 480 120 490.6 91.8 509.2 47.1 537.2 47.1"></polygon>
                        <path d="M712,46.2 C712,57.4 706.6,68.2 693.2,74.2 C710.2,79.4 716.4,97.4 716.4,106.5 C716.4,138.8 692.2,149.2 662.1,149.2 C639.1,149.2 616.3,149.2 593.3,149.2 L593.3,4.2 C616.1,4.2 639.1,4.2 662.1,4.2 C690.7,4.2 712,17 712,46.2 Z M620.3,62.4 L662.1,62.4 C679.3,62.4 684.9,55.2 684.9,46.9 C684.9,40.3 679.5,29.1 662.1,29.1 L620.3,29.1 L620.3,62.4 Z M620.3,123.7 L662.1,123.7 C673.3,123.7 689.2,120 689.2,106.3 C689.2,93.3 673.3,86.4 662.1,86.4 L620.3,86.4 L620.3,123.7 Z"></path>
                        <path d="M814.8,47.1 L839,47.1 L839,149.2 L815.2,149.2 L814,134.3 C808.2,146.3 792.3,152.1 780.9,152.3 C750.7,152.5 728.3,133.9 728.3,98 C728.3,62.8 751.7,44.4 781.5,44.6 C795.2,44.6 808.2,51 814,61.2 L814.8,47.1 Z M753.4,98 C753.4,117.5 766.9,129.1 783.6,129.1 C823.4,129.1 823.4,67.2 783.6,67.2 C766.9,67.1 753.4,78.5 753.4,98 Z"></path>
                        <path d="M935.5,149.2 L935.5,95.8 C935.5,80.3 927,68.5 910.9,68.5 C895.4,68.5 884.8,81.5 884.8,97.1 L884.8,149.3 L859.7,149.3 L859.7,47 L882.3,47 L884,60.9 C894.4,50.8 904.7,45.6 917.6,45.6 C941.6,45.6 960.9,63.6 960.9,95.7 L960.9,149.3 L935.5,149.3 L935.5,149.2 Z"></path>
                        <polygon points="1007.2 4.4 1007.2 88.1 1041.6 47.1 1071.8 47.1 1071.8 48.5 1030.2 95.1 1077.6 147.3 1077.6 149.2 1047.2 149.2 1007.2 103 1007.2 149.2 981.9 149.2 981.9 4.4"></polygon>
                    </g>
                    <path d="M316.1,423.2 L357.3,446 C361.6,448.4 366.9,448.2 371,445.4 C378.8,440.1 392.1,430.5 403.9,418.2 C414.9,406.8 422.8,395.4 426.6,389.5 C428.3,386.8 429,383.6 428.5,380.4 L421.6,336.2 C420.4,327.7 410.6,323.6 403.7,328.6 L324.5,409.6 C320.3,412.7 314,418.3 316.1,423.2 Z" id="Shape" fill="#2B353F" fill-rule="nonzero"></path>
                    <path d="M83.8,392.8 L79.2,430.9 C78.6,436.1 80.9,441.2 85.2,444.2 C91.9,448.9 103.3,456 118.5,463.1 C135.3,470.9 151.5,475.8 160.2,478.1 C164.2,479.2 168.5,478.4 172,476.1 L205.8,452.7 L201.9,425.2 L83.8,392.8 Z" id="Shape" fill="#2B353F" fill-rule="nonzero"></path>
                    <path d="M378.4,171.3 C379.7,161.7 382.5,152 387.5,143.4 C390,139.1 393,135 396.5,131.4 C400.1,127.8 404.1,124.6 408.6,122 C413.1,119.5 418.2,117.5 423.8,116.9 C424.5,116.9 425.2,116.8 425.9,116.8 L427,116.8 C427.4,116.8 427.7,116.8 428,116.8 L429.9,116.9 L431.8,117.1 C434.4,117.4 436.9,118 439.5,118.7 C444.5,120.3 449.4,122.9 453.5,126.4 C457.6,130 460.8,134.5 462.9,139.5 C465,144.5 465.9,150.1 465.2,155.6 C465.1,156.3 465,157 464.9,157.7 C464.8,158.4 464.6,159.1 464.4,159.7 C464,161 463.6,162.3 463.1,163.6 C462,166.2 460.6,168.7 458.6,170.9 C456.6,173.1 454.2,175.1 451.4,176.4 C448.7,177.7 445.6,178.5 442.6,178.6 C439.6,178.7 436.6,178.1 433.7,177.1 C432.3,176.6 430.9,175.9 429.6,175.1 C428.3,174.3 427.1,173.3 425.9,172.1 C424.8,170.9 423.9,169.6 423.1,168.2 C422.4,166.9 421.8,165.5 421.4,164 C420.5,161.1 420.3,158.1 420.6,155.3 C421.2,149.6 423.6,144.8 426.6,140.7 C429.6,136.6 433.3,133.2 437.4,130.2 C439.5,128.7 441.7,127.4 444.2,126.5 C444.8,126.3 445.4,126 446.1,125.9 C446.8,125.7 447.4,125.5 448.1,125.4 C449.4,125.1 450.8,124.9 452.1,124.8 C457.5,124.3 462.9,125.5 467.7,127.6 C472.4,129.8 476.6,132.9 480.1,136.5 C483.6,140.1 486.4,144.3 488.7,148.7 C489.8,150.9 490.8,153.2 491.6,155.5 C492,156.7 492.4,157.8 492.7,159 C493,160.1 493.3,161.5 493.5,162.7 C494.4,167.8 494.2,172.9 493.4,177.8 C492.6,182.7 491.1,187.3 489.2,191.7 C487.2,196.1 484.8,200.3 482,204.1 C479.1,207.9 475.8,211.5 471.7,214.6 C469.7,216.1 467.4,217.5 464.9,218.6 C463.6,219.1 462.3,219.6 460.8,220 C459.3,220.3 458,220.5 456.6,220.6 C453.8,220.8 450.8,220.5 447.9,219.5 C444.9,218.5 442,216.5 440,213.8 C438,211.1 436.8,207.8 436.7,204.4 C436.7,203.6 436.7,202.7 436.8,201.8 C436.9,201 437.1,200.3 437.2,199.6 C437.6,198.2 438.1,196.8 438.7,195.5 C441.2,190.4 445.1,186.5 449.3,183.6 C453.6,180.7 458.3,178.9 463.1,177.9 C465.5,177.4 467.9,177.1 470.3,177 C472.8,176.9 475.2,177.1 477.6,177.4 C480,177.8 482.3,178.3 484.6,179 C486.9,179.7 489.1,180.6 491.2,181.7 C495.4,183.8 499.3,186.5 502.5,190 C503.5,191.1 503.4,192.7 502.3,193.7 C501.4,194.5 500.2,194.6 499.2,194 L499.1,193.9 C495.7,191.9 491.9,190.5 488.1,189.5 C484.3,188.5 480.4,188 476.7,188 C474.8,188 473,188.1 471.2,188.5 C469.4,188.8 467.5,189.1 465.7,189.5 C462.1,190.4 458.7,191.7 455.9,193.6 C453,195.4 450.6,197.9 449.3,200.5 C448,203.4 448.1,205 449.2,206.6 C449.8,207.3 450.5,207.9 451.6,208.3 C452.7,208.7 454.1,208.8 455.6,208.7 C457.3,208.5 458.3,208.2 459.7,207.5 C461.1,206.8 462.5,205.9 463.8,204.7 C466.5,202.4 468.9,199.5 470.9,196.3 C472.9,193.1 474.6,189.7 475.9,186.1 C477.2,182.5 478.2,178.9 478.7,175.3 C479.2,171.7 479.2,168.1 478.8,164.7 C478.6,163.1 478.2,161.2 477.8,159.4 C477.3,157.6 476.8,155.9 476.1,154.2 C474.8,150.8 472.9,147.7 470.5,145 C465.8,139.7 459.1,136.5 452.8,136.9 C452,136.9 451.2,137 450.5,137.2 C449.7,137.3 449,137.6 448.2,137.8 C446.6,138.3 445,138.9 443.4,139.7 C441.8,140.5 440.3,141.5 439,142.7 C437.7,143.9 436.6,145.3 435.6,146.8 C433.7,149.7 432.7,153.1 432.7,156 C432.7,157.5 433,158.8 433.4,160 C433.6,160.6 433.9,161.2 434.2,161.8 C434.5,162.3 434.8,162.7 435.2,163.1 C435.9,163.9 436.9,164.7 438,165.2 C439.2,165.7 440.5,165.8 441.8,165.7 C444.4,165.5 446.6,164.3 448.2,162.2 C449,161.2 449.7,159.9 450.2,158.5 C450.4,157.8 450.7,157 450.8,156.3 C450.9,155.9 451,155.6 451,155.2 C451.1,154.8 451.1,154.5 451.1,154.1 C451.3,151.1 450.6,147.9 449.3,145.1 C447.9,142.3 445.9,139.7 443.4,137.8 C440.9,135.8 438,134.4 434.8,133.5 C433.2,133.1 431.5,132.8 429.8,132.7 L428.5,132.6 L427.2,132.6 C427,132.6 426.8,132.6 426.6,132.6 L426.1,132.6 C425.7,132.6 425.4,132.7 425,132.7 C422.1,133 418.9,134 416,135.7 C414.5,136.5 413.1,137.5 411.7,138.6 C410.4,139.7 409.1,141 408,142.3 C405.7,145 403.7,148 402.2,151.2 C399.1,157.7 397.6,165.1 397.6,172.5 C397.6,177.9 393.1,182.3 387.7,182.3 C382.3,182.3 377.9,177.8 377.9,172.4 C377.9,172 377.9,171.6 378,171.2 L378.4,171.3 Z" id="Shape" fill="#2B353F" fill-rule="nonzero"></path>
                    <path d="M40,305 C38.5,289.3 34.7,229.4 75.9,175.9 C129,106.8 214,104.8 236.8,105.3 C303.2,106.7 408.1,141.6 429,235.3 C445.1,307.3 404.2,392.2 328.9,432.5 L330.9,466.2 C330.9,466.2 310.7,476.1 280.7,481.7 C250.6,487.4 218.7,486.7 218.7,486.7 L195.2,444.4 C152.7,433.6 137.7,429.4 95.2,418.6" id="Shape" stroke="#2B353F" stroke-width="19.7218" fill="#B9F082" fill-rule="nonzero" stroke-linejoin="round"></path>
                    <path d="M153.1,149.5 C164.5,152.5 177.3,156.8 187.2,160.7 C196.5,153.9 208.6,146.3 221.8,139.9 C252.8,125 281.7,120.5 301.9,119.1 C296.8,117 291.7,114.9 286.6,112.8 C273.4,113.3 258.8,114.7 243.1,117.4 C208,123.6 175.1,138.9 153.1,149.5 Z" id="Shape" fill="#2B353F" fill-rule="nonzero"></path>
                    <path d="M261.5,320.8 C278.4,315 289.9,336.4 301.8,344.6 C315.6,354.1 334.7,353.7 349.9,346.5 C365.1,339.3 376.9,326.3 385.9,312.2 C408.3,277.4 416.2,233.6 407.6,193.2 C429.9,221.6 440.7,258.8 437.1,294.7 C431.1,355.2 385.2,403.3 330.3,425.1 C331.4,431.3 342.2,443.5 328.5,462.2 C309,489 265.2,483.6 255.8,483.4 C247,483.3 219.4,490.3 210.9,472.7 C204.3,459.1 210.3,448.7 202.9,441.4 C195.4,434.1 187.2,442.6 166,438.2 C154.1,435.7 135.2,427.8 134.2,416.3 C133.3,406.1 132.4,396 152.8,390.7 C154.9,392.7 153.3,376.4 161,377.9 C161,377.9 168.9,395.7 185.9,387.8 C200.5,381 214.3,360.1 211.2,333.2 C212.3,342.7 258.7,321.8 260.2,321.2 C260.8,321.1 261.1,320.9 261.5,320.8 Z" id="Shape" fill="#4F7F17" fill-rule="nonzero" opacity="0.34"></path>
                    <path d="M39.8,307 C38.3,291.1 34.4,230.4 75.6,176.1 C128.7,106.1 214,104.2 236.7,104.7 C303.3,106.2 408.6,141.7 429.5,236.7 C444.7,305.8 407,388.9 328.8,432.5 L330.8,466.2 C330.8,466.2 309.2,476.9 279,482.2 C248.8,487.5 218.6,486.7 218.6,486.7 L195.1,444.4 C152.5,433.4 133.6,423.7 91,412.8" id="Shape" stroke="#2B353F" stroke-width="19.7155" stroke-linejoin="round"></path>
                    <g transform="translate(0.000000, 97.000000)" fill-rule="nonzero" id="Shape">
                        <path d="M91.9,114.9 C80.1,114.1 61.6,110.6 46.3,97.8 C19.2,75.1 11.3,43.2 11,28.7 C10.8,16.8 19.1,8.7 29.5,11 C32.8,11.7 40.4,15.6 48,15.1 C60.1,14.4 81.4,6.3 104.1,17.2 C119.2,24.5 126.7,40.1 130.7,53.2" fill="#B9F082"></path>
                        <g opacity="0.55" transform="translate(3.000000, 8.000000)" fill="#FFFFFF">
                            <path d="M0.2,27.7 C-0.1,23.4 0.4,18.5 2.6,13.9 C3.7,11.6 5.2,9.4 7.2,7.4 C9.1,5.5 11.5,3.9 14.1,2.8 C16.7,1.7 19.4,1.1 22,0.9 C23.3,0.8 24.6,0.8 25.9,0.9 C27.2,1 28.4,1.1 29.9,1.5 C32.2,2.2 33.6,2.7 35.1,3.1 C36.5,3.5 37.8,3.9 39.1,4.2 C40.3,4.5 41.5,4.7 42.5,4.8 C43.6,4.9 44.2,4.9 45.7,4.8 C48.4,4.6 51.6,4 55,3.5 C61.8,2.4 69.2,1.7 76.8,2.2 C84.4,2.6 92.1,4.4 99.1,7.4 C100.9,8.2 102.5,9 104.3,9.9 C106.1,10.9 107.8,11.9 109.4,13.2 C112.7,15.6 115.6,18.5 118,21.7 C122.8,28.1 125.7,35.4 127.3,42.5 C128.9,49.7 129.3,56.9 129.2,63.9 C129.1,67 126.5,69.5 123.4,69.4 C120.4,69.3 118,67 117.9,64 L117.9,63.9 C117.6,57.6 116.8,51.3 115.1,45.5 C113.4,39.7 110.7,34.5 107.1,30.4 C105.3,28.4 103.3,26.6 101,25.3 C99.9,24.6 98.7,24 97.5,23.5 C96.3,23 94.8,22.4 93.5,22 C88,20.2 82.3,19.5 76.5,19.7 C70.7,19.9 64.8,21.1 58.4,22.4 C55.2,23.1 51.9,23.8 47.9,24.4 C47.4,24.5 46.9,24.5 46.3,24.6 L45.5,24.7 L44.6,24.7 C43.4,24.8 42.2,24.7 41,24.7 C38.7,24.5 36.5,24.2 34.5,23.7 C32.5,23.2 30.6,22.6 28.8,22 L24.5,20.4 C24.4,20.4 23.9,20.1 23.6,20 C23.2,19.9 22.9,19.8 22.5,19.7 C21.8,19.6 21.2,19.6 20.6,19.7 C19.5,19.9 18.4,20.5 17.5,21.8 C16.6,23.1 15.9,25.1 15.7,27.4 L15.7,27.8 C15.4,32.1 11.7,35.3 7.4,34.9 C3.4,34.6 0.4,31.5 0.2,27.7 Z"></path>
                        </g>
                        <path d="M91.3,123.1 C84.7,122.8 78.1,121.8 71.6,120.1 C65.1,118.4 58.7,116.1 52.7,112.8 C49.7,111.2 46.8,109.4 43.9,107.4 C42.5,106.4 41.1,105.3 39.8,104.2 C38.5,103.1 37.3,102.1 36,100.9 C33.5,98.7 31.2,96.3 29,93.8 C26.8,91.3 24.6,88.8 22.6,86.1 C14.6,75.5 8.6,63.5 4.7,50.7 C3.7,47.5 2.9,44.3 2.2,40.9 C1.5,37.6 1,34.2 0.8,30.6 C0.7,28.9 0.6,26.6 0.9,24.5 C1.1,22.3 1.5,20.1 2.3,17.9 C3.7,13.5 6.3,9.1 10.4,5.7 C14.4,2.3 19.7,0.2 24.9,0.1 C26.2,5.37903055e-14 27.5,0.1 28.7,0.2 C29.3,0.3 29.9,0.3 30.5,0.5 L31.4,0.7 C31.7,0.8 32.1,0.9 32.4,0.9 C33.7,1.2 34.5,1.5 35.3,1.8 L37.4,2.5 C40,3.3 42.3,4 44.2,4.2 C45.2,4.3 46.1,4.4 46.8,4.4 C47.7,4.4 49,4.2 50.3,4.1 C53,3.8 56,3.3 59.1,2.9 C62.2,2.5 65.5,2.2 68.8,2 C75.5,1.6 82.5,1.9 89.3,3.4 C92.7,4.1 96.1,5.1 99.4,6.3 C101,6.9 102.7,7.6 104.2,8.3 C105.8,9 107.3,9.8 108.9,10.7 C115.1,14.2 120.6,19.1 124.8,24.8 C129,30.5 132,37 133.7,43.6 C135.4,50.2 136.1,56.9 135.9,63.5 C135.8,66.8 133.1,69.4 129.7,69.4 C126.5,69.3 124,66.8 123.9,63.7 L123.9,63.6 C123.6,58 122.7,52.5 121,47.5 C119.2,42.5 116.6,37.9 113.3,34 C110,30.2 105.9,27.1 101.4,25 C100.3,24.5 99.1,24 97.8,23.5 C96.6,23.1 95.3,22.7 94.1,22.3 C91.6,21.6 89.1,21.1 86.5,20.9 C81.3,20.4 76.1,20.7 70.7,21.5 C68,21.9 65.2,22.4 62.4,23 C59.5,23.6 56.6,24.2 53.2,24.8 C51.5,25.1 49.8,25.3 47.7,25.4 C45.4,25.5 43.2,25.4 41.2,25.1 C37.1,24.6 33.5,23.4 30.4,22.3 L26.8,21 C26.8,21 26.8,21 26.7,21 L26.5,21 C26.4,21 26.2,21 26.1,20.9 C25.8,20.9 25.6,20.8 25.4,20.8 C24.5,20.8 23.9,21 23.2,21.5 C22.5,22 21.8,23 21.3,24.3 C21,25 20.9,25.8 20.8,26.6 C20.7,27.5 20.7,28.2 20.7,29.6 C20.8,32.1 21.1,34.7 21.6,37.4 C22.1,40 22.7,42.7 23.4,45.4 C26.3,56 31.2,66.2 37.6,75.1 C39.2,77.3 40.9,79.5 42.7,81.6 C44.5,83.7 46.4,85.7 48.4,87.6 C49.4,88.6 50.4,89.5 51.4,90.4 C52.4,91.3 53.4,92.1 54.4,92.9 C56.5,94.5 58.7,96 61,97.3 C70.2,102.6 81.1,105.6 92.1,106.6 C96.6,107 100,111 99.6,115.5 C99.5,120 95.7,123.3 91.3,123.1 Z" fill="#2B353F"></path>
                        <path d="M106.2,100.2 C105.8,100.3 105.4,100.4 105,100.3 C88,97.5 78,89.7 73.4,85.6 C58.7,72.2 51,50.6 54.3,48.2 C55.1,47.6 56.3,48.2 57,48.5 C70,53.8 86.5,45.6 99.2,48.2 C105.8,49.6 116.7,52.8 123.3,71 C123.5,71.6 123.7,72.2 123.5,72.8 C122.9,75 121.2,80.6 117.1,87.4 C112.3,95.5 108.7,99.2 106.2,100.2 Z" fill="#4F7F17" opacity="0.34"></path>
                    </g>
                    <ellipse id="Oval" stroke="#2B353F" stroke-width="15.6449" fill="#B9F082" fill-rule="nonzero" stroke-linejoin="round" cx="99.6" cy="340.1" rx="68.3" ry="75.3"></ellipse>
                    <path d="M56.7,391.5 C58.9,392.8 92.4,411.6 123,391.5 C147.6,375.3 159.9,341 152.6,306.6 C152.6,306.6 177.8,361.6 153,390.8 C133.5,413.8 115.5,420.4 100.5,419.4 C75.8,417.7 54.8,397.3 56.7,391.5 Z" id="Shape" fill="#4F7F17" fill-rule="nonzero" opacity="0.34"></path>
                    <path d="M62.9,404.1 C47.7,390.3 37.9,369.3 37.9,345.3 C37.9,303.8 67.4,270.1 103.7,270.1 C129.2,270.1 151.4,286.7 162.3,311.1" id="Shape" stroke="#FFFFFF" stroke-width="14.4624" opacity="0.55" stroke-linejoin="round"></path>
                    <ellipse id="Oval" stroke="#2B353F" stroke-width="15.6449" stroke-linejoin="round" cx="99.6" cy="340.1" rx="68.3" ry="75.3"></ellipse>
                    <path d="M188.9,258.2 C185.8,258.8 182.5,258.8 179.3,258.1 C175.9,257.4 173.1,256 170.5,254.4 C167.9,252.7 165.7,250.7 163.7,248.4 C161.8,246.1 160.2,243.4 159.1,240.9 L157.7,237.9 L157.6,237.8 C157.6,237.8 157.6,237.8 157.7,237.8 C157.7,237.8 157.8,238 158,238 C158.1,238.1 158.2,238.2 158.3,238.2 C158.4,238.3 158.6,238.4 158.7,238.5 C159,238.7 159.5,238.8 160,238.9 C160.5,239 160.9,238.9 161.2,238.9 C161.4,238.9 161.6,238.8 161.7,238.8 L162.1,238.6 C162.3,238.5 162.5,238.4 162.7,238.3 C162.9,238.2 163,238 163,238 C163,237.9 163,238 162.9,238.1 C162.8,238.2 162.8,238.3 162.7,238.5 L162.4,239 C162,239.8 161.7,240.7 161.4,241.7 C161.1,242.7 160.9,243.7 160.7,244.7 C160.5,245.7 160.4,246.7 160.3,247.6 C160.1,249.6 160.1,251.6 160.3,253.8 L160.3,254 C160.4,256.1 158.8,258 156.7,258.1 C155.1,258.2 153.7,257.3 153,256 C151.7,253.5 150.9,250.6 150.7,247.7 C150.6,246.2 150.6,244.7 150.7,243.3 C150.8,241.9 151.1,240.5 151.4,239.1 C151.7,237.7 152.1,236.3 152.7,234.8 C152.9,234.4 153,234 153.2,233.6 C153.4,233.2 153.6,232.8 153.9,232.4 C154.2,232 154.4,231.5 154.9,231 C155.1,230.7 155.3,230.5 155.6,230.2 C155.9,229.9 156.2,229.7 156.5,229.4 C156.9,229.1 157.4,228.8 157.9,228.6 C158,228.5 158.1,228.5 158.3,228.4 L158.8,228.3 C159.1,228.2 159.4,228.1 159.8,228.1 C160.4,228 161.2,228 161.9,228.1 C162.7,228.2 163.4,228.5 164,228.8 C164.3,229 164.6,229.1 164.8,229.3 C165,229.5 165.2,229.6 165.5,229.8 C165.8,230.1 166.2,230.5 166.4,230.7 C166.7,231 166.8,231.2 167,231.5 C167.1,231.7 167.3,232 167.4,232.1 C168.3,233.7 168.8,234.6 169.4,235.6 C170.5,237.5 171.6,239 172.8,240.4 C174.1,241.8 175.6,243 177.1,243.9 C178.6,244.8 180.3,245.5 181.8,245.8 C183.4,246.1 185.1,246.2 186.8,246 L186.9,246 C190.3,245.6 193.3,247.9 193.8,251.3 C194.3,254.6 192.1,257.6 188.9,258.2 Z" id="Shape" fill="#2B353F" fill-rule="nonzero"></path>
                    <ellipse id="Oval" fill="#2B353F" fill-rule="nonzero" cx="71.4" cy="336" rx="14.5" ry="20.8"></ellipse>
                    <ellipse id="Oval" fill="#2B353F" fill-rule="nonzero" cx="118.4" cy="345" rx="15.9" ry="22.8"></ellipse>
                    <path d="M179,383.8 C187.1,377.3 193.5,368.8 197.1,359.4 C198,357 198.7,354.6 199.3,352.2 C199.9,349.7 200.3,347.3 200.6,344.8 C201.1,339.8 201,334.8 200.2,329.9 C199.5,325.4 202.6,321.2 207.1,320.4 C209,320.1 210.9,320.5 212.4,321.4 L213.3,321.9 C216,324.1 219.3,325.7 222.7,326.6 C224.5,327 226.3,327.1 228.1,327.1 C229.9,327.1 231.8,326.8 233.5,326.4 L233.6,326.4 C237.3,325.5 241,327.8 241.9,331.5 C242.7,335 240.7,338.5 237.4,339.6 C234.7,340.5 231.9,341.1 229.1,341.4 C226.3,341.7 223.4,341.7 220.5,341.4 C214.7,340.9 209.1,339.1 203.9,336.1 L217,328.1 C217.5,334.5 217,340.9 215.9,347.2 C215.3,350.3 214.5,353.4 213.5,356.4 C212.5,359.4 211.3,362.3 209.9,365.2 C207.1,370.9 203.6,376.2 199.5,380.9 C195.4,385.6 190.7,389.7 185.6,393.2 C183,395 179.4,394.3 177.7,391.7 C176.1,389 176.7,385.7 179,383.8 Z" id="Shape" fill="#2B353F" fill-rule="nonzero"></path>
                    <g transform="translate(143.000000, 0.000000)" fill-rule="nonzero" id="Shape">
                        <path d="M115.5,83.3 C115.2,82.9 115,82.5 114.9,82 C113.9,77.5 113.4,72.7 113.4,68 C113.4,65.6 113.4,62.8 114,60.3 C113.8,59.1 113.6,58 113.4,56.8 C112.6,52.8 111.3,48.9 110.6,44.9 C110.3,43 110.1,41 109.9,39.1 C108.5,39.1 107.3,38.4 107,36.6 C104.8,23.7 95.7,10.3 82.9,6 C81.5,5.5 82.7,4.7 82.5,3.6 C79.2,2.3 74.4,0.8 68.5,0.3 C55.3,-0.8 45.3,3.7 40.8,5.8 C38.7,6.8 28.8,11.6 19.5,22.5 C4.5,40 2.1,60.2 0.9,70 C-2.2,97.1 2.9,142 30.5,154.8 C36,157.4 41.2,158.1 44.9,158.3 C40.2,154.3 37,151.5 37.2,151.3 C37.3,151.1 39.3,152.7 39.6,152.4 C40,152.1 28.6,138.7 28.1,139.1 C28,139.2 28.7,140.3 29.3,141.1 C34.4,139.4 39.7,138.2 45,137.1 C44.3,136.5 43.7,135.9 43,135.2 C38.2,130.3 43.1,122.4 40.3,115.5 C37.5,108.6 33.2,103 32.2,95.4 C31.2,87.8 37.1,80.6 37.8,72.8 C38.5,65 49.4,62.4 51.7,55.1 C54,47.7 41.8,37.4 45.8,31.1 C49.7,24.8 55.4,26.1 61,22.1 C66.6,18.1 67.1,9.9 73.6,10 C80,10.2 85.1,9.1 90.6,13.8 C96.1,18.5 100.6,24.8 103.9,32 C107.2,39.1 109.5,46.9 110.7,55 C112,63 112.1,71.3 111.4,79.5 C110.6,87.7 109,95.8 106.4,103.4 C103.8,111.1 100.1,118.4 95.6,124.8 C94.8,126 93.9,127.1 93,128.2 C97.3,127.4 101.6,126.7 106,126.1 C106,125.7 106.1,125.2 106.3,124.7 C110.1,115.5 112.6,106 115.6,96.5 C115.5,96.2 115.4,96 115.4,95.7 C115,90.8 115.1,86.9 115.5,83.3 Z" fill="#2B353F"></path>
                        <path d="M45.9,151.8 C45.9,151.8 57.3,143 79.9,133.2 C94.6,126.8 109,122.2 109,122.2 C110.6,117.9 111.6,114.8 113.6,107 C113.6,107 117.4,93.8 118.4,82.4 C122.1,41.1 104.1,6.2 78.9,2.5 C48.9,-1.9 25.6,36.9 22.1,74.5 C18.9,110.3 27.8,138.6 45.9,151.8 Z" fill="#F7DC6B"></path>
                        <path d="M27.2,74 C30.3,39.7 50.2,4.5 76.7,2.4 C47.8,0.2 25.5,38 22.2,74.7 C18.9,110.4 27.8,138.7 45.9,151.9 C45.9,151.9 47.1,151 49.5,149.4 C32.4,135.8 24.1,108.3 27.2,74 Z" fill="#FFFFFF" opacity="0.75"></path>
                        <path d="M94.7,9.5 C99.3,24.1 109,62.7 92.1,103.9 C86.4,117.7 79.1,128.6 72.3,136.8 C74.7,135.7 77.2,134.5 79.9,133.3 C94.6,126.9 109,122.3 109,122.3 C110.6,118 111.6,114.9 113.6,107.1 C113.6,107.1 117.4,93.9 118.4,82.5 C121.3,50.5 111.1,22.3 94.7,9.5 Z" fill="#EFA726" opacity="0.5"></path>
                    </g>
                    <path d="M254.9,388.9 C254.9,388.9 254.9,388.8 254.9,388.8 C254.9,388.8 254.9,388.8 254.9,388.9 Z" id="Shape" fill="#FFFFFF" fill-rule="nonzero"></path>
                    <path d="M60.7,223.2 C60.7,223.2 83,158.5 142,135.6 L143.5,165.4 L137.2,221.9 L88.3,239 L60.7,223.2 Z" id="Shape" fill="#B9F082" fill-rule="nonzero"></path>
                    <path d="M193.8,163.2 C211.6,171.7 236.6,186.1 261.3,209.9 C282.1,229.9 296,250.1 305,265.7 L272.3,281.4 L206.8,209.6 C183.5,187.6 160.1,165.5 136.8,143.5 C155.8,150 174.8,156.6 193.8,163.2 Z" id="Shape" fill="#B9F082" fill-rule="nonzero"></path>
                    <path d="M312,139.4 C312,139.4 330.3,138.8 340.6,141.8 C346.7,143.6 345.6,145.5 342.8,153.9 L340.2,165 L312,139.4 Z" id="Shape" fill="#B9F082" fill-rule="nonzero"></path>
                    <g transform="translate(231.000000, 115.000000)" fill-rule="nonzero" id="Shape">
                        <path d="M57.7,137.1 C70.7,134.6 90.9,128.2 106.2,111.8 C133.3,82.8 137.7,46.2 136.1,30 C134.7,16.7 124.3,8.8 113.1,12.8 C109.6,14.1 101.6,19.4 93.1,19.9 C79.5,20.7 54.7,14.7 30.9,29.9 C15.1,40 8.8,58.5 6.2,73.7" fill="#B9F082"></path>
                        <g opacity="0.55" transform="translate(2.000000, 12.000000)" fill="#FFFFFF">
                            <path d="M123.1,37.1 C123.5,33.9 123.7,30.7 123.4,27.8 C123.2,24.9 122.4,22.3 121.3,20.9 C120.8,20.2 120.2,19.8 119.7,19.6 C119.2,19.4 118.7,19.3 118,19.3 C117.3,19.3 116.5,19.3 115.5,19.5 C115,19.6 114.5,19.8 114,20 C113.7,20.1 113.5,20.1 113.2,20.1 L112.8,20.1 L112.5,20.1 C111.7,20.2 110.1,20.5 108.5,20.8 C106.9,21.1 105.1,21.5 103.2,21.8 C99.4,22.5 95.3,23 91,23 C89.9,23 88.8,23 87.7,22.9 L84.9,22.7 L79.6,22.3 C76.2,22 72.9,21.8 69.7,21.8 C63.3,21.8 57.2,22.8 51.3,24.7 C48.4,25.7 45.5,26.8 42.6,28.1 C41.2,28.8 39.8,29.5 38.4,30.2 C37,30.9 35.6,31.8 34.4,32.5 C29.4,35.5 25,39.8 21.1,44.7 C17.3,49.6 14,55.3 11.3,61.2 L11.3,61.3 C10,64.2 6.6,65.4 3.8,64.1 C1.2,62.9 -7.77045095e-13,60.1 0.7,57.4 C2.7,50.2 5.7,43.3 9.8,36.8 C13.9,30.3 19.3,24.4 26.1,19.8 C26.9,19.2 27.8,18.6 28.6,18.2 C29.4,17.7 30.2,17.2 31.1,16.8 C31.9,16.3 32.8,15.9 33.6,15.4 C34.4,15 35.3,14.5 36.2,14.1 C39.7,12.5 43.3,11.1 47,10 C54.4,7.8 62.3,7 69.8,7 C73.6,7 77.2,7.2 80.8,7.3 C82.6,7.4 84.3,7.5 85.9,7.5 C86.7,7.5 87.6,7.5 88.3,7.5 C88.9,7.5 89.6,7.4 90.3,7.3 C92.9,6.9 95.6,5.8 98.5,4.5 C100,3.9 101.5,3.2 103.2,2.5 C104.9,1.8 106.8,1.1 109.3,0.5 L111.1,0.1 L112,2.27373675e-13 C112.3,2.27373675e-13 112.6,2.27373675e-13 112.9,2.27373675e-13 C113.5,2.27373675e-13 114.1,0.1 114.7,0.1 C115.3,0.2 115.9,0.3 116.6,0.3 C119.1,0.6 121.7,1.2 124.3,2.4 C125.6,2.9 126.9,3.7 128.1,4.5 C129.3,5.4 130.5,6.3 131.5,7.4 C133.5,9.6 134.9,12.2 135.8,14.6 C137.5,19.6 137.3,24.2 136.8,28.2 C136.2,32.3 135.1,36 133.8,39.5 C132.8,42.3 129.7,43.8 126.9,42.7 C124.5,41.8 123.1,39.4 123.4,37 L123.1,37.1 Z"></path>
                        </g>
                        <path d="M56.6,131.5 C68.7,128.7 80.3,123.7 89.9,116.4 C92.3,114.6 94.5,112.6 96.7,110.6 C98.8,108.5 100.7,106.3 102.7,104 C106.6,99.3 110,94.2 113,88.9 C118.9,78.3 123,66.6 125.1,54.7 C126.1,48.7 126.7,42.7 126.5,36.9 C126.5,35.5 126.4,34 126.3,32.7 C126.3,32.4 126.2,32 126.2,31.7 C126.2,31.4 126.1,31 126.1,30.8 C126,30.3 125.9,29.8 125.8,29.3 C125.3,27.4 124.5,25.7 123.5,24.6 C122.5,23.5 121.5,22.9 120.5,22.6 C119.5,22.3 118.5,22.3 117.1,22.6 C116.9,22.6 116.7,22.7 116.6,22.7 C116.5,22.7 116.5,22.7 116.4,22.7 L116,22.8 L113.9,23.6 L111.4,24.5 C110.5,24.8 109.6,25.1 108.7,25.3 C105,26.3 101.1,27.2 96.8,27.5 C95.7,27.6 94.6,27.6 93.6,27.7 C92.6,27.7 91.6,27.7 90.7,27.7 C88.9,27.7 87.1,27.6 85.4,27.5 C82,27.3 78.8,27.1 75.6,27 C72.4,26.9 69.4,27 66.3,27.1 C63.3,27.3 60.3,27.7 57.4,28.2 C51.6,29.3 46.1,31 40.9,33.5 L39,34.5 L37.1,35.5 L35.2,36.6 C34.6,37 34.1,37.3 33.5,37.7 C31.3,39.2 29.2,41 27.3,43 C25.4,45 23.7,47.2 22.1,49.6 C20.5,52 19.1,54.6 17.9,57.3 C15.4,62.7 13.5,68.6 12,74.6 L12,74.7 C11.2,77.9 7.9,79.9 4.7,79.1 C1.7,78.4 -0.1,75.6 0.2,72.6 C0.9,65.7 2.3,58.8 4.8,52 C6,48.6 7.5,45.2 9.3,42 C11.1,38.8 13.2,35.6 15.7,32.7 C18.2,29.8 21,27.1 24.1,24.7 C24.9,24.1 25.7,23.6 26.5,23 L28.9,21.5 L31.3,20.1 L33.8,18.8 C37.1,17.2 40.6,15.8 44.1,14.7 C47.6,13.7 51.2,12.9 54.8,12.3 C62,11.2 69.1,11.1 76,11.3 C79.4,11.4 82.8,11.5 85.9,11.6 C87.5,11.6 89,11.6 90.5,11.6 C91.2,11.6 91.9,11.5 92.6,11.4 C93.2,11.3 93.7,11.2 94.3,11 C96.5,10.3 98.9,9 101.2,7.5 C102.4,6.7 103.6,5.9 105,5.1 C105.3,4.9 105.7,4.7 106.1,4.4 C106.5,4.2 106.9,3.9 107.4,3.7 L108.2,3.3 C108.4,3.2 108.8,3 109.1,2.9 C109.4,2.7 109.8,2.6 110,2.5 L110.9,2.2 C115.8,0.6 121.6,0.4 126.9,2.2 C132.2,3.9 136.7,7.5 139.7,11.6 C142.8,15.7 144.6,20.3 145.4,24.8 C145.6,25.9 145.8,27 145.9,28.2 C146,28.8 146,29.3 146,29.7 C146,30.2 146.1,30.7 146.1,31.2 C146.2,33.1 146.2,35 146.1,36.8 C145.9,44.2 144.9,51.2 143.3,58.2 C140.2,72.1 134.7,85.3 127.2,97.3 C123.4,103.3 119.1,108.9 114.4,114.1 C113.2,115.4 112,116.7 110.7,117.9 C109.4,119.2 108,120.4 106.7,121.6 C103.9,123.9 101,126.1 98,128 C85.9,135.8 72.4,140.4 58.7,142.5 C55.6,143 52.6,140.9 52.2,137.7 C51.8,135 53.7,132.2 56.6,131.5 Z" fill="#2B353F"></path>
                        <path d="M42.1,120.3 C42.6,120.4 43,120.4 43.5,120.3 C62,114.8 72.1,104.8 76.6,99.6 C91.1,82.7 96.8,57.6 92.8,55.3 C91.9,54.8 90.6,55.6 89.8,56 C76,63.7 56.5,56.8 42.7,61.5 C35.5,63.9 23.8,69.1 18.9,90.2 C18.7,90.9 18.6,91.6 18.9,92.3 C19.8,94.6 22.5,100.7 28.1,107.7 C34.7,115.9 39.2,119.6 42.1,120.3 Z" fill="#4F7F17" opacity="0.34"></path>
                    </g>
                    <g transform="translate(80.000000, 209.000000)" fill-rule="nonzero" id="Shape">
                        <path d="M15.6,6.3 L8.3,30" fill="#B9F082"></path>
                        <path d="M21.7,8.1 L15.9,32.3 C14.9,36.6 10.6,39.2 6.3,38.2 C2,37.2 -0.6,32.9 0.4,28.6 C0.5,28.3 0.6,27.9 0.7,27.6 L9.6,4.3 C10.8,1 14.5,-0.6 17.8,0.6 C20.8,1.9 22.4,5.1 21.7,8.1 Z" fill="#2B353F"></path>
                    </g>
                    <path d="M342.2,147.7 C342.2,147.7 347.3,146.6 349,146.4 C350.6,146.3 352.2,147.7 352.2,147.7 C352.2,147.7 346.2,151.6 345.5,151.6 C344.8,151.5 342.2,147.7 342.2,147.7 Z" id="Shape" fill="#B9F082" fill-rule="nonzero"></path>
                </g>
            </g>
        </g>
    </g>
</svg>