
<svg width="1600px" height="497px" viewBox="0 0 1600 497" version="1.1" xmlns="http://www.w3.org/2000/svg" xmlns:xlink="http://www.w3.org/1999/xlink">
    <!-- Generator: Sketch 48.2 (47327) - http://www.bohemiancoding.com/sketch -->
    <desc>Created with Sketch.</desc>
    <defs></defs>
    <g id="Page-1" stroke="none" stroke-width="1" fill="none" fill-rule="evenodd">
        <g id="Giggy-Bank-Logo-Identity_Vector" transform="translate(-4462.000000, -4477.000000)">
            <g id="design" transform="translate(210.000000, 0.000000)">
                <g id="Group" transform="translate(4252.000000, 4477.000000)">
                    <g transform="translate(522.000000, 207.000000)" fill="#FFFFFF" fill-rule="nonzero" id="Shape">
                        <path d="M113.6,39.6 C103.9,30.3 89.4,25.1 76.7,25.1 C45.6,25.1 26.8,48.7 26.8,78.5 C26.8,102.3 40.7,127 76.7,127 C88.1,127 98,124.5 109.4,115.4 L109.4,89.7 L72.3,89.7 L72.3,65.3 L134.4,65.3 L134.4,126.4 C120.1,142.8 102.1,152.5 76.6,152.5 C22.1,152.5 2.84217094e-14,116.7 2.84217094e-14,78.6 C2.84217094e-14,37.8 25.5,0.1 76.6,0.1 C96.1,0.1 115.5,7.6 130.5,22.3 L113.6,39.6 Z"></path>
                        <path d="M182.6,18.3 C182.6,38 152.8,38 152.8,18.3 C152.8,-1.4 182.6,-1.4 182.6,18.3 Z M155,46.6 L155,149.1 L180.3,149.1 L180.3,46.6 L155,46.6 Z"></path>
                        <path d="M283.2,36.7 L301.8,50.8 L290.4,65.3 C298.3,74.2 301.2,84.4 301.2,95.5 C301.2,108.1 296.4,125.9 279.7,133.6 C296.7,142.1 300.8,154.3 300.8,167.4 C300.8,195.6 279.3,213 249.6,213 C219.9,213 197.8,195 197.8,167.4 L223,167.4 C223,180.7 235.2,189.4 249.7,189.4 C264.2,189.4 275.6,181.5 275.6,167.4 C275.6,153.3 262.3,146.9 249.7,146.9 C217.8,146.9 197.9,127.4 197.9,95.5 C197.9,63.6 221.1,43.7 249.7,43.7 C257.8,43.7 266.1,44.7 273.1,49.5 L283.2,36.7 Z M223,95.5 C223,113.3 235,123.9 249.7,123.9 C264.2,123.9 276.2,113.1 276.2,95.5 C276.2,77.9 264.2,66.7 249.7,66.7 C235,66.7 223,77.7 223,95.5 Z"></path>
                        <path d="M397.6,36.7 L416.2,50.8 L404.8,65.3 C412.7,74.2 415.6,84.4 415.6,95.5 C415.6,108.1 410.8,125.9 394.1,133.6 C411.1,142.1 415.2,154.3 415.2,167.4 C415.2,195.6 393.7,213 364,213 C334.4,213 312.2,195 312.2,167.4 L337.3,167.4 C337.3,180.7 349.5,189.4 364,189.4 C378.5,189.4 389.9,181.5 389.9,167.4 C389.9,153.3 376.6,146.9 364,146.9 C332.1,146.9 312.2,127.4 312.2,95.5 C312.2,63.6 335.4,43.7 364,43.7 C372.1,43.7 380.4,44.7 387.4,49.5 L397.6,36.7 Z M337.3,95.5 C337.3,113.3 349.3,123.9 364,123.9 C378.5,123.9 390.5,113.1 390.5,95.5 C390.5,77.9 378.5,66.7 364,66.7 C349.3,66.7 337.3,77.7 337.3,95.5 Z"></path>
                        <polygon points="536.8 47.1 474.5 191.9 446.7 191.9 465.8 147.6 425 47.1 454.4 47.1 469.9 91.2 479.6 120 490.2 91.8 508.8 47.1 536.8 47.1"></polygon>
                        <path d="M711.6,46.2 C711.6,57.4 706.2,68.2 692.8,74.2 C709.8,79.4 716,97.4 716,106.5 C716,138.8 691.8,149.2 661.7,149.2 C638.7,149.2 615.9,149.2 592.9,149.2 L592.9,4.2 C615.7,4.2 638.7,4.2 661.7,4.2 C690.2,4.2 711.6,17 711.6,46.2 Z M619.8,62.4 L661.6,62.4 C678.8,62.4 684.4,55.2 684.4,46.9 C684.4,40.3 679,29.1 661.6,29.1 L619.8,29.1 L619.8,62.4 Z M619.8,123.7 L661.6,123.7 C672.8,123.7 688.7,120 688.7,106.3 C688.7,93.3 672.8,86.4 661.6,86.4 L619.8,86.4 L619.8,123.7 Z"></path>
                        <path d="M814.3,47.1 L838.5,47.1 L838.5,149.2 L814.7,149.2 L813.5,134.3 C807.7,146.3 791.8,152.1 780.4,152.3 C750.2,152.5 727.8,133.9 727.8,98 C727.8,62.8 751.2,44.4 781,44.6 C794.7,44.6 807.7,51 813.5,61.2 L814.3,47.1 Z M753,98 C753,117.5 766.5,129.1 783.2,129.1 C823,129.1 823,67.2 783.2,67.2 C766.5,67.1 753,78.5 753,98 Z"></path>
                        <path d="M935.1,149.2 L935.1,95.8 C935.1,80.3 926.6,68.5 910.5,68.5 C895,68.5 884.4,81.5 884.4,97.1 L884.4,149.3 L859.3,149.3 L859.3,47 L881.9,47 L883.6,60.9 C894,50.8 904.3,45.6 917.2,45.6 C941.2,45.6 960.5,63.6 960.5,95.7 L960.5,149.3 L935.1,149.3 L935.1,149.2 Z"></path>
                        <polygon points="1006.7 4.4 1006.7 88.1 1041.1 47.1 1071.3 47.1 1071.3 48.5 1029.7 95.1 1077.1 147.3 1077.1 149.2 1046.7 149.2 1006.7 103 1006.7 149.2 981.4 149.2 981.4 4.4"></polygon>
                    </g>
                    <path d="M315.6,423.2 L356.9,446 C361.2,448.4 366.5,448.2 370.6,445.4 C378.4,440.1 391.7,430.5 403.5,418.2 C414.5,406.8 422.4,395.4 426.2,389.5 C427.9,386.8 428.6,383.6 428.1,380.4 L421.2,336.2 C420,327.7 410.2,323.6 403.3,328.6 L324.1,409.6 C319.9,412.7 313.6,418.3 315.6,423.2 Z" id="Shape" fill="#2B353F" fill-rule="nonzero"></path>
                    <path d="M83.3,392.8 L78.7,430.9 C78.1,436.1 80.4,441.2 84.7,444.2 C91.4,448.9 102.8,456 118,463.1 C134.8,470.9 151,475.8 159.7,478.1 C163.7,479.2 168,478.4 171.5,476.1 L205.3,452.7 L201.4,425.2 L83.3,392.8 Z" id="Shape" fill="#2B353F" fill-rule="nonzero"></path>
                    <path d="M377.9,171.3 C379.2,161.7 382,152 387,143.4 C389.5,139.1 392.5,135 396,131.4 C399.6,127.8 403.6,124.6 408.1,122 C412.6,119.5 417.7,117.5 423.3,116.9 C424,116.9 424.7,116.8 425.4,116.8 L426.5,116.8 C426.9,116.8 427.2,116.8 427.5,116.8 L429.4,116.9 L431.3,117.1 C433.9,117.4 436.4,118 439,118.7 C444,120.3 448.9,122.9 453,126.4 C457.1,130 460.3,134.5 462.4,139.5 C464.5,144.5 465.4,150.1 464.7,155.6 C464.6,156.3 464.5,157 464.4,157.7 C464.3,158.4 464.1,159.1 463.9,159.7 C463.5,161 463.1,162.3 462.6,163.6 C461.5,166.2 460.1,168.7 458.1,170.9 C456.1,173.1 453.7,175.1 450.9,176.4 C448.2,177.7 445.1,178.5 442.1,178.6 C439.1,178.7 436.1,178.1 433.2,177.1 C431.8,176.6 430.4,175.9 429.1,175.1 C427.8,174.3 426.6,173.3 425.4,172.1 C424.3,170.9 423.4,169.6 422.6,168.2 C421.9,166.9 421.3,165.5 420.9,164 C420,161.1 419.8,158.1 420.1,155.3 C420.7,149.6 423.1,144.8 426.1,140.7 C429.1,136.6 432.8,133.2 436.9,130.2 C439,128.7 441.2,127.4 443.7,126.5 C444.3,126.3 444.9,126 445.6,125.9 C446.3,125.7 446.9,125.5 447.6,125.4 C448.9,125.1 450.3,124.9 451.6,124.8 C457,124.3 462.4,125.5 467.2,127.6 C471.9,129.8 476.1,132.9 479.6,136.5 C483.1,140.1 485.9,144.3 488.2,148.7 C489.3,150.9 490.3,153.2 491.1,155.5 C491.5,156.7 491.9,157.8 492.2,159 C492.5,160.1 492.8,161.5 493,162.7 C493.9,167.8 493.7,172.9 492.9,177.8 C492.1,182.7 490.6,187.3 488.7,191.7 C486.7,196.1 484.3,200.3 481.5,204.1 C478.6,207.9 475.3,211.5 471.2,214.6 C469.2,216.1 466.9,217.5 464.4,218.6 C463.1,219.1 461.8,219.6 460.3,220 C458.8,220.3 457.5,220.5 456.1,220.6 C453.3,220.8 450.3,220.5 447.4,219.5 C444.4,218.5 441.5,216.5 439.5,213.8 C437.5,211.1 436.3,207.8 436.2,204.4 C436.2,203.6 436.2,202.7 436.3,201.8 C436.4,201 436.6,200.3 436.7,199.6 C437.1,198.2 437.6,196.8 438.2,195.5 C440.7,190.4 444.6,186.5 448.8,183.6 C453.1,180.7 457.8,178.9 462.6,177.9 C465,177.4 467.4,177.1 469.8,177 C472.3,176.9 474.7,177.1 477.1,177.4 C479.5,177.8 481.8,178.3 484.1,179 C486.4,179.7 488.6,180.6 490.7,181.7 C494.9,183.8 498.8,186.5 502,190 C503,191.1 502.9,192.7 501.8,193.7 C500.9,194.5 499.7,194.6 498.7,194 L498.6,193.9 C495.2,191.9 491.4,190.5 487.6,189.5 C483.8,188.5 479.9,188 476.2,188 C474.3,188 472.5,188.1 470.7,188.5 C468.9,188.8 467,189.1 465.2,189.5 C461.6,190.4 458.2,191.7 455.4,193.6 C452.5,195.4 450.1,197.9 448.8,200.5 C447.5,203.4 447.6,205 448.7,206.6 C449.3,207.3 450,207.9 451.1,208.3 C452.2,208.7 453.6,208.8 455.1,208.7 C456.8,208.5 457.8,208.2 459.2,207.5 C460.6,206.8 462,205.9 463.3,204.7 C466,202.4 468.4,199.5 470.4,196.3 C472.4,193.1 474.1,189.7 475.4,186.1 C476.7,182.5 477.7,178.9 478.2,175.3 C478.7,171.7 478.7,168.1 478.3,164.7 C478.1,163.1 477.7,161.2 477.3,159.4 C476.8,157.6 476.3,155.9 475.6,154.2 C474.3,150.8 472.4,147.7 470,145 C465.3,139.7 458.6,136.5 452.3,136.9 C451.5,136.9 450.7,137 450,137.2 C449.2,137.3 448.5,137.6 447.7,137.8 C446.1,138.3 444.5,138.9 442.9,139.7 C441.3,140.5 439.8,141.5 438.5,142.7 C437.2,143.9 436.1,145.3 435.1,146.8 C433.2,149.7 432.2,153.1 432.2,156 C432.2,157.5 432.5,158.8 432.9,160 C433.1,160.6 433.4,161.2 433.7,161.8 C434,162.3 434.3,162.7 434.7,163.1 C435.4,163.9 436.4,164.7 437.5,165.2 C438.7,165.7 440,165.8 441.3,165.7 C443.9,165.5 446.1,164.3 447.7,162.2 C448.5,161.2 449.2,159.9 449.7,158.5 C449.9,157.8 450.2,157 450.3,156.3 C450.4,155.9 450.5,155.6 450.5,155.2 C450.6,154.8 450.6,154.5 450.6,154.1 C450.8,151.1 450.1,147.9 448.8,145.1 C447.4,142.3 445.4,139.7 442.9,137.8 C440.4,135.8 437.5,134.4 434.3,133.5 C432.7,133.1 431,132.8 429.3,132.7 L428,132.6 L426.7,132.6 C426.5,132.6 426.3,132.6 426.1,132.6 L425.6,132.6 C425.2,132.6 424.9,132.7 424.5,132.7 C421.6,133 418.4,134 415.5,135.7 C414,136.5 412.6,137.5 411.2,138.6 C409.9,139.7 408.6,141 407.5,142.3 C405.2,145 403.2,148 401.7,151.2 C398.6,157.7 397.1,165.1 397.1,172.5 C397.1,177.9 392.6,182.3 387.2,182.3 C381.8,182.3 377.4,177.8 377.4,172.4 C377.4,172 377.4,171.6 377.5,171.2 L377.9,171.3 Z" id="Shape" fill="#2B353F" fill-rule="nonzero"></path>
                    <path d="M39.5,305 C38,289.3 34.2,229.4 75.4,175.9 C128.5,106.8 213.5,104.8 236.3,105.3 C302.7,106.7 407.6,141.6 428.5,235.3 C444.6,307.3 403.7,392.2 328.4,432.5 L330.4,466.2 C330.4,466.2 310.2,476.1 280.2,481.7 C250.1,487.4 218.2,486.7 218.2,486.7 L194.7,444.4 C152.2,433.6 137.2,429.4 94.7,418.6" id="Shape" stroke="#2B353F" stroke-width="19.7218" fill="#B9F082" fill-rule="nonzero" stroke-linejoin="round"></path>
                    <path d="M152.6,149.5 C164,152.5 176.8,156.8 186.7,160.7 C196,153.9 208.1,146.3 221.3,139.9 C252.3,125 281.2,120.5 301.4,119.1 C296.3,117 291.2,114.9 286.1,112.8 C272.9,113.3 258.3,114.7 242.6,117.4 C207.6,123.6 174.6,138.9 152.6,149.5 Z" id="Shape" fill="#2B353F" fill-rule="nonzero"></path>
                    <path d="M261.1,320.8 C278,315 289.5,336.4 301.4,344.6 C315.2,354.1 334.3,353.7 349.5,346.5 C364.7,339.3 376.5,326.3 385.5,312.2 C407.9,277.4 415.8,233.6 407.2,193.2 C429.5,221.6 440.3,258.8 436.7,294.7 C430.7,355.2 384.8,403.3 329.9,425.1 C331,431.3 341.8,443.5 328.1,462.2 C308.6,489 264.8,483.6 255.4,483.4 C246.6,483.3 219,490.3 210.5,472.7 C203.9,459.1 209.9,448.7 202.5,441.4 C195,434.1 186.8,442.6 165.6,438.2 C153.7,435.7 134.8,427.8 133.8,416.3 C132.9,406.1 132,396 152.4,390.7 C154.5,392.7 152.9,376.4 160.6,377.9 C160.6,377.9 168.5,395.7 185.5,387.8 C200.1,381 213.9,360.1 210.8,333.2 C211.9,342.7 258.3,321.8 259.8,321.2 C260.3,321.1 260.7,320.9 261.1,320.8 Z" id="Shape" fill="#4F7F17" fill-rule="nonzero" opacity="0.34"></path>
                    <path d="M39.4,307 C37.9,291.1 34,230.4 75.2,176.1 C128.3,106.1 213.6,104.2 236.3,104.7 C302.9,106.2 408.2,141.7 429.1,236.7 C444.3,305.8 406.6,388.9 328.4,432.5 L330.4,466.2 C330.4,466.2 308.8,476.9 278.6,482.2 C248.4,487.5 218.2,486.7 218.2,486.7 L194.7,444.4 C152.1,433.4 133.2,423.7 90.6,412.8" id="Shape" stroke="#2B353F" stroke-width="19.7155" stroke-linejoin="round"></path>
                    <g transform="translate(0.000000, 97.000000)" fill-rule="nonzero" id="Shape">
                        <path d="M91.4,114.9 C79.6,114.1 61.1,110.6 45.8,97.8 C18.7,75.1 10.8,43.2 10.5,28.7 C10.3,16.8 18.6,8.7 29,11 C32.3,11.7 39.9,15.6 47.5,15.1 C59.6,14.4 80.9,6.3 103.6,17.2 C118.7,24.5 126.2,40.1 130.2,53.2" fill="#B9F082"></path>
                        <g opacity="0.55" transform="translate(2.000000, 8.000000)" fill="#FFFFFF">
                            <path d="M0.7,27.7 C0.4,23.4 0.9,18.5 3.1,13.9 C4.2,11.6 5.7,9.4 7.7,7.4 C9.6,5.5 12,3.9 14.6,2.8 C17.2,1.7 19.9,1.1 22.5,0.9 C23.8,0.8 25.1,0.8 26.4,0.9 C27.7,1 28.9,1.1 30.4,1.5 C32.7,2.2 34.1,2.7 35.6,3.1 C37,3.5 38.3,3.9 39.6,4.2 C40.8,4.5 42,4.7 43,4.8 C44.1,4.9 44.7,4.9 46.2,4.8 C48.9,4.6 52.1,4 55.5,3.5 C62.3,2.4 69.7,1.7 77.3,2.2 C84.9,2.6 92.6,4.4 99.6,7.4 C101.4,8.2 103,9 104.8,9.9 C106.6,10.9 108.3,11.9 109.9,13.2 C113.2,15.6 116.1,18.5 118.5,21.7 C123.3,28.1 126.2,35.4 127.8,42.5 C129.4,49.7 129.8,56.9 129.7,63.9 C129.6,67 127,69.5 123.9,69.4 C120.9,69.3 118.5,67 118.4,64 L118.4,63.9 C118.1,57.6 117.3,51.3 115.6,45.5 C113.9,39.7 111.2,34.5 107.6,30.4 C105.8,28.4 103.8,26.6 101.5,25.3 C100.4,24.6 99.2,24 98,23.5 C96.8,23 95.3,22.4 94,22 C88.5,20.2 82.8,19.5 77,19.7 C71.2,19.9 65.3,21.1 58.9,22.4 C55.7,23.1 52.4,23.8 48.4,24.4 C47.9,24.5 47.4,24.5 46.8,24.6 L46,24.7 L45.1,24.7 C43.9,24.8 42.7,24.7 41.5,24.7 C39.2,24.5 37,24.2 35,23.7 C33,23.2 31.1,22.6 29.3,22 L25,20.4 C24.9,20.4 24.4,20.1 24.1,20 C23.7,19.9 23.4,19.8 23,19.7 C22.3,19.6 21.7,19.6 21.1,19.7 C20,19.9 18.9,20.5 18,21.8 C17.1,23.1 16.4,25.1 16.2,27.4 L16.2,27.8 C15.9,32.1 12.2,35.3 7.9,34.9 C4,34.6 1,31.5 0.7,27.7 Z"></path>
                        </g>
                        <path d="M90.9,123.1 C84.3,122.8 77.7,121.8 71.2,120.1 C64.7,118.4 58.3,116.1 52.3,112.8 C49.3,111.2 46.4,109.4 43.5,107.4 C42.1,106.4 40.7,105.3 39.4,104.2 C38.1,103.1 36.9,102.1 35.6,100.9 C33.1,98.7 30.8,96.3 28.6,93.8 C26.4,91.3 24.2,88.8 22.2,86.1 C14.2,75.5 8.2,63.5 4.3,50.7 C3.3,47.5 2.5,44.3 1.8,40.9 C1.1,37.6 0.6,34.2 0.4,30.6 C0.3,28.9 0.2,26.6 0.5,24.5 C0.7,22.3 1.1,20.1 1.9,17.9 C3.3,13.5 5.9,9.1 10,5.7 C14,2.3 19.3,0.2 24.5,0.1 C25.8,5.37903055e-14 27.1,0.1 28.3,0.2 C28.9,0.3 29.5,0.3 30.1,0.5 L31,0.7 C31.3,0.8 31.7,0.9 32,0.9 C33.3,1.2 34.1,1.5 34.9,1.8 L37,2.5 C39.6,3.3 41.9,4 43.8,4.2 C44.8,4.3 45.7,4.4 46.4,4.4 C47.3,4.4 48.6,4.2 49.9,4.1 C52.6,3.8 55.6,3.3 58.7,2.9 C61.8,2.5 65.1,2.2 68.4,2 C75.1,1.6 82.1,1.9 88.9,3.4 C92.3,4.1 95.7,5.1 99,6.3 C100.6,6.9 102.3,7.6 103.8,8.3 C105.4,9 106.9,9.8 108.5,10.7 C114.7,14.2 120.2,19.1 124.4,24.8 C128.6,30.5 131.6,37 133.3,43.6 C135,50.2 135.7,56.9 135.5,63.5 C135.4,66.8 132.7,69.4 129.3,69.4 C126.1,69.3 123.6,66.8 123.5,63.7 L123.5,63.6 C123.2,58 122.3,52.5 120.6,47.5 C118.8,42.5 116.2,37.9 112.9,34 C109.6,30.2 105.5,27.1 101,25 C99.9,24.5 98.7,24 97.4,23.5 C96.2,23.1 94.9,22.7 93.7,22.3 C91.2,21.6 88.7,21.1 86.1,20.9 C80.9,20.4 75.7,20.7 70.3,21.5 C67.6,21.9 64.8,22.4 62,23 C59.1,23.6 56.2,24.2 52.8,24.8 C51.1,25.1 49.4,25.3 47.3,25.4 C45,25.5 42.8,25.4 40.8,25.1 C36.7,24.6 33.1,23.4 30,22.3 L26.4,21 C26.4,21 26.4,21 26.3,21 L26.1,21 C26,21 25.8,21 25.7,20.9 C25.4,20.9 25.2,20.8 25,20.8 C24.1,20.8 23.5,21 22.8,21.5 C22.1,22 21.4,23 20.9,24.3 C20.6,25 20.5,25.8 20.4,26.6 C20.3,27.5 20.3,28.2 20.3,29.6 C20.4,32.1 20.7,34.7 21.2,37.4 C21.7,40 22.3,42.7 23,45.4 C25.9,56 30.8,66.2 37.2,75.1 C38.8,77.3 40.5,79.5 42.3,81.6 C44.1,83.7 46,85.7 48,87.6 C49,88.6 50,89.5 51,90.4 C52,91.3 53,92.1 54,92.9 C56.1,94.5 58.3,96 60.6,97.3 C69.8,102.6 80.7,105.6 91.7,106.6 C96.2,107 99.6,111 99.2,115.5 C99.1,120 95.3,123.3 90.9,123.1 Z" fill="#2B353F"></path>
                        <path d="M105.8,100.2 C105.4,100.3 105,100.4 104.6,100.3 C87.6,97.5 77.6,89.7 73,85.6 C58.3,72.2 50.6,50.6 53.9,48.2 C54.7,47.6 55.9,48.2 56.6,48.5 C69.6,53.8 86.1,45.6 98.8,48.2 C105.4,49.6 116.3,52.8 122.9,71 C123.1,71.6 123.3,72.2 123.1,72.8 C122.5,75 120.8,80.6 116.7,87.4 C111.8,95.5 108.3,99.2 105.8,100.2 Z" fill="#4F7F17" opacity="0.34"></path>
                    </g>
                    <ellipse id="Oval" stroke="#2B353F" stroke-width="15.6449" fill="#B9F082" fill-rule="nonzero" stroke-linejoin="round" cx="99.1" cy="340.1" rx="68.3" ry="75.3"></ellipse>
                    <path d="M56.2,391.5 C58.4,392.8 91.9,411.6 122.5,391.5 C147.1,375.3 159.4,341 152.1,306.6 C152.1,306.6 177.3,361.6 152.5,390.8 C133,413.8 115,420.4 100,419.4 C75.3,417.7 54.4,397.3 56.2,391.5 Z" id="Shape" fill="#4F7F17" fill-rule="nonzero" opacity="0.34"></path>
                    <path d="M62.5,404.1 C47.3,390.3 37.5,369.3 37.5,345.3 C37.5,303.8 67,270.1 103.3,270.1 C128.8,270.1 151,286.7 161.9,311.1" id="Shape" stroke="#FFFFFF" stroke-width="14.4624" opacity="0.55" stroke-linejoin="round"></path>
                    <ellipse id="Oval" stroke="#2B353F" stroke-width="15.6449" stroke-linejoin="round" cx="99.1" cy="340.1" rx="68.3" ry="75.3"></ellipse>
                    <path d="M188.5,258.2 C185.4,258.8 182.1,258.8 178.9,258.1 C175.5,257.4 172.7,256 170.1,254.4 C167.5,252.7 165.3,250.7 163.3,248.4 C161.4,246.1 159.8,243.4 158.7,240.9 L157.3,237.9 L157.2,237.8 C157.2,237.8 157.2,237.8 157.3,237.8 C157.3,237.8 157.4,238 157.6,238 C157.7,238.1 157.8,238.2 157.9,238.2 C158,238.3 158.2,238.4 158.3,238.5 C158.6,238.7 159.1,238.8 159.6,238.9 C160.1,239 160.5,238.9 160.8,238.9 C161,238.9 161.2,238.8 161.3,238.8 L161.7,238.6 C161.9,238.5 162.1,238.4 162.3,238.3 C162.5,238.2 162.6,238 162.6,238 C162.6,237.9 162.6,238 162.5,238.1 C162.4,238.2 162.4,238.3 162.3,238.5 L162,239 C161.6,239.8 161.3,240.7 161,241.7 C160.7,242.7 160.5,243.7 160.3,244.7 C160.1,245.7 160,246.7 159.9,247.6 C159.7,249.6 159.7,251.6 159.9,253.8 L159.9,254 C160,256.1 158.4,258 156.3,258.1 C154.7,258.2 153.3,257.3 152.6,256 C151.3,253.5 150.5,250.6 150.3,247.7 C150.2,246.2 150.2,244.7 150.3,243.3 C150.4,241.9 150.7,240.5 151,239.1 C151.3,237.7 151.7,236.3 152.3,234.8 C152.5,234.4 152.6,234 152.8,233.6 C153,233.2 153.2,232.8 153.5,232.4 C153.8,232 154,231.5 154.5,231 C154.7,230.7 154.9,230.5 155.2,230.2 C155.5,229.9 155.8,229.7 156.1,229.4 C156.5,229.1 157,228.8 157.5,228.6 C157.6,228.5 157.7,228.5 157.9,228.4 L158.4,228.3 C158.7,228.2 159,228.1 159.4,228.1 C160,228 160.8,228 161.5,228.1 C162.3,228.2 163,228.5 163.6,228.8 C163.9,229 164.2,229.1 164.4,229.3 C164.6,229.5 164.8,229.6 165.1,229.8 C165.4,230.1 165.8,230.5 166,230.7 C166.3,231 166.4,231.2 166.6,231.5 C166.7,231.7 166.9,232 167,232.1 C167.9,233.7 168.4,234.6 169,235.6 C170.1,237.5 171.2,239 172.4,240.4 C173.7,241.8 175.2,243 176.7,243.9 C178.2,244.8 179.9,245.5 181.4,245.8 C183,246.1 184.7,246.2 186.4,246 L186.5,246 C189.9,245.6 192.9,247.9 193.4,251.3 C193.9,254.6 191.7,257.6 188.5,258.2 Z" id="Shape" fill="#2B353F" fill-rule="nonzero"></path>
                    <ellipse id="Oval" fill="#2B353F" fill-rule="nonzero" cx="71" cy="336" rx="14.5" ry="20.8"></ellipse>
                    <ellipse id="Oval" fill="#2B353F" fill-rule="nonzero" cx="118" cy="345" rx="15.9" ry="22.8"></ellipse>
                    <path d="M178.6,383.8 C186.7,377.3 193.1,368.8 196.7,359.4 C197.6,357 198.3,354.6 198.9,352.2 C199.5,349.7 199.9,347.3 200.2,344.8 C200.7,339.8 200.6,334.8 199.8,329.9 C199.1,325.4 202.2,321.2 206.7,320.4 C208.6,320.1 210.5,320.5 212,321.4 L212.9,321.9 C215.6,324.1 218.9,325.7 222.3,326.6 C224.1,327 225.9,327.1 227.7,327.1 C229.5,327.1 231.4,326.8 233.1,326.4 L233.2,326.4 C236.9,325.5 240.6,327.8 241.5,331.5 C242.3,335 240.3,338.5 237,339.6 C234.3,340.5 231.5,341.1 228.7,341.4 C225.9,341.7 223,341.7 220.1,341.4 C214.3,340.9 208.7,339.1 203.5,336.1 L216.6,328.1 C217.1,334.5 216.6,340.9 215.5,347.2 C214.9,350.3 214.1,353.4 213.1,356.4 C212.1,359.4 210.9,362.3 209.5,365.2 C206.7,370.9 203.2,376.2 199.1,380.9 C195,385.6 190.3,389.7 185.2,393.2 C182.6,395 179,394.3 177.3,391.7 C175.7,389 176.2,385.7 178.6,383.8 Z" id="Shape" fill="#2B353F" fill-rule="nonzero"></path>
                    <g transform="translate(142.000000, 0.000000)" fill-rule="nonzero" id="Shape">
                        <path d="M116,83.3 C115.7,82.9 115.5,82.5 115.4,82 C114.4,77.5 113.9,72.7 113.9,68 C113.9,65.6 113.9,62.8 114.5,60.3 C114.3,59.1 114.1,58 113.9,56.8 C113.1,52.8 111.8,48.9 111.1,44.9 C110.8,43 110.6,41 110.4,39.1 C109,39.1 107.8,38.4 107.5,36.6 C105.3,23.7 96.2,10.3 83.4,6 C82,5.5 83.2,4.7 83,3.6 C79.7,2.3 74.9,0.8 69,0.3 C55.8,-0.8 45.8,3.7 41.3,5.8 C39.2,6.8 29.3,11.6 20,22.5 C5,40 2.6,60.2 1.4,70 C-1.7,97.1 3.4,142 31,154.8 C36.5,157.4 41.7,158.1 45.4,158.3 C40.7,154.3 37.5,151.5 37.7,151.3 C37.8,151.1 39.8,152.7 40.1,152.4 C40.5,152.1 29.1,138.7 28.6,139.1 C28.5,139.2 29.2,140.3 29.8,141.1 C34.9,139.4 40.2,138.2 45.5,137.1 C44.8,136.5 44.2,135.9 43.5,135.2 C38.7,130.3 43.6,122.4 40.8,115.5 C38,108.6 33.7,103 32.7,95.4 C31.7,87.8 37.6,80.6 38.3,72.8 C39,65 49.9,62.4 52.2,55.1 C54.5,47.7 42.3,37.4 46.3,31.1 C50.2,24.8 55.9,26.1 61.5,22.1 C67.1,18.1 67.6,9.9 74.1,10 C80.5,10.2 85.6,9.1 91.1,13.8 C96.6,18.5 101.1,24.8 104.4,32 C107.7,39.1 110,46.9 111.2,55 C112.5,63 112.6,71.3 111.9,79.5 C111.1,87.7 109.5,95.8 106.9,103.4 C104.3,111.1 100.6,118.4 96.1,124.8 C95.3,126 94.4,127.1 93.5,128.2 C97.8,127.4 102.1,126.7 106.5,126.1 C106.5,125.7 106.6,125.2 106.8,124.7 C110.6,115.5 113.1,106 116.1,96.5 C116,96.2 115.9,96 115.9,95.7 C115.5,90.8 115.7,86.9 116,83.3 Z" fill="#2B353F"></path>
                        <path d="M46.5,151.8 C46.5,151.8 57.9,143 80.5,133.2 C95.2,126.8 109.6,122.2 109.6,122.2 C111.2,117.9 112.2,114.8 114.2,107 C114.2,107 118,93.8 119,82.4 C122.7,41.1 104.7,6.2 79.5,2.5 C49.5,-1.9 26.2,36.9 22.7,74.5 C19.5,110.3 28.4,138.6 46.5,151.8 Z" fill="#F7DC6B"></path>
                        <path d="M27.8,74 C30.9,39.7 50.8,4.5 77.3,2.4 C48.4,0.2 26.1,38 22.8,74.7 C19.5,110.4 28.4,138.7 46.5,151.9 C46.5,151.9 47.7,151 50.1,149.4 C33,135.8 24.6,108.3 27.8,74 Z" fill="#FFFFFF" opacity="0.75"></path>
                        <path d="M95.2,9.5 C99.8,24.1 109.5,62.7 92.6,103.9 C86.9,117.7 79.6,128.6 72.8,136.8 C75.2,135.7 77.7,134.5 80.4,133.3 C95.1,126.9 109.5,122.3 109.5,122.3 C111.1,118 112.1,114.9 114.1,107.1 C114.1,107.1 117.9,93.9 118.9,82.5 C121.9,50.5 111.7,22.3 95.2,9.5 Z" fill="#EFA726" opacity="0.5"></path>
                    </g>
                    <path d="M254.5,388.9 C254.5,388.9 254.5,388.8 254.5,388.8 C254.5,388.8 254.5,388.8 254.5,388.9 Z" id="Shape" fill="#FFFFFF" fill-rule="nonzero"></path>
                    <path d="M60.3,223.2 C60.3,223.2 82.6,158.5 141.6,135.6 L143.1,165.4 L136.8,221.9 L87.9,239 L60.3,223.2 Z" id="Shape" fill="#B9F082" fill-rule="nonzero"></path>
                    <path d="M193.4,163.2 C211.2,171.7 236.2,186.1 260.9,209.9 C281.7,229.9 295.6,250.1 304.6,265.7 L271.9,281.4 L206.4,209.6 C183.1,187.6 159.7,165.5 136.4,143.5 C155.4,150 174.4,156.6 193.4,163.2 Z" id="Shape" fill="#B9F082" fill-rule="nonzero"></path>
                    <path d="M311.5,139.4 C311.5,139.4 329.8,138.8 340.1,141.8 C346.2,143.6 345.1,145.5 342.3,153.9 L339.8,165 L311.5,139.4 Z" id="Shape" fill="#B9F082" fill-rule="nonzero"></path>
                    <g transform="translate(230.000000, 115.000000)" fill-rule="nonzero" id="Shape">
                        <path d="M58.3,137.1 C71.3,134.6 91.5,128.2 106.8,111.8 C133.9,82.8 138.3,46.2 136.7,30 C135.3,16.7 124.9,8.8 113.7,12.8 C110.2,14.1 102.2,19.4 93.7,19.9 C80.1,20.7 55.3,14.7 31.5,29.9 C15.7,40 9.4,58.5 6.8,73.7" fill="#B9F082"></path>
                        <g opacity="0.55" transform="translate(3.000000, 12.000000)" fill="#FFFFFF">
                            <path d="M122.7,37.1 C123.1,33.9 123.3,30.7 123,27.8 C122.8,24.9 122,22.3 120.9,20.9 C120.4,20.2 119.8,19.8 119.3,19.6 C118.8,19.4 118.3,19.3 117.6,19.3 C116.9,19.3 116.1,19.3 115.1,19.5 C114.6,19.6 114.1,19.8 113.6,20 C113.3,20.1 113.1,20.1 112.8,20.1 L112.4,20.1 L112.1,20.1 C111.3,20.2 109.7,20.5 108.1,20.8 C106.5,21.1 104.7,21.5 102.8,21.8 C99,22.5 94.9,23 90.6,23 C89.5,23 88.4,23 87.3,22.9 L84.5,22.7 L79.2,22.3 C75.8,22 72.5,21.8 69.3,21.8 C62.9,21.8 56.8,22.8 50.9,24.7 C48,25.7 45.1,26.8 42.2,28.1 C40.8,28.8 39.4,29.5 38,30.2 C36.6,30.9 35.2,31.8 34,32.5 C29,35.5 24.6,39.8 20.7,44.7 C16.9,49.6 13.6,55.3 10.9,61.2 L10.9,61.3 C9.6,64.2 6.2,65.4 3.4,64.1 C0.8,62.9 -0.4,60.1 0.3,57.4 C2.3,50.2 5.3,43.3 9.4,36.8 C13.5,30.3 18.9,24.4 25.7,19.8 C26.5,19.2 27.4,18.6 28.2,18.2 C29,17.7 29.8,17.2 30.7,16.8 C31.5,16.3 32.4,15.9 33.2,15.4 C34,15 34.9,14.5 35.8,14.1 C39.3,12.5 42.9,11.1 46.6,10 C54,7.8 61.9,7 69.4,7 C73.2,7 76.8,7.2 80.4,7.3 C82.2,7.4 83.9,7.5 85.5,7.5 C86.3,7.5 87.2,7.5 87.9,7.5 C88.5,7.5 89.2,7.4 89.9,7.3 C92.5,6.9 95.2,5.8 98.1,4.5 C99.6,3.9 101.1,3.2 102.8,2.5 C104.5,1.8 106.4,1.1 108.9,0.5 L110.7,0.1 L111.6,2.27373675e-13 C111.9,2.27373675e-13 112.2,2.27373675e-13 112.5,2.27373675e-13 C113.1,2.27373675e-13 113.7,0.1 114.3,0.1 C114.9,0.2 115.5,0.3 116.2,0.3 C118.7,0.6 121.3,1.2 123.9,2.4 C125.2,2.9 126.5,3.7 127.7,4.5 C128.9,5.4 130.1,6.3 131.1,7.4 C133.1,9.6 134.5,12.2 135.4,14.6 C137.1,19.6 136.9,24.2 136.4,28.2 C135.8,32.3 134.7,36 133.4,39.5 C132.4,42.3 129.3,43.8 126.5,42.7 C124.1,41.8 122.7,39.4 123,37 L122.7,37.1 Z"></path>
                        </g>
                        <path d="M57.2,131.5 C69.3,128.7 80.9,123.7 90.5,116.4 C92.9,114.6 95.1,112.6 97.3,110.6 C99.4,108.5 101.3,106.3 103.3,104 C107.2,99.3 110.6,94.2 113.6,88.9 C119.5,78.3 123.6,66.6 125.7,54.7 C126.7,48.7 127.3,42.7 127.1,36.9 C127.1,35.5 127,34 126.9,32.7 C126.9,32.4 126.8,32 126.8,31.7 C126.8,31.4 126.7,31 126.7,30.8 C126.6,30.3 126.5,29.8 126.4,29.3 C125.9,27.4 125.1,25.7 124.1,24.6 C123.1,23.5 122.1,22.9 121.1,22.6 C120.1,22.3 119.1,22.3 117.7,22.6 C117.5,22.6 117.3,22.7 117.2,22.7 C117.1,22.7 117.1,22.7 117,22.7 L116.6,22.8 L114.5,23.6 L112,24.5 C111.1,24.8 110.2,25.1 109.3,25.3 C105.6,26.3 101.7,27.2 97.4,27.5 C96.3,27.6 95.2,27.6 94.2,27.7 C93.2,27.7 92.2,27.7 91.3,27.7 C89.5,27.7 87.7,27.6 86,27.5 C82.6,27.3 79.4,27.1 76.2,27 C73,26.9 70,27 66.9,27.1 C63.9,27.3 60.9,27.7 58,28.2 C52.2,29.3 46.7,31 41.5,33.5 L39.6,34.5 L37.7,35.5 L35.8,36.6 C35.2,37 34.7,37.3 34.1,37.7 C31.9,39.2 29.8,41 27.9,43 C26,45 24.3,47.2 22.7,49.6 C21.1,52 19.7,54.6 18.5,57.3 C16,62.7 14.1,68.6 12.6,74.6 L12.6,74.7 C11.8,77.9 8.5,79.9 5.3,79.1 C2.3,78.4 0.5,75.6 0.8,72.6 C1.5,65.7 2.9,58.8 5.4,52 C6.6,48.6 8.1,45.2 9.9,42 C11.7,38.8 13.8,35.6 16.3,32.7 C18.8,29.8 21.6,27.1 24.7,24.7 C25.5,24.1 26.3,23.6 27.1,23 L29.5,21.5 L31.9,20.1 L34.4,18.8 C37.7,17.2 41.2,15.8 44.7,14.7 C48.2,13.7 51.8,12.9 55.4,12.3 C62.6,11.2 69.7,11.1 76.6,11.3 C80,11.4 83.4,11.5 86.5,11.6 C88.1,11.6 89.6,11.6 91.1,11.6 C91.8,11.6 92.5,11.5 93.2,11.4 C93.8,11.3 94.3,11.2 94.9,11 C97.1,10.3 99.5,9 101.8,7.5 C103,6.7 104.2,5.9 105.6,5.1 C105.9,4.9 106.3,4.7 106.7,4.4 C107.1,4.2 107.5,3.9 108,3.7 L108.8,3.3 C109,3.2 109.4,3 109.7,2.9 C110,2.7 110.4,2.6 110.6,2.5 L111.5,2.2 C116.4,0.6 122.2,0.4 127.5,2.2 C132.8,3.9 137.3,7.5 140.3,11.6 C143.4,15.7 145.2,20.3 146,24.8 C146.2,25.9 146.4,27 146.5,28.2 C146.6,28.8 146.6,29.3 146.6,29.7 C146.6,30.2 146.7,30.7 146.7,31.2 C146.8,33.1 146.8,35 146.7,36.8 C146.5,44.2 145.5,51.2 143.9,58.2 C140.8,72.1 135.3,85.3 127.8,97.3 C124,103.3 119.7,108.9 115,114.1 C113.8,115.4 112.6,116.7 111.3,117.9 C110,119.2 108.6,120.4 107.3,121.6 C104.5,123.9 101.6,126.1 98.6,128 C86.6,136 73,140.6 59.4,142.7 C56.3,143.2 53.3,141.1 52.9,137.9 C52.3,135 54.3,132.2 57.2,131.5 Z" fill="#2B353F"></path>
                        <path d="M42.7,120.3 C43.2,120.4 43.6,120.4 44.1,120.3 C62.6,114.8 72.7,104.8 77.2,99.6 C91.7,82.7 97.4,57.6 93.4,55.3 C92.5,54.8 91.2,55.6 90.4,56 C76.6,63.7 57.1,56.8 43.3,61.5 C36.1,63.9 24.4,69.1 19.5,90.2 C19.3,90.9 19.2,91.6 19.5,92.3 C20.4,94.6 23.1,100.7 28.7,107.7 C35.3,115.9 39.8,119.6 42.7,120.3 Z" fill="#4F7F17" opacity="0.34"></path>
                    </g>
                    <g transform="translate(79.000000, 209.000000)" fill-rule="nonzero" id="Shape">
                        <path d="M16.2,6.3 L8.9,30" fill="#B9F082"></path>
                        <path d="M22.2,8.1 L16.4,32.3 C15.4,36.6 11.1,39.2 6.8,38.2 C2.5,37.2 -0.1,32.9 0.9,28.6 C1,28.3 1.1,27.9 1.2,27.6 L10.1,4.3 C11.3,1 15,-0.6 18.3,0.6 C21.3,1.9 23,5.1 22.2,8.1 Z" fill="#2B353F"></path>
                    </g>
                    <path d="M341.7,147.7 C341.7,147.7 346.8,146.6 348.5,146.4 C350.2,146.2 351.7,147.7 351.7,147.7 C351.7,147.7 345.7,151.6 345,151.6 C344.4,151.5 341.7,147.7 341.7,147.7 Z" id="Shape" fill="#B9F082" fill-rule="nonzero"></path>
                </g>
            </g>
        </g>
    </g>
</svg>
